<svg width="210" height="28" viewBox="0 0 210 28" fill="none" xmlns="http://www.w3.org/2000/svg">
<g id="tf-wordmark-primary-blue" clip-path="url(#clip0_8421_35705)">
<g id="Logo">
<path id="Vector" fill-rule="evenodd" clip-rule="evenodd" d="M17.299 12.3496H0.242188V18.6313C0.242188 23.354 4.04786 27.1597 8.77057 27.1597C13.4933 27.1597 17.299 23.354 17.299 18.6313V12.3496ZM5.60682 16.4304H11.9343V18.2645H9.6876V22.2535H7.85354V18.2645H5.60682V16.4304Z" fill="url(#paint0_linear_8421_35705)"/>
<path id="Vector_2" fill-rule="evenodd" clip-rule="evenodd" d="M2.39844 7.30589C2.39844 3.72947 5.28708 0.84082 8.8635 0.84082C12.4399 0.84082 15.3286 3.72947 15.3286 7.30589V10.7448H11.8897V7.30589C11.8897 5.65523 10.56 4.27968 8.8635 4.27968C7.167 4.27968 5.8373 5.60938 5.8373 7.30589V10.7448H2.39844V7.30589Z" fill="url(#paint1_linear_8421_35705)"/>
</g>
<path id="Vector_3" d="M36.5522 5.51702V26.3795H32.9758V5.51702H36.5522ZM43.0631 5.51702V8.35981H26.4648V5.51702H43.0631ZM50.9496 26.6546C49.8033 26.6546 48.7487 26.4712 47.8317 26.1044C46.9146 25.7375 46.1351 25.1873 45.4932 24.4995C44.8513 23.8118 44.3469 23.0323 44.026 22.1153C43.705 21.1982 43.5216 20.1895 43.5216 19.1349V18.5847C43.5216 17.3926 43.705 16.2921 44.0718 15.2834C44.4386 14.3205 44.8972 13.4493 45.5391 12.7616C46.181 12.0738 46.9146 11.5236 47.7858 11.1568C48.657 10.7899 49.574 10.6065 50.5827 10.6065C51.6832 10.6065 52.6461 10.7899 53.4714 11.1568C54.2967 11.5236 54.9845 12.0738 55.5347 12.7157C56.0849 13.4035 56.4976 14.183 56.7727 15.1C57.0478 16.017 57.1854 17.0257 57.1854 18.172V19.6393H45.1723V17.1633H53.7465V16.8882C53.7465 16.2463 53.609 15.6961 53.3797 15.1458C53.1504 14.5956 52.8295 14.183 52.371 13.8161C51.9124 13.4952 51.3164 13.3118 50.5369 13.3118C49.9867 13.3118 49.4365 13.4493 49.0238 13.6786C48.5653 13.9078 48.1985 14.2747 47.9234 14.7332C47.6483 15.1917 47.419 15.7419 47.2356 16.3838C47.098 17.0258 47.0063 17.7594 47.0063 18.5389V19.0891C47.0063 19.7768 47.098 20.4188 47.2814 20.969C47.4648 21.5192 47.74 22.0236 48.1068 22.4821C48.4736 22.8947 48.9321 23.2616 49.4365 23.4908C49.9408 23.7201 50.5369 23.8576 51.1788 23.8576C52.0041 23.8576 52.7378 23.6742 53.3797 23.3533C54.0216 23.0323 54.5718 22.5279 55.0762 21.9319L56.9103 23.6742C56.5893 24.1786 56.1308 24.6371 55.6264 25.0956C55.0762 25.5541 54.4343 25.8751 53.6548 26.1502C52.8295 26.517 51.9583 26.6546 50.9496 26.6546ZM68.6024 23.2616V15.8795C68.6024 15.3292 68.5107 14.8707 68.2814 14.4581C68.098 14.0454 67.7771 13.7244 67.3644 13.541C66.9517 13.3118 66.4474 13.2201 65.8513 13.2201C65.3011 13.2201 64.7967 13.3118 64.3841 13.4952C63.9714 13.6786 63.6504 13.9537 63.4212 14.2747C63.1919 14.5956 63.0544 14.9624 63.0544 15.3751H59.6614C59.6614 14.779 59.7989 14.183 60.1199 13.5869C60.395 13.0367 60.8535 12.4864 61.4037 12.0738C61.9539 11.6153 62.6417 11.2485 63.4212 11.0192C64.2006 10.7441 65.0718 10.6524 66.0806 10.6524C67.2269 10.6524 68.2814 10.8358 69.1985 11.2485C70.1155 11.6611 70.8033 12.2113 71.3535 13.0367C71.8579 13.8161 72.133 14.8249 72.133 15.9712V22.8489C72.133 23.5367 72.1788 24.1786 72.2705 24.7747C72.3622 25.3249 72.5456 25.8292 72.729 26.2419V26.3795H69.1985C69.0151 26.0126 68.9234 25.5541 68.8317 24.9581C68.6483 24.362 68.6024 23.8118 68.6024 23.2616ZM69.1068 16.934L69.1526 19.0891H66.6766C66.0347 19.0891 65.4845 19.1349 64.9801 19.2725C64.4758 19.3642 64.1089 19.5476 63.7421 19.7768C63.3753 20.0061 63.1919 20.2812 63.0085 20.6022C62.8251 20.9231 62.7793 21.2899 62.7793 21.7026C62.7793 22.1153 62.871 22.4821 63.0544 22.8489C63.2378 23.1699 63.5129 23.445 63.8797 23.6284C64.2465 23.8118 64.705 23.9035 65.2094 23.9035C65.8972 23.9035 66.5391 23.7659 67.0434 23.4908C67.5937 23.2157 68.0063 22.8489 68.3273 22.4362C68.6482 22.0236 68.7858 21.6109 68.8317 21.1982L69.9321 22.7113C69.8404 23.124 69.6111 23.5367 69.336 23.9952C69.0609 24.4537 68.6941 24.8664 68.2356 25.279C67.7771 25.6917 67.2727 26.0126 66.6308 26.2878C66.0347 26.5629 65.3011 26.6546 64.5216 26.6546C63.5129 26.6546 62.5958 26.4712 61.8164 26.0585C61.0369 25.6458 60.395 25.0956 59.9365 24.4078C59.4779 23.7201 59.2487 22.9406 59.2487 22.0236C59.2487 21.1982 59.3862 20.4646 59.7072 19.8227C60.0282 19.1808 60.4867 18.6306 61.0828 18.2179C61.6788 17.8052 62.4583 17.4843 63.3295 17.255C64.2007 17.0257 65.2094 16.8882 66.3557 16.8882H69.1068V16.934ZM79.1024 14.0454V26.3795H75.6635V10.8816H78.919L79.1024 14.0454ZM78.5522 18.0345H77.36C77.36 16.9799 77.4976 15.9712 77.7727 15.0541C78.0478 14.1371 78.4146 13.3576 78.9648 12.6699C79.4692 11.9821 80.1111 11.4777 80.8906 11.1109C81.6701 10.7441 82.5413 10.5607 83.55 10.5607C84.2378 10.5607 84.8797 10.6524 85.4758 10.8816C86.0718 11.0651 86.5762 11.386 86.9889 11.8445C87.4474 12.303 87.7683 12.8533 87.9976 13.541C88.2269 14.2288 88.3644 15.0541 88.3644 16.017V26.3795H84.9255V16.338C84.9255 15.6044 84.8338 15.0083 84.5587 14.5498C84.3295 14.1371 84.0085 13.8161 83.5958 13.6327C83.1832 13.4493 82.6788 13.3576 82.1286 13.3576C81.4867 13.3576 80.9365 13.4952 80.4779 13.7244C80.0194 13.9537 79.6526 14.3205 79.3775 14.7332C79.1024 15.1458 78.8731 15.6502 78.7356 16.2004C78.6439 16.7965 78.5522 17.3926 78.5522 18.0345ZM88.181 17.1175L86.5762 17.4843C86.5762 16.5672 86.7137 15.6502 86.943 14.8249C87.2181 13.9995 87.5849 13.2659 88.0893 12.624C88.5937 11.9821 89.2356 11.4777 90.0151 11.1109C90.7487 10.7441 91.6199 10.5607 92.6286 10.5607C93.4081 10.5607 94.1417 10.6524 94.7378 10.8816C95.3797 11.1109 95.8841 11.4319 96.3426 11.8904C96.8011 12.3489 97.1221 12.945 97.3513 13.6786C97.5806 14.4122 97.7181 15.2834 97.7181 16.338V26.3795H94.2334V16.338C94.2334 15.5585 94.1417 14.9624 93.8666 14.5039C93.6373 14.0913 93.3164 13.7703 92.9037 13.6327C92.491 13.4493 91.9867 13.3576 91.4365 13.3576C90.8862 13.3576 90.4277 13.4493 90.0151 13.6786C89.6024 13.862 89.2814 14.1371 89.0063 14.5039C88.7312 14.8707 88.502 15.2375 88.3644 15.6961C88.2269 16.1087 88.181 16.6131 88.181 17.1175ZM112.482 5.51702V26.3795H108.906V5.51702H112.482ZM121.011 14.6415V17.4843H111.565V14.6415H121.011ZM122.157 5.51702V8.35981H111.519V5.51702H122.157ZM128.393 10.8816V26.3795H124.908V10.8816H128.393ZM124.679 6.80086C124.679 6.29649 124.862 5.83798 125.183 5.51702C125.55 5.1502 126.009 4.9668 126.65 4.9668C127.247 4.9668 127.751 5.1502 128.118 5.51702C128.484 5.88383 128.668 6.29649 128.668 6.80086C128.668 7.30522 128.484 7.76374 128.118 8.0847C127.751 8.45151 127.292 8.58907 126.65 8.58907C126.009 8.58907 125.55 8.40566 125.183 8.0847C124.862 7.76374 124.679 7.30522 124.679 6.80086ZM135.591 14.183V26.3795H132.153V10.8816H135.408L135.591 14.183ZM134.995 18.0345H133.895C133.895 16.934 134.078 15.9253 134.353 15.0083C134.674 14.0913 135.087 13.3118 135.637 12.624C136.188 11.9821 136.829 11.4777 137.563 11.1109C138.297 10.7441 139.168 10.5607 140.085 10.5607C140.819 10.5607 141.506 10.6524 142.102 10.8816C142.698 11.0651 143.249 11.4319 143.661 11.8904C144.12 12.3489 144.441 12.945 144.67 13.6786C144.899 14.4122 145.037 15.2834 145.037 16.338V26.3795H141.552V16.338C141.552 15.6044 141.46 15.0083 141.231 14.5956C141.002 14.1371 140.727 13.862 140.314 13.6786C139.902 13.4952 139.397 13.4035 138.801 13.4035C138.205 13.4035 137.701 13.541 137.196 13.7703C136.692 13.9995 136.325 14.3664 136.004 14.779C135.683 15.1917 135.454 15.6961 135.271 16.2463C135.087 16.7965 134.995 17.3926 134.995 18.0345ZM157.233 23.2616V15.8795C157.233 15.3292 157.142 14.8707 156.912 14.4581C156.729 14.0454 156.408 13.7244 155.995 13.541C155.583 13.3118 155.078 13.2201 154.482 13.2201C153.932 13.2201 153.428 13.3118 153.015 13.4952C152.602 13.6786 152.281 13.9537 152.052 14.2747C151.823 14.5956 151.685 14.9624 151.685 15.3751H148.247C148.247 14.779 148.384 14.183 148.705 13.5869C148.98 13.0367 149.439 12.4864 149.989 12.0738C150.539 11.6153 151.227 11.2485 152.006 11.0192C152.786 10.7441 153.657 10.6524 154.666 10.6524C155.812 10.6524 156.867 10.8358 157.784 11.2485C158.701 11.6611 159.388 12.2113 159.939 13.0367C160.443 13.8161 160.718 14.8249 160.718 15.9712V22.8489C160.718 23.5367 160.764 24.1786 160.856 24.7747C160.947 25.3249 161.131 25.8292 161.314 26.2419V26.3795H157.784C157.6 26.0126 157.509 25.5541 157.417 24.9581C157.279 24.362 157.233 23.8118 157.233 23.2616ZM157.738 16.934L157.784 19.0891H155.308C154.666 19.0891 154.115 19.1349 153.611 19.2725C153.107 19.3642 152.74 19.5476 152.373 19.7768C152.006 20.0061 151.823 20.2812 151.64 20.6022C151.456 20.9231 151.41 21.2899 151.41 21.7026C151.41 22.1153 151.502 22.4821 151.685 22.8489C151.869 23.1699 152.144 23.445 152.511 23.6284C152.878 23.8118 153.336 23.9035 153.84 23.9035C154.528 23.9035 155.17 23.7659 155.674 23.4908C156.225 23.2157 156.637 22.8489 156.958 22.4362C157.279 22.0236 157.417 21.6109 157.463 21.1982L158.563 22.7113C158.471 23.124 158.242 23.5367 157.967 23.9952C157.692 24.4537 157.325 24.8664 156.867 25.279C156.408 25.6917 155.904 26.0126 155.262 26.2878C154.666 26.5629 153.932 26.6546 153.153 26.6546C152.144 26.6546 151.227 26.4712 150.447 26.0585C149.668 25.6458 149.026 25.0956 148.567 24.4078C148.109 23.7201 147.88 22.9406 147.88 22.0236C147.88 21.1982 148.017 20.4646 148.338 19.8227C148.659 19.1808 149.118 18.6306 149.714 18.2179C150.31 17.8052 151.089 17.4843 151.96 17.255C152.832 17.0257 153.84 16.8882 154.987 16.8882H157.738V16.934ZM167.779 14.183V26.3795H164.34V10.8816H167.596L167.779 14.183ZM167.137 18.0345H166.037C166.037 16.934 166.22 15.9253 166.495 15.0083C166.816 14.0913 167.229 13.3118 167.779 12.624C168.329 11.9821 168.971 11.4777 169.705 11.1109C170.439 10.7441 171.31 10.5607 172.227 10.5607C172.96 10.5607 173.648 10.6524 174.244 10.8816C174.84 11.0651 175.391 11.4319 175.803 11.8904C176.262 12.3489 176.583 12.945 176.812 13.6786C177.041 14.4122 177.179 15.2834 177.179 16.338V26.3795H173.694V16.338C173.694 15.6044 173.602 15.0083 173.373 14.5956C173.144 14.1371 172.869 13.862 172.456 13.6786C172.043 13.4952 171.539 13.4035 170.943 13.4035C170.347 13.4035 169.843 13.541 169.338 13.7703C168.834 13.9995 168.467 14.3664 168.146 14.779C167.825 15.1917 167.596 15.6961 167.412 16.2463C167.229 16.7965 167.137 17.3926 167.137 18.0345ZM186.991 23.9035C187.541 23.9035 188.046 23.8118 188.504 23.5825C188.963 23.3533 189.329 23.0323 189.605 22.6196C189.88 22.207 190.063 21.7485 190.063 21.2441H193.319C193.319 22.2528 192.998 23.1699 192.447 23.9952C191.897 24.8205 191.118 25.4624 190.155 25.9668C189.192 26.4253 188.183 26.7004 187.037 26.7004C185.845 26.7004 184.836 26.517 183.919 26.1044C183.048 25.6917 182.314 25.1415 181.718 24.4078C181.122 23.6742 180.709 22.8489 180.388 21.9319C180.113 21.0148 179.976 20.0061 179.976 18.9057V18.4013C179.976 17.3467 180.113 16.338 180.388 15.3751C180.664 14.4122 181.122 13.5869 181.718 12.8991C182.314 12.2113 183.048 11.6153 183.919 11.2026C184.79 10.7899 185.845 10.6065 186.991 10.6065C188.229 10.6065 189.329 10.8358 190.246 11.3402C191.164 11.8445 191.897 12.5323 192.447 13.4035C192.998 14.2747 193.273 15.2834 193.273 16.4297H190.017C189.971 15.8795 189.834 15.3292 189.605 14.8707C189.375 14.4122 189.009 14.0454 188.55 13.7703C188.091 13.4952 187.541 13.3576 186.945 13.3576C186.257 13.3576 185.661 13.4952 185.203 13.7703C184.744 14.0454 184.378 14.4122 184.148 14.9166C183.873 15.3751 183.69 15.9253 183.598 16.5214C183.506 17.1175 183.46 17.7135 183.46 18.3554V18.8598C183.46 19.5017 183.506 20.1437 183.598 20.7397C183.69 21.3358 183.873 21.886 184.148 22.3445C184.423 22.803 184.79 23.1699 185.249 23.4908C185.707 23.7659 186.303 23.9035 186.991 23.9035ZM202.81 26.6546C201.664 26.6546 200.609 26.4712 199.692 26.1044C198.775 25.7375 197.995 25.1873 197.353 24.4995C196.712 23.8118 196.207 23.0323 195.886 22.1153C195.565 21.1982 195.382 20.1895 195.382 19.1349V18.5847C195.382 17.3926 195.565 16.2921 195.932 15.2834C196.299 14.2747 196.757 13.4493 197.399 12.7616C198.041 12.0738 198.775 11.5236 199.646 11.1568C200.517 10.7899 201.434 10.6065 202.443 10.6065C203.543 10.6065 204.506 10.7899 205.332 11.1568C206.157 11.5236 206.845 12.0738 207.395 12.7157C207.945 13.4035 208.358 14.183 208.633 15.1C208.908 16.017 209.046 17.0257 209.046 18.172V19.6393H197.078V17.1633H205.653V16.8882C205.653 16.2463 205.515 15.6961 205.286 15.1458C205.057 14.5956 204.736 14.183 204.277 13.8161C203.819 13.4952 203.222 13.3118 202.443 13.3118C201.893 13.3118 201.343 13.4493 200.93 13.6786C200.471 13.9078 200.105 14.2747 199.829 14.7332C199.554 15.1917 199.325 15.7419 199.142 16.3838C199.004 17.0258 198.912 17.7594 198.912 18.5389V19.0891C198.912 19.7768 199.004 20.4188 199.188 20.969C199.371 21.5192 199.646 22.0236 200.013 22.4821C200.38 22.8947 200.838 23.2616 201.343 23.4908C201.847 23.7201 202.443 23.8576 203.085 23.8576C203.91 23.8576 204.644 23.6742 205.286 23.3533C205.928 23.0323 206.478 22.5279 206.982 21.9319L208.816 23.6742C208.495 24.1786 208.037 24.6371 207.533 25.0956C206.982 25.5541 206.34 25.8751 205.561 26.1502C204.736 26.517 203.864 26.6546 202.81 26.6546Z" fill="url(#paint2_linear_8421_35705)"/>
</g>
<defs>
<linearGradient id="paint0_linear_8421_35705" x1="8.77057" y1="12.3496" x2="8.77057" y2="27.1597" gradientUnits="userSpaceOnUse">
<stop stop-color="#1D65DC"/>
<stop offset="1" stop-color="#0A4BB3"/>
</linearGradient>
<linearGradient id="paint1_linear_8421_35705" x1="8.8635" y1="0.84082" x2="8.8635" y2="10.7448" gradientUnits="userSpaceOnUse">
<stop stop-color="#1D65DC"/>
<stop offset="1" stop-color="#0A4BB3"/>
</linearGradient>
<linearGradient id="paint2_linear_8421_35705" x1="117.755" y1="4.9668" x2="117.755" y2="26.7004" gradientUnits="userSpaceOnUse">
<stop stop-color="#1D65DC"/>
<stop offset="1" stop-color="#0A4BB3"/>
</linearGradient>
<clipPath id="clip0_8421_35705">
<rect width="210" height="28" fill="white"/>
</clipPath>
</defs>
</svg>
