<svg width="129" height="20" viewBox="0 0 129 20" fill="none" xmlns="http://www.w3.org/2000/svg">
<g id="Trustswap-Wordmark-Primary">
<path id="Vector" d="M45.4939 2.25684V4.31081H41.9243V15.1795H39.3334V4.31081H35.7825V2.25684H45.4939Z" fill="url(#paint0_linear_8421_35715)"/>
<path id="Vector_2" d="M49.1928 5.45687C49.8256 5.08442 50.5485 4.89274 51.2827 4.90271V7.65766H50.5242C48.6372 7.65766 47.6944 8.54575 47.6944 10.2845V15.1683H45.1035V5.05097H47.6944V6.99267C48.0492 6.35725 48.5663 5.8273 49.1928 5.45687Z" fill="url(#paint1_linear_8421_35715)"/>
<path id="Vector_3" d="M62.1027 5.05078V15.1796H59.5118V13.1328C59.2576 13.8042 58.7878 14.3722 58.1761 14.7478C57.5371 15.1405 56.7985 15.3404 56.0487 15.3235C54.8842 15.3235 53.94 14.9364 53.2563 14.1721C52.5726 13.4078 52.22 12.3225 52.22 10.9536V5.05222H54.7792V10.6557C54.7792 11.4704 54.9821 12.0807 55.4082 12.5269C55.8342 12.9731 56.3884 13.1933 57.0908 13.1933C57.8306 13.1933 58.4227 12.9534 58.867 12.4736C59.3113 11.9938 59.5329 11.3092 59.532 10.4196V5.05078H62.1027Z" fill="url(#paint2_linear_8421_35715)"/>
<path id="Vector_4" d="M69.8709 5.84564C70.6167 6.47784 71.1094 7.35793 71.2584 8.32424H68.8359C68.7626 7.86762 68.5258 7.45325 68.1695 7.15835C67.7954 6.85172 67.3213 6.69387 66.8381 6.71502C66.4719 6.69363 66.1104 6.80561 65.8205 7.03025C65.6997 7.13175 65.6036 7.25941 65.5396 7.40356C65.4755 7.5477 65.445 7.70454 65.4505 7.8622C65.4458 7.99107 65.47 8.11937 65.5213 8.23768C65.5726 8.35599 65.6497 8.4613 65.7471 8.5459C65.9644 8.72906 66.2159 8.86749 66.4869 8.95324C66.7748 9.04536 67.2066 9.1749 67.7449 9.30445C68.3816 9.43483 69.0072 9.61433 69.6161 9.84133C70.0972 10.0286 70.5234 10.334 70.8554 10.7294C71.2066 11.1353 71.3721 11.6909 71.3721 12.3933C71.3839 12.8005 71.2977 13.2045 71.1209 13.5714C70.944 13.9384 70.6817 14.2575 70.3559 14.502C69.6708 15.0389 68.764 15.3152 67.6211 15.3152C66.3065 15.3152 65.251 15.0197 64.4545 14.4286C63.66 13.8356 63.1792 12.9892 63.0151 11.8939H65.488C65.5089 12.1272 65.5791 12.3535 65.694 12.5577C65.8089 12.7619 65.9658 12.9394 66.1544 13.0785C66.5877 13.3792 67.1071 13.5308 67.6341 13.5103C68.0774 13.5103 68.4099 13.3994 68.633 13.1965C68.7448 13.0885 68.8335 12.959 68.8938 12.8157C68.9542 12.6725 68.9849 12.5185 68.9842 12.3631C68.9899 12.2288 68.9663 12.0949 68.9151 11.9706C68.8639 11.8464 68.7863 11.7347 68.6877 11.6434C68.4721 11.4421 68.2123 11.2942 67.9291 11.2116C67.6413 11.118 67.2095 10.9885 66.6539 10.8604C66.0328 10.7263 65.4208 10.5532 64.8215 10.3422C64.3541 10.1674 63.94 9.87427 63.6197 9.49156C63.2867 9.10293 63.1202 8.56653 63.1202 7.88235C63.1088 7.47166 63.1932 7.06396 63.3666 6.69149C63.5399 6.31901 63.7976 5.99198 64.1191 5.73626C64.7851 5.18162 65.7101 4.9043 66.8942 4.9043C68.1508 4.92157 69.131 5.23535 69.8709 5.84564Z" fill="url(#paint3_linear_8421_35715)"/>
<path id="Vector_5" d="M77.9356 12.9663V15.18H76.5667C75.4383 15.18 74.5689 14.9027 73.9586 14.348C73.3483 13.7939 73.0532 12.8871 73.0532 11.6132V7.21454H71.647V5.05549H73.0532V2.53516H75.6441V5.03246H77.9183V7.21454H75.6441V11.6536C75.6441 12.1343 75.7362 12.4855 75.932 12.6712C76.1277 12.8569 76.4501 12.9591 76.9122 12.9591L77.9356 12.9663Z" fill="url(#paint4_linear_8421_35715)"/>
<path id="Vector_6" d="M89.219 13.4655C88.8685 14.0396 88.3617 14.5019 87.758 14.7984C87.1103 15.1309 86.3331 15.2978 85.3903 15.2978C84.5481 15.314 83.7117 15.1562 82.9333 14.8344C82.2441 14.552 81.6464 14.0848 81.206 13.4842C80.773 12.8849 80.518 12.1754 80.4705 11.4375H83.2211C83.2725 11.9346 83.4948 12.3986 83.8501 12.7502C84.2013 13.1014 84.6835 13.2683 85.2895 13.2683C85.825 13.2683 86.2323 13.1244 86.5288 12.8437C86.6709 12.6965 86.7823 12.5223 86.8565 12.3316C86.9306 12.1408 86.966 11.9371 86.9606 11.7325C86.9784 11.3669 86.8523 11.0089 86.6094 10.7351C86.3691 10.4561 86.0642 10.2401 85.7213 10.106C85.3701 9.93908 84.8894 9.77212 84.2604 9.55045C83.5839 9.32927 82.9228 9.06385 82.2812 8.75592C81.7578 8.48272 81.3076 8.08781 80.9685 7.60443C80.6159 7.10496 80.4316 6.45293 80.4316 5.64401C80.4316 4.53425 80.839 3.66488 81.6335 3.01716C82.428 2.36945 83.4831 2.05566 84.8145 2.05566C86.1834 2.05566 87.2758 2.38816 88.0704 3.03587C88.4692 3.35541 88.7981 3.75343 89.0368 4.20529C89.2755 4.65714 89.4188 5.1532 89.4579 5.66272H86.6843C86.6233 5.22294 86.4147 4.81693 86.0927 4.51123C85.7789 4.21472 85.3341 4.06646 84.7973 4.06646C84.3813 4.04828 83.9727 4.18006 83.6458 4.43782C83.3492 4.69546 83.2024 5.04811 83.2024 5.52886C83.1903 5.87382 83.3091 6.21061 83.5349 6.47164C83.7716 6.73931 84.0672 6.94825 84.3985 7.08193C84.8626 7.28757 85.3378 7.46681 85.8221 7.61882C86.5098 7.85556 87.1827 8.13338 87.8372 8.45077C88.3662 8.72329 88.8227 9.11804 89.1686 9.60227C89.5385 10.1204 89.7242 10.7854 89.7242 11.6174C89.7207 12.2671 89.5465 12.9044 89.219 13.4655Z" fill="url(#paint5_linear_8421_35715)"/>
<path id="Vector_7" d="M105.514 5.05068L102.796 15.1795H99.946L97.7582 7.80563L95.5257 15.1795H92.6585L89.9583 5.04492H92.5491L94.1943 12.8765L96.4498 5.05356H99.1688L101.444 12.8765L103.108 5.05356L105.514 5.05068Z" fill="url(#paint6_linear_8421_35715)"/>
<path id="Vector_8" d="M112.116 5.51266C112.712 5.902 113.166 6.47284 113.411 7.14059V5.05063H115.963V15.1795H113.411V13.0593C113.162 13.7292 112.709 14.3044 112.116 14.7045C111.46 15.1237 110.693 15.3363 109.915 15.3148C109.101 15.3287 108.299 15.1111 107.604 14.6872C106.908 14.2606 106.357 13.6354 106.02 12.8923C105.632 12.115 105.445 11.1651 105.445 10.1186C105.445 9.07223 105.629 8.13951 106.02 7.34354C106.368 6.60793 106.917 5.98602 107.604 5.55009C108.301 5.13115 109.101 4.91345 109.915 4.92109C110.69 4.90245 111.455 5.10785 112.116 5.51266ZM108.787 7.95959C108.306 8.47777 108.047 9.19889 108.047 10.1186C108.047 11.0384 108.287 11.7451 108.787 12.2633C109.286 12.7815 109.915 13.0406 110.73 13.0406C111.089 13.053 111.446 12.9884 111.778 12.8511C112.109 12.7138 112.408 12.507 112.653 12.2446C113.152 11.7091 113.411 11.0053 113.411 10.1186C113.411 9.232 113.152 8.49072 112.653 7.97254C112.408 7.71014 112.109 7.50332 111.778 7.36601C111.446 7.22871 111.089 7.16411 110.73 7.17658C110.369 7.15519 110.007 7.21375 109.672 7.34811C109.336 7.48246 109.034 7.68929 108.787 7.95383V7.95959Z" fill="url(#paint7_linear_8421_35715)"/>
<path id="Vector_9" d="M125.989 5.53604C126.685 5.96128 127.237 6.58624 127.572 7.32949C127.961 8.10675 128.148 9.05673 128.148 10.1046C128.171 11.061 127.974 12.01 127.572 12.8783C127.224 13.6138 126.675 14.236 125.989 14.6731C125.292 15.0938 124.491 15.3116 123.677 15.3021C122.814 15.3021 122.087 15.0978 121.495 14.6919C120.899 14.2956 120.444 13.7185 120.2 13.0452V20.0002H117.629V5.05097H120.22V7.15821C120.465 6.49058 120.92 5.92007 121.515 5.53172C122.165 5.11251 122.926 4.89975 123.699 4.92143C124.504 4.91178 125.297 5.12445 125.989 5.53604ZM120.951 7.95849C120.452 8.49538 120.193 9.19779 120.193 10.1046C120.193 11.0114 120.452 11.7138 120.951 12.2305C121.198 12.4928 121.497 12.6991 121.83 12.8355C122.163 12.9718 122.522 13.035 122.881 13.0207C123.696 13.0207 124.321 12.7617 124.825 12.2435C125.328 11.7253 125.564 11.0042 125.564 10.0988C125.564 9.19347 125.324 8.47091 124.825 7.93978C124.325 7.40866 123.696 7.16252 122.881 7.16252C122.523 7.15379 122.168 7.21967 121.837 7.35596C121.506 7.49226 121.206 7.69598 120.958 7.95417L120.951 7.95849Z" fill="url(#paint8_linear_8421_35715)"/>
<path id="Vector_10" d="M11.1083 13.0032C10.5937 13.439 9.97636 13.7363 9.3148 13.8669C9.00586 13.9428 8.68869 13.98 8.37057 13.9777C6.21152 13.9777 4.30148 12.2764 4.11724 10.1864C4.04118 9.59684 4.09268 8.99781 4.26825 8.42987C4.44382 7.86194 4.73937 7.33836 5.13487 6.89457C5.70106 6.24116 6.44688 5.76864 7.27953 5.53581V7.03419L12.7175 3.50054L7.27953 0V1.40626C4.32019 1.77618 1.8416 3.66319 0.658433 6.5117C-0.655711 9.70998 0.0251106 13.1889 2.45189 15.6301C3.2264 16.4124 4.14884 17.0328 5.16547 17.4551C6.1821 17.8774 7.2726 18.0932 8.37345 18.09C10.5196 18.09 13.3494 17.091 14.6448 15.1853C15.625 13.746 17.6401 9.71573 18.3253 8.32386L11.1083 13.0032Z" fill="url(#paint9_linear_8421_35715)"/>
<path id="Vector_11" d="M26.6635 3.79291C25.8903 3.01173 24.9695 2.392 23.9546 1.96972C22.9398 1.54743 21.8512 1.33101 20.752 1.33302C18.6074 1.33302 15.7776 2.33195 14.4821 4.23623C13.4832 5.6612 11.4667 9.70583 10.783 11.0991L18.0072 6.3996C18.5221 5.96349 19.1399 5.66621 19.802 5.53598C20.1105 5.46007 20.4272 5.42284 20.7448 5.42515C22.9039 5.42515 24.8139 7.12648 24.9996 9.21644C25.075 9.80599 25.0232 10.4048 24.8476 10.9727C24.6721 11.5405 24.3769 12.0641 23.982 12.5083C23.4169 13.1658 22.6703 13.6419 21.8359 13.8771V12.3744L16.3807 15.8894L21.8186 19.4216V18.0167C24.7779 17.6468 27.2738 15.7598 28.4584 12.9113C29.7711 9.71014 29.0874 6.21536 26.6635 3.79291Z" fill="url(#paint10_linear_8421_35715)"/>
</g>
<defs>
<linearGradient id="paint0_linear_8421_35715" x1="40.6389" y1="2.25684" x2="40.6389" y2="15.1852" gradientUnits="userSpaceOnUse">
<stop stop-color="#1D65DC"/>
<stop offset="1" stop-color="#0A4BB3"/>
</linearGradient>
<linearGradient id="paint1_linear_8421_35715" x1="48.1938" y1="4.90127" x2="48.1938" y2="15.1827" gradientUnits="userSpaceOnUse">
<stop stop-color="#1D65DC"/>
<stop offset="1" stop-color="#0A4BB3"/>
</linearGradient>
<linearGradient id="paint2_linear_8421_35715" x1="57.1642" y1="5.04934" x2="57.1642" y2="15.3149" gradientUnits="userSpaceOnUse">
<stop stop-color="#1D65DC"/>
<stop offset="1" stop-color="#0A4BB3"/>
</linearGradient>
<linearGradient id="paint3_linear_8421_35715" x1="67.1893" y1="4.91725" x2="67.1893" y2="15.3081" gradientUnits="userSpaceOnUse">
<stop stop-color="#1D65DC"/>
<stop offset="1" stop-color="#0A4BB3"/>
</linearGradient>
<linearGradient id="paint4_linear_8421_35715" x1="74.792" y1="2.53516" x2="74.792" y2="15.1858" gradientUnits="userSpaceOnUse">
<stop stop-color="#1D65DC"/>
<stop offset="1" stop-color="#0A4BB3"/>
</linearGradient>
<linearGradient id="paint5_linear_8421_35715" x1="85.0851" y1="2.07582" x2="85.0851" y2="15.3194" gradientUnits="userSpaceOnUse">
<stop stop-color="#1D65DC"/>
<stop offset="1" stop-color="#0A4BB3"/>
</linearGradient>
<linearGradient id="paint6_linear_8421_35715" x1="97.7352" y1="5.04924" x2="97.7352" y2="15.1853" gradientUnits="userSpaceOnUse">
<stop stop-color="#1D65DC"/>
<stop offset="1" stop-color="#0A4BB3"/>
</linearGradient>
<linearGradient id="paint7_linear_8421_35715" x1="110.701" y1="4.91965" x2="110.701" y2="15.3148" gradientUnits="userSpaceOnUse">
<stop stop-color="#1D65DC"/>
<stop offset="1" stop-color="#0A4BB3"/>
</linearGradient>
<linearGradient id="paint8_linear_8421_35715" x1="122.891" y1="4.91999" x2="122.891" y2="20.0103" gradientUnits="userSpaceOnUse">
<stop stop-color="#1D65DC"/>
<stop offset="1" stop-color="#0A4BB3"/>
</linearGradient>
<linearGradient id="paint9_linear_8421_35715" x1="9.16223" y1="0" x2="9.16223" y2="18.09" gradientUnits="userSpaceOnUse">
<stop stop-color="#1D65DC"/>
<stop offset="1" stop-color="#0A4BB3"/>
</linearGradient>
<linearGradient id="paint10_linear_8421_35715" x1="19.946" y1="1.33158" x2="19.946" y2="19.4216" gradientUnits="userSpaceOnUse">
<stop stop-color="#1D65DC"/>
<stop offset="1" stop-color="#0A4BB3"/>
</linearGradient>
</defs>
</svg>
