<svg width="172" height="132" viewBox="0 0 172 132" fill="none" xmlns="http://www.w3.org/2000/svg">
    <path fill-rule="evenodd" clip-rule="evenodd" d="M1 70.4689C1 84.7486 6.29316 97.7609 15.0034 107.595C24.996 118.881 39.4863 125.976 55.6382 126C62.6973 126.01 69.447 124.661 75.6469 122.199C78.8526 120.925 82.4405 121.071 85.5453 122.58C89.1872 124.348 93.2654 125.339 97.5718 125.339C99.3507 125.339 101.093 125.169 102.778 124.846C107.588 123.926 111.965 121.749 115.56 118.666C117.819 116.728 120.712 115.754 123.669 115.757H123.719C133.49 115.757 142.567 112.749 150.102 107.595C156.839 102.993 162.34 96.6775 166.005 89.2621C169.201 82.8001 171 75.5003 171 67.7744C171 41.276 149.83 19.7917 123.719 19.7917C121.057 19.7917 118.45 20.0199 115.905 20.4456C109.169 9.37802 97.105 2 83.3432 2C77.533 2 72.0247 3.31498 67.0941 5.6722C62.4051 7.90665 58.2361 11.0817 54.8257 14.9511C43.2455 15.1385 32.5378 18.9776 23.774 25.3848C9.97864 35.4646 1 51.9039 1 70.4689Z" fill="url(#paint0_linear_4100_451382)" fill-opacity="0.2"/>
    <path opacity="0.32" d="M83.0951 130.851C118.903 130.851 147.93 101.816 147.93 66.0001C147.93 30.1841 118.903 1.14941 83.0951 1.14941C47.2875 1.14941 18.2598 30.1841 18.2598 66.0001C18.2598 101.816 47.2875 130.851 83.0951 130.851Z" fill="#EEF1FC"/>
    <path d="M105.244 2.63965H117.733" stroke="#77B1E8" stroke-opacity="0.75" stroke-width="3" stroke-miterlimit="10" stroke-linecap="round"/>
    <path d="M105.244 6.24072H117.733" stroke="#77B1E8" stroke-opacity="0.75" stroke-width="3" stroke-miterlimit="10" stroke-linecap="round"/>
    <path d="M105.244 9.84082H117.733" stroke="#77B1E8" stroke-opacity="0.75" stroke-width="3" stroke-miterlimit="10" stroke-linecap="round"/>
    <path d="M8.29297 79.1128H20.7821" stroke="#77B1E8" stroke-opacity="0.75" stroke-width="3" stroke-miterlimit="10" stroke-linecap="round"/>
    <path d="M8.29297 82.7134H20.7821" stroke="#77B1E8" stroke-opacity="0.75" stroke-width="3" stroke-miterlimit="10" stroke-linecap="round"/>
    <path d="M8.29297 86.314H20.7821" stroke="#77B1E8" stroke-opacity="0.75" stroke-width="3" stroke-miterlimit="10" stroke-linecap="round"/>
    <path d="M147.93 113.039H160.419" stroke="#77B1E8" stroke-opacity="0.75" stroke-width="3" stroke-miterlimit="10" stroke-linecap="round"/>
    <path d="M147.93 116.639H160.419" stroke="#77B1E8" stroke-opacity="0.75" stroke-width="3" stroke-miterlimit="10" stroke-linecap="round"/>
    <path d="M147.93 120.24H160.419" stroke="#77B1E8" stroke-opacity="0.75" stroke-width="3" stroke-miterlimit="10" stroke-linecap="round"/>
    <path d="M151.361 42.5726C154.31 42.5726 156.7 40.182 156.7 37.2331C156.7 34.2841 154.31 31.8936 151.361 31.8936C148.413 31.8936 146.023 34.2841 146.023 37.2331C146.023 40.182 148.413 42.5726 151.361 42.5726Z" fill="#B9C5DB"/>
    <path d="M143.208 52.1213C144.737 52.1213 145.976 50.8817 145.976 49.3526C145.976 47.8236 144.737 46.584 143.208 46.584C141.68 46.584 140.44 47.8236 140.44 49.3526C140.44 50.8817 141.68 52.1213 143.208 52.1213Z" fill="#B9C5DB"/>
    <path d="M137.486 35.9041C139.67 35.9041 141.44 34.1333 141.44 31.9489C141.44 29.7645 139.67 27.9937 137.486 27.9937C135.302 27.9937 133.531 29.7645 133.531 31.9489C133.531 34.1333 135.302 35.9041 137.486 35.9041Z" fill="#B9C5DB"/>
    <path d="M48.333 116.133C51.8408 116.133 54.6845 113.289 54.6845 109.78C54.6845 106.272 51.8408 103.427 48.333 103.427C44.8251 103.427 41.9814 106.272 41.9814 109.78C41.9814 113.289 44.8251 116.133 48.333 116.133Z" fill="#B9C5DB"/>
    <path d="M35.7737 116.258C37.6009 116.258 39.0821 114.777 39.0821 112.949C39.0821 111.122 37.6009 109.64 35.7737 109.64C33.9465 109.64 32.4653 111.122 32.4653 112.949C32.4653 114.777 33.9465 116.258 35.7737 116.258Z" fill="#B9C5DB"/>
    <path d="M31.8886 103.873C32.9425 103.873 33.797 103.019 33.797 101.964C33.797 100.91 32.9425 100.056 31.8886 100.056C30.8346 100.056 29.9802 100.91 29.9802 101.964C29.9802 103.019 30.8346 103.873 31.8886 103.873Z" fill="#B9C5DB"/>
    <path d="M41.3512 101.651C43.8778 101.651 45.926 99.6026 45.926 97.0754C45.926 94.5482 43.8778 92.4995 41.3512 92.4995C38.8246 92.4995 36.7764 94.5482 36.7764 97.0754C36.7764 99.6026 38.8246 101.651 41.3512 101.651Z" fill="#B9C5DB"/>
    <path d="M50.2536 27.3095C53.7614 27.3095 56.6051 24.4652 56.6051 20.9565C56.6051 17.4479 53.7614 14.6035 50.2536 14.6035C46.7458 14.6035 43.9021 17.4479 43.9021 20.9565C43.9021 24.4652 46.7458 27.3095 50.2536 27.3095Z" fill="#B9C5DB"/>
    <path d="M50.5113 11.3127C52.3384 11.3127 53.8197 9.83112 53.8197 8.00351C53.8197 6.1759 52.3384 4.69434 50.5113 4.69434C48.6841 4.69434 47.2029 6.1759 47.2029 8.00351C47.2029 9.83112 48.6841 11.3127 50.5113 11.3127Z" fill="#B9C5DB"/>
    <path d="M72.5468 12.8014C74.1282 12.8014 75.4102 11.5191 75.4102 9.93733C75.4102 8.35554 74.1282 7.07324 72.5468 7.07324C70.9653 7.07324 69.6833 8.35554 69.6833 9.93733C69.6833 11.5191 70.9653 12.8014 72.5468 12.8014Z" fill="#B9C5DB"/>
    <path d="M62.1295 9.06275C63.1835 9.06275 64.0379 8.20814 64.0379 7.15393C64.0379 6.09972 63.1835 5.24512 62.1295 5.24512C61.0756 5.24512 60.2212 6.09972 60.2212 7.15393C60.2212 8.20814 61.0756 9.06275 62.1295 9.06275Z" fill="#B9C5DB"/>
    <path d="M64.3473 22.1488C66.8739 22.1488 68.9221 20.1002 68.9221 17.573C68.9221 15.0458 66.8739 12.9971 64.3473 12.9971C61.8207 12.9971 59.7725 15.0458 59.7725 17.573C59.7725 20.1002 61.8207 22.1488 64.3473 22.1488Z" fill="#B9C5DB"/>
    <path d="M86.3568 107.766C109.418 107.766 128.113 89.0665 128.113 66C128.113 42.9335 109.418 24.2344 86.3568 24.2344C63.2958 24.2344 44.6011 42.9335 44.6011 66C44.6011 89.0665 63.2958 107.766 86.3568 107.766Z" fill="#EEF1FC"/>
    <path d="M86.3568 108.516C109.832 108.516 128.863 89.4806 128.863 66C128.863 42.5194 109.832 23.4844 86.3568 23.4844C62.8814 23.4844 43.8511 42.5194 43.8511 66C43.8511 89.4806 62.8814 108.516 86.3568 108.516Z" stroke="#919EAB" stroke-opacity="0.48" stroke-width="1.5"/>
    <path d="M87.9344 34.0725C87.1805 35.368 85.8349 37.6729 83.2949 38.5275C81.0369 39.2855 79.5677 38.311 76.0572 38.7131C73.9346 38.9568 72.6007 39.1076 71.2321 40.0125C69.2448 41.3274 69.3646 42.7698 67.8916 44.2819C64.7135 47.5458 58.7556 46.3934 58.4269 46.3238C55.8917 45.7512 53.591 44.4198 51.8311 42.5068C55.6572 36.8732 60.8043 32.2623 66.8228 29.0771C72.8412 25.8919 79.5479 24.2293 86.3569 24.2344C87.4008 24.2344 88.4409 24.2731 89.4654 24.3465C89.8752 26.895 89.941 30.6346 87.9344 34.0725Z" fill="#CBD6ED"/>
    <path d="M87.9344 34.0725C87.1805 35.368 85.8349 37.6729 83.2949 38.5275C81.0369 39.2855 79.5677 38.311 76.0572 38.7131C73.9346 38.9568 72.6007 39.1076 71.2321 40.0125C69.2448 41.3274 69.3646 42.7698 67.8916 44.2819C64.7135 47.5458 58.7556 46.3934 58.4269 46.3238C55.8917 45.7512 53.591 44.4198 51.8311 42.5068C55.6572 36.8732 60.8043 32.2623 66.8228 29.0771C72.8412 25.8919 79.5479 24.2293 86.3569 24.2344C87.4008 24.2344 88.4409 24.2731 89.4654 24.3465C89.8752 26.895 89.941 30.6346 87.9344 34.0725Z" fill="url(#paint1_linear_4100_451382)" fill-opacity="0.2"/>
    <path d="M75.1293 50.2222C78.0443 46.6176 81.0446 42.9074 84.7795 43.3541C87.7243 43.7063 90.464 46.5637 91.0893 49.4797C91.8702 53.1216 88.9108 54.7941 89.9758 58.2041C90.7 60.5228 92.206 60.1901 94.4298 63.5872C95.4802 65.192 97.2542 67.9019 97.0279 71.3835C96.9761 72.1799 96.5544 77.0971 92.3884 79.1797C89.6504 80.5484 86.222 80.2295 84.0372 78.6228C81.5133 76.7668 82.324 74.4244 79.9544 73.2397C77.7939 72.1596 76.5362 73.8148 72.9023 73.054C71.5628 72.7736 69.0904 72.256 67.8916 70.4553C66.2449 67.9815 67.8434 64.3505 70.3042 58.7609C71.6903 55.6123 72.7896 53.1155 75.1293 50.2222Z" fill="#CBD6ED"/>
    <path d="M75.1293 50.2222C78.0443 46.6176 81.0446 42.9074 84.7795 43.3541C87.7243 43.7063 90.464 46.5637 91.0893 49.4797C91.8702 53.1216 88.9108 54.7941 89.9758 58.2041C90.7 60.5228 92.206 60.1901 94.4298 63.5872C95.4802 65.192 97.2542 67.9019 97.0279 71.3835C96.9761 72.1799 96.5544 77.0971 92.3884 79.1797C89.6504 80.5484 86.222 80.2295 84.0372 78.6228C81.5133 76.7668 82.324 74.4244 79.9544 73.2397C77.7939 72.1596 76.5362 73.8148 72.9023 73.054C71.5628 72.7736 69.0904 72.256 67.8916 70.4553C66.2449 67.9815 67.8434 64.3505 70.3042 58.7609C71.6903 55.6123 72.7896 53.1155 75.1293 50.2222Z" fill="url(#paint2_linear_4100_451382)" fill-opacity="0.2"/>
    <path d="M128.113 65.9999C128.114 69.5271 127.671 73.0404 126.794 76.4568C122.955 77.3617 118.431 77.207 114.844 74.9099C113.784 74.2332 111.078 72.5007 110.39 69.5268C109.872 67.2839 111 66.5027 111.132 62.473C111.19 60.6439 111.267 58.2849 110.204 55.7906C108.963 52.8786 107.455 52.8128 106.492 50.593C105.054 47.2789 106.516 43.0791 108.163 40.7549C109.918 38.2799 112.644 36.8723 115.625 36.2148C119.585 40.0966 122.731 44.7312 124.875 49.8462C127.02 54.9612 128.121 60.4534 128.113 65.9999Z" fill="#CBD6ED"/>
    <path d="M128.113 65.9999C128.114 69.5271 127.671 73.0404 126.794 76.4568C122.955 77.3617 118.431 77.207 114.844 74.9099C113.784 74.2332 111.078 72.5007 110.39 69.5268C109.872 67.2839 111 66.5027 111.132 62.473C111.19 60.6439 111.267 58.2849 110.204 55.7906C108.963 52.8786 107.455 52.8128 106.492 50.593C105.054 47.2789 106.516 43.0791 108.163 40.7549C109.918 38.2799 112.644 36.8723 115.625 36.2148C119.585 40.0966 122.731 44.7312 124.875 49.8462C127.02 54.9612 128.121 60.4534 128.113 65.9999Z" fill="url(#paint3_linear_4100_451382)" fill-opacity="0.2"/>
    <path d="M99.4405 88.8319C98.5433 87.3508 98.7943 84.8696 99.9972 84.0056C101.101 83.2125 102.376 84.2358 103.894 83.2631C105.008 82.55 104.771 81.7126 105.75 81.2212C107.101 80.5433 109.328 81.2456 110.39 82.7063C111.756 84.587 110.917 87.3486 109.647 88.8319C107.073 91.8403 101.073 91.5272 99.4405 88.8319Z" fill="#CBD6ED"/>
    <path d="M87.0764 107.754C86.8367 107.761 86.597 107.765 86.3573 107.765C79.6518 107.77 73.044 106.157 67.0943 103.064C61.1446 99.9706 56.0284 95.4878 52.1794 89.9957C52.7493 88.4664 53.6107 87.0624 54.7157 85.8617C55.0559 85.4942 59.3088 81.0585 64.366 82.1491C66.1198 82.5777 67.7237 83.4761 69.0055 84.7479C70.6371 86.4108 70.2504 87.3428 71.6036 88.4604C73.3783 89.926 74.9054 89.0328 78.6557 89.7597C80.7744 90.1697 83.7553 90.7498 85.7077 92.9154C87.7104 95.1352 87.7298 98.0201 87.7491 100.897C87.7608 102.286 87.7801 105.159 87.0764 107.754Z" fill="#CBD6ED"/>
    <path d="M87.0764 107.754C86.8367 107.761 86.597 107.765 86.3573 107.765C79.6518 107.77 73.044 106.157 67.0943 103.064C61.1446 99.9706 56.0284 95.4878 52.1794 89.9957C52.7493 88.4664 53.6107 87.0624 54.7157 85.8617C55.0559 85.4942 59.3088 81.0585 64.366 82.1491C66.1198 82.5777 67.7237 83.4761 69.0055 84.7479C70.6371 86.4108 70.2504 87.3428 71.6036 88.4604C73.3783 89.926 74.9054 89.0328 78.6557 89.7597C80.7744 90.1697 83.7553 90.7498 85.7077 92.9154C87.7104 95.1352 87.7298 98.0201 87.7491 100.897C87.7608 102.286 87.7801 105.159 87.0764 107.754Z" fill="url(#paint4_linear_4100_451382)" fill-opacity="0.2"/>
    <path d="M126.791 55.9614L129.097 56.2185C129.108 56.2198 129.117 56.225 129.124 56.2332C129.13 56.2413 129.133 56.2517 129.132 56.2621C129.131 56.2724 129.126 56.2819 129.118 56.2884C129.109 56.295 129.099 56.298 129.089 56.297L129.087 56.2967L126.791 55.9614Z" fill="#829BCD"/>
    <path d="M133.61 56.7984L138.106 57.5148C138.129 57.5182 138.152 57.5261 138.171 57.538C138.191 57.55 138.209 57.5658 138.222 57.5846C138.236 57.6033 138.246 57.6246 138.252 57.6472C138.257 57.6698 138.258 57.6932 138.254 57.7162C138.251 57.7391 138.243 57.7611 138.23 57.7809C138.218 57.8007 138.202 57.8178 138.183 57.8314C138.164 57.8449 138.143 57.8545 138.12 57.8597C138.098 57.8649 138.074 57.8655 138.051 57.8616L138.048 57.8609L138.042 57.8598L133.574 57.0291L133.571 57.0286C133.54 57.023 133.514 57.0057 133.496 56.9805C133.478 56.9553 133.472 56.9241 133.477 56.8938C133.482 56.8635 133.499 56.8365 133.524 56.8187C133.549 56.8008 133.58 56.7935 133.61 56.7984Z" fill="#829BCD"/>
    <path d="M142.58 58.381L147.016 59.4488C147.054 59.4577 147.089 59.4739 147.119 59.4964C147.15 59.5188 147.176 59.5472 147.196 59.5797C147.216 59.6123 147.23 59.6485 147.236 59.6862C147.242 59.724 147.24 59.7625 147.231 59.7996C147.222 59.8368 147.206 59.8718 147.184 59.9027C147.161 59.9336 147.133 59.9597 147.1 59.9797C147.068 59.9996 147.031 60.0129 146.994 60.0189C146.956 60.0249 146.917 60.0233 146.88 60.0144L146.875 60.0129L146.857 60.0083L142.476 58.8357L142.465 58.8327C142.406 58.8169 142.355 58.7784 142.324 58.7255C142.293 58.6726 142.284 58.6096 142.299 58.5502C142.315 58.4907 142.352 58.4397 142.405 58.408C142.457 58.3763 142.52 58.3667 142.58 58.381Z" fill="#829BCD"/>
    <path d="M151.382 60.8207C152.837 61.3326 154.238 61.9852 155.567 62.7693C155.611 62.7967 155.65 62.8326 155.681 62.875C155.712 62.9173 155.734 62.9653 155.746 63.0162C155.758 63.0671 155.76 63.1199 155.752 63.1716C155.744 63.2233 155.726 63.2729 155.698 63.3175C155.671 63.3622 155.635 63.401 155.593 63.4317C155.55 63.4625 155.502 63.4846 155.451 63.4968C155.4 63.509 155.348 63.5111 155.296 63.5029C155.244 63.4946 155.195 63.4763 155.15 63.449L155.148 63.4477L155.144 63.4449C153.869 62.6674 152.526 62.007 151.133 61.4718C151.047 61.4382 150.978 61.3722 150.941 61.2881C150.904 61.2041 150.902 61.1087 150.935 61.0229C150.967 60.9371 151.033 60.8677 151.116 60.8298C151.2 60.7919 151.295 60.7887 151.382 60.8207Z" fill="#829BCD"/>
    <path d="M158.599 66.4551C158.639 66.9012 158.577 67.3506 158.418 67.7693C158.263 68.1665 158.046 68.5371 157.777 68.8682C157.259 69.4853 156.654 70.0233 155.98 70.465C155.929 70.5 155.872 70.5247 155.812 70.5377C155.752 70.5506 155.69 70.5516 155.629 70.5405C155.568 70.5295 155.51 70.5066 155.459 70.4731C155.407 70.4397 155.362 70.3964 155.327 70.3458C155.292 70.2951 155.268 70.238 155.255 70.1778C155.242 70.1175 155.241 70.0554 155.252 69.9948C155.263 69.9342 155.286 69.8763 155.319 69.8246C155.353 69.7728 155.396 69.7281 155.447 69.6931L155.451 69.69L155.458 69.6854C156.061 69.3046 156.606 68.8382 157.075 68.3009C157.518 67.8224 157.756 67.1882 157.735 66.5359L157.734 66.533C157.725 66.4186 157.76 66.305 157.834 66.2169C157.908 66.1288 158.013 66.0736 158.128 66.0633C158.242 66.053 158.356 66.0884 158.444 66.1619C158.532 66.2353 158.588 66.3408 158.599 66.4551Z" fill="#829BCD"/>
    <path d="M151.843 72.5725C150.417 73.1449 148.964 73.63 147.5 74.0684C147.363 74.1091 147.216 74.0938 147.09 74.0258C146.964 73.9579 146.871 73.8428 146.83 73.706C146.789 73.5691 146.804 73.4216 146.871 73.2957C146.939 73.1699 147.054 73.076 147.191 73.0347L147.199 73.0322C148.646 72.6233 150.078 72.169 151.474 71.6338C151.598 71.586 151.736 71.5891 151.858 71.6427C151.98 71.6963 152.076 71.7959 152.124 71.9198C152.173 72.0438 152.171 72.1819 152.118 72.3042C152.066 72.4265 151.967 72.5229 151.843 72.5725Z" fill="#829BCD"/>
    <path d="M143.077 75.2501L138.613 76.227C138.455 76.2608 138.291 76.2308 138.155 76.1434C138.019 76.0561 137.924 75.9185 137.889 75.7609C137.855 75.6033 137.884 75.4384 137.971 75.3024C138.058 75.1664 138.195 75.0703 138.352 75.0351L138.358 75.0338L138.383 75.0288L142.818 74.1302L142.84 74.1257C142.989 74.0956 143.143 74.1255 143.27 74.2088C143.397 74.2921 143.485 74.4221 143.516 74.5704C143.548 74.7187 143.519 74.8734 143.437 75.0007C143.354 75.128 143.225 75.2176 143.077 75.2501Z" fill="#829BCD"/>
    <path d="M134.124 77.0534L129.614 77.7478C129.527 77.7613 129.439 77.7576 129.354 77.7368C129.268 77.7161 129.188 77.6788 129.117 77.627C129.047 77.5752 128.987 77.51 128.941 77.4351C128.896 77.3601 128.866 77.277 128.852 77.1903C128.839 77.1037 128.843 77.0153 128.864 76.9301C128.885 76.845 128.922 76.7647 128.974 76.6941C129.026 76.6234 129.091 76.5637 129.166 76.5183C129.241 76.4729 129.324 76.4427 129.411 76.4295L129.417 76.4285L129.432 76.4264L133.918 75.7794L133.933 75.7771C134.102 75.7528 134.274 75.7963 134.411 75.8981C134.547 75.9999 134.638 76.1518 134.663 76.3206C134.689 76.4893 134.646 76.6611 134.545 76.7984C134.444 76.9357 134.292 77.0274 134.124 77.0534Z" fill="#829BCD"/>
    <path d="M125.093 78.3398L120.561 78.8464C120.376 78.8664 120.191 78.8123 120.046 78.6959C119.901 78.5795 119.808 78.4103 119.787 78.2254C119.766 78.0405 119.82 77.855 119.936 77.7094C120.052 77.5639 120.22 77.4701 120.405 77.4488L120.411 77.4482L120.423 77.447L124.934 76.9791L124.946 76.9778C125.126 76.9591 125.306 77.0126 125.447 77.1265C125.588 77.2405 125.678 77.4056 125.697 77.5857C125.717 77.7659 125.664 77.9464 125.551 78.0877C125.437 78.2291 125.273 78.3197 125.093 78.3398Z" fill="#829BCD"/>
    <path d="M116.022 79.2771L111.479 79.6386C111.382 79.6466 111.285 79.6353 111.192 79.6055C111.1 79.5756 111.014 79.5279 110.94 79.4649C110.866 79.4019 110.805 79.3249 110.761 79.2383C110.717 79.1517 110.69 79.0573 110.682 78.9604C110.675 78.8635 110.686 78.766 110.716 78.6735C110.746 78.581 110.794 78.4954 110.857 78.4214C110.92 78.3475 110.997 78.2868 111.084 78.2427C111.171 78.1986 111.265 78.1721 111.362 78.1646L111.368 78.1641L111.378 78.1634L115.903 77.8395L115.914 77.8387C116.104 77.8252 116.292 77.8876 116.436 78.0122C116.58 78.1368 116.669 78.3136 116.684 78.5038C116.698 78.694 116.637 78.8821 116.513 79.027C116.389 79.172 116.212 79.2619 116.022 79.2771Z" fill="#829BCD"/>
    <path d="M106.931 79.925L102.379 80.1506C102.28 80.1559 102.181 80.1416 102.088 80.1086C101.995 80.0756 101.909 80.0244 101.835 79.9581C101.762 79.8918 101.702 79.8117 101.66 79.7222C101.617 79.6328 101.593 79.5358 101.588 79.437C101.583 79.3381 101.598 79.2392 101.631 79.146C101.664 79.0528 101.716 78.9671 101.782 78.8939C101.849 78.8206 101.929 78.7613 102.019 78.7192C102.109 78.6771 102.206 78.6531 102.305 78.6486L102.306 78.6485L102.316 78.6481L106.849 78.4354L106.859 78.4349C107.056 78.4254 107.25 78.4948 107.396 78.6278C107.542 78.7607 107.63 78.9465 107.64 79.1441C107.649 79.3417 107.58 79.535 107.447 79.6814C107.314 79.8279 107.128 79.9155 106.931 79.925Z" fill="#829BCD"/>
    <path d="M97.8253 80.3189L93.2705 80.4321C93.1702 80.4347 93.0704 80.4174 92.9767 80.3814C92.8831 80.3453 92.7975 80.2912 92.7248 80.222C92.652 80.1529 92.5937 80.07 92.553 79.9783C92.5123 79.8866 92.49 79.7877 92.4875 79.6874C92.485 79.5871 92.5023 79.4872 92.5384 79.3936C92.5745 79.2999 92.6287 79.2143 92.6979 79.1416C92.7671 79.069 92.8499 79.0106 92.9417 78.97C93.0334 78.9293 93.1322 78.9071 93.2325 78.9047L93.2346 78.9046L93.2436 78.9044L97.7806 78.8036L97.7896 78.8034C97.9906 78.7987 98.1851 78.874 98.3305 79.0128C98.4759 79.1515 98.5603 79.3424 98.565 79.5433C98.5697 79.7443 98.4945 79.9389 98.3557 80.0843C98.217 80.2298 98.0262 80.3141 97.8253 80.3189Z" fill="#829BCD"/>
    <path d="M88.714 80.4915C87.1951 80.5011 85.6763 80.5017 84.1573 80.4934C83.9535 80.4918 83.7586 80.4096 83.6153 80.2646C83.472 80.1197 83.3919 79.9238 83.3926 79.72C83.3933 79.5161 83.4747 79.3208 83.619 79.1768C83.7633 79.0328 83.9587 78.9519 84.1625 78.9517H88.7092C88.9127 78.9519 89.1079 79.0328 89.252 79.1767C89.396 79.3205 89.4773 79.5156 89.4779 79.7192C89.4785 79.9228 89.3985 80.1184 89.2554 80.2631C89.1122 80.4079 88.9176 80.49 88.714 80.4915Z" fill="#829BCD"/>
    <path d="M79.6005 80.4359L75.0447 80.3245C74.9451 80.322 74.847 80.3 74.7559 80.2596C74.6649 80.2192 74.5826 80.1613 74.5139 80.0892C74.3752 79.9434 74.3 79.7485 74.3049 79.5473C74.3074 79.4477 74.3294 79.3496 74.3697 79.2585C74.4101 79.1674 74.468 79.0851 74.5402 79.0164C74.6859 78.8776 74.8807 78.8024 75.0819 78.8074L75.0889 78.8075L79.6268 78.9064L79.6359 78.9066C79.8386 78.9112 80.0311 78.9961 80.1712 79.1426C80.3113 79.2891 80.3875 79.4852 80.3831 79.6879C80.3787 79.8906 80.294 80.0833 80.1477 80.2235C80.0013 80.3638 79.8052 80.4402 79.6026 80.4359L79.6005 80.4359Z" fill="#829BCD"/>
    <path d="M70.4908 80.1576L65.9384 79.9339C65.7406 79.9241 65.5548 79.8362 65.4219 79.6895C65.2889 79.5428 65.2197 79.3492 65.2294 79.1514C65.2391 78.9536 65.327 78.7678 65.4737 78.6348C65.6204 78.5018 65.8139 78.4326 66.0116 78.4423L66.0193 78.4427L70.5531 78.6534L70.5626 78.6538C70.7619 78.6633 70.9492 78.7515 71.0834 78.899C71.2176 79.0466 71.2879 79.2414 71.2786 79.4406C71.2693 79.6399 71.1814 79.8274 71.034 79.9618C70.8867 80.0962 70.692 80.1667 70.4928 80.1577L70.4908 80.1576Z" fill="#829BCD"/>
    <path d="M61.389 79.6504L56.8439 79.2916C56.6528 79.2771 56.4753 79.1873 56.3503 79.0419C56.2254 78.8966 56.1633 78.7076 56.1776 78.5164C56.1919 78.3253 56.2814 78.1476 56.4266 78.0225C56.5718 77.8974 56.7607 77.835 56.9518 77.8491L56.9628 77.8499L61.4893 78.1725L61.4999 78.1733C61.6957 78.1872 61.8781 78.2784 62.0067 78.4269C62.1353 78.5753 62.1998 78.7687 62.1858 78.9647C62.1719 79.1606 62.0807 79.343 61.9323 79.4716C61.7839 79.6003 61.5905 79.6648 61.3946 79.6508L61.389 79.6504Z" fill="#829BCD"/>
    <path d="M52.3036 78.8634L47.77 78.3591C47.5896 78.339 47.4244 78.2482 47.3107 78.1066C47.197 77.965 47.144 77.7841 47.1633 77.6035C47.1826 77.4229 47.2726 77.2574 47.4137 77.143C47.5548 77.0286 47.7354 76.9748 47.916 76.9933L47.9286 76.9946L52.4417 77.4601L52.4538 77.4613C52.6398 77.4805 52.8105 77.5728 52.9285 77.7178C53.0464 77.8629 53.1019 78.0489 53.0827 78.2349C53.0635 78.421 52.9713 78.5917 52.8262 78.7097C52.6811 78.8277 52.4952 78.8832 52.3092 78.864L52.3036 78.8634Z" fill="#829BCD"/>
    <path d="M43.2465 77.7693L38.7354 77.0796C38.566 77.0538 38.4137 76.9618 38.3119 76.8239C38.21 76.6861 38.167 76.5134 38.192 76.3439C38.2171 76.1743 38.3084 76.0215 38.4458 75.9191C38.5832 75.8166 38.7555 75.7728 38.9252 75.7971L38.9412 75.7994L43.4275 76.4444L43.4426 76.4466C43.6171 76.473 43.774 76.5673 43.8792 76.709C43.9844 76.8506 44.0293 77.0281 44.0042 77.2028C43.9791 77.3775 43.886 77.5351 43.7452 77.6414C43.6044 77.7477 43.4272 77.794 43.2524 77.7702L43.2465 77.7693Z" fill="#829BCD"/>
    <path d="M34.2439 76.2571L29.7775 75.2852C29.6288 75.2528 29.4989 75.163 29.4161 75.0352C29.3333 74.9075 29.3043 74.7522 29.3354 74.6032C29.3666 74.4542 29.4553 74.3235 29.5823 74.2396C29.7093 74.1557 29.8643 74.1254 30.0135 74.1553L30.0366 74.1599L34.4734 75.0532L34.495 75.0575C34.574 75.0733 34.649 75.1045 34.7159 75.1494C34.7828 75.1942 34.8402 75.2518 34.8848 75.3188C34.9294 75.3859 34.9604 75.461 34.9759 75.5401C34.9915 75.6191 34.9913 75.7004 34.9754 75.7794C34.9595 75.8583 34.9283 75.9334 34.8833 76.0002C34.8384 76.0671 34.7808 76.1244 34.7137 76.169C34.6467 76.2135 34.5715 76.2444 34.4924 76.2599C34.4134 76.2753 34.3321 76.2751 34.2532 76.2591L34.2439 76.2571Z" fill="#829BCD"/>
    <path d="M25.3513 74.1104C23.8859 73.6748 22.431 73.193 21.0017 72.6257C20.8775 72.5764 20.7777 72.4799 20.7243 72.3573C20.6709 72.2347 20.6681 72.096 20.7166 71.9713C20.765 71.8467 20.8608 71.7463 20.983 71.692C21.1052 71.6378 21.2439 71.634 21.3688 71.6816C22.7679 72.212 24.2028 72.6628 25.6513 73.0689C25.7897 73.1075 25.9071 73.1996 25.9777 73.3248C26.0483 73.45 26.0662 73.5982 26.0276 73.7366C25.9889 73.8751 25.8969 73.9925 25.7717 74.0631C25.6465 74.1336 25.4984 74.1516 25.36 74.1129L25.3513 74.1104Z" fill="#829BCD"/>
    <path d="M16.8515 70.545C16.1756 70.1113 15.5629 69.5864 15.0304 68.9853C14.7532 68.6643 14.5255 68.3037 14.3548 67.9154C14.1748 67.5069 14.0889 67.0632 14.1034 66.617C14.1083 66.5022 14.1584 66.394 14.2428 66.3159C14.3272 66.2379 14.439 66.1964 14.5539 66.2005C14.6688 66.2045 14.7774 66.2539 14.856 66.3377C14.9347 66.4215 14.977 66.533 14.9738 66.6479C14.9951 67.3033 15.261 67.927 15.7193 68.396C16.2039 68.9225 16.7583 69.3803 17.3669 69.7566L17.3726 69.7602C17.4773 69.8285 17.5505 69.9355 17.5762 70.0578C17.602 70.18 17.5781 70.3075 17.5099 70.4121C17.4417 70.5168 17.3346 70.59 17.2124 70.6158C17.0902 70.6415 16.9627 70.6176 16.8581 70.5494L16.8515 70.545Z" fill="#829BCD"/>
    <path d="M17.0255 62.8448C18.3467 62.048 19.7448 61.3864 21.1986 60.87C21.2849 60.8376 21.3804 60.8405 21.4646 60.8781C21.5487 60.9156 21.6147 60.9848 21.6482 61.0707C21.6818 61.1565 21.6802 61.2521 21.6438 61.3368C21.6074 61.4215 21.5391 61.4884 21.4537 61.5231L21.4514 61.524C20.0608 62.063 18.7236 62.7307 17.4571 63.5185L17.4544 63.5203C17.3652 63.5777 17.2568 63.5974 17.1532 63.5749C17.0495 63.5524 16.959 63.4896 16.9015 63.4004C16.8441 63.3112 16.8245 63.2028 16.847 63.0991C16.8695 62.9954 16.9322 62.9048 17.0214 62.8474L17.0255 62.8448Z" fill="#829BCD"/>
    <path d="M25.5592 59.4868L29.9919 58.4123C30.0517 58.3979 30.1148 58.4075 30.1676 58.4393C30.2203 58.471 30.2585 58.5222 30.2738 58.5819C30.2891 58.6415 30.2803 58.7048 30.2494 58.758C30.2184 58.8112 30.1678 58.8501 30.1084 58.8662L30.0966 58.8695L25.7205 60.0492L25.7041 60.0535C25.6293 60.0735 25.5497 60.0629 25.4827 60.0242C25.4156 59.9855 25.3667 59.9217 25.3465 59.847C25.3264 59.7722 25.3367 59.6925 25.3752 59.6253C25.4137 59.5582 25.4772 59.509 25.5519 59.4886L25.5592 59.4868Z" fill="#829BCD"/>
    <path d="M34.4637 57.541L38.9587 56.8206C38.9739 56.8179 38.9895 56.8183 39.0045 56.8217C39.0196 56.8251 39.0339 56.8314 39.0465 56.8402C39.0591 56.8491 39.0699 56.8604 39.0781 56.8734C39.0864 56.8865 39.092 56.901 39.0947 56.9162C39.0973 56.9314 39.0969 56.947 39.0936 56.9621C39.0902 56.9772 39.0839 56.9914 39.075 57.004C39.0661 57.0167 39.0549 57.0274 39.0418 57.0357C39.0288 57.044 39.0143 57.0496 38.999 57.0522L38.9956 57.0529L34.5293 57.8878L34.524 57.8888C34.5013 57.893 34.4779 57.8928 34.4552 57.888C34.4325 57.8832 34.411 57.874 34.3919 57.8609C34.3728 57.8478 34.3564 57.8311 34.3438 57.8116C34.3311 57.7922 34.3224 57.7705 34.3182 57.7477C34.3139 57.7249 34.3142 57.7015 34.319 57.6789C34.3238 57.6562 34.333 57.6347 34.3461 57.6156C34.3592 57.5964 34.3759 57.5801 34.3953 57.5674C34.4147 57.5548 34.4364 57.5461 34.4592 57.5418L34.4637 57.541Z" fill="#829BCD"/>
    <path d="M43.483 56.2363L45.7895 55.978L43.4936 56.315C43.4884 56.3159 43.4831 56.3157 43.478 56.3145C43.4729 56.3133 43.468 56.3111 43.4638 56.3081C43.4595 56.305 43.4559 56.3011 43.4532 56.2967C43.4504 56.2922 43.4486 56.2872 43.4478 56.282C43.4469 56.2768 43.4472 56.2715 43.4484 56.2664C43.4496 56.2613 43.4519 56.2565 43.455 56.2523C43.4581 56.2481 43.462 56.2445 43.4665 56.2418C43.471 56.2391 43.476 56.2373 43.4812 56.2365L43.483 56.2363Z" fill="#829BCD"/>
    <path d="M153.064 72.2315L142.803 75.238L122.525 81.1786L114.718 87.9404C114.625 88.0217 114.506 88.069 114.382 88.0746C114.258 88.0801 114.136 88.0437 114.035 87.9711L114.014 87.9541C113.921 87.8796 113.854 87.7768 113.824 87.6611C113.794 87.5454 113.803 87.4231 113.848 87.3127L117.547 79.3325L118.871 76.4744L152.841 71.155C152.978 71.1381 153.117 71.1735 153.229 71.2542C153.342 71.3349 153.42 71.4549 153.448 71.5904C153.476 71.7259 153.452 71.8671 153.381 71.9858C153.31 72.1046 153.197 72.1923 153.064 72.2315Z" fill="#B9C1D7"/>
    <path d="M153.346 72.0392L153.34 72.0462C153.25 72.1588 153.12 72.2317 152.977 72.2492L146.227 73.0855L118.869 76.4768L112.296 66.2526C112.239 66.1635 112.208 66.06 112.208 65.9542C112.208 65.8485 112.239 65.7449 112.296 65.6559C112.353 65.5669 112.434 65.4962 112.53 65.4521C112.627 65.4081 112.733 65.3925 112.838 65.4073L152.974 71.154L152.991 71.1558L153.021 71.1614L153.053 71.1686L153.081 71.1771L153.115 71.1894L153.143 71.2016L153.147 71.2042L153.174 71.2178L153.202 71.234C153.22 71.2455 153.237 71.2578 153.254 71.271C153.277 71.2887 153.297 71.3081 153.316 71.3289C153.325 71.3383 153.334 71.3482 153.342 71.3586C153.351 71.3691 153.359 71.3803 153.367 71.3919L153.39 71.4295C153.395 71.4372 153.4 71.4454 153.403 71.4539C153.405 71.4565 153.407 71.4597 153.408 71.4631L153.42 71.4884L153.424 71.4916L153.433 71.5153C153.44 71.536 153.446 71.5572 153.451 71.5787C153.454 71.5886 153.456 71.5987 153.457 71.6089C153.463 71.6417 153.465 71.6749 153.464 71.7081C153.464 71.7238 153.463 71.7394 153.461 71.7549C153.46 71.7683 153.458 71.7816 153.456 71.795C153.453 71.8083 153.449 71.8291 153.445 71.8463C153.441 71.861 153.436 71.8755 153.431 71.8897C153.425 71.9074 153.418 71.9247 153.409 71.9415C153.403 71.9514 153.398 71.9616 153.393 71.9721C153.379 71.9955 153.363 72.018 153.346 72.0392Z" fill="#DBE0F0"/>
    <mask id="mask0_4100_451382" style="mask-type:luminance" maskUnits="userSpaceOnUse" x="102" y="49" width="53" height="53">
        <path d="M125.486 49.0249L102.051 78.4111L130.743 101.298L154.178 71.9119L125.486 49.0249Z" fill="white"/>
    </mask>
    <g mask="url(#mask0_4100_451382)">
        <path d="M133.498 97.7998C133.453 97.8578 133.397 97.9064 133.334 97.9426C133.27 97.9789 133.2 98.0021 133.127 98.0108C133.054 98.0196 132.981 98.0138 132.91 97.9937C132.84 97.9736 132.774 97.9397 132.717 97.8939C132.67 97.8566 132.63 97.812 132.597 97.762L121.419 80.3848L146.228 73.0854L152.754 71.1729C152.828 71.1509 152.906 71.1446 152.983 71.1543C152.994 71.1563 153.006 71.158 153.018 71.1608L153.05 71.1685L153.078 71.1767L153.112 71.189L153.14 71.201L153.144 71.2039L153.17 71.2177L153.199 71.2338C153.217 71.2453 153.234 71.2576 153.251 71.2707C153.273 71.2885 153.294 71.3078 153.313 71.3287C153.322 71.3381 153.331 71.348 153.338 71.3584C153.347 71.3689 153.356 71.3801 153.364 71.3918L153.387 71.4294C153.392 71.437 153.396 71.4451 153.4 71.4535C153.402 71.4563 153.404 71.4595 153.405 71.463L153.416 71.4883L153.42 71.4915L153.43 71.5152C153.437 71.5359 153.443 71.557 153.448 71.5785C153.451 71.5884 153.453 71.5985 153.454 71.6088C153.459 71.6416 153.461 71.6748 153.46 71.708C153.46 71.7236 153.46 71.7392 153.458 71.7547C153.457 71.7679 153.455 71.7812 153.452 71.7945C153.45 71.8079 153.446 71.8289 153.442 71.8461C153.438 71.8609 153.433 71.8754 153.427 71.8896C153.421 71.9072 153.414 71.9244 153.406 71.941C153.4 71.9509 153.395 71.9612 153.39 71.9717C153.377 71.9954 153.362 72.0181 153.346 72.0398L153.341 72.046L133.498 97.7998Z" fill="#A2ADC5"/>
        <path d="M124.745 85.5555L114.489 88.0596C114.407 88.0795 114.322 88.0805 114.24 88.0623C114.157 88.0442 114.08 88.0075 114.015 87.9549C113.954 87.9067 113.904 87.8459 113.869 87.7767C113.812 87.6669 113.793 87.5409 113.817 87.4193C113.84 87.2977 113.904 87.1876 113.998 87.1067L121.419 80.3853L124.745 85.5555Z" fill="#7C849D"/>
    </g>
    <path d="M121.418 80.3853L124.745 85.5561L123.252 85.9205L120.6 81.1259L121.418 80.3853Z" fill="#5F6675"/>
    <defs>
        <linearGradient id="paint0_linear_4100_451382" x1="117.454" y1="148.056" x2="177.138" y2="9.74016" gradientUnits="userSpaceOnUse">
            <stop stop-color="#4D77B7"/>
            <stop offset="1" stop-color="#4D77B7" stop-opacity="0"/>
        </linearGradient>
        <linearGradient id="paint1_linear_4100_451382" x1="77.7698" y1="50.5512" x2="86.9684" y2="24.1994" gradientUnits="userSpaceOnUse">
            <stop stop-color="#4D77B7"/>
            <stop offset="1" stop-color="#4D77B7" stop-opacity="0"/>
        </linearGradient>
        <linearGradient id="paint2_linear_4100_451382" x1="87.6523" y1="86.5729" x2="110.776" y2="54.8244" gradientUnits="userSpaceOnUse">
            <stop stop-color="#4D77B7"/>
            <stop offset="1" stop-color="#4D77B7" stop-opacity="0"/>
        </linearGradient>
        <linearGradient id="paint3_linear_4100_451382" x1="121.118" y1="84.2209" x2="147.991" y2="59.4717" gradientUnits="userSpaceOnUse">
            <stop stop-color="#4D77B7"/>
            <stop offset="1" stop-color="#4D77B7" stop-opacity="0"/>
        </linearGradient>
        <linearGradient id="paint4_linear_4100_451382" x1="76.5477" y1="112.352" x2="88.908" y2="83.5315" gradientUnits="userSpaceOnUse">
            <stop stop-color="#4D77B7"/>
            <stop offset="1" stop-color="#4D77B7" stop-opacity="0"/>
        </linearGradient>
    </defs>
</svg>
