<svg width="178" height="128" viewBox="0 0 178 128" fill="none" xmlns="http://www.w3.org/2000/svg">
    <g opacity="0.2">
        <path fill-rule="evenodd" clip-rule="evenodd" d="M0.888184 70.6776C0.888184 85.4179 6.37513 98.85 15.4043 109.001C25.7627 120.651 40.7835 127.975 57.5268 128C64.8442 128.01 71.841 126.618 78.2679 124.076C81.591 122.761 85.3103 122.912 88.5287 124.47C92.304 126.295 96.5315 127.318 100.996 127.318C102.84 127.318 104.645 127.142 106.392 126.808C111.378 125.859 115.916 123.612 119.642 120.43C121.984 118.429 124.983 117.423 128.048 117.427H128.1C138.229 117.427 147.638 114.322 155.449 109.001C162.432 104.251 168.135 97.7316 171.935 90.077C175.247 83.4066 177.112 75.8713 177.112 67.8961C177.112 40.543 155.167 18.3656 128.1 18.3656C125.341 18.3656 122.638 18.6012 120 19.0406C113.017 7.61602 100.512 0 86.246 0C80.2231 0 74.5131 1.3574 69.402 3.79066C64.5413 6.09719 60.2197 9.37468 56.6844 13.3689C44.6803 13.5623 33.5806 17.5253 24.4959 24.1392C10.1955 34.5441 0.888184 51.5137 0.888184 70.6776Z" fill="url(#paint0_linear_4100_451323)"/>
    </g>
    <path opacity="0.545118" fill-rule="evenodd" clip-rule="evenodd" d="M100.357 14.1633C101.253 15.0502 102.43 15.4935 103.607 15.4935C104.784 15.4935 105.961 15.0502 106.857 14.1633C108.649 12.3898 108.649 9.50382 106.857 7.73002C105.065 5.95622 102.148 5.95684 100.357 7.73002C98.5644 9.50351 98.5644 12.3895 100.357 14.1633ZM102.598 9.94851C102.876 9.67306 103.242 9.53564 103.607 9.53564C103.972 9.53564 104.337 9.67337 104.615 9.94851C105.172 10.4991 105.172 11.3948 104.615 11.9451C104.059 12.4956 103.155 12.4953 102.598 11.9451C102.042 11.3945 102.042 10.4988 102.598 9.94851Z" fill="#6B9AE1"/>
    <path opacity="0.545118" fill-rule="evenodd" clip-rule="evenodd" d="M64.2212 120.373C65.1171 121.26 66.2944 121.703 67.4715 121.703C68.6485 121.703 69.8259 121.26 70.7218 120.373C72.5141 118.6 72.5141 115.714 70.7218 113.94C68.93 112.166 66.0129 112.166 64.2212 113.94C62.4289 115.713 62.4289 118.599 64.2212 120.373ZM66.4626 116.158C66.7409 115.883 67.1064 115.746 67.4716 115.746C67.8368 115.746 68.2023 115.883 68.4803 116.158C69.0363 116.709 69.0363 117.605 68.4803 118.155C67.9237 118.706 67.0192 118.706 66.4626 118.155C65.9065 117.604 65.9065 116.709 66.4626 116.158Z" fill="#6B9AE1"/>
    <path d="M147.835 100.278C147.43 100.278 147.024 100.125 146.715 99.8187L144.824 97.9476L142.933 99.8187C142.314 100.431 141.31 100.431 140.691 99.8187C140.072 99.206 140.072 98.2127 140.691 97.6003L143.703 94.6199C144.321 94.0075 145.326 94.0075 145.944 94.6199L148.956 97.6003C149.575 98.213 149.575 99.2063 148.956 99.8187C148.647 100.125 148.241 100.278 147.835 100.278Z" fill="#1A2859" fill-opacity="0.25"/>
    <path d="M36.039 94.3014C35.6335 94.3014 35.2274 94.1483 34.9184 93.8421L33.0274 91.9711L31.1365 93.8421C30.518 94.4545 29.5137 94.4545 28.8952 93.8421C28.2761 93.2294 28.2761 92.2362 28.8952 91.6238L31.9068 88.6434C32.5253 88.031 33.5296 88.031 34.148 88.6434L37.1596 91.6238C37.7787 92.2365 37.7787 93.2297 37.1596 93.8421C36.8502 94.148 36.4444 94.3014 36.039 94.3014Z" fill="#1A2859" fill-opacity="0.25"/>
    <rect x="42.9233" y="26.6665" width="92.6926" height="74.6667" rx="12" fill="#EEF1FC" stroke="#919EAB" stroke-opacity="0.48" stroke-width="1.5"/>
    <mask id="mask0_4100_451323" style="mask-type:alpha" maskUnits="userSpaceOnUse" x="42" y="25" width="95" height="78">
        <rect x="42.9233" y="26.6665" width="92.6926" height="74.6667" rx="12" fill="white" stroke="white" stroke-width="1.5"/>
    </mask>
    <g mask="url(#mask0_4100_451323)">
        <path opacity="0.32" fill-rule="evenodd" clip-rule="evenodd" d="M45.6389 26.6665H132.9C134.421 26.6665 135.616 27.605 135.616 28.7998V47.9998H42.9233V28.7998C42.9233 27.605 44.118 26.6665 45.6389 26.6665ZM54.2405 37.3332C54.2405 38.8263 55.4259 39.9998 56.935 39.9998C58.4442 39.9998 59.6296 38.8263 59.6296 37.3332C59.6296 35.8397 58.4442 34.6665 56.935 34.6665C55.4259 34.6665 54.2405 35.8397 54.2405 37.3332ZM67.7131 39.9998C66.204 39.9998 65.0186 38.8263 65.0186 37.3332C65.0186 35.8397 66.204 34.6665 67.7131 34.6665C69.2222 34.6665 70.4077 35.8397 70.4077 37.3332C70.4077 38.8263 69.2222 39.9998 67.7131 39.9998ZM75.7969 37.3332C75.7969 38.8263 76.9823 39.9998 78.4915 39.9998C80.0006 39.9998 81.186 38.8263 81.186 37.3332C81.186 35.8397 80.0006 34.6665 78.4915 34.6665C76.9823 34.6665 75.7969 35.8397 75.7969 37.3332Z" fill="#829CCD"/>
        <path d="M121.604 55.4663H94.6587C93.1693 55.4663 91.9641 56.659 91.9641 58.133V90.133C91.9641 91.6069 93.1693 92.7996 94.6587 92.7996H121.604C123.094 92.7996 124.299 91.6069 124.299 90.133V58.133C124.299 56.659 123.094 55.4663 121.604 55.4663Z" fill="#1A2859" fill-opacity="0.25" stroke="#829CCD" stroke-width="1.2" stroke-dasharray="2 2"/>
        <path opacity="0.72" d="M56.935 60.7996H67.7132C69.2026 60.7996 70.4078 59.6069 70.4078 58.133C70.4078 56.659 69.2026 55.4663 67.7132 55.4663H56.935C55.4457 55.4663 54.2405 56.659 54.2405 58.133C54.2405 59.6069 55.4457 60.7996 56.935 60.7996Z" stroke="#829CCD" stroke-width="1.2" stroke-dasharray="2 2"/>
        <path opacity="0.72" d="M83.8806 66.1333H56.935C55.4457 66.1333 54.2405 67.326 54.2405 68.8C54.2405 70.2739 55.4457 71.4666 56.935 71.4666H83.8806C85.3699 71.4666 86.5751 70.2739 86.5751 68.8C86.5751 67.326 85.3699 66.1333 83.8806 66.1333Z" stroke="#829CCD" stroke-width="1.2" stroke-dasharray="2 2"/>
        <path opacity="0.72" d="M83.8806 76.7998H56.935C55.4457 76.7998 54.2405 77.9925 54.2405 79.4665C54.2405 80.9404 55.4457 82.1331 56.935 82.1331H83.8806C85.3699 82.1331 86.5751 80.9404 86.5751 79.4665C86.5751 77.9925 85.3699 76.7998 83.8806 76.7998Z" stroke="#829CCD" stroke-width="1.2" stroke-dasharray="2 2"/>
        <path opacity="0.72" d="M83.8806 87.4663H56.935C55.4457 87.4663 54.2405 88.659 54.2405 90.133C54.2405 91.6069 55.4457 92.7996 56.935 92.7996H83.8806C85.3699 92.7996 86.5751 91.6069 86.5751 90.133C86.5751 88.659 85.3699 87.4663 83.8806 87.4663Z" stroke="#829CCD" stroke-width="1.2" stroke-dasharray="2 2"/>
    </g>
    <defs>
        <linearGradient id="paint0_linear_4100_451323" x1="121.605" y1="150.767" x2="183.037" y2="7.80178" gradientUnits="userSpaceOnUse">
            <stop stop-color="#4D77B7"/>
            <stop offset="1" stop-color="#4D77B7" stop-opacity="0"/>
        </linearGradient>
    </defs>
</svg>
