<svg width="172" height="132" viewBox="0 0 172 132" fill="none" xmlns="http://www.w3.org/2000/svg">
    <path opacity="0.2" d="M29.9931 27.3204C24.6183 28.4613 19.0316 29.6995 14.7167 33.1067C11.0732 35.9811 5.39586 41.2876 3.67567 45.5992C-3.61143 63.8116 4.62741 85.973 20.6193 97.3069C28.1404 102.638 37.5143 105.218 44.2736 111.493C48.5487 115.462 51.5431 120.715 56.092 124.364C62.7387 129.69 71.7129 130.869 80.2056 131.439C86.106 131.839 92.236 132.012 97.7101 129.765C101.667 128.142 105.019 125.359 108.31 122.615L130.107 104.389C133.609 101.464 136.884 96.805 141.444 96.8359C182.486 97.13 185.252 48.7676 122.263 27.3469C116.712 25.4587 112.905 20.2096 107.689 17.5188C96.9152 11.958 84.5161 13.76 73.6495 17.6072C59.8526 22.5047 44.3112 24.2713 29.9931 27.3204Z" fill="url(#paint0_linear_4072_450125)"/>
    <path d="M137.377 44.3514V101.963C137.377 102.685 137.235 103.399 136.959 104.066C136.683 104.733 136.278 105.339 135.768 105.849C135.258 106.359 134.653 106.764 133.987 107.04C133.32 107.316 132.607 107.457 131.886 107.457H45.8339C45.1128 107.457 44.3987 107.315 43.7326 107.039C43.0664 106.762 42.4611 106.357 41.9513 105.846C41.4415 105.336 41.0372 104.73 40.7615 104.062C40.4857 103.395 40.3439 102.68 40.3442 101.958V44.3514C40.3437 43.6293 40.4852 42.9142 40.7609 42.2469C41.0365 41.5796 41.4408 40.9733 41.9507 40.4626C42.4605 39.9519 43.0659 39.5468 43.7322 39.2706C44.3985 38.9943 45.1127 38.8522 45.8339 38.8525H131.886C133.342 38.8525 134.739 39.4319 135.769 40.4631C136.799 41.4944 137.377 42.893 137.377 44.3514Z" fill="#EEF1FC"/>
    <path d="M39.5942 44.3517L39.5942 101.958C39.5942 101.958 39.5942 101.958 39.5942 101.958C39.5939 102.779 39.755 103.591 40.0684 104.349C40.3817 105.107 40.8412 105.796 41.4206 106.376C41.9999 106.957 42.6879 107.417 43.4452 107.731C44.2024 108.045 45.0141 108.207 45.8339 108.207H131.885C131.885 108.207 131.886 108.207 131.886 108.207C132.705 108.207 133.517 108.046 134.274 107.732C135.031 107.419 135.719 106.959 136.298 106.379C136.878 105.799 137.338 105.111 137.652 104.353C137.965 103.595 138.127 102.783 138.127 101.963V101.963V44.3514C138.127 42.6944 137.47 41.1051 136.3 39.9331C135.129 38.7611 133.541 38.1025 131.886 38.1025L45.8342 38.1025C45.8341 38.1025 45.8339 38.1025 45.8339 38.1025C45.014 38.1022 44.2024 38.2637 43.445 38.5778C42.6875 38.8918 41.9994 39.3523 41.4199 39.9327C40.8404 40.5132 40.3809 41.2023 40.0677 41.9606C39.7545 42.7188 39.5936 43.5313 39.5942 44.3517ZM39.5942 44.3517C39.5942 44.3518 39.5942 44.3519 39.5942 44.352L40.3442 44.3514H39.5942V44.3517Z" stroke="#919EAB" stroke-opacity="0.48" stroke-width="1.5"/>
    <path d="M135.889 40.6105H41.6846L42.4486 40.0246C42.4839 39.9939 42.5208 39.9651 42.559 39.9383L87.3725 5.54315L88.7879 4.45752L134.381 39.4541L135.889 40.6105Z" fill="#829BCD"/>
    <path d="M137.377 44.3514L136.231 45.1806L127.887 51.2322L87.5 78L48.4086 50.5689L40.3442 44.3514L40.448 43.2835C40.6445 42.2823 41.1172 41.3562 41.8127 40.6103C42.0079 40.3975 42.2207 40.2015 42.4487 40.0244C42.484 39.9938 42.5208 39.965 42.5591 39.9382C43.5049 39.2317 44.6538 38.8508 45.8339 38.8525H131.886C133.25 38.8533 134.565 39.3623 135.576 40.2807C136.586 41.1991 137.219 42.461 137.351 43.8208C137.369 43.9971 137.378 44.1742 137.377 44.3514Z" fill="#829BCD"/>
    <path opacity="0.61" d="M42.4486 40.02C42.2217 40.1984 42.009 40.3943 41.8126 40.6059H41.6846L42.4486 40.02Z" fill="url(#paint1_linear_4072_450125)"/>
    <path d="M137.351 43.8232C137.384 44.154 137.218 44.4671 136.949 44.6624L136.231 45.1829L127.887 51.2324L94.6378 75.346C90.33 78.4702 84.4793 78.3842 80.2651 75.1348L48.4086 50.5713L41.1921 45.0055C40.6646 44.5986 40.3834 43.949 40.448 43.2859C40.6445 42.284 41.1173 41.3572 41.8127 40.6105C42.0091 40.3988 42.2217 40.2029 42.4487 40.0246L42.5591 39.9405L87.3725 5.54315C88.2074 4.90279 89.3684 4.90301 90.203 5.54369L133.507 38.7831C134.088 39.2295 134.732 39.593 135.306 40.0497C135.736 40.3922 136.114 40.7989 136.426 41.2572C136.945 42.0209 137.263 42.9035 137.351 43.8232Z" fill="#B8BFD3"/>
    <path d="M136.672 45.7902L136.672 45.79L137.389 45.2695C137.839 44.9436 138.161 44.3867 138.097 43.7502C137.997 42.7057 137.636 41.7032 137.046 40.8356C136.692 40.3146 136.262 39.8524 135.773 39.463C135.459 39.2124 135.129 38.9912 134.826 38.7886L134.777 38.7563C134.484 38.5611 134.216 38.3824 133.963 38.1882L90.6597 4.94875C89.5558 4.10139 88.0203 4.10109 86.9161 4.94803L86.9158 4.9482L42.1049 39.3437L42.1024 39.3456L41.9945 39.4277L41.9944 39.4277L41.9852 39.4349C41.7276 39.6373 41.4863 39.8597 41.2634 40.0999C40.4728 40.949 39.9354 42.0026 39.712 43.1415L39.7051 43.1771L39.7016 43.2132C39.6119 44.1333 40.002 45.0348 40.7341 45.5994L47.9506 51.1652L47.9507 51.1652L79.8072 75.7288C84.2847 79.1813 90.5011 79.2726 95.0781 75.9531L128.327 51.8396L128.327 51.8395L136.672 45.7902Z" stroke="#919EAB" stroke-opacity="0.48" stroke-width="1.5"/>
    <path d="M127.887 40.0953V51.2346L112.935 62.0688L109.505 64.5629C109.505 64.5629 92.5 77.4292 87.5 77.5C82.5 77.5708 66.5558 64.5629 66.5558 64.5629L63.334 62.0776L48.4087 50.5801V40.0953C48.4087 39.2292 48.7523 38.3985 49.364 37.7861C49.9756 37.1737 50.8052 36.8296 51.6702 36.8296H124.627C125.492 36.8302 126.321 37.1745 126.932 37.7869C127.543 38.3993 127.887 39.2296 127.887 40.0953Z" fill="white"/>
    <path d="M87.3726 80.6152L51.4097 107.462H124.077L87.3726 80.6152Z" fill="#CBD6ED"/>
    <path opacity="0.54" d="M56.3517 19.9435C54.541 16.0543 47.7397 16.6933 47.7397 16.6933C51.9353 14.2147 51.1315 7.9198 51.0807 7.54834C52.9157 13.0362 59.2511 11.8245 59.8186 11.7051C55.612 12.7443 56.3517 19.9435 56.3517 19.9435ZM44.5599 27.9232C43.4094 25.4513 39.0835 25.8581 39.0835 25.8581C41.8217 24.2285 41.2012 20.0342 41.2012 20.0342V20.0585C42.3759 23.5276 46.3949 22.7582 46.7526 22.683C44.0895 23.3463 44.5599 27.9232 44.5599 27.9232Z" fill="#6B9AE1"/>
    <path opacity="0.22" d="M48.7135 16.3749L47.7441 16.6933C51.9397 14.2147 51.1359 7.9198 51.0851 7.54834C51.1513 7.84683 52.1274 12.0014 51.5952 13.3656C50.9305 15.0704 48.7135 16.3749 48.7135 16.3749ZM41.7797 23.9765C41.2674 24.6862 39.2314 25.7807 39.0923 25.8537C41.8305 24.2241 41.21 20.0297 41.21 20.0297V20.0541C41.3182 20.3415 42.2787 23.2822 41.7797 23.9765Z" fill="white"/>
    <path opacity="0.22" d="M40.5076 47.3763L85.4823 82.0257L87.3725 80.6151L40.3442 44.3516L40.5076 47.3763ZM88.8609 81.8024L137.377 46.8368V44.4511L87.3725 80.7124L88.8609 81.8024Z" fill="white"/>
    <path opacity="0.72" d="M118.687 51H56.3129C55.9647 51 55.6308 50.6313 55.3845 49.9749C55.1383 49.3185 55 48.4283 55 47.5C55 46.5717 55.1383 45.6815 55.3845 45.0251C55.6308 44.3687 55.9647 44 56.3129 44H118.687C119.035 44 119.369 44.3687 119.615 45.0251C119.862 45.6815 120 46.5717 120 47.5C120 48.4283 119.862 49.3185 119.615 49.9749C119.369 50.6313 119.035 51 118.687 51Z" stroke="#829CCD" stroke-width="1.2" stroke-dasharray="2 2"/>
    <path opacity="0.72" d="M116 59L106.5 66H69.5L60 59H116Z" stroke="#829CCD" stroke-width="1.2" stroke-dasharray="2 2"/>
    <path opacity="0.22" d="M137.351 43.9205L137.219 44.292L136.231 45.2803C136.925 44.082 134.966 41.3004 134.966 41.3004L134.184 40.7145L131.837 38.9457L87.3726 5.64276L88.788 4.55713L134.381 39.5515C135.203 39.9712 135.906 40.5915 136.425 41.3551C136.944 42.1188 137.262 43.0011 137.351 43.9205Z" fill="white"/>
    <path opacity="0.545118" fill-rule="evenodd" clip-rule="evenodd" d="M104.344 118.33C105.24 117.443 106.417 117 107.595 117C108.772 117 109.949 117.443 110.844 118.33C112.637 120.104 112.637 122.99 110.844 124.764C109.052 126.537 106.136 126.537 104.344 124.764C102.552 122.99 102.552 120.104 104.344 118.33ZM106.586 122.545C106.864 122.821 107.229 122.958 107.595 122.958C107.96 122.958 108.325 122.82 108.603 122.545C109.159 121.995 109.159 121.099 108.603 120.549C108.046 119.998 107.142 119.998 106.586 120.549C106.03 121.099 106.03 121.995 106.586 122.545Z" fill="#6B9AE1"/>
    <path d="M156.608 35.9999C156.203 35.9999 155.797 36.153 155.487 36.4591L153.597 38.3302L151.706 36.4591C151.087 35.8468 150.083 35.8468 149.464 36.4591C148.845 37.0719 148.845 38.0651 149.464 38.6775L152.476 41.6579C153.094 42.2703 154.099 42.2703 154.717 41.6579L157.729 38.6775C158.348 38.0648 158.348 37.0715 157.729 36.4591C157.42 36.1533 157.014 35.9999 156.608 35.9999Z" fill="#1A2859" fill-opacity="0.25"/>
    <defs>
        <linearGradient id="paint0_linear_4072_450125" x1="117.529" y1="152.614" x2="172.113" y2="19.2425" gradientUnits="userSpaceOnUse">
            <stop stop-color="#4D77B7"/>
            <stop offset="1" stop-color="#4D77B7" stop-opacity="0"/>
        </linearGradient>
        <linearGradient id="paint1_linear_4072_450125" x1="41.7199" y1="41.2626" x2="42.5676" y2="38.9616" gradientUnits="userSpaceOnUse">
            <stop offset="0.36" stop-color="#00272E"/>
            <stop offset="0.75" stop-color="#3F80A1" stop-opacity="0.25"/>
            <stop offset="1" stop-color="#69B9EB" stop-opacity="0"/>
        </linearGradient>
    </defs>
</svg>
