<svg width="454" height="450" viewBox="0 0 454 450" fill="none" xmlns="http://www.w3.org/2000/svg">
    <circle cx="227" cy="225" r="126.052" stroke="#EDEEF0" stroke-width="1.60576"/>
    <circle cx="227" cy="225.001" r="174.225" stroke="#EDEEF0" stroke-width="1.60576"/>
    <circle cx="227" cy="225" r="224.004" stroke="#EDEEF0" stroke-width="1.60576"/>
    <g filter="url(#filter0_d_2870_46340)">
        <rect x="15.3525" y="125.207" width="423.295" height="89.6891" rx="17.5459" fill="white" shape-rendering="crispEdges"/>
        <path d="M110.525 163.426V175.976H119.402V173.656H113.285V163.426H110.525Z" fill="#333333"/>
        <path d="M123.423 165.482V163.426H120.927V165.482H123.423ZM120.927 166.889V175.976H123.423V166.889H120.927Z" fill="#333333"/>
        <path d="M127.674 171.441C127.674 171.066 127.709 170.709 127.779 170.369C127.861 170.017 127.99 169.707 128.166 169.437C128.342 169.156 128.57 168.933 128.852 168.769C129.133 168.605 129.479 168.523 129.889 168.523C130.275 168.523 130.604 168.611 130.873 168.787C131.154 168.963 131.377 169.191 131.541 169.472C131.705 169.754 131.822 170.07 131.893 170.422C131.975 170.773 132.016 171.125 132.016 171.476C132.016 171.851 131.975 172.215 131.893 172.566C131.822 172.906 131.699 173.211 131.523 173.48C131.359 173.738 131.137 173.949 130.855 174.113C130.586 174.265 130.246 174.342 129.836 174.342C129.426 174.342 129.08 174.259 128.799 174.095C128.529 173.931 128.307 173.715 128.131 173.445C127.967 173.164 127.85 172.853 127.779 172.513C127.709 172.162 127.674 171.804 127.674 171.441ZM134.424 179.158V166.889H132.051V168.049H132.016C131.734 167.545 131.342 167.187 130.838 166.976C130.346 166.754 129.818 166.642 129.256 166.642C128.565 166.642 127.961 166.777 127.445 167.047C126.942 167.316 126.52 167.68 126.18 168.137C125.84 168.582 125.588 169.098 125.424 169.683C125.26 170.269 125.178 170.873 125.178 171.494C125.178 172.373 125.301 173.117 125.547 173.726C125.793 174.324 126.104 174.81 126.479 175.185C126.854 175.549 127.264 175.812 127.709 175.976C128.166 176.129 128.606 176.205 129.027 176.205C129.59 176.205 130.135 176.099 130.662 175.888C131.189 175.677 131.6 175.326 131.893 174.834H131.928V179.158H134.424Z" fill="#333333"/>
        <path d="M145.011 175.976V166.889H142.515V171.652C142.515 172.578 142.363 173.246 142.058 173.656C141.754 174.054 141.261 174.254 140.582 174.254C139.984 174.254 139.568 174.072 139.334 173.709C139.099 173.334 138.982 172.771 138.982 172.021V166.889H136.486V172.478C136.486 173.041 136.533 173.556 136.627 174.025C136.732 174.482 136.908 174.875 137.154 175.203C137.4 175.519 137.734 175.765 138.156 175.941C138.59 176.117 139.14 176.205 139.808 176.205C140.336 176.205 140.851 176.088 141.355 175.853C141.859 175.619 142.269 175.238 142.586 174.711H142.638V175.976H145.011Z" fill="#333333"/>
        <path d="M149.648 165.482V163.426H147.152V165.482H149.648ZM147.152 166.889V175.976H149.648V166.889H147.152Z" fill="#333333"/>
        <path d="M158.24 171.406C158.24 171.781 158.205 172.144 158.134 172.496C158.064 172.847 157.947 173.164 157.783 173.445C157.619 173.715 157.396 173.931 157.115 174.095C156.845 174.259 156.506 174.342 156.095 174.342C155.709 174.342 155.375 174.259 155.094 174.095C154.824 173.92 154.596 173.697 154.408 173.427C154.232 173.146 154.103 172.83 154.021 172.478C153.939 172.127 153.898 171.775 153.898 171.424C153.898 171.049 153.933 170.691 154.004 170.351C154.086 170 154.209 169.689 154.373 169.42C154.549 169.15 154.777 168.933 155.058 168.769C155.34 168.605 155.685 168.523 156.095 168.523C156.506 168.523 156.845 168.605 157.115 168.769C157.384 168.933 157.601 169.15 157.765 169.42C157.941 169.678 158.064 169.982 158.134 170.334C158.205 170.674 158.24 171.031 158.24 171.406ZM158.275 174.816V175.976H160.648V163.426H158.152V167.996H158.117C157.836 167.551 157.449 167.217 156.957 166.994C156.476 166.76 155.967 166.642 155.428 166.642C154.76 166.642 154.174 166.777 153.67 167.047C153.166 167.305 152.744 167.65 152.404 168.084C152.076 168.517 151.824 169.021 151.648 169.596C151.484 170.158 151.402 170.744 151.402 171.353C151.402 171.986 151.484 172.595 151.648 173.181C151.824 173.767 152.076 174.289 152.404 174.746C152.744 175.191 153.172 175.549 153.687 175.818C154.203 176.076 154.801 176.205 155.48 176.205C156.078 176.205 156.611 176.099 157.08 175.888C157.56 175.666 157.947 175.308 158.24 174.816H158.275Z" fill="#333333"/>
        <path d="M165.277 165.482V163.426H162.781V165.482H165.277ZM162.781 166.889V175.976H165.277V166.889H162.781Z" fill="#333333"/>
        <path d="M170.582 166.889V164.164H168.086V166.889H166.574V168.558H168.086V173.92C168.086 174.377 168.162 174.746 168.314 175.027C168.467 175.308 168.672 175.525 168.93 175.677C169.199 175.83 169.504 175.929 169.844 175.976C170.195 176.035 170.564 176.064 170.951 176.064C171.197 176.064 171.449 176.058 171.707 176.047C171.965 176.035 172.199 176.011 172.41 175.976V174.043C172.293 174.066 172.17 174.084 172.041 174.095C171.912 174.107 171.777 174.113 171.637 174.113C171.215 174.113 170.933 174.043 170.793 173.902C170.652 173.761 170.582 173.48 170.582 173.058V168.558H172.41V166.889H170.582Z" fill="#333333"/>
        <path d="M178.256 177.101L182.052 166.889H179.469L177.482 173.111H177.447L175.391 166.889H172.736L175.918 175.414C175.988 175.59 176.023 175.777 176.023 175.976C176.023 176.246 175.941 176.492 175.777 176.714C175.625 176.937 175.385 177.066 175.057 177.101C174.81 177.113 174.564 177.107 174.318 177.084C174.072 177.06 173.832 177.037 173.598 177.013V179.07C173.855 179.093 174.107 179.111 174.353 179.123C174.611 179.146 174.869 179.158 175.127 179.158C175.982 179.158 176.65 179 177.131 178.683C177.611 178.367 177.986 177.839 178.256 177.101Z" fill="#333333"/>
        <path d="M188.396 163.426V175.976H197.272V173.656H191.155V163.426H188.396Z" fill="#333333"/>
        <path d="M200.942 171.441C200.942 171.078 200.977 170.721 201.048 170.369C201.118 170.017 201.235 169.707 201.399 169.437C201.575 169.168 201.804 168.951 202.085 168.787C202.366 168.611 202.718 168.523 203.139 168.523C203.561 168.523 203.913 168.611 204.194 168.787C204.487 168.951 204.716 169.168 204.88 169.437C205.055 169.707 205.178 170.017 205.249 170.369C205.319 170.721 205.354 171.078 205.354 171.441C205.354 171.804 205.319 172.162 205.249 172.513C205.178 172.853 205.055 173.164 204.88 173.445C204.716 173.715 204.487 173.931 204.194 174.095C203.913 174.259 203.561 174.342 203.139 174.342C202.718 174.342 202.366 174.259 202.085 174.095C201.804 173.931 201.575 173.715 201.399 173.445C201.235 173.164 201.118 172.853 201.048 172.513C200.977 172.162 200.942 171.804 200.942 171.441ZM198.446 171.441C198.446 172.168 198.558 172.824 198.78 173.41C199.003 173.996 199.319 174.5 199.729 174.922C200.14 175.332 200.632 175.648 201.206 175.871C201.78 176.093 202.425 176.205 203.139 176.205C203.854 176.205 204.499 176.093 205.073 175.871C205.659 175.648 206.157 175.332 206.567 174.922C206.977 174.5 207.294 173.996 207.516 173.41C207.739 172.824 207.85 172.168 207.85 171.441C207.85 170.715 207.739 170.058 207.516 169.472C207.294 168.875 206.977 168.371 206.567 167.961C206.157 167.539 205.659 167.217 205.073 166.994C204.499 166.76 203.854 166.642 203.139 166.642C202.425 166.642 201.78 166.76 201.206 166.994C200.632 167.217 200.14 167.539 199.729 167.961C199.319 168.371 199.003 168.875 198.78 169.472C198.558 170.058 198.446 170.715 198.446 171.441Z" fill="#333333"/>
        <path d="M215.836 170.088H218.28C218.244 169.502 218.104 168.998 217.858 168.576C217.612 168.142 217.289 167.785 216.891 167.504C216.504 167.211 216.059 166.994 215.555 166.853C215.063 166.713 214.547 166.642 214.008 166.642C213.27 166.642 212.614 166.766 212.04 167.012C211.465 167.258 210.979 167.603 210.581 168.049C210.182 168.482 209.877 169.004 209.667 169.613C209.467 170.211 209.368 170.861 209.368 171.564C209.368 172.244 209.479 172.871 209.702 173.445C209.924 174.008 210.235 174.494 210.633 174.904C211.032 175.314 211.512 175.636 212.075 175.871C212.649 176.093 213.276 176.205 213.955 176.205C215.162 176.205 216.153 175.888 216.926 175.256C217.7 174.623 218.168 173.703 218.332 172.496H215.924C215.842 173.058 215.637 173.509 215.309 173.849C214.993 174.177 214.536 174.342 213.938 174.342C213.551 174.342 213.223 174.254 212.954 174.078C212.684 173.902 212.467 173.679 212.303 173.41C212.151 173.129 212.04 172.818 211.969 172.478C211.899 172.138 211.864 171.804 211.864 171.476C211.864 171.137 211.899 170.797 211.969 170.457C212.04 170.105 212.157 169.789 212.321 169.508C212.497 169.215 212.719 168.98 212.989 168.805C213.258 168.617 213.592 168.523 213.991 168.523C215.057 168.523 215.672 169.045 215.836 170.088Z" fill="#333333"/>
        <path d="M220.147 163.426V175.976H222.643V172.847L223.609 171.916L226.105 175.976H229.129L225.314 170.228L228.742 166.889H225.789L222.643 170.158V163.426H220.147Z" fill="#333333"/>
        <path d="M232.121 173.023H229.748C229.771 173.633 229.906 174.142 230.152 174.552C230.41 174.951 230.732 175.273 231.119 175.519C231.517 175.765 231.969 175.941 232.472 176.047C232.976 176.152 233.492 176.205 234.019 176.205C234.535 176.205 235.039 176.152 235.531 176.047C236.035 175.953 236.48 175.783 236.867 175.537C237.254 175.291 237.564 174.968 237.798 174.57C238.045 174.16 238.168 173.656 238.168 173.058C238.168 172.636 238.086 172.285 237.922 172.004C237.757 171.711 237.541 171.47 237.271 171.283C237.002 171.084 236.691 170.926 236.34 170.808C236 170.691 235.648 170.592 235.285 170.51C234.933 170.428 234.588 170.351 234.248 170.281C233.908 170.211 233.603 170.135 233.334 170.053C233.076 169.959 232.865 169.842 232.701 169.701C232.537 169.56 232.455 169.379 232.455 169.156C232.455 168.969 232.502 168.822 232.595 168.717C232.689 168.599 232.801 168.512 232.929 168.453C233.07 168.394 233.222 168.359 233.386 168.348C233.551 168.324 233.703 168.312 233.843 168.312C234.289 168.312 234.676 168.4 235.004 168.576C235.332 168.74 235.513 169.062 235.549 169.543H237.922C237.875 168.98 237.728 168.517 237.482 168.154C237.248 167.779 236.949 167.48 236.586 167.258C236.222 167.035 235.806 166.877 235.338 166.783C234.881 166.689 234.406 166.642 233.914 166.642C233.422 166.642 232.941 166.689 232.472 166.783C232.004 166.865 231.582 167.017 231.207 167.24C230.832 167.451 230.527 167.744 230.293 168.119C230.07 168.494 229.959 168.974 229.959 169.56C229.959 169.959 230.041 170.299 230.205 170.58C230.369 170.849 230.586 171.078 230.855 171.265C231.125 171.441 231.429 171.588 231.769 171.705C232.121 171.81 232.478 171.904 232.842 171.986C233.732 172.174 234.424 172.361 234.916 172.549C235.42 172.736 235.672 173.017 235.672 173.392C235.672 173.615 235.619 173.802 235.513 173.955C235.408 174.095 235.273 174.213 235.109 174.306C234.957 174.388 234.781 174.453 234.582 174.5C234.394 174.535 234.213 174.552 234.037 174.552C233.791 174.552 233.551 174.523 233.316 174.465C233.094 174.406 232.894 174.318 232.719 174.201C232.543 174.072 232.396 173.914 232.279 173.726C232.174 173.527 232.121 173.293 232.121 173.023Z" fill="#333333"/>
        <path d="M77.5177 169.812C77.5177 180.557 68.8068 189.268 58.0613 189.268C47.3159 189.268 38.605 180.557 38.605 169.812C38.605 159.066 47.3159 150.355 58.0613 150.355C68.8068 150.355 77.5177 159.066 77.5177 169.812Z" fill="#0F59D1"/>
        <path fill-rule="evenodd" clip-rule="evenodd" d="M66.4754 168.092H49.9937V174.156C49.9937 178.707 53.6832 182.397 58.2345 182.397C62.7858 182.397 66.4754 178.707 66.4754 174.156V168.092ZM55.176 172.031H61.2919V173.793H59.1159V177.629H57.3537V173.793H55.176V172.031Z" fill="white"/>
        <path fill-rule="evenodd" clip-rule="evenodd" d="M52.0664 163.22C52.0664 159.785 54.851 157 58.2859 157C61.7209 157 64.5054 159.785 64.5054 163.22V166.537H61.1884V163.22C61.1884 161.617 59.8889 160.317 58.2859 160.317C56.683 160.317 55.3835 161.617 55.3835 163.22V166.537H52.0664V163.22Z" fill="white"/>
        <path d="M96.9743 169.812C96.9743 180.557 88.2633 189.268 77.5179 189.268C66.7724 189.268 58.0615 180.557 58.0615 169.812C58.0615 159.066 66.7724 150.355 77.5179 150.355C88.2633 150.355 96.9743 159.066 96.9743 169.812Z" fill="#627EEA"/>
        <path d="M77.7141 166.103V155.574L68.9761 170.074L77.7141 166.103Z" fill="white"/>
        <path d="M77.7141 175.241V166.103L68.9761 170.074L77.7141 175.241ZM77.7141 166.103L86.4538 170.074L77.7141 155.574V166.103Z" fill="#C0CBF6"/>
        <path d="M77.7139 166.104V175.241L86.4535 170.075L77.7139 166.104Z" fill="#8197EE"/>
        <path d="M77.7141 176.896L68.9761 171.732L77.7141 184.047V176.896Z" fill="white"/>
        <path d="M86.4584 171.732L77.7139 176.896V184.047L86.4584 171.732Z" fill="#C0CBF6"/>
        <path d="M289.496 175C289.219 175 289 174.925 288.84 174.776C288.691 174.616 288.616 174.403 288.616 174.136C288.616 173.859 288.691 173.651 288.84 173.512C289 173.373 289.219 173.304 289.496 173.304H291.288V165.448H292.28L289.928 166.872C289.725 166.989 289.533 167.037 289.352 167.016C289.181 166.984 289.032 166.909 288.904 166.792C288.787 166.664 288.707 166.515 288.664 166.344C288.621 166.173 288.632 166.003 288.696 165.832C288.771 165.651 288.909 165.501 289.112 165.384L291.32 164.056C291.533 163.928 291.747 163.821 291.96 163.736C292.173 163.64 292.371 163.592 292.552 163.592C292.776 163.592 292.963 163.656 293.112 163.784C293.261 163.901 293.336 164.099 293.336 164.376V173.304H294.968C295.245 173.304 295.459 173.373 295.608 173.512C295.768 173.651 295.848 173.859 295.848 174.136C295.848 174.413 295.768 174.627 295.608 174.776C295.459 174.925 295.245 175 294.968 175H289.496ZM302.24 175.16C301.674 175.16 301.098 175.085 300.512 174.936C299.925 174.787 299.386 174.557 298.896 174.248C298.693 174.12 298.554 173.971 298.48 173.8C298.416 173.619 298.4 173.443 298.432 173.272C298.474 173.091 298.554 172.941 298.672 172.824C298.8 172.696 298.949 172.621 299.12 172.6C299.301 172.579 299.498 172.627 299.712 172.744C300.106 172.968 300.506 173.139 300.912 173.256C301.317 173.373 301.749 173.432 302.208 173.432C302.656 173.432 303.04 173.352 303.36 173.192C303.68 173.032 303.925 172.808 304.096 172.52C304.266 172.232 304.352 171.896 304.352 171.512C304.352 170.915 304.17 170.435 303.808 170.072C303.445 169.699 302.949 169.512 302.32 169.512C301.978 169.512 301.648 169.571 301.328 169.688C301.008 169.795 300.693 169.987 300.384 170.264C300.288 170.349 300.165 170.435 300.016 170.52C299.866 170.595 299.706 170.632 299.536 170.632C299.269 170.632 299.066 170.563 298.928 170.424C298.789 170.285 298.72 170.093 298.72 169.848V164.616C298.72 164.328 298.794 164.109 298.944 163.96C299.104 163.8 299.328 163.72 299.616 163.72H304.88C305.168 163.72 305.386 163.795 305.536 163.944C305.696 164.083 305.776 164.291 305.776 164.568C305.776 164.835 305.696 165.043 305.536 165.192C305.386 165.341 305.168 165.416 304.88 165.416H300.72V169H300.192C300.469 168.627 300.837 168.339 301.296 168.136C301.754 167.933 302.256 167.832 302.8 167.832C303.514 167.832 304.133 167.987 304.656 168.296C305.189 168.595 305.6 169.016 305.888 169.56C306.186 170.093 306.336 170.717 306.336 171.432C306.336 172.168 306.17 172.819 305.84 173.384C305.509 173.939 305.034 174.376 304.416 174.696C303.808 175.005 303.082 175.16 302.24 175.16ZM312.488 175.16C311.154 175.16 310.136 174.659 309.432 173.656C308.728 172.643 308.376 171.203 308.376 169.336C308.376 168.077 308.53 167.021 308.84 166.168C309.16 165.304 309.624 164.653 310.232 164.216C310.85 163.779 311.602 163.56 312.488 163.56C313.832 163.56 314.85 164.051 315.544 165.032C316.248 166.013 316.6 167.443 316.6 169.32C316.6 170.568 316.44 171.629 316.12 172.504C315.81 173.368 315.352 174.029 314.744 174.488C314.136 174.936 313.384 175.16 312.488 175.16ZM312.488 173.48C313.213 173.48 313.746 173.144 314.088 172.472C314.44 171.8 314.616 170.749 314.616 169.32C314.616 167.891 314.44 166.856 314.088 166.216C313.746 165.565 313.213 165.24 312.488 165.24C311.773 165.24 311.24 165.565 310.888 166.216C310.536 166.856 310.36 167.891 310.36 169.32C310.36 170.749 310.536 171.8 310.888 172.472C311.24 173.144 311.773 173.48 312.488 173.48ZM322.991 176.968C322.757 176.968 322.565 176.888 322.415 176.728C322.266 176.579 322.191 176.392 322.191 176.168V174.744L322.559 175.096C321.823 175.075 321.167 174.979 320.591 174.808C320.026 174.637 319.546 174.44 319.151 174.216C318.959 174.099 318.826 173.955 318.751 173.784C318.677 173.603 318.65 173.421 318.671 173.24C318.693 173.059 318.757 172.904 318.863 172.776C318.981 172.637 319.125 172.552 319.295 172.52C319.466 172.477 319.663 172.52 319.887 172.648C320.186 172.819 320.575 172.984 321.055 173.144C321.546 173.293 322.133 173.368 322.815 173.368C323.349 173.368 323.781 173.304 324.111 173.176C324.442 173.048 324.682 172.872 324.831 172.648C324.991 172.424 325.071 172.168 325.071 171.88C325.071 171.645 325.018 171.443 324.911 171.272C324.805 171.091 324.629 170.936 324.383 170.808C324.138 170.669 323.807 170.557 323.391 170.472L321.695 170.104C320.725 169.891 319.999 169.533 319.519 169.032C319.039 168.531 318.799 167.875 318.799 167.064C318.799 166.435 318.954 165.875 319.263 165.384C319.573 164.883 320.005 164.483 320.559 164.184C321.114 163.885 321.765 163.709 322.511 163.656L322.191 163.896V162.552C322.191 162.328 322.266 162.141 322.415 161.992C322.565 161.832 322.757 161.752 322.991 161.752C323.215 161.752 323.402 161.832 323.551 161.992C323.711 162.141 323.791 162.328 323.791 162.552V163.896L323.455 163.64C323.914 163.651 324.415 163.741 324.959 163.912C325.514 164.083 325.989 164.323 326.383 164.632C326.543 164.76 326.65 164.909 326.703 165.08C326.757 165.24 326.762 165.4 326.719 165.56C326.677 165.709 326.597 165.837 326.479 165.944C326.362 166.051 326.213 166.115 326.031 166.136C325.861 166.147 325.663 166.088 325.439 165.96C325.13 165.779 324.783 165.635 324.399 165.528C324.015 165.411 323.557 165.352 323.023 165.352C322.341 165.352 321.802 165.507 321.407 165.816C321.023 166.115 320.831 166.509 320.831 167C320.831 167.363 320.949 167.656 321.183 167.88C321.418 168.093 321.818 168.264 322.383 168.392L324.127 168.776C325.151 169 325.903 169.357 326.383 169.848C326.863 170.328 327.103 170.963 327.103 171.752C327.103 172.371 326.949 172.92 326.639 173.4C326.33 173.869 325.903 174.248 325.359 174.536C324.826 174.813 324.202 174.989 323.487 175.064L323.791 174.728V176.168C323.791 176.392 323.717 176.579 323.567 176.728C323.418 176.888 323.226 176.968 322.991 176.968ZM335.741 175C335.41 175 335.154 174.909 334.973 174.728C334.791 174.536 334.701 174.275 334.701 173.944V164.712C334.701 164.371 334.786 164.115 334.957 163.944C335.138 163.763 335.394 163.672 335.725 163.672C336.055 163.672 336.306 163.763 336.477 163.944C336.658 164.115 336.749 164.371 336.749 164.712V173.256H341.389C341.677 173.256 341.895 173.331 342.045 173.48C342.205 173.629 342.285 173.843 342.285 174.12C342.285 174.397 342.205 174.616 342.045 174.776C341.895 174.925 341.677 175 341.389 175H335.741ZM347.733 175.16C346.922 175.16 346.218 174.995 345.621 174.664C345.024 174.333 344.56 173.864 344.229 173.256C343.898 172.637 343.733 171.912 343.733 171.08C343.733 170.451 343.824 169.891 344.005 169.4C344.197 168.899 344.469 168.472 344.821 168.12C345.173 167.757 345.594 167.485 346.085 167.304C346.576 167.112 347.125 167.016 347.733 167.016C348.544 167.016 349.248 167.181 349.845 167.512C350.442 167.843 350.906 168.312 351.237 168.92C351.568 169.528 351.733 170.248 351.733 171.08C351.733 171.709 351.637 172.275 351.445 172.776C351.264 173.277 350.997 173.709 350.645 174.072C350.293 174.424 349.872 174.696 349.381 174.888C348.89 175.069 348.341 175.16 347.733 175.16ZM347.733 173.64C348.128 173.64 348.474 173.544 348.773 173.352C349.072 173.16 349.301 172.877 349.461 172.504C349.632 172.12 349.717 171.645 349.717 171.08C349.717 170.227 349.536 169.592 349.173 169.176C348.81 168.749 348.33 168.536 347.733 168.536C347.338 168.536 346.992 168.632 346.693 168.824C346.394 169.005 346.16 169.288 345.989 169.672C345.829 170.045 345.749 170.515 345.749 171.08C345.749 171.923 345.93 172.563 346.293 173C346.656 173.427 347.136 173.64 347.733 173.64ZM357.75 175.16C356.928 175.16 356.214 174.995 355.606 174.664C354.998 174.323 354.528 173.843 354.198 173.224C353.867 172.605 353.702 171.88 353.702 171.048C353.702 170.419 353.792 169.859 353.974 169.368C354.166 168.867 354.438 168.445 354.79 168.104C355.142 167.752 355.568 167.485 356.07 167.304C356.571 167.112 357.131 167.016 357.75 167.016C358.102 167.016 358.48 167.064 358.886 167.16C359.302 167.256 359.691 167.416 360.054 167.64C360.224 167.747 360.336 167.875 360.39 168.024C360.443 168.173 360.454 168.328 360.422 168.488C360.39 168.637 360.32 168.771 360.214 168.888C360.118 168.995 359.995 169.064 359.846 169.096C359.696 169.117 359.531 169.08 359.35 168.984C359.115 168.845 358.875 168.744 358.63 168.68C358.384 168.605 358.15 168.568 357.926 168.568C357.574 168.568 357.264 168.627 356.998 168.744C356.731 168.851 356.502 169.011 356.31 169.224C356.128 169.427 355.99 169.683 355.894 169.992C355.798 170.301 355.75 170.659 355.75 171.064C355.75 171.853 355.936 172.477 356.31 172.936C356.694 173.384 357.232 173.608 357.926 173.608C358.15 173.608 358.379 173.576 358.614 173.512C358.859 173.448 359.104 173.347 359.35 173.208C359.531 173.112 359.691 173.08 359.83 173.112C359.979 173.144 360.102 173.219 360.198 173.336C360.294 173.443 360.352 173.576 360.374 173.736C360.395 173.885 360.374 174.035 360.31 174.184C360.256 174.333 360.15 174.456 359.99 174.552C359.638 174.765 359.264 174.92 358.87 175.016C358.475 175.112 358.102 175.16 357.75 175.16ZM363.423 175.128C363.103 175.128 362.857 175.043 362.687 174.872C362.516 174.691 362.431 174.435 362.431 174.104V164.6C362.431 164.269 362.516 164.019 362.687 163.848C362.857 163.677 363.103 163.592 363.423 163.592C363.743 163.592 363.988 163.677 364.159 163.848C364.34 164.019 364.431 164.269 364.431 164.6V170.504H364.463L367.103 167.72C367.316 167.507 367.503 167.341 367.663 167.224C367.823 167.107 368.041 167.048 368.319 167.048C368.596 167.048 368.804 167.123 368.943 167.272C369.092 167.411 369.167 167.581 369.167 167.784C369.167 167.987 369.071 168.189 368.879 168.392L366.095 171.336V170.504L369.151 173.8C369.343 174.003 369.428 174.211 369.407 174.424C369.396 174.627 369.311 174.797 369.151 174.936C368.991 175.064 368.788 175.128 368.543 175.128C368.244 175.128 368.004 175.069 367.823 174.952C367.652 174.835 367.46 174.659 367.247 174.424L364.463 171.512H364.431V174.104C364.431 174.787 364.095 175.128 363.423 175.128ZM378.101 175.128C377.77 175.128 377.509 175.037 377.317 174.856C377.135 174.664 377.045 174.392 377.045 174.04V164.808C377.045 164.456 377.135 164.189 377.317 164.008C377.509 163.816 377.781 163.72 378.133 163.72H383.717C383.994 163.72 384.202 163.789 384.341 163.928C384.479 164.067 384.549 164.264 384.549 164.52C384.549 164.787 384.479 164.995 384.341 165.144C384.202 165.283 383.994 165.352 383.717 165.352H379.093V168.536H383.381C383.647 168.536 383.85 168.605 383.989 168.744C384.138 168.883 384.213 169.08 384.213 169.336C384.213 169.603 384.138 169.811 383.989 169.96C383.85 170.099 383.647 170.168 383.381 170.168H379.093V174.04C379.093 174.765 378.762 175.128 378.101 175.128ZM390.162 175.16C389.276 175.16 388.514 174.995 387.874 174.664C387.234 174.333 386.738 173.864 386.386 173.256C386.044 172.648 385.874 171.928 385.874 171.096C385.874 170.285 386.039 169.576 386.37 168.968C386.711 168.36 387.175 167.885 387.762 167.544C388.359 167.192 389.036 167.016 389.794 167.016C390.348 167.016 390.844 167.107 391.282 167.288C391.73 167.469 392.108 167.731 392.418 168.072C392.738 168.413 392.978 168.829 393.138 169.32C393.308 169.8 393.394 170.344 393.394 170.952C393.394 171.144 393.324 171.293 393.186 171.4C393.058 171.496 392.871 171.544 392.626 171.544H387.49V170.392H391.986L391.73 170.632C391.73 170.141 391.655 169.731 391.506 169.4C391.367 169.069 391.159 168.819 390.882 168.648C390.615 168.467 390.279 168.376 389.874 168.376C389.426 168.376 389.042 168.483 388.722 168.696C388.412 168.899 388.172 169.192 388.002 169.576C387.842 169.949 387.762 170.397 387.762 170.92V171.032C387.762 171.907 387.964 172.563 388.37 173C388.786 173.427 389.394 173.64 390.194 173.64C390.471 173.64 390.78 173.608 391.122 173.544C391.474 173.469 391.804 173.347 392.114 173.176C392.338 173.048 392.535 172.995 392.706 173.016C392.876 173.027 393.01 173.085 393.106 173.192C393.212 173.299 393.276 173.432 393.298 173.592C393.319 173.741 393.287 173.896 393.202 174.056C393.127 174.216 392.994 174.355 392.802 174.472C392.428 174.707 391.996 174.883 391.506 175C391.026 175.107 390.578 175.16 390.162 175.16ZM399.584 175.16C398.698 175.16 397.936 174.995 397.296 174.664C396.656 174.333 396.16 173.864 395.808 173.256C395.466 172.648 395.296 171.928 395.296 171.096C395.296 170.285 395.461 169.576 395.792 168.968C396.133 168.36 396.597 167.885 397.184 167.544C397.781 167.192 398.458 167.016 399.216 167.016C399.77 167.016 400.266 167.107 400.704 167.288C401.152 167.469 401.53 167.731 401.84 168.072C402.16 168.413 402.4 168.829 402.56 169.32C402.73 169.8 402.816 170.344 402.816 170.952C402.816 171.144 402.746 171.293 402.608 171.4C402.48 171.496 402.293 171.544 402.048 171.544H396.912V170.392H401.408L401.152 170.632C401.152 170.141 401.077 169.731 400.928 169.4C400.789 169.069 400.581 168.819 400.304 168.648C400.037 168.467 399.701 168.376 399.296 168.376C398.848 168.376 398.464 168.483 398.144 168.696C397.834 168.899 397.594 169.192 397.424 169.576C397.264 169.949 397.184 170.397 397.184 170.92V171.032C397.184 171.907 397.386 172.563 397.792 173C398.208 173.427 398.816 173.64 399.616 173.64C399.893 173.64 400.202 173.608 400.544 173.544C400.896 173.469 401.226 173.347 401.536 173.176C401.76 173.048 401.957 172.995 402.128 173.016C402.298 173.027 402.432 173.085 402.528 173.192C402.634 173.299 402.698 173.432 402.72 173.592C402.741 173.741 402.709 173.896 402.624 174.056C402.549 174.216 402.416 174.355 402.224 174.472C401.85 174.707 401.418 174.883 400.928 175C400.448 175.107 400 175.16 399.584 175.16Z" fill="#1AA824"/>
    </g>
    <g filter="url(#filter1_d_2870_46340)">
        <rect x="15.3525" y="234.352" width="423.295" height="89.6891" rx="17.5459" fill="white" shape-rendering="crispEdges"/>
        <path d="M113.285 278.476V274.715H115.43C115.746 274.715 116.051 274.738 116.344 274.785C116.637 274.832 116.894 274.926 117.117 275.066C117.34 275.195 117.515 275.383 117.644 275.629C117.785 275.875 117.855 276.197 117.855 276.596C117.855 276.994 117.785 277.316 117.644 277.562C117.515 277.808 117.34 278.002 117.117 278.142C116.894 278.271 116.637 278.359 116.344 278.406C116.051 278.453 115.746 278.476 115.43 278.476H113.285ZM110.525 272.57V285.121H113.285V280.621H116.185C116.971 280.621 117.638 280.51 118.189 280.287C118.74 280.053 119.185 279.748 119.525 279.373C119.877 278.998 120.129 278.57 120.281 278.09C120.445 277.598 120.527 277.099 120.527 276.596C120.527 276.08 120.445 275.582 120.281 275.101C120.129 274.621 119.877 274.193 119.525 273.818C119.185 273.443 118.74 273.145 118.189 272.922C117.638 272.687 116.971 272.57 116.185 272.57H110.525Z" fill="#333333"/>
        <path d="M122.162 276.033V285.121H124.658V281.025C124.658 280.615 124.699 280.234 124.781 279.883C124.863 279.531 124.998 279.226 125.185 278.969C125.384 278.699 125.642 278.488 125.958 278.336C126.275 278.183 126.662 278.107 127.119 278.107C127.271 278.107 127.429 278.119 127.593 278.142C127.757 278.154 127.898 278.172 128.015 278.195V275.875C127.816 275.816 127.634 275.787 127.47 275.787C127.154 275.787 126.849 275.834 126.556 275.928C126.263 276.021 125.988 276.156 125.73 276.332C125.472 276.496 125.244 276.701 125.044 276.947C124.845 277.182 124.687 277.439 124.57 277.721H124.535V276.033H122.162Z" fill="#333333"/>
        <path d="M131.075 280.586C131.075 280.222 131.11 279.865 131.181 279.513C131.251 279.162 131.368 278.851 131.532 278.582C131.708 278.312 131.936 278.096 132.218 277.931C132.499 277.756 132.851 277.668 133.272 277.668C133.694 277.668 134.046 277.756 134.327 277.931C134.62 278.096 134.849 278.312 135.013 278.582C135.188 278.851 135.311 279.162 135.382 279.513C135.452 279.865 135.487 280.222 135.487 280.586C135.487 280.949 135.452 281.306 135.382 281.658C135.311 281.998 135.188 282.308 135.013 282.59C134.849 282.859 134.62 283.076 134.327 283.24C134.046 283.404 133.694 283.486 133.272 283.486C132.851 283.486 132.499 283.404 132.218 283.24C131.936 283.076 131.708 282.859 131.532 282.59C131.368 282.308 131.251 281.998 131.181 281.658C131.11 281.306 131.075 280.949 131.075 280.586ZM128.579 280.586C128.579 281.312 128.69 281.969 128.913 282.554C129.136 283.14 129.452 283.644 129.862 284.066C130.272 284.476 130.765 284.793 131.339 285.015C131.913 285.238 132.558 285.349 133.272 285.349C133.987 285.349 134.632 285.238 135.206 285.015C135.792 284.793 136.29 284.476 136.7 284.066C137.11 283.644 137.427 283.14 137.649 282.554C137.872 281.969 137.983 281.312 137.983 280.586C137.983 279.859 137.872 279.203 137.649 278.617C137.427 278.019 137.11 277.515 136.7 277.105C136.29 276.683 135.792 276.361 135.206 276.139C134.632 275.904 133.987 275.787 133.272 275.787C132.558 275.787 131.913 275.904 131.339 276.139C130.765 276.361 130.272 276.683 129.862 277.105C129.452 277.515 129.136 278.019 128.913 278.617C128.69 279.203 128.579 279.859 128.579 280.586Z" fill="#333333"/>
        <path d="M142.506 274.627V272.57H140.01V274.627H142.506ZM138.516 286.175V288.232C138.751 288.279 139.014 288.302 139.307 288.302C139.94 288.302 140.462 288.244 140.872 288.127C141.282 288.021 141.604 287.851 141.838 287.617C142.085 287.394 142.254 287.113 142.348 286.773C142.454 286.433 142.506 286.029 142.506 285.56V276.033H140.01V285.437C140.01 285.777 139.911 285.994 139.712 286.088C139.524 286.193 139.301 286.246 139.044 286.246C138.821 286.246 138.645 286.222 138.516 286.175Z" fill="#333333"/>
        <path d="M150.967 279.601H146.906C146.918 279.426 146.953 279.226 147.012 279.004C147.082 278.781 147.194 278.57 147.346 278.371C147.51 278.172 147.721 278.008 147.979 277.879C148.248 277.738 148.582 277.668 148.981 277.668C149.59 277.668 150.041 277.832 150.334 278.16C150.639 278.488 150.85 278.969 150.967 279.601ZM146.906 281.183H153.463C153.51 280.48 153.451 279.806 153.287 279.162C153.123 278.517 152.854 277.943 152.479 277.439C152.115 276.935 151.647 276.537 151.072 276.244C150.498 275.939 149.824 275.787 149.051 275.787C148.36 275.787 147.727 275.91 147.153 276.156C146.59 276.402 146.104 276.742 145.694 277.176C145.283 277.598 144.967 278.101 144.744 278.687C144.522 279.273 144.41 279.906 144.41 280.586C144.41 281.289 144.516 281.933 144.727 282.519C144.949 283.105 145.26 283.609 145.658 284.031C146.057 284.453 146.543 284.781 147.117 285.015C147.692 285.238 148.336 285.349 149.051 285.349C150.082 285.349 150.961 285.115 151.688 284.646C152.414 284.177 152.953 283.398 153.305 282.308H151.108C151.025 282.59 150.803 282.859 150.44 283.117C150.076 283.363 149.643 283.486 149.139 283.486C148.436 283.486 147.897 283.304 147.522 282.941C147.147 282.578 146.942 281.992 146.906 281.183Z" fill="#333333"/>
        <path d="M161.306 279.232H163.75C163.715 278.646 163.574 278.142 163.328 277.721C163.082 277.287 162.759 276.93 162.361 276.648C161.974 276.355 161.529 276.139 161.025 275.998C160.533 275.857 160.017 275.787 159.478 275.787C158.74 275.787 158.084 275.91 157.51 276.156C156.935 276.402 156.449 276.748 156.051 277.193C155.652 277.627 155.348 278.148 155.137 278.758C154.937 279.355 154.838 280.006 154.838 280.709C154.838 281.388 154.949 282.015 155.172 282.59C155.394 283.152 155.705 283.638 156.103 284.049C156.502 284.459 156.982 284.781 157.545 285.015C158.119 285.238 158.746 285.349 159.426 285.349C160.633 285.349 161.623 285.033 162.396 284.4C163.17 283.767 163.638 282.847 163.802 281.64H161.394C161.312 282.203 161.107 282.654 160.779 282.994C160.463 283.322 160.006 283.486 159.408 283.486C159.021 283.486 158.693 283.398 158.424 283.222C158.154 283.047 157.937 282.824 157.773 282.554C157.621 282.273 157.51 281.963 157.439 281.623C157.369 281.283 157.334 280.949 157.334 280.621C157.334 280.281 157.369 279.941 157.439 279.601C157.51 279.25 157.627 278.933 157.791 278.652C157.967 278.359 158.189 278.125 158.459 277.949C158.728 277.762 159.062 277.668 159.461 277.668C160.527 277.668 161.142 278.189 161.306 279.232Z" fill="#333333"/>
        <path d="M168.552 276.033V273.309H166.056V276.033H164.545V277.703H166.056V283.064C166.056 283.521 166.132 283.89 166.285 284.172C166.437 284.453 166.642 284.67 166.9 284.822C167.169 284.974 167.474 285.074 167.814 285.121C168.166 285.179 168.535 285.209 168.921 285.209C169.167 285.209 169.419 285.203 169.677 285.191C169.935 285.179 170.169 285.156 170.38 285.121V283.187C170.263 283.211 170.14 283.228 170.011 283.24C169.882 283.252 169.748 283.258 169.607 283.258C169.185 283.258 168.904 283.187 168.763 283.047C168.623 282.906 168.552 282.625 168.552 282.203V277.703H170.38V276.033H168.552Z" fill="#333333"/>
        <path d="M179.853 274.891V285.121H182.612V274.891H186.374V272.57H176.091V274.891H179.853Z" fill="#333333"/>
        <path d="M187.991 280.586C187.991 280.222 188.026 279.865 188.097 279.513C188.167 279.162 188.284 278.851 188.448 278.582C188.624 278.312 188.852 278.096 189.134 277.931C189.415 277.756 189.766 277.668 190.188 277.668C190.61 277.668 190.962 277.756 191.243 277.931C191.536 278.096 191.764 278.312 191.928 278.582C192.104 278.851 192.227 279.162 192.298 279.513C192.368 279.865 192.403 280.222 192.403 280.586C192.403 280.949 192.368 281.306 192.298 281.658C192.227 281.998 192.104 282.308 191.928 282.59C191.764 282.859 191.536 283.076 191.243 283.24C190.962 283.404 190.61 283.486 190.188 283.486C189.766 283.486 189.415 283.404 189.134 283.24C188.852 283.076 188.624 282.859 188.448 282.59C188.284 282.308 188.167 281.998 188.097 281.658C188.026 281.306 187.991 280.949 187.991 280.586ZM185.495 280.586C185.495 281.312 185.606 281.969 185.829 282.554C186.052 283.14 186.368 283.644 186.778 284.066C187.188 284.476 187.681 284.793 188.255 285.015C188.829 285.238 189.473 285.349 190.188 285.349C190.903 285.349 191.548 285.238 192.122 285.015C192.708 284.793 193.206 284.476 193.616 284.066C194.026 283.644 194.342 283.14 194.565 282.554C194.788 281.969 194.899 281.312 194.899 280.586C194.899 279.859 194.788 279.203 194.565 278.617C194.342 278.019 194.026 277.515 193.616 277.105C193.206 276.683 192.708 276.361 192.122 276.139C191.548 275.904 190.903 275.787 190.188 275.787C189.473 275.787 188.829 275.904 188.255 276.139C187.681 276.361 187.188 276.683 186.778 277.105C186.368 277.515 186.052 278.019 185.829 278.617C185.606 279.203 185.495 279.859 185.495 280.586Z" fill="#333333"/>
        <path d="M196.926 272.57V285.121H199.422V281.992L200.389 281.06L202.885 285.121H205.908L202.094 279.373L205.522 276.033H202.569L199.422 279.303V272.57H196.926Z" fill="#333333"/>
        <path d="M213.084 279.601H209.024C209.035 279.426 209.07 279.226 209.129 279.004C209.199 278.781 209.311 278.57 209.463 278.371C209.627 278.172 209.838 278.008 210.096 277.879C210.365 277.738 210.699 277.668 211.098 277.668C211.707 277.668 212.158 277.832 212.451 278.16C212.756 278.488 212.967 278.969 213.084 279.601ZM209.024 281.183H215.58C215.627 280.48 215.568 279.806 215.404 279.162C215.24 278.517 214.971 277.943 214.596 277.439C214.232 276.935 213.764 276.537 213.189 276.244C212.615 275.939 211.941 275.787 211.168 275.787C210.477 275.787 209.844 275.91 209.27 276.156C208.707 276.402 208.221 276.742 207.811 277.176C207.401 277.598 207.084 278.101 206.862 278.687C206.639 279.273 206.528 279.906 206.528 280.586C206.528 281.289 206.633 281.933 206.844 282.519C207.067 283.105 207.377 283.609 207.776 284.031C208.174 284.453 208.66 284.781 209.234 285.015C209.809 285.238 210.453 285.349 211.168 285.349C212.199 285.349 213.078 285.115 213.805 284.646C214.531 284.177 215.07 283.398 215.422 282.308H213.225C213.143 282.59 212.92 282.859 212.557 283.117C212.193 283.363 211.76 283.486 211.256 283.486C210.553 283.486 210.014 283.304 209.639 282.941C209.264 282.578 209.059 281.992 209.024 281.183Z" fill="#333333"/>
        <path d="M217.236 276.033V285.121H219.732V280.357C219.732 279.431 219.885 278.769 220.189 278.371C220.494 277.961 220.986 277.756 221.666 277.756C222.263 277.756 222.679 277.943 222.914 278.318C223.148 278.681 223.265 279.238 223.265 279.988V285.121H225.761V279.531C225.761 278.969 225.709 278.459 225.603 278.002C225.509 277.533 225.339 277.141 225.093 276.824C224.847 276.496 224.507 276.244 224.074 276.068C223.652 275.881 223.107 275.787 222.439 275.787C221.912 275.787 221.396 275.91 220.892 276.156C220.388 276.391 219.978 276.771 219.662 277.299H219.609V276.033H217.236Z" fill="#333333"/>
        <path d="M229.765 282.168H227.392C227.416 282.777 227.55 283.287 227.796 283.697C228.054 284.095 228.376 284.418 228.763 284.664C229.162 284.91 229.613 285.086 230.117 285.191C230.62 285.297 231.136 285.349 231.663 285.349C232.179 285.349 232.683 285.297 233.175 285.191C233.679 285.097 234.124 284.927 234.511 284.681C234.898 284.435 235.208 284.113 235.443 283.715C235.689 283.304 235.812 282.801 235.812 282.203C235.812 281.781 235.73 281.429 235.566 281.148C235.402 280.855 235.185 280.615 234.915 280.428C234.646 280.228 234.335 280.07 233.984 279.953C233.644 279.836 233.292 279.736 232.929 279.654C232.577 279.572 232.232 279.496 231.892 279.426C231.552 279.355 231.247 279.279 230.978 279.197C230.72 279.103 230.509 278.986 230.345 278.846C230.181 278.705 230.099 278.523 230.099 278.301C230.099 278.113 230.146 277.967 230.24 277.861C230.333 277.744 230.445 277.656 230.574 277.598C230.714 277.539 230.867 277.504 231.031 277.492C231.195 277.469 231.347 277.457 231.488 277.457C231.933 277.457 232.32 277.545 232.648 277.721C232.976 277.885 233.158 278.207 233.193 278.687H235.566C235.519 278.125 235.372 277.662 235.126 277.299C234.892 276.924 234.593 276.625 234.23 276.402C233.867 276.18 233.451 276.021 232.982 275.928C232.525 275.834 232.05 275.787 231.558 275.787C231.066 275.787 230.585 275.834 230.117 275.928C229.648 276.01 229.226 276.162 228.851 276.385C228.476 276.596 228.171 276.889 227.937 277.264C227.714 277.639 227.603 278.119 227.603 278.705C227.603 279.103 227.685 279.443 227.849 279.724C228.013 279.994 228.23 280.222 228.499 280.41C228.769 280.586 229.074 280.732 229.414 280.849C229.765 280.955 230.122 281.049 230.486 281.131C231.376 281.318 232.068 281.506 232.56 281.693C233.064 281.881 233.316 282.162 233.316 282.537C233.316 282.759 233.263 282.947 233.158 283.099C233.052 283.24 232.917 283.357 232.753 283.451C232.601 283.533 232.425 283.597 232.226 283.644C232.038 283.679 231.857 283.697 231.681 283.697C231.435 283.697 231.195 283.668 230.96 283.609C230.738 283.55 230.538 283.463 230.363 283.345C230.187 283.217 230.04 283.058 229.923 282.871C229.818 282.672 229.765 282.437 229.765 282.168Z" fill="#333333"/>
        <path d="M94.1276 278.958C94.1276 292.586 83.0797 303.634 69.4513 303.634C55.8229 303.634 44.7749 292.586 44.7749 278.958C44.7749 265.329 55.8229 254.281 69.4513 254.281C83.0797 254.281 94.1276 265.329 94.1276 278.958Z" fill="#0F59D1"/>
        <path fill-rule="evenodd" clip-rule="evenodd" d="M80.1234 276.773H59.2197V284.464C59.2197 290.237 63.8992 294.916 69.6715 294.916C75.4439 294.916 80.1234 290.237 80.1234 284.464V276.773ZM65.7926 281.769H73.5493V284.004H70.7893V288.869H68.5543V284.004H65.7926V281.769Z" fill="white"/>
        <path fill-rule="evenodd" clip-rule="evenodd" d="M61.8491 270.595C61.8491 266.239 65.3808 262.707 69.7373 262.707C74.0938 262.707 77.6255 266.239 77.6255 270.595V274.802H73.4184V270.595C73.4184 268.562 71.7703 266.914 69.7373 266.914C67.7042 266.914 66.0561 268.562 66.0561 270.595V274.802H61.8491V270.595Z" fill="white"/>
        <path d="M289.496 284C289.219 284 289 283.925 288.84 283.776C288.691 283.616 288.616 283.403 288.616 283.136C288.616 282.859 288.691 282.651 288.84 282.512C289 282.373 289.219 282.304 289.496 282.304H291.288V274.448H292.28L289.928 275.872C289.725 275.989 289.533 276.037 289.352 276.016C289.181 275.984 289.032 275.909 288.904 275.792C288.787 275.664 288.707 275.515 288.664 275.344C288.621 275.173 288.632 275.003 288.696 274.832C288.771 274.651 288.909 274.501 289.112 274.384L291.32 273.056C291.533 272.928 291.747 272.821 291.96 272.736C292.173 272.64 292.371 272.592 292.552 272.592C292.776 272.592 292.963 272.656 293.112 272.784C293.261 272.901 293.336 273.099 293.336 273.376V282.304H294.968C295.245 282.304 295.459 282.373 295.608 282.512C295.768 282.651 295.848 282.859 295.848 283.136C295.848 283.413 295.768 283.627 295.608 283.776C295.459 283.925 295.245 284 294.968 284H289.496ZM302.24 284.16C301.674 284.16 301.098 284.085 300.512 283.936C299.925 283.787 299.386 283.557 298.896 283.248C298.693 283.12 298.554 282.971 298.48 282.8C298.416 282.619 298.4 282.443 298.432 282.272C298.474 282.091 298.554 281.941 298.672 281.824C298.8 281.696 298.949 281.621 299.12 281.6C299.301 281.579 299.498 281.627 299.712 281.744C300.106 281.968 300.506 282.139 300.912 282.256C301.317 282.373 301.749 282.432 302.208 282.432C302.656 282.432 303.04 282.352 303.36 282.192C303.68 282.032 303.925 281.808 304.096 281.52C304.266 281.232 304.352 280.896 304.352 280.512C304.352 279.915 304.17 279.435 303.808 279.072C303.445 278.699 302.949 278.512 302.32 278.512C301.978 278.512 301.648 278.571 301.328 278.688C301.008 278.795 300.693 278.987 300.384 279.264C300.288 279.349 300.165 279.435 300.016 279.52C299.866 279.595 299.706 279.632 299.536 279.632C299.269 279.632 299.066 279.563 298.928 279.424C298.789 279.285 298.72 279.093 298.72 278.848V273.616C298.72 273.328 298.794 273.109 298.944 272.96C299.104 272.8 299.328 272.72 299.616 272.72H304.88C305.168 272.72 305.386 272.795 305.536 272.944C305.696 273.083 305.776 273.291 305.776 273.568C305.776 273.835 305.696 274.043 305.536 274.192C305.386 274.341 305.168 274.416 304.88 274.416H300.72V278H300.192C300.469 277.627 300.837 277.339 301.296 277.136C301.754 276.933 302.256 276.832 302.8 276.832C303.514 276.832 304.133 276.987 304.656 277.296C305.189 277.595 305.6 278.016 305.888 278.56C306.186 279.093 306.336 279.717 306.336 280.432C306.336 281.168 306.17 281.819 305.84 282.384C305.509 282.939 305.034 283.376 304.416 283.696C303.808 284.005 303.082 284.16 302.24 284.16ZM312.488 284.16C311.154 284.16 310.136 283.659 309.432 282.656C308.728 281.643 308.376 280.203 308.376 278.336C308.376 277.077 308.53 276.021 308.84 275.168C309.16 274.304 309.624 273.653 310.232 273.216C310.85 272.779 311.602 272.56 312.488 272.56C313.832 272.56 314.85 273.051 315.544 274.032C316.248 275.013 316.6 276.443 316.6 278.32C316.6 279.568 316.44 280.629 316.12 281.504C315.81 282.368 315.352 283.029 314.744 283.488C314.136 283.936 313.384 284.16 312.488 284.16ZM312.488 282.48C313.213 282.48 313.746 282.144 314.088 281.472C314.44 280.8 314.616 279.749 314.616 278.32C314.616 276.891 314.44 275.856 314.088 275.216C313.746 274.565 313.213 274.24 312.488 274.24C311.773 274.24 311.24 274.565 310.888 275.216C310.536 275.856 310.36 276.891 310.36 278.32C310.36 279.749 310.536 280.8 310.888 281.472C311.24 282.144 311.773 282.48 312.488 282.48ZM322.991 285.968C322.757 285.968 322.565 285.888 322.415 285.728C322.266 285.579 322.191 285.392 322.191 285.168V283.744L322.559 284.096C321.823 284.075 321.167 283.979 320.591 283.808C320.026 283.637 319.546 283.44 319.151 283.216C318.959 283.099 318.826 282.955 318.751 282.784C318.677 282.603 318.65 282.421 318.671 282.24C318.693 282.059 318.757 281.904 318.863 281.776C318.981 281.637 319.125 281.552 319.295 281.52C319.466 281.477 319.663 281.52 319.887 281.648C320.186 281.819 320.575 281.984 321.055 282.144C321.546 282.293 322.133 282.368 322.815 282.368C323.349 282.368 323.781 282.304 324.111 282.176C324.442 282.048 324.682 281.872 324.831 281.648C324.991 281.424 325.071 281.168 325.071 280.88C325.071 280.645 325.018 280.443 324.911 280.272C324.805 280.091 324.629 279.936 324.383 279.808C324.138 279.669 323.807 279.557 323.391 279.472L321.695 279.104C320.725 278.891 319.999 278.533 319.519 278.032C319.039 277.531 318.799 276.875 318.799 276.064C318.799 275.435 318.954 274.875 319.263 274.384C319.573 273.883 320.005 273.483 320.559 273.184C321.114 272.885 321.765 272.709 322.511 272.656L322.191 272.896V271.552C322.191 271.328 322.266 271.141 322.415 270.992C322.565 270.832 322.757 270.752 322.991 270.752C323.215 270.752 323.402 270.832 323.551 270.992C323.711 271.141 323.791 271.328 323.791 271.552V272.896L323.455 272.64C323.914 272.651 324.415 272.741 324.959 272.912C325.514 273.083 325.989 273.323 326.383 273.632C326.543 273.76 326.65 273.909 326.703 274.08C326.757 274.24 326.762 274.4 326.719 274.56C326.677 274.709 326.597 274.837 326.479 274.944C326.362 275.051 326.213 275.115 326.031 275.136C325.861 275.147 325.663 275.088 325.439 274.96C325.13 274.779 324.783 274.635 324.399 274.528C324.015 274.411 323.557 274.352 323.023 274.352C322.341 274.352 321.802 274.507 321.407 274.816C321.023 275.115 320.831 275.509 320.831 276C320.831 276.363 320.949 276.656 321.183 276.88C321.418 277.093 321.818 277.264 322.383 277.392L324.127 277.776C325.151 278 325.903 278.357 326.383 278.848C326.863 279.328 327.103 279.963 327.103 280.752C327.103 281.371 326.949 281.92 326.639 282.4C326.33 282.869 325.903 283.248 325.359 283.536C324.826 283.813 324.202 283.989 323.487 284.064L323.791 283.728V285.168C323.791 285.392 323.717 285.579 323.567 285.728C323.418 285.888 323.226 285.968 322.991 285.968ZM335.741 284C335.41 284 335.154 283.909 334.973 283.728C334.791 283.536 334.701 283.275 334.701 282.944V273.712C334.701 273.371 334.786 273.115 334.957 272.944C335.138 272.763 335.394 272.672 335.725 272.672C336.055 272.672 336.306 272.763 336.477 272.944C336.658 273.115 336.749 273.371 336.749 273.712V282.256H341.389C341.677 282.256 341.895 282.331 342.045 282.48C342.205 282.629 342.285 282.843 342.285 283.12C342.285 283.397 342.205 283.616 342.045 283.776C341.895 283.925 341.677 284 341.389 284H335.741ZM347.733 284.16C346.922 284.16 346.218 283.995 345.621 283.664C345.024 283.333 344.56 282.864 344.229 282.256C343.898 281.637 343.733 280.912 343.733 280.08C343.733 279.451 343.824 278.891 344.005 278.4C344.197 277.899 344.469 277.472 344.821 277.12C345.173 276.757 345.594 276.485 346.085 276.304C346.576 276.112 347.125 276.016 347.733 276.016C348.544 276.016 349.248 276.181 349.845 276.512C350.442 276.843 350.906 277.312 351.237 277.92C351.568 278.528 351.733 279.248 351.733 280.08C351.733 280.709 351.637 281.275 351.445 281.776C351.264 282.277 350.997 282.709 350.645 283.072C350.293 283.424 349.872 283.696 349.381 283.888C348.89 284.069 348.341 284.16 347.733 284.16ZM347.733 282.64C348.128 282.64 348.474 282.544 348.773 282.352C349.072 282.16 349.301 281.877 349.461 281.504C349.632 281.12 349.717 280.645 349.717 280.08C349.717 279.227 349.536 278.592 349.173 278.176C348.81 277.749 348.33 277.536 347.733 277.536C347.338 277.536 346.992 277.632 346.693 277.824C346.394 278.005 346.16 278.288 345.989 278.672C345.829 279.045 345.749 279.515 345.749 280.08C345.749 280.923 345.93 281.563 346.293 282C346.656 282.427 347.136 282.64 347.733 282.64ZM357.75 284.16C356.928 284.16 356.214 283.995 355.606 283.664C354.998 283.323 354.528 282.843 354.198 282.224C353.867 281.605 353.702 280.88 353.702 280.048C353.702 279.419 353.792 278.859 353.974 278.368C354.166 277.867 354.438 277.445 354.79 277.104C355.142 276.752 355.568 276.485 356.07 276.304C356.571 276.112 357.131 276.016 357.75 276.016C358.102 276.016 358.48 276.064 358.886 276.16C359.302 276.256 359.691 276.416 360.054 276.64C360.224 276.747 360.336 276.875 360.39 277.024C360.443 277.173 360.454 277.328 360.422 277.488C360.39 277.637 360.32 277.771 360.214 277.888C360.118 277.995 359.995 278.064 359.846 278.096C359.696 278.117 359.531 278.08 359.35 277.984C359.115 277.845 358.875 277.744 358.63 277.68C358.384 277.605 358.15 277.568 357.926 277.568C357.574 277.568 357.264 277.627 356.998 277.744C356.731 277.851 356.502 278.011 356.31 278.224C356.128 278.427 355.99 278.683 355.894 278.992C355.798 279.301 355.75 279.659 355.75 280.064C355.75 280.853 355.936 281.477 356.31 281.936C356.694 282.384 357.232 282.608 357.926 282.608C358.15 282.608 358.379 282.576 358.614 282.512C358.859 282.448 359.104 282.347 359.35 282.208C359.531 282.112 359.691 282.08 359.83 282.112C359.979 282.144 360.102 282.219 360.198 282.336C360.294 282.443 360.352 282.576 360.374 282.736C360.395 282.885 360.374 283.035 360.31 283.184C360.256 283.333 360.15 283.456 359.99 283.552C359.638 283.765 359.264 283.92 358.87 284.016C358.475 284.112 358.102 284.16 357.75 284.16ZM363.423 284.128C363.103 284.128 362.857 284.043 362.687 283.872C362.516 283.691 362.431 283.435 362.431 283.104V273.6C362.431 273.269 362.516 273.019 362.687 272.848C362.857 272.677 363.103 272.592 363.423 272.592C363.743 272.592 363.988 272.677 364.159 272.848C364.34 273.019 364.431 273.269 364.431 273.6V279.504H364.463L367.103 276.72C367.316 276.507 367.503 276.341 367.663 276.224C367.823 276.107 368.041 276.048 368.319 276.048C368.596 276.048 368.804 276.123 368.943 276.272C369.092 276.411 369.167 276.581 369.167 276.784C369.167 276.987 369.071 277.189 368.879 277.392L366.095 280.336V279.504L369.151 282.8C369.343 283.003 369.428 283.211 369.407 283.424C369.396 283.627 369.311 283.797 369.151 283.936C368.991 284.064 368.788 284.128 368.543 284.128C368.244 284.128 368.004 284.069 367.823 283.952C367.652 283.835 367.46 283.659 367.247 283.424L364.463 280.512H364.431V283.104C364.431 283.787 364.095 284.128 363.423 284.128ZM378.101 284.128C377.77 284.128 377.509 284.037 377.317 283.856C377.135 283.664 377.045 283.392 377.045 283.04V273.808C377.045 273.456 377.135 273.189 377.317 273.008C377.509 272.816 377.781 272.72 378.133 272.72H383.717C383.994 272.72 384.202 272.789 384.341 272.928C384.479 273.067 384.549 273.264 384.549 273.52C384.549 273.787 384.479 273.995 384.341 274.144C384.202 274.283 383.994 274.352 383.717 274.352H379.093V277.536H383.381C383.647 277.536 383.85 277.605 383.989 277.744C384.138 277.883 384.213 278.08 384.213 278.336C384.213 278.603 384.138 278.811 383.989 278.96C383.85 279.099 383.647 279.168 383.381 279.168H379.093V283.04C379.093 283.765 378.762 284.128 378.101 284.128ZM390.162 284.16C389.276 284.16 388.514 283.995 387.874 283.664C387.234 283.333 386.738 282.864 386.386 282.256C386.044 281.648 385.874 280.928 385.874 280.096C385.874 279.285 386.039 278.576 386.37 277.968C386.711 277.36 387.175 276.885 387.762 276.544C388.359 276.192 389.036 276.016 389.794 276.016C390.348 276.016 390.844 276.107 391.282 276.288C391.73 276.469 392.108 276.731 392.418 277.072C392.738 277.413 392.978 277.829 393.138 278.32C393.308 278.8 393.394 279.344 393.394 279.952C393.394 280.144 393.324 280.293 393.186 280.4C393.058 280.496 392.871 280.544 392.626 280.544H387.49V279.392H391.986L391.73 279.632C391.73 279.141 391.655 278.731 391.506 278.4C391.367 278.069 391.159 277.819 390.882 277.648C390.615 277.467 390.279 277.376 389.874 277.376C389.426 277.376 389.042 277.483 388.722 277.696C388.412 277.899 388.172 278.192 388.002 278.576C387.842 278.949 387.762 279.397 387.762 279.92V280.032C387.762 280.907 387.964 281.563 388.37 282C388.786 282.427 389.394 282.64 390.194 282.64C390.471 282.64 390.78 282.608 391.122 282.544C391.474 282.469 391.804 282.347 392.114 282.176C392.338 282.048 392.535 281.995 392.706 282.016C392.876 282.027 393.01 282.085 393.106 282.192C393.212 282.299 393.276 282.432 393.298 282.592C393.319 282.741 393.287 282.896 393.202 283.056C393.127 283.216 392.994 283.355 392.802 283.472C392.428 283.707 391.996 283.883 391.506 284C391.026 284.107 390.578 284.16 390.162 284.16ZM399.584 284.16C398.698 284.16 397.936 283.995 397.296 283.664C396.656 283.333 396.16 282.864 395.808 282.256C395.466 281.648 395.296 280.928 395.296 280.096C395.296 279.285 395.461 278.576 395.792 277.968C396.133 277.36 396.597 276.885 397.184 276.544C397.781 276.192 398.458 276.016 399.216 276.016C399.77 276.016 400.266 276.107 400.704 276.288C401.152 276.469 401.53 276.731 401.84 277.072C402.16 277.413 402.4 277.829 402.56 278.32C402.73 278.8 402.816 279.344 402.816 279.952C402.816 280.144 402.746 280.293 402.608 280.4C402.48 280.496 402.293 280.544 402.048 280.544H396.912V279.392H401.408L401.152 279.632C401.152 279.141 401.077 278.731 400.928 278.4C400.789 278.069 400.581 277.819 400.304 277.648C400.037 277.467 399.701 277.376 399.296 277.376C398.848 277.376 398.464 277.483 398.144 277.696C397.834 277.899 397.594 278.192 397.424 278.576C397.264 278.949 397.184 279.397 397.184 279.92V280.032C397.184 280.907 397.386 281.563 397.792 282C398.208 282.427 398.816 282.64 399.616 282.64C399.893 282.64 400.202 282.608 400.544 282.544C400.896 282.469 401.226 282.347 401.536 282.176C401.76 282.048 401.957 281.995 402.128 282.016C402.298 282.027 402.432 282.085 402.528 282.192C402.634 282.299 402.698 282.432 402.72 282.592C402.741 282.741 402.709 282.896 402.624 283.056C402.549 283.216 402.416 283.355 402.224 283.472C401.85 283.707 401.418 283.883 400.928 284C400.448 284.107 400 284.16 399.584 284.16Z" fill="#1AA824"/>
    </g>
    <defs>
        <filter id="filter0_d_2870_46340" x="-0.000118256" y="112.048" width="454" height="120.395" filterUnits="userSpaceOnUse" color-interpolation-filters="sRGB">
            <feFlood flood-opacity="0" result="BackgroundImageFix"/>
            <feColorMatrix in="SourceAlpha" type="matrix" values="0 0 0 0 0 0 0 0 0 0 0 0 0 0 0 0 0 0 127 0" result="hardAlpha"/>
            <feOffset dy="2.19324"/>
            <feGaussianBlur stdDeviation="7.67633"/>
            <feComposite in2="hardAlpha" operator="out"/>
            <feColorMatrix type="matrix" values="0 0 0 0 0.882205 0 0 0 0 0.895382 0 0 0 0 0.926128 0 0 0 1 0"/>
            <feBlend mode="normal" in2="BackgroundImageFix" result="effect1_dropShadow_2870_46340"/>
            <feBlend mode="normal" in="SourceGraphic" in2="effect1_dropShadow_2870_46340" result="shape"/>
        </filter>
        <filter id="filter1_d_2870_46340" x="-0.000118256" y="221.192" width="454" height="120.395" filterUnits="userSpaceOnUse" color-interpolation-filters="sRGB">
            <feFlood flood-opacity="0" result="BackgroundImageFix"/>
            <feColorMatrix in="SourceAlpha" type="matrix" values="0 0 0 0 0 0 0 0 0 0 0 0 0 0 0 0 0 0 127 0" result="hardAlpha"/>
            <feOffset dy="2.19324"/>
            <feGaussianBlur stdDeviation="7.67633"/>
            <feComposite in2="hardAlpha" operator="out"/>
            <feColorMatrix type="matrix" values="0 0 0 0 0.882205 0 0 0 0 0.895382 0 0 0 0 0.926128 0 0 0 1 0"/>
            <feBlend mode="normal" in2="BackgroundImageFix" result="effect1_dropShadow_2870_46340"/>
            <feBlend mode="normal" in="SourceGraphic" in2="effect1_dropShadow_2870_46340" result="shape"/>
        </filter>
    </defs>
</svg>
