<svg width="178" height="128" viewBox="0 0 178 128" fill="none" xmlns="http://www.w3.org/2000/svg">
<g opacity="0.2">
<path fill-rule="evenodd" clip-rule="evenodd" d="M0.888184 70.6776C0.888184 85.4179 6.37512 98.85 15.4043 109.001C25.7627 120.651 40.7835 127.975 57.5268 128C64.8442 128.01 71.841 126.618 78.2679 124.076C81.591 122.761 85.3103 122.912 88.5287 124.47C92.304 126.295 96.5315 127.318 100.996 127.318C102.84 127.318 104.645 127.142 106.392 126.808C111.378 125.859 115.916 123.612 119.642 120.43C121.984 118.429 124.983 117.423 128.048 117.427H128.1C138.229 117.427 147.638 114.322 155.449 109.001C162.432 104.251 168.135 97.7316 171.935 90.077C175.247 83.4066 177.112 75.8713 177.112 67.8961C177.112 40.543 155.167 18.3656 128.1 18.3656C125.341 18.3656 122.638 18.6012 120 19.0406C113.017 7.61602 100.512 0 86.246 0C80.2231 0 74.5131 1.3574 69.402 3.79066C64.5413 6.09719 60.2197 9.37468 56.6844 13.3689C44.6803 13.5623 33.5806 17.5253 24.4959 24.1392C10.1955 34.5441 0.888184 51.5137 0.888184 70.6776Z" fill="url(#paint0_linear_8752_173609)"/>
</g>
<path opacity="0.545118" fill-rule="evenodd" clip-rule="evenodd" d="M100.356 14.1638C101.252 15.0507 102.429 15.494 103.607 15.494C104.784 15.494 105.961 15.0507 106.857 14.1638C108.649 12.3903 108.649 9.50431 106.857 7.73051C105.065 5.9567 102.148 5.95733 100.356 7.73051C98.5641 9.504 98.5641 12.39 100.356 14.1638ZM102.598 9.949C102.876 9.67354 103.242 9.53613 103.607 9.53613C103.972 9.53613 104.337 9.67386 104.615 9.949C105.171 10.4996 105.171 11.3953 104.615 11.9455C104.059 12.4961 103.154 12.4958 102.598 11.9455C102.042 11.395 102.042 10.4993 102.598 9.949Z" fill="#6B9AE1"/>
<path opacity="0.545118" fill-rule="evenodd" clip-rule="evenodd" d="M64.2212 120.374C65.1171 121.26 66.2944 121.704 67.4715 121.704C68.6485 121.704 69.8259 121.261 70.7218 120.374C72.5141 118.6 72.5141 115.714 70.7218 113.94C68.93 112.167 66.0129 112.167 64.2212 113.94C62.4289 115.714 62.4289 118.6 64.2212 120.374ZM66.4626 116.159C66.7409 115.884 67.1064 115.746 67.4716 115.746C67.8368 115.746 68.2023 115.884 68.4803 116.159C69.0363 116.71 69.0363 117.605 68.4803 118.156C67.9237 118.706 67.0192 118.706 66.4626 118.156C65.9065 117.605 65.9065 116.709 66.4626 116.159Z" fill="#6B9AE1"/>
<path d="M147.835 100.278C147.43 100.278 147.024 100.125 146.715 99.8192L144.824 97.9481L142.933 99.8192C142.314 100.432 141.31 100.432 140.691 99.8192C140.072 99.2065 140.072 98.2132 140.691 97.6008L143.703 94.6204C144.321 94.008 145.326 94.008 145.944 94.6204L148.956 97.6008C149.575 98.2135 149.575 99.2068 148.956 99.8192C148.647 100.125 148.241 100.278 147.835 100.278Z" fill="#1A2859" fill-opacity="0.25"/>
<path d="M36.0387 94.3019C35.6333 94.3019 35.2272 94.1488 34.9181 93.8426L33.0272 91.9715L31.1362 93.8426C30.5178 94.455 29.5135 94.455 28.895 93.8426C28.2759 93.2299 28.2759 92.2366 28.895 91.6243L31.9066 88.6439C32.525 88.0315 33.5293 88.0315 34.1478 88.6439L37.1594 91.6243C37.7785 92.237 37.7785 93.2302 37.1594 93.8426C36.85 94.1485 36.4442 94.3019 36.0387 94.3019Z" fill="#1A2859" fill-opacity="0.25"/>
<rect x="42.9233" y="26.666" width="92.6926" height="74.6667" rx="12" fill="#EEF1FC" stroke="#919EAB" stroke-opacity="0.48" stroke-width="1.5"/>
<mask id="mask0_8752_173609" style="mask-type:alpha" maskUnits="userSpaceOnUse" x="42" y="25" width="95" height="78">
<rect x="42.9233" y="26.666" width="92.6926" height="74.6667" rx="12" fill="white" stroke="white" stroke-width="1.5"/>
</mask>
<g mask="url(#mask0_8752_173609)">
<path opacity="0.32" fill-rule="evenodd" clip-rule="evenodd" d="M45.6389 26.666H132.9C134.421 26.666 135.616 27.6045 135.616 28.7993V47.9993H42.9233V28.7993C42.9233 27.6045 44.118 26.666 45.6389 26.666ZM54.2405 37.3327C54.2405 38.8258 55.4259 39.9993 56.935 39.9993C58.4442 39.9993 59.6296 38.8258 59.6296 37.3327C59.6296 35.8392 58.4442 34.666 56.935 34.666C55.4259 34.666 54.2405 35.8392 54.2405 37.3327ZM67.7131 39.9993C66.204 39.9993 65.0186 38.8258 65.0186 37.3327C65.0186 35.8392 66.204 34.666 67.7131 34.666C69.2222 34.666 70.4077 35.8392 70.4077 37.3327C70.4077 38.8258 69.2222 39.9993 67.7131 39.9993ZM75.7969 37.3327C75.7969 38.8258 76.9823 39.9993 78.4915 39.9993C80.0006 39.9993 81.186 38.8258 81.186 37.3327C81.186 35.8392 80.0006 34.666 78.4915 34.666C76.9823 34.666 75.7969 35.8392 75.7969 37.3327Z" fill="#829CCD"/>
<path d="M121.604 55.4658H94.6589C93.1695 55.4658 91.9644 56.6585 91.9644 58.1325V90.1325C91.9644 91.6064 93.1695 92.7992 94.6589 92.7992H121.604C123.094 92.7992 124.299 91.6064 124.299 90.1325V58.1325C124.299 56.6585 123.094 55.4658 121.604 55.4658Z" fill="#1A2859" fill-opacity="0.25" stroke="#829CCD" stroke-width="1.2" stroke-dasharray="2 2"/>
<path opacity="0.72" d="M56.9348 60.7992H67.713C69.2024 60.7992 70.4076 59.6064 70.4076 58.1325C70.4076 56.6585 69.2024 55.4658 67.713 55.4658H56.9348C55.4454 55.4658 54.2402 56.6585 54.2402 58.1325C54.2402 59.6064 55.4454 60.7992 56.9348 60.7992Z" stroke="#829CCD" stroke-width="1.2" stroke-dasharray="2 2"/>
<path opacity="0.72" d="M83.8803 66.1328H56.9348C55.4454 66.1328 54.2402 67.3255 54.2402 68.7995C54.2402 70.2734 55.4454 71.4661 56.9348 71.4661H83.8803C85.3697 71.4661 86.5749 70.2734 86.5749 68.7995C86.5749 67.3255 85.3697 66.1328 83.8803 66.1328Z" stroke="#829CCD" stroke-width="1.2" stroke-dasharray="2 2"/>
<path opacity="0.72" d="M83.8803 76.7988H56.9348C55.4454 76.7988 54.2402 77.9915 54.2402 79.4655C54.2402 80.9394 55.4454 82.1322 56.9348 82.1322H83.8803C85.3697 82.1322 86.5749 80.9394 86.5749 79.4655C86.5749 77.9915 85.3697 76.7988 83.8803 76.7988Z" stroke="#829CCD" stroke-width="1.2" stroke-dasharray="2 2"/>
<path opacity="0.72" d="M83.8803 87.4658H56.9348C55.4454 87.4658 54.2402 88.6585 54.2402 90.1325C54.2402 91.6064 55.4454 92.7992 56.9348 92.7992H83.8803C85.3697 92.7992 86.5749 91.6064 86.5749 90.1325C86.5749 88.6585 85.3697 87.4658 83.8803 87.4658Z" stroke="#829CCD" stroke-width="1.2" stroke-dasharray="2 2"/>
</g>
<defs>
<linearGradient id="paint0_linear_8752_173609" x1="121.605" y1="150.767" x2="183.037" y2="7.80178" gradientUnits="userSpaceOnUse">
<stop stop-color="#4D77B7"/>
<stop offset="1" stop-color="#4D77B7" stop-opacity="0"/>
</linearGradient>
</defs>
</svg>
