<svg width="250" height="140" viewBox="0 0 250 140" fill="none" xmlns="http://www.w3.org/2000/svg">
    <path opacity="0.3" d="M183.506 133.769C184.4 133.665 217.107 110.171 201.506 85.6595C185.906 61.1478 151.915 65.1002 157.061 54.4213C162.207 43.7424 151.861 -7.50663 111.133 2.06263C70.4055 11.6319 66.1899 40.2074 83.8804 58.2934C101.571 76.3793 75.5049 96.9321 60.2054 79.1897C44.9058 61.4473 23.6049 88.8678 38.3057 101.266C53.0066 113.663 40.4051 150.273 183.506 133.769Z" fill="url(#paint0_linear_4692_449494)"/>
    <path d="M162.854 103.759C162.854 103.759 160.107 111.003 159.507 113.833C158.907 116.663 158.921 119.432 158.921 119.432L153.781 118.293C153.781 118.293 154.98 103.056 156.119 101.982C157.257 100.909 162.785 101.359 162.785 101.359L162.854 103.759Z" fill="#0E538C"/>
    <path d="M168.755 99.9406C168.755 99.9406 169.706 111.821 170.306 113.833C170.906 115.845 176.348 123.685 176.348 123.685L170.536 122.199C170.536 122.199 164.385 115.967 161.765 102.834C159.917 93.5641 166.303 95.9726 168.755 99.9406Z" fill="#0E538C"/>
    <path d="M157.088 83.3612C157.088 83.3612 150.537 82.538 147.351 81.1186C144.164 79.6978 134.556 73.8049 134.556 73.8049L136.118 71.9136C136.118 71.9136 145.107 76.553 146.876 77.4838C148.645 78.4145 157.329 79.8015 157.329 79.8015L157.088 83.3612Z" fill="#FFE3CA"/>
    <path d="M167.689 85.6787C167.921 91.4576 168.516 99.7306 168.755 99.9406C168.755 99.9406 165.881 102.253 163.464 102.643C161.049 103.034 155.672 103.065 155.672 103.065C155.672 103.065 157.312 91.9191 157.367 90.0991C157.421 88.2791 156.723 81.5578 156.723 81.5578C168.755 74.4839 167.681 85.4817 167.689 85.6787Z" fill="#6B9AE1"/>
    <path d="M161.161 78.0915L161.177 79.2452C161.188 80.093 161.901 80.7619 162.749 80.7191L162.988 80.7074C163.808 80.666 164.441 79.9711 164.406 79.1506L164.357 77.9697C164.318 77.0584 163.481 76.3934 162.584 76.5632L162.378 76.6021C161.665 76.7369 161.152 77.3656 161.161 78.0915Z" fill="#FCD2B1"/>
    <path d="M158.682 71.2019C158.682 71.2019 157.284 75.1672 158.516 77.4059C159.749 79.6446 164.295 78.815 165.071 75.7026C166.779 68.8504 160.644 69.1602 158.682 71.2019Z" fill="#FFE3CA"/>
    <path d="M161.75 84.188C161.75 84.188 157.436 85.1862 152.608 83.1497L153.553 78.9458L161.177 79.2465C161.177 79.2452 161.436 81.5021 161.75 84.188Z" fill="#6B9AE1"/>
    <path d="M166.844 80.3159C166.634 80.5298 169.481 89.8048 165.801 93.0287C163.771 94.8059 154.224 97.335 154.224 97.335C154.14 97.4478 153.553 97.6176 152.961 97.7628C152.043 97.9883 151.075 97.698 150.431 97.007C150.383 96.9552 150.339 96.9072 150.3 96.8644C150.241 96.7984 150.196 96.7203 150.17 96.6355C150.144 96.5506 150.137 96.4611 150.149 96.3731C150.176 96.1683 150.267 95.9772 150.408 95.8267C150.55 95.6763 150.735 95.574 150.938 95.5344C151.115 95.4994 151.297 95.4722 151.443 95.467C152.327 95.4385 153.025 95.7989 153.899 95.7678L154.448 95.7483C154.448 95.7483 162.151 92.588 163.18 91.792C166.302 89.3757 164.812 85.1718 165.085 83.4659L166.844 80.3159Z" fill="#FCD2B1"/>
    <path d="M156.041 96.0845C156.041 96.0845 154.373 95.0747 153.321 95.0189C152.844 94.9943 152.044 94.7182 151.794 94.4693C151.544 94.2191 151.344 95.1874 151.77 95.3378C152.195 95.4882 153.248 95.7254 153.008 96.2595L156.041 96.0845Z" fill="#FCD2B1"/>
    <path d="M164.952 79.4565C164.952 79.4565 168.755 79.1894 169.144 87.7424L164.3 89.0776C164.3 89.0776 160.647 84.0363 164.952 79.4565Z" fill="#6B9AE1"/>
    <path d="M134.714 74.1522C134.714 74.1522 135.566 74.2495 136.894 74.1185C138.222 73.9863 137.512 73.4808 137.512 73.4808L136.72 72.4204C136.72 72.4204 136.024 70.7106 135.15 70.1726C134.945 70.0469 134.867 69.9406 134.717 69.763C134.581 69.6022 132.97 69.4298 134.398 70.5356C134.773 70.8259 134.721 71.0671 134.499 71.0697C134.278 71.0722 132.754 69.7721 132.211 70.0884C130.707 70.9672 131.64 72.8715 132.418 73.2539C133.173 73.6234 134.714 74.1522 134.714 74.1522Z" fill="#FFE3CA"/>
    <path d="M165.903 70.135C165.862 70.2296 165.731 70.24 165.68 70.1505C165.273 69.4246 163.88 67.3415 161.549 67.8742C159.107 68.4329 157.894 70.1817 157.25 69.8446C157.151 69.7915 157.035 69.8783 157.068 69.9859C157.183 70.3709 157.478 70.8467 158.239 70.7365C158.309 70.7261 158.374 70.7805 158.378 70.8518C158.395 71.1526 158.339 71.8344 157.491 71.7852C157.389 71.7787 157.32 71.8889 157.375 71.9757C157.53 72.2233 157.859 72.5617 158.413 72.3167C158.445 72.3024 158.47 72.2739 158.481 72.2402C158.562 72.0017 158.971 71.0165 160.183 71.1072C160.228 71.1111 160.268 71.1422 160.288 71.1837C160.366 71.3574 160.687 71.8163 161.951 72.0522C163.429 72.3283 163.853 73.425 163.197 74.1794C163.134 74.252 163.171 74.3674 163.266 74.3842C163.577 74.4361 164.147 74.4244 164.467 73.7659C164.922 72.8287 165.618 73.7387 165.298 74.2754C165.005 74.7641 165.091 76.3015 164.356 77.0948C164.281 77.1752 164.347 77.3074 164.457 77.3009C164.844 77.275 165.472 77.1544 165.809 76.6592C166.318 75.9087 167.737 74.8652 167.281 72.8028C166.861 70.8985 166.477 70.1583 167.173 69.6774C167.257 69.6191 167.247 69.4907 167.151 69.4557C166.84 69.3442 166.275 69.2885 165.903 70.135Z" fill="#0B4870"/>
    <path d="M113.124 56.5421C113.124 56.5421 118.114 63.4734 120.686 65.8301C122.918 67.8757 128.758 70.6407 130.698 71.6686L131.162 71.9136L131.976 70.3127C131.976 70.3127 124.14 64.8216 122.581 63.5681C121.023 62.3158 116.525 55.4921 116.525 55.4921L113.124 56.5421ZM109.366 54.3423C109.111 54.1855 98.1008 55.9549 95.6178 54.9023C93.1349 53.8497 87.6389 45.7751 87.6389 45.7751L85.9387 44.7432C85.262 44.3326 84.7155 43.7383 84.3628 43.0295L84.0026 42.3062C83.6203 41.5375 84.1814 40.6353 85.0406 40.6392L86.6177 41.1214C87.2228 41.3062 87.7709 41.642 88.2105 42.0971C88.6501 42.5523 88.9667 43.1118 89.1305 43.7231L89.273 44.2545C89.273 44.2545 95.8109 51.1949 96.9202 51.8742C98.0282 52.5534 103.445 50.9499 105.167 50.8332L109.366 54.3423Z" fill="#B97A59"/>
    <path d="M93.7322 78.7798C93.7322 78.7798 105.206 77.7635 110.4 67.9648L103.606 68.4393C103.606 68.4393 90.4561 75.74 89.4557 77.1387C88.4552 78.5374 91.2557 96.0698 91.2557 96.0698H94.0056L93.7322 78.7798Z" fill="#0E538C"/>
    <path d="M103.605 68.4396C103.605 68.4396 105.106 85.9668 108.505 92.6687C111.906 99.3705 116.206 108.774 116.206 108.774L119.548 107.873L112.105 88.2665C112.105 88.2665 111.216 78.8631 111.406 77.6628C111.595 76.4624 113.377 71.6648 111.577 67.9639L103.605 68.4396Z" fill="#0E538C"/>
    <path d="M99.981 51.6976L100.368 55.8756C100.368 55.8756 103.545 56.3163 103.506 56.5095C102.332 62.173 100.394 70.2373 100.124 70.4045C100.124 70.4045 103.187 70.6819 105.507 71.4623C107.826 72.2426 112.257 74.4852 112.257 74.4852C112.257 74.4852 112.722 64.3625 112.967 62.5593C113.211 60.7549 114.998 54.2384 114.998 54.2384C108.881 48.2301 99.981 51.6976 99.981 51.6976Z" fill="#6B9AE1"/>
    <path d="M111.184 50.0905L110.981 51.226C110.83 52.0608 110.018 52.604 109.19 52.4225L108.955 52.3707C108.153 52.1957 107.642 51.4062 107.811 50.6025L108.407 47.752L110.228 48.4195C110.909 48.6723 111.312 49.3762 111.184 50.0905Z" fill="#A86D52"/>
    <path d="M115.181 44.4542C115.181 44.4542 114.743 49.1287 112.836 50.8307C110.93 52.5327 107.088 49.6601 107.387 46.4674C108.051 39.4349 114.007 41.8759 115.181 44.4542Z" fill="#B97A59"/>
    <path d="M111.795 51.9023C111.795 51.9023 115.855 53.6705 118.518 58.1829L115.255 60.9959L111.576 57.4699C111.577 57.4699 110.447 54.2448 111.795 51.9023Z" fill="#6B9AE1"/>
    <path d="M43.9419 139.384C43.9419 139.384 63.0916 98.1387 85.6418 98.1685C111.76 98.2022 92.9922 112.423 119.242 113.173C145.492 113.924 197.382 129.497 197.382 129.497L208.632 139.383H43.9419V139.384Z" fill="#CCE9FF"/>
    <path d="M43.9419 139.384C43.9419 139.384 63.0916 98.1387 85.6418 98.1685C111.76 98.2022 92.9922 112.423 119.242 113.173C145.492 113.924 197.382 129.497 197.382 129.497L208.632 139.383H43.9419V139.384Z" fill="url(#paint1_linear_4692_449494)"/>
    <path d="M91.7807 96.0685L91.5876 96.1813C90.4991 96.8165 89.3159 97.2663 88.0926 97.5657C85.563 98.1828 85.3193 99.4207 85.3193 99.4207C85.2247 99.5919 86.0126 100.074 86.207 100.059L90.3397 99.1589C91.0466 99.0047 91.7729 98.9592 92.4935 99.0241L93.6572 99.1278C94.1976 99.1174 94.5916 98.6132 94.4698 98.0856L94.0058 96.0685H91.7807ZM116.206 108.772C116.206 108.772 115.256 112.236 112.631 112.012C112.631 112.012 111.183 114.326 115.106 113.737C116.607 113.511 116.923 111.562 120.056 112.049C120.922 112.184 121.407 111.15 121.407 111.15C121.733 110.028 120.866 109.379 120.096 108.5L119.548 107.873L116.206 108.772ZM80.9236 98.84L79.6069 98.7428L87.8334 20.8911L89.1487 20.9883L80.9236 98.84Z" fill="#0B4870"/>
    <path d="M87.8175 21.6664C87.8175 21.6664 77.3984 13.7292 73.2061 19.0194C67.6725 26.0012 63.9325 23.3607 62.0029 21.2347C62.0029 21.2347 63.698 25.471 56.5679 32.1962C56.5679 32.1962 65.9969 39.0912 71.2583 34.8394C76.5184 30.5875 85.3838 35.3475 86.462 38.6401L87.8175 21.6664Z" fill="#6B9AE1"/>
    <path d="M131.271 72.3012C131.271 72.3012 130.592 71.7787 129.729 70.7586C128.867 69.7397 129.729 69.8693 129.729 69.8693L131.035 69.658C131.035 69.658 132.724 68.9139 133.727 69.1369C133.961 69.1888 134.091 69.1667 134.323 69.1434C134.531 69.1226 135.809 70.1195 134.014 69.9199C133.544 69.868 133.413 70.0767 133.57 70.2336C133.727 70.3904 135.726 70.5174 135.896 71.1228C136.364 72.8002 134.368 73.5184 133.544 73.2513C132.744 72.9934 131.271 72.3012 131.271 72.3012Z" fill="#B97A59"/>
    <path d="M109.116 43.1176C109.116 43.1176 109.856 45.3913 112.481 45.0918C115.107 44.7911 114.785 46.7511 114.785 46.7511C114.785 46.7511 116.995 44.7704 115.23 43.1189C113.464 41.4661 112.794 39.3168 109.116 41.142C105.438 42.9672 106.315 46.3946 107.313 47.7687L107.627 48.0837C107.822 48.2794 108.149 48.2418 108.293 48.0059L108.294 48.0033C108.38 47.8633 108.377 47.6883 108.289 47.5496C108.032 47.1439 107.575 46.2663 108.009 45.7529C108.275 45.4392 108.481 45.5054 108.627 45.6687C108.867 45.9383 109.24 46.0433 109.573 45.9033L109.599 45.8929C109.599 45.8916 110.843 44.62 109.116 43.1176Z" fill="#0B4870"/>
    <defs>
        <linearGradient id="paint0_linear_4692_449494" x1="133.5" y1="1" x2="84.5251" y2="186.412" gradientUnits="userSpaceOnUse">
            <stop stop-color="#4D77B7"/>
            <stop offset="1" stop-color="#4D77B7" stop-opacity="0"/>
        </linearGradient>
        <linearGradient id="paint1_linear_4692_449494" x1="182" y1="98" x2="179.238" y2="143.534" gradientUnits="userSpaceOnUse">
            <stop stop-color="#4D77B7"/>
            <stop offset="1" stop-color="#4D77B7" stop-opacity="0"/>
        </linearGradient>
    </defs>
</svg>
