<svg width="21" height="20" viewBox="0 0 21 20" fill="none" xmlns="http://www.w3.org/2000/svg">
<path d="M7.6249 14.7915C7.44434 14.5832 7.35059 14.3471 7.34365 14.0832C7.3367 13.8193 7.43045 13.5901 7.6249 13.3957L11.0416 9.97902L7.60406 6.54151C7.42351 6.36096 7.3367 6.12832 7.34365 5.8436C7.35059 5.55888 7.44434 5.32624 7.6249 5.14568C7.83323 4.93735 8.06587 4.83665 8.32281 4.8436C8.57976 4.85054 8.80545 4.95124 8.9999 5.14568L13.1457 9.29151C13.243 9.38874 13.3159 9.49638 13.3645 9.61443C13.4131 9.73249 13.4374 9.85401 13.4374 9.97902C13.4374 10.104 13.4131 10.2255 13.3645 10.3436C13.3159 10.4617 13.243 10.5693 13.1457 10.6665L9.02073 14.7915C8.82629 14.986 8.59712 15.0797 8.33323 15.0728C8.06934 15.0658 7.83323 14.9721 7.6249 14.7915Z" fill="#FFFFFF" fill-opacity="0.6"/>
</svg>
