<svg width="142" height="36" viewBox="0 0 142 36" fill="none" xmlns="http://www.w3.org/2000/svg">
<g clip-path="url(#clip0_1248_70042)">
<path fill-rule="evenodd" clip-rule="evenodd" d="M17.2319 7.0403L21.3032 0L38.1491 29.1044H30.5282L17.2319 7.0403Z" fill="white" fill-opacity="0.8"/>
<path fill-rule="evenodd" clip-rule="evenodd" d="M38.6375 29.999L42.1953 35.9999H0.391602L3.91339 29.999H38.6375Z" fill="white" fill-opacity="0.8"/>
<path fill-rule="evenodd" clip-rule="evenodd" d="M12.1437 29.1044H4.45508L16.464 8.21509L20.6237 14.8829L12.1437 29.1044Z" fill="white" fill-opacity="0.8"/>
</g>
<path d="M47.1853 18.44C47.1853 16.36 47.6353 14.51 48.5353 12.89C49.4353 11.25 50.6853 9.98 52.2853 9.08C53.9053 8.16 55.7353 7.7 57.7753 7.7C60.2753 7.7 62.4153 8.36 64.1953 9.68C65.9753 11 67.1653 12.8 67.7653 15.08H62.1253C61.7053 14.2 61.1053 13.53 60.3253 13.07C59.5653 12.61 58.6953 12.38 57.7153 12.38C56.1353 12.38 54.8553 12.93 53.8753 14.03C52.8953 15.13 52.4053 16.6 52.4053 18.44C52.4053 20.28 52.8953 21.75 53.8753 22.85C54.8553 23.95 56.1353 24.5 57.7153 24.5C58.6953 24.5 59.5653 24.27 60.3253 23.81C61.1053 23.35 61.7053 22.68 62.1253 21.8H67.7653C67.1653 24.08 65.9753 25.88 64.1953 27.2C62.4153 28.5 60.2753 29.15 57.7753 29.15C55.7353 29.15 53.9053 28.7 52.2853 27.8C50.6853 26.88 49.4353 25.61 48.5353 23.99C47.6353 22.37 47.1853 20.52 47.1853 18.44ZM75.4369 6.8V29H70.3069V6.8H75.4369ZM86.1745 29.24C84.5345 29.24 83.0545 28.89 81.7345 28.19C80.4345 27.49 79.4045 26.49 78.6445 25.19C77.9045 23.89 77.5345 22.37 77.5345 20.63C77.5345 18.91 77.9145 17.4 78.6745 16.1C79.4345 14.78 80.4745 13.77 81.7945 13.07C83.1145 12.37 84.5945 12.02 86.2345 12.02C87.8745 12.02 89.3545 12.37 90.6745 13.07C91.9945 13.77 93.0345 14.78 93.7945 16.1C94.5545 17.4 94.9345 18.91 94.9345 20.63C94.9345 22.35 94.5445 23.87 93.7645 25.19C93.0045 26.49 91.9545 27.49 90.6145 28.19C89.2945 28.89 87.8145 29.24 86.1745 29.24ZM86.1745 24.8C87.1545 24.8 87.9845 24.44 88.6645 23.72C89.3645 23 89.7145 21.97 89.7145 20.63C89.7145 19.29 89.3745 18.26 88.6945 17.54C88.0345 16.82 87.2145 16.46 86.2345 16.46C85.2345 16.46 84.4045 16.82 83.7445 17.54C83.0845 18.24 82.7545 19.27 82.7545 20.63C82.7545 21.97 83.0745 23 83.7145 23.72C84.3745 24.44 85.1945 24.8 86.1745 24.8ZM101.856 24.77H109.116V29H96.1261V24.92L103.086 16.49H96.1861V12.26H108.966V16.34L101.856 24.77ZM127.119 20.36C127.119 20.84 127.089 21.34 127.029 21.86H115.419C115.499 22.9 115.829 23.7 116.409 24.26C117.009 24.8 117.739 25.07 118.599 25.07C119.879 25.07 120.769 24.53 121.269 23.45H126.729C126.449 24.55 125.939 25.54 125.199 26.42C124.479 27.3 123.569 27.99 122.469 28.49C121.369 28.99 120.139 29.24 118.779 29.24C117.139 29.24 115.679 28.89 114.399 28.19C113.119 27.49 112.119 26.49 111.399 25.19C110.679 23.89 110.319 22.37 110.319 20.63C110.319 18.89 110.669 17.37 111.369 16.07C112.089 14.77 113.089 13.77 114.369 13.07C115.649 12.37 117.119 12.02 118.779 12.02C120.399 12.02 121.839 12.36 123.099 13.04C124.359 13.72 125.339 14.69 126.039 15.95C126.759 17.21 127.119 18.68 127.119 20.36ZM121.869 19.01C121.869 18.13 121.569 17.43 120.969 16.91C120.369 16.39 119.619 16.13 118.719 16.13C117.859 16.13 117.129 16.38 116.529 16.88C115.949 17.38 115.589 18.09 115.449 19.01H121.869ZM134.355 15.05C134.955 14.13 135.705 13.41 136.605 12.89C137.505 12.35 138.505 12.08 139.605 12.08V17.51H138.195C136.915 17.51 135.955 17.79 135.315 18.35C134.675 18.89 134.355 19.85 134.355 21.23V29H129.225V12.26H134.355V15.05Z" fill="white" fill-opacity="0.8"/>
<defs>
<clipPath id="clip0_1248_70042">
<rect width="41.8037" height="36" fill="white" transform="translate(0.391602)"/>
</clipPath>
</defs>
</svg>
