<svg width="95" height="12" viewBox="0 0 95 12" fill="none" xmlns="http://www.w3.org/2000/svg">
<path fill-rule="evenodd" clip-rule="evenodd" d="M8.13586 0.0705566V4.11315H3.50427V0.0705566H0.200684V11.9294H3.50427V7.74067H8.13586V11.9273H11.4401V0.0705566H8.13586ZM33.6982 0.0705566V0.0712625H32.0457V11.9294H35.3875V11.928H44.2218V8.56091H35.3875V3.43762H44.2191V0.0705566H33.6982ZM91.4896 0.0705566V5.16915L86.8788 0.0705566L86.8694 0.0783213V0.0705566H83.5598V11.9294H86.8694V6.66279L91.4896 11.9294H94.7993V0.0705566H91.4896ZM59.474 0.0705566V4.10679H54.257V0.0726743H50.7781V11.9287H54.257V7.73291H59.4713V11.9294H62.9502V7.61785H59.7055L62.9542 4.10679V0.0705566H59.474ZM16.4591 0.0712625V0.0705566H26.7806V0.0712625H27.3626V11.928H24.0845V9.36138H19.4014V11.9294H16.1232V0.0712625H16.4591ZM24.0845 5.85738H19.4027V3.43762H24.0845V5.85738ZM68.5538 0.0705566V0.0712625H67.6373V11.9259H68.5338V11.9294H78.856V8.56585H70.9161V7.68209H78.8573V4.31856H70.9161V3.43409H78.8767V0.0705566H68.5538Z" fill="#222222"/>
</svg>
