<svg width="20" height="20" viewBox="0 0 20 20" fill="none" xmlns="http://www.w3.org/2000/svg">
<rect width="20" height="20" rx="4" fill="#2D64BC"/>
<g clip-path="url(#clip0_982_392)">
<path d="M4 5.60085C4 5.21474 4.13514 4.8962 4.40541 4.64525C4.67567 4.39428 5.02703 4.2688 5.45946 4.2688C5.88417 4.2688 6.2278 4.39234 6.49035 4.63946C6.76061 4.89428 6.89575 5.22632 6.89575 5.63559C6.89575 6.00625 6.76448 6.31512 6.50193 6.56223C6.23166 6.81706 5.87645 6.94447 5.43629 6.94447H5.42471C5 6.94447 4.65637 6.81706 4.39382 6.56223C4.13127 6.30741 4 5.98694 4 5.60085ZM4.15058 15.736V7.99853H6.72201V15.736H4.15058ZM8.14672 15.736H10.7181V11.4155C10.7181 11.1452 10.749 10.9367 10.8108 10.79C10.9189 10.5275 11.083 10.3055 11.3031 10.124C11.5232 9.94254 11.7992 9.85181 12.1313 9.85181C12.9961 9.85181 13.4286 10.4348 13.4286 11.6008V15.736H16V11.2997C16 10.1568 15.7297 9.29003 15.1892 8.6993C14.6486 8.10857 13.9344 7.8132 13.0463 7.8132C12.0502 7.8132 11.2741 8.24177 10.7181 9.09891V9.12208H10.7066L10.7181 9.09891V7.99853H8.14672C8.16216 8.24563 8.16988 9.01396 8.16988 10.3035C8.16988 11.5931 8.16216 13.4039 8.14672 15.736Z" fill="white"/>
</g>
<defs>
<clipPath id="clip0_982_392">
<rect width="12" height="12" fill="white" transform="translate(4 4)"/>
</clipPath>
</defs>
</svg>
