<svg width="235" height="36" viewBox="0 0 235 36" fill="none" xmlns="http://www.w3.org/2000/svg">
<g clip-path="url(#clip0_1248_70067)">
<mask id="mask0_1248_70067" style="mask-type:luminance" maskUnits="userSpaceOnUse" x="0" y="0" width="235" height="36">
<path d="M234.621 0H0V35.9646H234.621V0Z" fill="white"/>
</mask>
<g mask="url(#mask0_1248_70067)">
<path d="M0 0V35.9646L9.2072 26.7541V9.2072L0 0Z" fill="white" fill-opacity="0.8"/>
<path d="M18.1296 18.1296L13.5278 13.5278V35.9645L22.735 26.7539V13.5278L18.1296 18.1296Z" fill="white" fill-opacity="0.8"/>
<path d="M27.0557 9.2072V35.9646L36.2629 26.7541V0L27.0557 9.2072Z" fill="white" fill-opacity="0.8"/>
<path d="M63.2021 26.5138H66.8234V15.4446L71.5006 22.6629H71.5967L76.322 15.3726V26.5173H79.9912V9.44708H76.01L71.5967 16.6653L67.1834 9.44708H63.2021V26.5138ZM94.7331 26.5138H107.517V23.1739H98.4022V19.5904H106.317V16.2505H98.4022V12.787H107.397V9.44708H94.7331V26.5138ZM127.488 26.7573C131.11 26.7573 133.651 24.8541 133.651 21.4661V21.4182C133.651 18.4416 131.73 17.2004 128.325 16.2985C125.424 15.544 124.704 15.1772 124.704 14.0558V14.0078C124.704 13.1779 125.448 12.5196 126.86 12.5196C128.273 12.5196 129.738 13.154 131.226 14.2033L133.147 11.3743C131.442 9.98546 129.357 9.20361 126.912 9.20361C123.483 9.20361 121.034 11.2508 121.034 14.3473V14.3954C121.034 17.7833 123.215 18.7366 126.6 19.6145C129.405 20.3448 129.981 20.8353 129.981 21.785V21.8331C129.981 22.8344 129.069 23.4413 127.56 23.4413C125.64 23.4413 124.059 22.6355 122.547 21.3702L120.362 24.0277C122.379 25.8554 124.944 26.7573 127.485 26.7573M153.903 26.7573C157.524 26.7573 160.065 24.8541 160.065 21.4661V21.4182C160.065 18.4416 158.148 17.2004 154.739 16.2985C151.838 15.544 151.118 15.1772 151.118 14.0558V14.0078C151.118 13.1779 151.862 12.5196 153.276 12.5196C154.688 12.5196 156.152 13.154 157.64 14.2033L159.561 11.3743C157.856 9.98546 155.772 9.20361 153.323 9.20361C149.894 9.20361 147.449 11.2508 147.449 14.3473V14.3954C147.449 17.7833 149.63 18.7366 153.015 19.6145C155.819 20.3448 156.395 20.8353 156.395 21.785V21.8331C156.395 22.8344 155.483 23.4413 153.975 23.4413C152.054 23.4413 150.474 22.6355 148.961 21.3702L146.781 24.0277C148.797 25.8554 151.361 26.7573 153.903 26.7573ZM172.197 26.5138H175.962L177.499 22.6869H184.597L186.132 26.5138H189.994L182.799 9.32363H179.394L172.2 26.5138H172.197ZM178.816 19.3709L181.044 13.8364L183.274 19.3709H178.812H178.816ZM202.702 26.5138H206.396V21.0513H209.297L212.894 26.5138H217.212L213.11 20.4168C215.243 19.611 216.706 17.8793 216.706 15.1257V15.0777C216.706 13.4694 216.202 12.1252 215.266 11.1754C214.163 10.054 212.509 9.44366 210.373 9.44366H202.699V26.5104L202.702 26.5138ZM206.396 17.7353V12.8351H210.065C211.865 12.8351 212.966 13.6649 212.966 15.2731V15.3212C212.966 16.7614 211.933 17.7353 210.137 17.7353H206.396ZM230.924 26.5138H234.617V9.44708H230.924V26.5138Z" fill="white" fill-opacity="0.8"/>
</g>
</g>
<defs>
<clipPath id="clip0_1248_70067">
<rect width="234.621" height="36" fill="white"/>
</clipPath>
</defs>
</svg>
