<svg width="77" height="36" viewBox="0 0 77 36" fill="none" xmlns="http://www.w3.org/2000/svg">
<g clip-path="url(#clip0_1248_70076)">
<mask id="mask0_1248_70076" style="mask-type:luminance" maskUnits="userSpaceOnUse" x="0" y="0" width="77" height="36">
<path d="M76.3622 0H0.620605V36H76.3622V0Z" fill="white"/>
</mask>
<g mask="url(#mask0_1248_70076)">
<path fill-rule="evenodd" clip-rule="evenodd" d="M48.9883 17.7579C48.9883 11.7848 51.5174 8.81445 55.4516 8.81445C59.3693 8.81445 61.9481 11.8333 61.9481 17.7579C61.9481 23.6826 59.3693 26.6853 55.4516 26.6853C51.5339 26.6853 48.9883 23.6826 48.9883 17.7579ZM55.4351 10.7516C52.5919 10.7516 51.1868 13.3507 51.1868 17.7741C51.1868 19.8566 51.5009 21.4709 52.0959 22.6494L57.6832 11.4942C57.0386 10.9938 56.2947 10.7516 55.4351 10.7516ZM53.2365 24.07C53.8647 24.5382 54.5921 24.7804 55.4516 24.7804C58.2948 24.7804 59.733 22.1651 59.733 17.7741C59.733 15.74 59.4354 14.1418 58.8238 12.9311L53.2365 24.07Z" fill="white" fill-opacity="0.8"/>
<path d="M76.032 13.9802L72.4284 19.9533L76.3623 26.3785H73.9492L70.792 21.1802H69.8993L66.6759 26.3785H64.3286L68.2793 20.0341L64.7253 13.9802H67.0065L69.9158 18.904H70.825L73.8005 13.9802H76.032Z" fill="white" fill-opacity="0.8"/>
<path d="M8.36337 22.7527L11.2248 19.8614L7.66748 15.1734L3.13817 8.91455C1.53803 11.5814 0.620605 14.6859 0.620605 18.0001C0.620605 23.4905 3.13817 28.4062 7.10875 31.7075L12.858 27.7395C10.9025 26.5497 9.32711 24.8175 8.36337 22.7527Z" fill="white" fill-opacity="0.8"/>
<path d="M14.1855 7.56158L17.1461 10.356L21.9465 6.88198L28.3552 2.45866C25.6245 0.895961 22.4456 0 19.052 0C13.43 0 8.39657 2.45866 5.01611 6.33632L9.07927 11.9511C10.2976 10.0413 12.0713 8.50277 14.1855 7.56158Z" fill="white" fill-opacity="0.8"/>
<path d="M26.8788 16.1386L30.4362 20.8266L34.9655 27.0855C36.5656 24.4186 37.483 21.3142 37.483 17.9999C37.483 12.5095 34.9655 7.59384 30.9949 4.29248L25.2456 8.26056C27.2012 9.45036 28.7765 11.1825 29.7403 13.2473L26.8788 16.1386Z" fill="white" fill-opacity="0.8"/>
<path d="M33.0876 29.6638L29.0245 24.0491C27.8062 25.9588 26.0325 27.4973 23.9183 28.4385L20.9577 25.644L16.1573 29.1181L9.74854 33.5414C12.4793 35.1041 15.6581 36.0001 19.0518 36.0001C24.6738 36.0001 29.7072 33.5414 33.0876 29.6638Z" fill="white" fill-opacity="0.8"/>
</g>
</g>
<defs>
<clipPath id="clip0_1248_70076">
<rect width="75.7895" height="36" fill="white" transform="translate(0.620605)"/>
</clipPath>
</defs>
</svg>
