<svg width="32" height="32" viewBox="0 0 32 32" fill="none" xmlns="http://www.w3.org/2000/svg">
<path d="M8.20043 6.89544C8.20043 6.38353 8.20043 5.89811 8.20043 5.33325C10.251 6.67479 12.2318 7.98102 14.2824 9.33139C12.2406 10.6729 10.2685 11.9703 8.21788 13.3119C8.21788 12.747 8.21788 12.2263 8.21788 11.6261C7.9561 11.7144 7.76413 11.7673 7.58961 11.8379C5.78333 12.597 4.53552 14.4857 4.62278 16.4539C4.71004 18.3515 5.60881 19.7813 7.29293 20.6197C8.91596 21.4317 10.5303 21.317 12.0486 20.3196C14.0992 18.9869 16.1236 17.6189 18.1655 16.2686C18.8898 15.792 19.6227 15.3154 20.4255 14.8917C20.2772 15.2094 20.1376 15.5272 19.9718 15.8361C18.8898 17.8925 17.8165 19.949 16.7083 21.9877C15.8967 23.4705 14.5966 24.3796 13.0783 24.9885C11.6559 25.5622 10.19 25.8711 8.65418 25.7211C5.39066 25.3945 2.86886 23.8324 1.272 20.9463C-0.682619 17.4071 -0.324853 13.9209 1.93518 10.6376C3.35751 8.56353 5.39066 7.38969 7.85139 6.96604C7.94738 6.94839 8.05209 6.92191 8.20043 6.89544Z" fill="white"/>
<path d="M23.855 25.5867C23.855 26.0363 23.855 26.53 23.855 27.1206C21.7967 25.7718 19.8081 24.4672 17.7585 23.1272C19.7994 21.7961 21.7792 20.4914 23.8376 19.1427C23.8376 19.7421 23.8376 20.2446 23.8376 20.8528C24.1865 20.7118 24.4917 20.6325 24.7621 20.4826C26.4628 19.5129 27.4571 18.0584 27.4135 16.0661C27.3525 12.9631 24.6138 10.962 21.9275 11.3763C21.1077 11.4997 20.375 11.8611 19.6773 12.346C18.1684 13.395 16.6246 14.3823 15.0983 15.3873C14.043 16.0837 12.9876 16.7801 11.9236 17.4677C11.8538 17.5118 11.7753 17.5383 11.5747 17.644C11.8015 17.1768 11.9672 16.8066 12.1503 16.454C13.1882 14.4793 14.2174 12.4958 15.2902 10.53C16.1711 8.90798 17.6276 7.97355 19.2935 7.33002C20.375 6.9157 21.5089 6.6865 22.6601 6.69531C24.954 6.72176 27.0123 7.45344 28.7654 8.99613C30.4138 10.4419 31.4953 12.249 31.8616 14.4088C32.6379 19.0192 30.0911 23.5504 25.7825 25.0578C25.172 25.2694 24.544 25.4016 23.855 25.5867Z" fill="white"/>
</svg>
