<?xml version="1.0" encoding="utf-8"?>
<!-- Generator: Adobe Illustrator 25.4.1, SVG Export Plug-In . SVG Version: 6.00 Build 0)  -->
<svg version="1.1" id="Layer_1" xmlns="http://www.w3.org/2000/svg" xmlns:xlink="http://www.w3.org/1999/xlink" x="0px" y="0px"
	 viewBox="0 0 269 31" style="enable-background:new 0 0 269 31;" xml:space="preserve">
<style type="text/css">
	.st0{fill:#FFFFFF;}
	.st1{fill:none;stroke:url(#SVGID_1_);stroke-width:0.9;}
	.st2{fill:url(#SVGID_00000016037630653447678910000007594461027307859894_);}
	.st3{fill:url(#SVGID_00000101803289055540955840000017585369434384988596_);}
	.st4{fill:url(#SVGID_00000151517278251650749340000018425974365533438618_);}
	.st5{fill:url(#SVGID_00000028316891853724940660000017431742103004553393_);}
	.st6{fill:url(#SVGID_00000091725863099551979370000017761095880927231148_);}
	.st7{fill:url(#SVGID_00000005246270859413763460000009715995675457539764_);}
	.st8{fill:url(#SVGID_00000077296838038587336520000005459905867733271710_);}
	.st9{fill:url(#SVGID_00000129203975970816490370000003312377414612472762_);}
	.st10{fill:url(#SVGID_00000093873424981055249190000008959834665309914548_);}
	.st11{fill:url(#SVGID_00000121250555799661530530000005622628101207149970_);}
	.st12{fill:url(#SVGID_00000067196341689693646350000012470274019555441581_);}
	.st13{fill:url(#SVGID_00000029754883153153396690000007753417684476703659_);}
	.st14{fill:url(#SVGID_00000085219357023749961760000004562238316701967269_);}
	.st15{fill:url(#SVGID_00000023252298552522215610000015256258629576953789_);}
	.st16{fill:url(#SVGID_00000119086674828156212720000014866623716552072849_);}
	.st17{fill:url(#SVGID_00000025432717550321464870000013816590264825748917_);}
	.st18{fill:url(#SVGID_00000134236795838082784320000012927829709157395598_);}
	.st19{fill:url(#SVGID_00000031892896667101332960000001097889050466925193_);}
	.st20{fill:url(#SVGID_00000121978532839876160860000009616412625399833226_);}
	.st21{fill:url(#SVGID_00000083074691520920064930000006394451818737453968_);}
	.st22{fill:url(#SVGID_00000056406398445377765640000005176480785001839259_);}
	.st23{fill:url(#SVGID_00000065782803920920576590000013581613174324779423_);}
	.st24{fill:url(#SVGID_00000022545053218304616720000006878437428978159788_);}
	.st25{fill:url(#SVGID_00000116954738699614692420000003307646333496019107_);}
	.st26{fill:url(#SVGID_00000050627063710606571500000010145462117528497035_);}
	.st27{fill:url(#SVGID_00000018228544086824802140000011539405309064669091_);}
	.st28{fill:url(#SVGID_00000032630452087119654950000008377660628762536607_);}
	.st29{fill:url(#SVGID_00000031922135257794960220000017341961933542948777_);}
</style>
<path class="st0" d="M5,0.4h259c2.5,0,4.5,2,4.5,4.6v21c0,2.5-2,4.6-4.5,4.6H5c-2.5,0-4.6-2-4.6-4.6V5C0.4,2.5,2.5,0.4,5,0.4z"/>
<linearGradient id="SVGID_1_" gradientUnits="userSpaceOnUse" x1="134.5" y1="32" x2="134.5" y2="1" gradientTransform="matrix(1 0 0 -1 0 32)">
	<stop  offset="0" style="stop-color:#1D65DC"/>
	<stop  offset="1" style="stop-color:#0A4BB3"/>
</linearGradient>
<path class="st1" d="M5,0.4h259c2.5,0,4.5,2,4.5,4.6v21c0,2.5-2,4.6-4.5,4.6H5c-2.5,0-4.6-2-4.6-4.6V5C0.4,2.5,2.5,0.4,5,0.4z"/>
<g>
	
		<linearGradient id="SVGID_00000098907943943219021090000011088640734861390010_" gradientUnits="userSpaceOnUse" x1="17.907" y1="14.3911" x2="26.3269" y2="14.3911">
		<stop  offset="0" style="stop-color:#1D65DC"/>
		<stop  offset="1" style="stop-color:#0A4BB3"/>
	</linearGradient>
	<path style="fill:url(#SVGID_00000098907943943219021090000011088640734861390010_);" d="M23.6,12.5c0-0.3-0.1-0.6-0.4-0.8
		c-0.2-0.2-0.5-0.3-1-0.3c-0.4,0-0.7,0.1-0.9,0.2C21.1,11.8,21,12,21,12.2c0,0.2,0.1,0.4,0.3,0.6s0.6,0.3,1,0.4l0.8,0.2
		c1.1,0.2,1.9,0.6,2.4,1.1s0.7,1.2,0.7,1.9c0,1-0.4,1.8-1.1,2.3c-0.7,0.5-1.7,0.8-3,0.8c-0.9,0-1.6-0.1-2.3-0.4
		c-0.6-0.3-1.2-0.7-1.5-1.2c-0.4-0.5-0.5-1.2-0.5-2.1h2.6c0,0.5,0.2,0.8,0.5,1.1c0.3,0.2,0.7,0.4,1.2,0.4c0.4,0,0.8-0.1,1-0.2
		c0.2-0.2,0.3-0.4,0.3-0.6c0-0.2-0.1-0.4-0.3-0.6c-0.2-0.2-0.6-0.3-1.2-0.4l-1-0.2c-0.9-0.2-1.6-0.5-2.1-1c-0.5-0.5-0.8-1.1-0.8-1.9
		c0-0.6,0.2-1.2,0.5-1.7c0.3-0.5,0.8-0.9,1.4-1.1s1.3-0.4,2.1-0.4c0.8,0,1.5,0.1,2.1,0.4c0.6,0.3,1,0.7,1.4,1.1
		c0.3,0.5,0.5,1.1,0.5,1.7H23.6z"/>
	
		<linearGradient id="SVGID_00000083071630466276331330000007581583669180181689_" gradientUnits="userSpaceOnUse" x1="26.9353" y1="14.813" x2="32.0383" y2="14.813">
		<stop  offset="0" style="stop-color:#1D65DC"/>
		<stop  offset="1" style="stop-color:#0A4BB3"/>
	</linearGradient>
	<path style="fill:url(#SVGID_00000083071630466276331330000007581583669180181689_);" d="M31.9,11.9v2h-1.3V17
		c0,0.3,0.2,0.5,0.5,0.5c0.1,0,0.2,0,0.3,0c0.1,0,0.2,0,0.2,0l0.4,1.9c-0.1,0-0.3,0.1-0.5,0.1s-0.5,0.1-0.8,0.1
		c-0.9,0.1-1.6-0.1-2.1-0.5c-0.5-0.4-0.7-1-0.7-1.8v-3.4h-1v-2h1v-1.8h2.7v1.8H31.9z"/>
	
		<linearGradient id="SVGID_00000011717485574237495810000007329190252409040309_" gradientUnits="userSpaceOnUse" x1="32.6462" y1="15.667" x2="39.8694" y2="15.667">
		<stop  offset="0" style="stop-color:#1D65DC"/>
		<stop  offset="1" style="stop-color:#0A4BB3"/>
	</linearGradient>
	<path style="fill:url(#SVGID_00000011717485574237495810000007329190252409040309_);" d="M35.1,19.5c-0.7,0-1.3-0.2-1.8-0.5
		c-0.5-0.4-0.7-0.9-0.7-1.7c0-0.6,0.1-1,0.4-1.3s0.6-0.6,1-0.8c0.4-0.2,0.9-0.3,1.4-0.3c0.6,0,1.1-0.1,1.3-0.2
		c0.3-0.1,0.4-0.2,0.4-0.5v0c0-0.2-0.1-0.3-0.2-0.5c-0.2-0.1-0.3-0.2-0.6-0.2c-0.3,0-0.5,0.1-0.6,0.2c-0.2,0.1-0.3,0.3-0.3,0.5h-2.5
		c0-0.5,0.2-0.9,0.4-1.3c0.3-0.4,0.6-0.7,1.1-0.9s1.1-0.4,1.9-0.4c0.7,0,1.3,0.1,1.9,0.3c0.5,0.2,0.9,0.5,1.2,0.9
		c0.3,0.4,0.4,0.8,0.4,1.3v5.2h-2.5v-1.1h-0.1c-0.2,0.4-0.5,0.7-0.9,0.9C36,19.5,35.6,19.5,35.1,19.5z M36,17.8
		c0.3,0,0.6-0.1,0.8-0.3c0.2-0.2,0.4-0.5,0.4-0.8v-0.6c-0.3,0.1-0.6,0.2-1.1,0.3c-0.3,0-0.5,0.1-0.7,0.3s-0.2,0.3-0.2,0.5
		c0,0.2,0.1,0.4,0.2,0.5C35.6,17.8,35.8,17.8,36,17.8z"/>
	
		<linearGradient id="SVGID_00000136373028567245192630000000384223332834640533_" gradientUnits="userSpaceOnUse" x1="41.1648" y1="14.4009" x2="48.9172" y2="14.4009">
		<stop  offset="0" style="stop-color:#1D65DC"/>
		<stop  offset="1" style="stop-color:#0A4BB3"/>
	</linearGradient>
	<path style="fill:url(#SVGID_00000136373028567245192630000000384223332834640533_);" d="M41.2,19.4v-10h2.7v5H44l1.8-2.5h3
		l-2.6,3.3l2.6,4.2h-3.1l-1.5-2.7l-0.4,0.5v2.1H41.2z"/>
	
		<linearGradient id="SVGID_00000134231739700711876810000013873936934183753885_" gradientUnits="userSpaceOnUse" x1="49.5452" y1="14.0281" x2="52.2537" y2="14.0281">
		<stop  offset="0" style="stop-color:#1D65DC"/>
		<stop  offset="1" style="stop-color:#0A4BB3"/>
	</linearGradient>
	<path style="fill:url(#SVGID_00000134231739700711876810000013873936934183753885_);" d="M49.5,19.4v-7.5h2.7v7.5H49.5z M50.9,11.1
		c-0.4,0-0.7-0.1-0.9-0.4s-0.4-0.5-0.4-0.9c0-0.3,0.1-0.6,0.4-0.9c0.3-0.2,0.6-0.4,0.9-0.4c0.4,0,0.7,0.1,0.9,0.4
		c0.3,0.2,0.4,0.5,0.4,0.9c0,0.3-0.1,0.6-0.4,0.9C51.6,11,51.3,11.1,50.9,11.1z"/>
	
		<linearGradient id="SVGID_00000116918922070054683750000014764848985965221780_" gradientUnits="userSpaceOnUse" x1="53.6277" y1="15.6082" x2="61.2234" y2="15.6082">
		<stop  offset="0" style="stop-color:#1D65DC"/>
		<stop  offset="1" style="stop-color:#0A4BB3"/>
	</linearGradient>
	<path style="fill:url(#SVGID_00000116918922070054683750000014764848985965221780_);" d="M56.3,15.2v4.2h-2.7v-7.5h2.6v1.4h0.1
		c0.2-0.5,0.5-0.9,0.9-1.1c0.4-0.3,0.9-0.4,1.5-0.4c0.5,0,1,0.1,1.4,0.4c0.4,0.2,0.7,0.6,0.9,1c0.2,0.4,0.3,0.9,0.3,1.5v4.8h-2.7
		v-4.2c0-0.4-0.1-0.7-0.3-0.9C58,14.1,57.8,14,57.4,14c-0.3,0-0.6,0.1-0.8,0.3C56.4,14.5,56.3,14.8,56.3,15.2z"/>
	
		<linearGradient id="SVGID_00000159455997859998621760000017858405906606380727_" gradientUnits="userSpaceOnUse" x1="62.3225" y1="17.0605" x2="70.1536" y2="17.0605">
		<stop  offset="0" style="stop-color:#1D65DC"/>
		<stop  offset="1" style="stop-color:#0A4BB3"/>
	</linearGradient>
	<path style="fill:url(#SVGID_00000159455997859998621760000017858405906606380727_);" d="M66.2,22.3c-0.8,0-1.4-0.1-1.9-0.3
		s-1-0.5-1.3-0.9c-0.3-0.4-0.5-0.8-0.5-1.2h2.6c0,0.2,0.2,0.3,0.4,0.4c0.2,0.1,0.5,0.1,0.8,0.1c0.4,0,0.6-0.1,0.9-0.2
		c0.2-0.2,0.3-0.4,0.3-0.9v-1.3h-0.1c-0.1,0.4-0.4,0.7-0.8,0.9c-0.4,0.2-0.8,0.3-1.3,0.3c-0.5,0-1-0.1-1.5-0.4s-0.8-0.6-1.1-1.2
		c-0.3-0.5-0.4-1.2-0.4-2.1c0-0.9,0.1-1.6,0.4-2.2c0.3-0.6,0.6-1,1.1-1.3c0.4-0.3,0.9-0.4,1.4-0.4c0.6,0,1,0.1,1.4,0.4
		c0.4,0.3,0.6,0.6,0.8,1h0.1v-1.3h2.7v7.5c0,0.6-0.2,1.1-0.5,1.6c-0.3,0.4-0.8,0.8-1.4,1C67.7,22.2,67,22.3,66.2,22.3z M66.3,17.4
		c0.4,0,0.7-0.2,0.9-0.5c0.2-0.3,0.3-0.7,0.3-1.3c0-0.6-0.1-1-0.3-1.3c-0.2-0.3-0.5-0.5-0.9-0.5s-0.7,0.2-0.9,0.5
		c-0.2,0.3-0.3,0.8-0.3,1.3c0,0.6,0.1,1,0.3,1.3C65.6,17.3,65.9,17.4,66.3,17.4z"/>
	
		<linearGradient id="SVGID_00000025441364506633916820000005492342861878781852_" gradientUnits="userSpaceOnUse" x1="73.9807" y1="14.3911" x2="82.4006" y2="14.3911">
		<stop  offset="0" style="stop-color:#1D65DC"/>
		<stop  offset="1" style="stop-color:#0A4BB3"/>
	</linearGradient>
	<path style="fill:url(#SVGID_00000025441364506633916820000005492342861878781852_);" d="M79.7,12.5c0-0.3-0.1-0.6-0.4-0.8
		c-0.2-0.2-0.5-0.3-1-0.3c-0.4,0-0.7,0.1-0.9,0.2c-0.2,0.1-0.3,0.3-0.3,0.5c0,0.2,0.1,0.4,0.3,0.6s0.6,0.3,1,0.4l0.8,0.2
		c1.1,0.2,1.9,0.6,2.4,1.1s0.7,1.2,0.7,1.9c0,1-0.4,1.8-1.1,2.3c-0.7,0.5-1.7,0.8-3,0.8c-0.9,0-1.6-0.1-2.3-0.4
		c-0.6-0.3-1.2-0.7-1.5-1.2c-0.4-0.5-0.5-1.2-0.5-2.1h2.6c0,0.5,0.2,0.8,0.5,1.1c0.3,0.2,0.7,0.4,1.2,0.4c0.4,0,0.8-0.1,1-0.2
		c0.2-0.2,0.3-0.4,0.3-0.6c0-0.2-0.1-0.4-0.3-0.6c-0.2-0.2-0.6-0.3-1.2-0.4l-1-0.2c-0.9-0.2-1.6-0.5-2.1-1c-0.5-0.5-0.8-1.1-0.8-1.9
		c0-0.6,0.2-1.2,0.5-1.7c0.3-0.5,0.8-0.9,1.4-1.1s1.3-0.4,2.1-0.4c0.8,0,1.5,0.1,2.1,0.4c0.6,0.3,1,0.7,1.4,1.1
		c0.3,0.5,0.5,1.1,0.5,1.7H79.7z"/>
	
		<linearGradient id="SVGID_00000163041658442795626780000010258532252314301082_" gradientUnits="userSpaceOnUse" x1="83.2048" y1="15.6768" x2="90.781" y2="15.6768">
		<stop  offset="0" style="stop-color:#1D65DC"/>
		<stop  offset="1" style="stop-color:#0A4BB3"/>
	</linearGradient>
	<path style="fill:url(#SVGID_00000163041658442795626780000010258532252314301082_);" d="M87.1,19.6c-1.2,0-2.2-0.3-2.8-1
		c-0.7-0.7-1-1.6-1-2.9c0-0.8,0.2-1.5,0.5-2c0.3-0.6,0.8-1,1.3-1.4c0.6-0.3,1.2-0.5,2-0.5c0.8,0,1.4,0.2,2,0.5
		c0.6,0.3,1,0.8,1.3,1.3c0.3,0.6,0.5,1.3,0.5,2.1v0.6h-4.9v0.1c0,0.4,0.1,0.7,0.3,0.9s0.5,0.4,0.9,0.4c0.3,0,0.5-0.1,0.7-0.2
		c0.2-0.1,0.4-0.3,0.4-0.5h2.5c-0.1,0.8-0.5,1.4-1.2,1.9C89,19.3,88.1,19.6,87.1,19.6z M85.9,14.8h2.4c0-0.3-0.1-0.6-0.4-0.8
		c-0.2-0.2-0.5-0.3-0.8-0.3c-0.3,0-0.6,0.1-0.9,0.3C86,14.2,85.9,14.5,85.9,14.8z"/>
	
		<linearGradient id="SVGID_00000017484062714901915410000016081480213142500757_" gradientUnits="userSpaceOnUse" x1="91.6052" y1="15.6768" x2="99.1423" y2="15.6768">
		<stop  offset="0" style="stop-color:#1D65DC"/>
		<stop  offset="1" style="stop-color:#0A4BB3"/>
	</linearGradient>
	<path style="fill:url(#SVGID_00000017484062714901915410000016081480213142500757_);" d="M95.5,19.6c-0.8,0-1.5-0.2-2.1-0.5
		c-0.6-0.3-1-0.8-1.3-1.4c-0.3-0.6-0.5-1.3-0.5-2c0-0.8,0.2-1.4,0.5-2c0.3-0.6,0.8-1,1.3-1.4c0.6-0.3,1.3-0.5,2.1-0.5
		c0.7,0,1.4,0.1,1.9,0.4c0.5,0.3,1,0.6,1.3,1.1s0.4,1.1,0.5,1.7h-2.5c0-0.4-0.1-0.7-0.3-0.9s-0.4-0.3-0.7-0.3
		c-0.4,0-0.6,0.2-0.9,0.5c-0.2,0.3-0.3,0.8-0.3,1.4s0.1,1.1,0.3,1.4c0.2,0.3,0.5,0.5,0.9,0.5c0.3,0,0.5-0.1,0.7-0.3
		c0.2-0.2,0.3-0.5,0.3-0.9h2.5c0,1-0.3,1.8-1,2.4C97.5,19.3,96.6,19.6,95.5,19.6z"/>
	
		<linearGradient id="SVGID_00000111154740941000054870000017661605194261570702_" gradientUnits="userSpaceOnUse" x1="100.261" y1="15.7063" x2="107.8567" y2="15.7063">
		<stop  offset="0" style="stop-color:#1D65DC"/>
		<stop  offset="1" style="stop-color:#0A4BB3"/>
	</linearGradient>
	<path style="fill:url(#SVGID_00000111154740941000054870000017661605194261570702_);" d="M105.1,16.1v-4.2h2.7v7.5h-2.6V18h-0.1
		c-0.2,0.5-0.4,0.9-0.9,1.1c-0.4,0.3-0.9,0.4-1.5,0.4c-0.5,0-1-0.1-1.4-0.4c-0.4-0.2-0.7-0.6-0.9-1c-0.2-0.4-0.3-0.9-0.3-1.5v-4.8
		h2.7v4.2c0,0.4,0.1,0.7,0.3,0.9c0.2,0.2,0.5,0.3,0.8,0.3c0.3,0,0.6-0.1,0.8-0.3C105.1,16.8,105.2,16.5,105.1,16.1z"/>
	
		<linearGradient id="SVGID_00000174564631348623548040000005651019397661707688_" gradientUnits="userSpaceOnUse" x1="109.2302" y1="15.6082" x2="114.7258" y2="15.6082">
		<stop  offset="0" style="stop-color:#1D65DC"/>
		<stop  offset="1" style="stop-color:#0A4BB3"/>
	</linearGradient>
	<path style="fill:url(#SVGID_00000174564631348623548040000005651019397661707688_);" d="M109.2,19.4v-7.5h2.6v1.4h0.1
		c0.1-0.5,0.4-0.9,0.7-1.2c0.3-0.2,0.6-0.4,1-0.4c0.2,0,0.4,0,0.6,0.1c0.2,0,0.4,0.1,0.5,0.2l-0.8,2.2c-0.1-0.1-0.2-0.1-0.3-0.1
		c-0.1,0-0.3-0.1-0.4-0.1c-0.3,0-0.6,0.1-0.9,0.4c-0.2,0.3-0.4,0.6-0.4,1v3.9H109.2z"/>
	
		<linearGradient id="SVGID_00000082360141082902399390000016314226660804937885_" gradientUnits="userSpaceOnUse" x1="114.863" y1="15.6768" x2="122.4392" y2="15.6768">
		<stop  offset="0" style="stop-color:#1D65DC"/>
		<stop  offset="1" style="stop-color:#0A4BB3"/>
	</linearGradient>
	<path style="fill:url(#SVGID_00000082360141082902399390000016314226660804937885_);" d="M118.7,19.6c-1.2,0-2.2-0.3-2.8-1
		c-0.7-0.7-1-1.6-1-2.9c0-0.8,0.2-1.5,0.5-2c0.3-0.6,0.8-1,1.3-1.4c0.6-0.3,1.2-0.5,2-0.5c0.8,0,1.4,0.2,2,0.5
		c0.6,0.3,1,0.8,1.3,1.3c0.3,0.6,0.5,1.3,0.5,2.1v0.6h-4.9v0.1c0,0.4,0.1,0.7,0.3,0.9s0.5,0.4,0.9,0.4c0.3,0,0.5-0.1,0.7-0.2
		c0.2-0.1,0.4-0.3,0.4-0.5h2.5c-0.1,0.8-0.5,1.4-1.2,1.9C120.6,19.3,119.8,19.6,118.7,19.6z M117.5,14.8h2.4c0-0.3-0.1-0.6-0.4-0.8
		c-0.2-0.2-0.5-0.3-0.8-0.3c-0.3,0-0.6,0.1-0.9,0.3C117.7,14.2,117.5,14.5,117.5,14.8z"/>
	
		<linearGradient id="SVGID_00000044140518062515292370000003598105517238000021_" gradientUnits="userSpaceOnUse" x1="123.303" y1="14.45" x2="131.1145" y2="14.45">
		<stop  offset="0" style="stop-color:#1D65DC"/>
		<stop  offset="1" style="stop-color:#0A4BB3"/>
	</linearGradient>
	<path style="fill:url(#SVGID_00000044140518062515292370000003598105517238000021_);" d="M126.3,19.5c-0.5,0-1-0.1-1.5-0.4
		s-0.8-0.7-1.1-1.3c-0.3-0.6-0.4-1.3-0.4-2.2c0-0.9,0.1-1.6,0.4-2.2c0.3-0.6,0.6-1,1.1-1.3c0.4-0.3,0.9-0.4,1.4-0.4
		c0.6,0,1,0.1,1.4,0.4c0.4,0.3,0.6,0.6,0.8,1h0V9.4h2.7v10h-2.7v-1.2h-0.1c-0.2,0.4-0.4,0.7-0.8,1C127.2,19.4,126.8,19.5,126.3,19.5
		z M127.3,17.4c0.4,0,0.7-0.2,0.9-0.5c0.2-0.3,0.3-0.8,0.3-1.3c0-0.6-0.1-1-0.3-1.3c-0.2-0.3-0.5-0.5-0.9-0.5s-0.7,0.2-0.9,0.5
		c-0.2,0.3-0.3,0.8-0.3,1.3c0,0.6,0.1,1,0.3,1.3C126.6,17.3,126.9,17.4,127.3,17.4z"/>
	
		<linearGradient id="SVGID_00000138559339995328598850000004098753814364702634_" gradientUnits="userSpaceOnUse" x1="135.157" y1="14.45" x2="142.968" y2="14.45">
		<stop  offset="0" style="stop-color:#1D65DC"/>
		<stop  offset="1" style="stop-color:#0A4BB3"/>
	</linearGradient>
	<path style="fill:url(#SVGID_00000138559339995328598850000004098753814364702634_);" d="M135.2,19.4v-10h2.7v3.8h0
		c0.1-0.4,0.4-0.7,0.8-1c0.4-0.3,0.8-0.4,1.4-0.4c0.5,0,1,0.1,1.4,0.4c0.5,0.3,0.8,0.7,1.1,1.3s0.4,1.3,0.4,2.2
		c0,0.9-0.1,1.6-0.4,2.2s-0.6,1-1.1,1.3c-0.4,0.3-0.9,0.4-1.5,0.4c-0.5,0-1-0.1-1.3-0.4c-0.4-0.3-0.6-0.6-0.8-1h-0.1v1.2H135.2z
		 M137.8,15.7c0,0.5,0.1,1,0.3,1.3c0.2,0.3,0.5,0.5,0.9,0.5s0.7-0.2,0.9-0.5c0.2-0.3,0.3-0.8,0.3-1.3c0-0.6-0.1-1-0.3-1.3
		c-0.2-0.3-0.5-0.5-0.9-0.5s-0.7,0.2-0.9,0.5C137.9,14.7,137.8,15.1,137.8,15.7z"/>
	
		<linearGradient id="SVGID_00000075848146447660808280000014312997884301240730_" gradientUnits="userSpaceOnUse" x1="143.2629" y1="17.1292" x2="151.467" y2="17.1292">
		<stop  offset="0" style="stop-color:#1D65DC"/>
		<stop  offset="1" style="stop-color:#0A4BB3"/>
	</linearGradient>
	<path style="fill:url(#SVGID_00000075848146447660808280000014312997884301240730_);" d="M145.4,22.4c-0.4,0-0.7,0-0.9-0.1
		c-0.2-0.1-0.5-0.1-0.6-0.2l0.6-2c0.3,0.1,0.6,0.2,0.9,0.2s0.4-0.1,0.5-0.3l0.1-0.1l-2.7-7.9h2.8l1.2,5.2h0.1l1.2-5.2h2.8l-2.7,8.2
		c-0.1,0.4-0.3,0.8-0.6,1.1s-0.6,0.6-1.1,0.8C146.6,22.3,146,22.4,145.4,22.4z"/>
	
		<linearGradient id="SVGID_00000076587831102016276950000017828711445147414458_" gradientUnits="userSpaceOnUse" x1="154.6663" y1="14.4009" x2="163.4006" y2="14.4009">
		<stop  offset="0" style="stop-color:#1D65DC"/>
		<stop  offset="1" style="stop-color:#0A4BB3"/>
	</linearGradient>
	<path style="fill:url(#SVGID_00000076587831102016276950000017828711445147414458_);" d="M154.7,11.6V9.4h8.7v2.2h-3v7.9h-2.7v-7.9
		H154.7z"/>
	
		<linearGradient id="SVGID_00000105393917111898547570000006715267454589201062_" gradientUnits="userSpaceOnUse" x1="163.0862" y1="15.6768" x2="170.6624" y2="15.6768">
		<stop  offset="0" style="stop-color:#1D65DC"/>
		<stop  offset="1" style="stop-color:#0A4BB3"/>
	</linearGradient>
	<path style="fill:url(#SVGID_00000105393917111898547570000006715267454589201062_);" d="M167,19.6c-1.2,0-2.2-0.3-2.8-1
		c-0.7-0.7-1-1.6-1-2.9c0-0.8,0.2-1.5,0.5-2c0.3-0.6,0.8-1,1.3-1.4c0.6-0.3,1.2-0.5,2-0.5c0.8,0,1.4,0.2,2,0.5
		c0.6,0.3,1,0.8,1.3,1.3c0.3,0.6,0.5,1.3,0.5,2.1v0.6h-4.9v0.1c0,0.4,0.1,0.7,0.3,0.9c0.2,0.2,0.5,0.4,0.9,0.4
		c0.3,0,0.5-0.1,0.7-0.2c0.2-0.1,0.4-0.3,0.4-0.5h2.5c-0.1,0.8-0.5,1.4-1.2,1.9C168.9,19.3,168,19.6,167,19.6z M165.8,14.8h2.4
		c0-0.3-0.1-0.6-0.4-0.8c-0.2-0.2-0.5-0.3-0.8-0.3c-0.3,0-0.6,0.1-0.9,0.3C165.9,14.2,165.8,14.5,165.8,14.8z"/>
	
		<linearGradient id="SVGID_00000024715220900697659240000006185239116180506510_" gradientUnits="userSpaceOnUse" x1="171.4084" y1="15.667" x2="178.6311" y2="15.667">
		<stop  offset="0" style="stop-color:#1D65DC"/>
		<stop  offset="1" style="stop-color:#0A4BB3"/>
	</linearGradient>
	<path style="fill:url(#SVGID_00000024715220900697659240000006185239116180506510_);" d="M173.9,19.5c-0.7,0-1.3-0.2-1.8-0.5
		c-0.5-0.4-0.7-0.9-0.7-1.7c0-0.6,0.1-1,0.4-1.3c0.2-0.3,0.6-0.6,1-0.8c0.4-0.2,0.9-0.3,1.4-0.3c0.6,0,1.1-0.1,1.3-0.2
		c0.3-0.1,0.4-0.2,0.4-0.5v0c0-0.2-0.1-0.3-0.2-0.5c-0.2-0.1-0.3-0.2-0.6-0.2c-0.3,0-0.5,0.1-0.6,0.2c-0.2,0.1-0.3,0.3-0.3,0.5h-2.5
		c0-0.5,0.2-0.9,0.4-1.3c0.3-0.4,0.6-0.7,1.1-0.9c0.5-0.2,1.1-0.4,1.9-0.4c0.7,0,1.3,0.1,1.9,0.3s0.9,0.5,1.2,0.9
		c0.3,0.4,0.4,0.8,0.4,1.3v5.2h-2.5v-1.1H176c-0.2,0.4-0.5,0.7-0.9,0.9C174.8,19.5,174.4,19.5,173.9,19.5z M174.7,17.8
		c0.3,0,0.6-0.1,0.8-0.3c0.2-0.2,0.4-0.5,0.4-0.8v-0.6c-0.3,0.1-0.6,0.2-1.1,0.3c-0.3,0-0.5,0.1-0.7,0.3c-0.1,0.1-0.2,0.3-0.2,0.5
		c0,0.2,0.1,0.4,0.2,0.5C174.3,17.8,174.5,17.8,174.7,17.8z"/>
	
		<linearGradient id="SVGID_00000082328692862082281720000002641470709653067710_" gradientUnits="userSpaceOnUse" x1="179.925" y1="15.6082" x2="191.5842" y2="15.6082">
		<stop  offset="0" style="stop-color:#1D65DC"/>
		<stop  offset="1" style="stop-color:#0A4BB3"/>
	</linearGradient>
	<path style="fill:url(#SVGID_00000082328692862082281720000002641470709653067710_);" d="M179.9,19.4v-7.5h2.6v1.4h0.1
		c0.2-0.5,0.4-0.8,0.8-1.1c0.4-0.3,0.8-0.4,1.4-0.4c0.5,0,1,0.1,1.4,0.4s0.6,0.6,0.7,1.1h0.1c0.1-0.5,0.4-0.8,0.8-1.1
		c0.4-0.3,0.9-0.4,1.5-0.4c0.7,0,1.3,0.2,1.8,0.7c0.4,0.5,0.7,1.1,0.7,1.9v5.1h-2.7V15c0-0.3-0.1-0.6-0.2-0.8
		c-0.2-0.2-0.4-0.3-0.7-0.3c-0.3,0-0.5,0.1-0.7,0.3c-0.2,0.2-0.2,0.4-0.2,0.8v4.4h-2.6V15c0-0.3-0.1-0.6-0.2-0.8
		c-0.2-0.2-0.4-0.3-0.7-0.3c-0.3,0-0.5,0.1-0.7,0.3c-0.2,0.2-0.2,0.4-0.2,0.8v4.4H179.9z"/>
	
		<linearGradient id="SVGID_00000054243504206341521440000015197540833614844813_" gradientUnits="userSpaceOnUse" x1="193.0168" y1="18.2185" x2="195.7649" y2="18.2185">
		<stop  offset="0" style="stop-color:#1D65DC"/>
		<stop  offset="1" style="stop-color:#0A4BB3"/>
	</linearGradient>
	<path style="fill:url(#SVGID_00000054243504206341521440000015197540833614844813_);" d="M194.4,19.6c-0.4,0-0.7-0.1-1-0.4
		c-0.3-0.3-0.4-0.6-0.4-1c0-0.4,0.1-0.7,0.4-1c0.3-0.3,0.6-0.4,1-0.4c0.4,0,0.7,0.1,1,0.4c0.3,0.3,0.4,0.6,0.4,1
		c0,0.4-0.1,0.7-0.4,1S194.8,19.6,194.4,19.6z"/>
	
		<linearGradient id="SVGID_00000104705950234215371060000000969603193611793539_" gradientUnits="userSpaceOnUse" x1="197.1975" y1="14.4009" x2="204.2639" y2="14.4009">
		<stop  offset="0" style="stop-color:#1D65DC"/>
		<stop  offset="1" style="stop-color:#0A4BB3"/>
	</linearGradient>
	<path style="fill:url(#SVGID_00000104705950234215371060000000969603193611793539_);" d="M197.2,19.4v-10h7.1v2.2h-4.3v1.7h3.9v2.2
		h-3.9v3.9H197.2z"/>
	
		<linearGradient id="SVGID_00000178887690208471684420000015847555504979482794_" gradientUnits="userSpaceOnUse" x1="205.303" y1="14.0281" x2="208.012" y2="14.0281">
		<stop  offset="0" style="stop-color:#1D65DC"/>
		<stop  offset="1" style="stop-color:#0A4BB3"/>
	</linearGradient>
	<path style="fill:url(#SVGID_00000178887690208471684420000015847555504979482794_);" d="M205.3,19.4v-7.5h2.7v7.5H205.3z
		 M206.7,11.1c-0.4,0-0.7-0.1-0.9-0.4s-0.4-0.5-0.4-0.9c0-0.3,0.1-0.6,0.4-0.9c0.3-0.2,0.6-0.4,0.9-0.4c0.4,0,0.7,0.1,0.9,0.4
		c0.3,0.2,0.4,0.5,0.4,0.9c0,0.3-0.1,0.6-0.4,0.9C207.3,11,207,11.1,206.7,11.1z"/>
	
		<linearGradient id="SVGID_00000022548640565444975390000005057968140253166260_" gradientUnits="userSpaceOnUse" x1="209.385" y1="15.6082" x2="216.9808" y2="15.6082">
		<stop  offset="0" style="stop-color:#1D65DC"/>
		<stop  offset="1" style="stop-color:#0A4BB3"/>
	</linearGradient>
	<path style="fill:url(#SVGID_00000022548640565444975390000005057968140253166260_);" d="M212.1,15.2v4.2h-2.7v-7.5h2.6v1.4h0.1
		c0.2-0.5,0.5-0.9,0.9-1.1c0.4-0.3,0.9-0.4,1.4-0.4c0.5,0,1,0.1,1.4,0.4c0.4,0.2,0.7,0.6,0.9,1c0.2,0.4,0.3,0.9,0.3,1.5v4.8h-2.7
		v-4.2c0-0.4-0.1-0.7-0.3-0.9c-0.2-0.2-0.5-0.3-0.8-0.3c-0.3,0-0.6,0.1-0.8,0.3C212.2,14.5,212.1,14.8,212.1,15.2z"/>
	
		<linearGradient id="SVGID_00000068665995303852398820000002865435849034508692_" gradientUnits="userSpaceOnUse" x1="217.9631" y1="15.667" x2="225.1858" y2="15.667">
		<stop  offset="0" style="stop-color:#1D65DC"/>
		<stop  offset="1" style="stop-color:#0A4BB3"/>
	</linearGradient>
	<path style="fill:url(#SVGID_00000068665995303852398820000002865435849034508692_);" d="M220.4,19.5c-0.7,0-1.3-0.2-1.8-0.5
		c-0.5-0.4-0.7-0.9-0.7-1.7c0-0.6,0.1-1,0.4-1.3c0.2-0.3,0.6-0.6,1-0.8c0.4-0.2,0.9-0.3,1.4-0.3c0.6,0,1.1-0.1,1.3-0.2
		c0.3-0.1,0.4-0.2,0.4-0.5v0c0-0.2-0.1-0.3-0.2-0.5c-0.2-0.1-0.3-0.2-0.6-0.2c-0.3,0-0.5,0.1-0.6,0.2c-0.2,0.1-0.3,0.3-0.3,0.5h-2.5
		c0-0.5,0.2-0.9,0.4-1.3c0.3-0.4,0.6-0.7,1.1-0.9c0.5-0.2,1.1-0.4,1.9-0.4c0.7,0,1.3,0.1,1.9,0.3s0.9,0.5,1.2,0.9
		c0.3,0.4,0.4,0.8,0.4,1.3v5.2h-2.5v-1.1h-0.1c-0.2,0.4-0.5,0.7-0.9,0.9C221.3,19.5,220.9,19.5,220.4,19.5z M221.3,17.8
		c0.3,0,0.6-0.1,0.8-0.3c0.2-0.2,0.4-0.5,0.4-0.8v-0.6c-0.3,0.1-0.6,0.2-1.1,0.3c-0.3,0-0.5,0.1-0.7,0.3c-0.1,0.1-0.2,0.3-0.2,0.5
		c0,0.2,0.1,0.4,0.2,0.5C220.9,17.8,221.1,17.8,221.3,17.8z"/>
	
		<linearGradient id="SVGID_00000111181029051433917600000017015865006872670611_" gradientUnits="userSpaceOnUse" x1="226.4807" y1="15.6082" x2="234.0765" y2="15.6082">
		<stop  offset="0" style="stop-color:#1D65DC"/>
		<stop  offset="1" style="stop-color:#0A4BB3"/>
	</linearGradient>
	<path style="fill:url(#SVGID_00000111181029051433917600000017015865006872670611_);" d="M229.2,15.2v4.2h-2.7v-7.5h2.6v1.4h0.1
		c0.2-0.5,0.5-0.9,0.9-1.1c0.4-0.3,0.9-0.4,1.4-0.4c0.5,0,1,0.1,1.4,0.4c0.4,0.2,0.7,0.6,0.9,1c0.2,0.4,0.3,0.9,0.3,1.5v4.8h-2.7
		v-4.2c0-0.4-0.1-0.7-0.3-0.9c-0.2-0.2-0.5-0.3-0.8-0.3c-0.3,0-0.6,0.1-0.8,0.3C229.3,14.5,229.2,14.8,229.2,15.2z"/>
	
		<linearGradient id="SVGID_00000004524057812491264010000017568587868760282528_" gradientUnits="userSpaceOnUse" x1="235.136" y1="15.6768" x2="242.6731" y2="15.6768">
		<stop  offset="0" style="stop-color:#1D65DC"/>
		<stop  offset="1" style="stop-color:#0A4BB3"/>
	</linearGradient>
	<path style="fill:url(#SVGID_00000004524057812491264010000017568587868760282528_);" d="M239,19.6c-0.8,0-1.5-0.2-2.1-0.5
		c-0.6-0.3-1-0.8-1.3-1.4c-0.3-0.6-0.5-1.3-0.5-2c0-0.8,0.2-1.4,0.5-2c0.3-0.6,0.8-1,1.3-1.4c0.6-0.3,1.3-0.5,2.1-0.5
		c0.7,0,1.4,0.1,1.9,0.4c0.5,0.3,1,0.6,1.3,1.1c0.3,0.5,0.4,1.1,0.5,1.7h-2.5c0-0.4-0.1-0.7-0.3-0.9s-0.4-0.3-0.7-0.3
		c-0.4,0-0.6,0.2-0.9,0.5c-0.2,0.3-0.3,0.8-0.3,1.4s0.1,1.1,0.3,1.4c0.2,0.3,0.5,0.5,0.9,0.5c0.3,0,0.5-0.1,0.7-0.3
		c0.2-0.2,0.3-0.5,0.3-0.9h2.5c0,1-0.3,1.8-1,2.4C241,19.3,240.2,19.6,239,19.6z"/>
	
		<linearGradient id="SVGID_00000183955377317710775460000012538843620618900900_" gradientUnits="userSpaceOnUse" x1="243.5168" y1="15.6768" x2="251.093" y2="15.6768">
		<stop  offset="0" style="stop-color:#1D65DC"/>
		<stop  offset="1" style="stop-color:#0A4BB3"/>
	</linearGradient>
	<path style="fill:url(#SVGID_00000183955377317710775460000012538843620618900900_);" d="M247.4,19.6c-1.2,0-2.2-0.3-2.8-1
		c-0.7-0.7-1-1.6-1-2.9c0-0.8,0.2-1.5,0.5-2c0.3-0.6,0.8-1,1.3-1.4c0.6-0.3,1.2-0.5,2-0.5c0.8,0,1.4,0.2,2,0.5
		c0.6,0.3,1,0.8,1.3,1.3c0.3,0.6,0.5,1.3,0.5,2.1v0.6h-4.9v0.1c0,0.4,0.1,0.7,0.3,0.9c0.2,0.2,0.5,0.4,0.9,0.4
		c0.3,0,0.5-0.1,0.7-0.2c0.2-0.1,0.4-0.3,0.4-0.5h2.5c-0.1,0.8-0.5,1.4-1.2,1.9C249.3,19.3,248.4,19.6,247.4,19.6z M246.2,14.8h2.4
		c0-0.3-0.1-0.6-0.4-0.8c-0.2-0.2-0.5-0.3-0.8-0.3c-0.3,0-0.6,0.1-0.9,0.3C246.3,14.2,246.2,14.5,246.2,14.8z"/>
</g>
</svg>
