<svg width="121" height="120" viewBox="0 0 121 120" fill="none" xmlns="http://www.w3.org/2000/svg">
<g clip-path="url(#clip0_4531_42318)">
<path d="M88.0001 51.4402V36.5578C88.0001 35.181 87.2184 33.9252 85.9879 33.3281L69.5331 25.3524C68.5646 24.8825 67.4357 24.8825 66.4671 25.3524L50.0123 33.3281C48.7818 33.9252 48.0001 35.181 48.0001 36.5578V51.4402C48.0001 52.817 48.7818 54.0727 50.0123 54.6698L66.4671 62.6476C67.4357 63.1175 68.5646 63.1175 69.5331 62.6476L85.9879 54.6698C87.2164 54.0748 88.0001 52.819 88.0001 51.4402Z" fill="url(#paint0_linear_4531_42318)"/>
<path d="M29.0034 68.7162C29.3699 67.9871 29.9912 67.5889 30.7275 67.2661C34.907 65.4392 39.0701 63.5747 43.2496 61.7478C43.6933 61.5544 43.8495 61.3349 43.8478 60.8466C43.8281 56.1458 43.8544 51.4451 43.8215 46.746C43.8133 45.5712 44.2538 44.8519 45.3517 44.3833C50.0916 42.3581 54.8118 40.2871 59.5321 38.2177C60.201 37.9244 60.8239 37.9277 61.4813 38.2259C66.2706 40.3953 71.0598 42.5613 75.8557 44.711C76.8023 45.1353 77.1886 45.8317 77.1853 46.8377C77.1738 51.4975 77.1869 56.1573 77.1705 60.8155C77.1688 61.3087 77.3036 61.561 77.777 61.7773C82.0797 63.7303 86.3628 65.726 90.6606 67.6856C91.5991 68.1132 92.0018 68.785 91.9985 69.8025C91.982 74.9735 91.9804 80.1429 92.0001 85.3139C92.0034 86.3658 91.5728 87.0392 90.613 87.4619C85.8746 89.5427 81.1429 91.6383 76.4178 93.7454C75.6535 94.0862 74.9599 94.0862 74.1842 93.7372C69.819 91.7743 65.4357 89.8524 61.0655 87.8977C60.6497 87.7126 60.3226 87.7306 59.9134 87.9125C55.5991 89.8377 51.2684 91.7301 46.9574 93.6635C46.0715 94.06 45.2925 94.0829 44.3853 93.6733C39.8195 91.6072 35.2341 89.5886 30.6437 87.5766C29.9221 87.2604 29.3288 86.8606 29.0001 86.1298V68.7145L29.0034 68.7162ZM58.6511 72.2159C58.4112 72.3175 58.2616 72.3716 58.1203 72.4421C54.756 74.0822 51.3966 75.7321 48.024 77.3542C47.6017 77.5574 47.4915 77.8031 47.4932 78.2455C47.5113 81.7191 47.503 85.1926 47.5047 88.6645C47.5047 88.8759 47.5228 89.0889 47.5343 89.3232C47.6723 89.2888 47.7331 89.2839 47.7874 89.2609C51.2848 87.7159 54.7855 86.1757 58.2731 84.6093C58.4506 84.529 58.6281 84.2292 58.6347 84.0244C58.6709 82.984 58.6511 81.9403 58.6511 80.8998C58.6511 78.0407 58.6511 75.1816 58.6511 72.2159ZM73.4939 49.4511C73.3246 49.5084 73.249 49.5264 73.18 49.5576C69.6825 51.201 66.1867 52.8525 62.6811 54.4812C62.3343 54.6417 62.3376 54.8744 62.3376 55.1644C62.3409 58.7395 62.3376 62.3147 62.3409 65.8915C62.3409 66.0406 62.3606 66.1913 62.3705 66.3453C62.4707 66.3257 62.5118 66.3257 62.5463 66.3109C66.0635 64.7576 69.5757 63.1962 73.0995 61.656C73.461 61.4971 73.4988 61.2677 73.4988 60.94C73.4906 58.6314 73.4955 56.3228 73.4955 54.0142C73.4955 52.5248 73.4955 51.0355 73.4955 49.4527L73.4939 49.4511ZM77.1836 89.3314C77.3283 89.2855 77.422 89.2642 77.5091 89.2265C80.9868 87.6896 84.4612 86.1462 87.9472 84.6241C88.3317 84.4569 88.3054 84.1931 88.3038 83.8868C88.3022 80.251 88.3038 76.6152 88.3005 72.9795C88.3005 72.8091 88.2808 72.637 88.2676 72.424C88.1115 72.4863 88.0162 72.5174 87.9274 72.56C84.5056 74.1723 81.0887 75.7944 77.6603 77.3886C77.2625 77.5737 77.1343 77.7867 77.136 78.2144C77.1524 81.7272 77.1458 85.2401 77.1475 88.753C77.1475 88.9283 77.1688 89.1036 77.1836 89.3297V89.3314ZM73.4183 89.3576C73.4397 89.1659 73.4561 89.0856 73.4561 89.007C73.4577 85.3499 73.4545 81.6928 73.466 78.0358C73.466 77.6917 73.3246 77.5393 73.0321 77.3984C69.6464 75.7567 66.2673 74.1002 62.8849 72.4502C62.7287 72.3732 62.5595 72.3208 62.3902 72.2536C62.3655 72.3519 62.3458 72.3896 62.3458 72.4289C62.3442 76.3105 62.3376 80.192 62.3606 84.0735C62.3606 84.2636 62.5808 84.5405 62.7666 84.6257C64.6451 85.4843 66.5368 86.3117 68.4269 87.1473C70.0688 87.8731 71.709 88.6006 73.4167 89.356L73.4183 89.3576ZM32.7589 72.2487C32.7293 72.3503 32.6997 72.4044 32.6997 72.4568C32.6964 76.34 32.6899 80.2215 32.7129 84.1047C32.7129 84.2882 32.9561 84.5503 33.1484 84.6372C35.4592 85.6842 37.7799 86.7049 40.0989 87.7306C41.3086 88.2664 42.5198 88.8005 43.7673 89.351C43.7887 89.1544 43.8133 89.0348 43.8133 88.9152C43.8149 85.2991 43.8084 81.6814 43.8248 78.0653C43.8265 77.6524 43.6227 77.5066 43.3055 77.3525C39.974 75.737 36.6491 74.11 33.321 72.4896C33.1435 72.4027 32.9578 72.3323 32.7572 72.2471L32.7589 72.2487ZM58.6199 66.3846C58.6347 66.2192 58.6495 66.1241 58.6495 66.0291C58.6495 62.3737 58.6429 58.7199 58.6626 55.0645C58.6643 54.668 58.4736 54.5402 58.1827 54.3976C54.8365 52.7722 51.4952 51.1403 48.1506 49.5101C47.9747 49.4232 47.7923 49.3478 47.5803 49.2528C47.5523 49.4036 47.5244 49.4806 47.5244 49.5592C47.5211 53.3981 47.5145 57.2371 47.5408 61.0744C47.5408 61.2759 47.7939 61.5659 47.9994 61.6593C49.9683 62.5621 51.9521 63.4321 53.9325 64.3103C55.4775 64.9952 57.024 65.6785 58.6183 66.3846H58.6199ZM85.7284 69.5289C85.6051 69.4469 85.5295 69.383 85.444 69.3421C82.1751 67.8347 78.9061 66.3224 75.6272 64.8363C75.4283 64.7462 75.1111 64.7953 74.8958 64.8887C72.756 65.8161 70.6259 66.7648 68.4943 67.7085C67.3257 68.2246 66.1588 68.7424 64.9492 69.2798C65.0527 69.3732 65.0889 69.4256 65.1382 69.4486C68.4285 71.0559 71.7172 72.6665 75.0158 74.2558C75.1999 74.3443 75.4957 74.3263 75.6913 74.2427C76.518 73.8888 77.3283 73.4939 78.1418 73.1105C80.6564 71.9243 83.171 70.7364 85.73 69.5289H85.7284ZM35.2686 69.2929C35.4198 69.3945 35.4789 69.4437 35.548 69.4764C38.8005 71.0657 42.0514 72.6616 45.3171 74.2263C45.5407 74.3328 45.917 74.287 46.1553 74.1723C49.2353 72.6927 52.3022 71.1903 55.3723 69.6911C55.5859 69.5862 55.793 69.4715 56.0412 69.3404C55.9442 69.2634 55.9064 69.2192 55.8588 69.1962C52.5701 67.7331 49.2813 66.2683 45.9861 64.8183C45.8233 64.7478 45.5768 64.7396 45.4174 64.8101C42.0646 66.2798 38.72 67.7659 35.2719 69.2929H35.2686ZM70.8922 46.5624C70.6588 46.4379 70.506 46.3462 70.3449 46.2741C67.2534 44.8781 64.1553 43.4952 61.0721 42.078C60.6332 41.8764 60.293 41.8977 59.8706 42.0845C56.9912 43.356 54.1018 44.6028 51.2158 45.8579C50.8723 46.007 50.5304 46.1594 50.1541 46.3249C50.2527 46.4117 50.2921 46.4625 50.3447 46.4871C53.6318 48.0928 56.9189 49.7034 60.2158 51.2862C60.4081 51.3779 60.7319 51.332 60.9422 51.2354C62.6334 50.462 64.3131 49.6608 65.9945 48.8694C67.6002 48.1141 69.2043 47.3571 70.8938 46.5624H70.8922Z" fill="url(#paint1_linear_4531_42318)"/>
</g>
<defs>
<linearGradient id="paint0_linear_4531_42318" x1="48.0001" y1="23.0043" x2="91.6003" y2="79.7342" gradientUnits="userSpaceOnUse">
<stop stop-color="#BEE0FF"/>
<stop offset="1" stop-color="#2A61EF"/>
</linearGradient>
<linearGradient id="paint1_linear_4531_42318" x1="29.0001" y1="35.059" x2="92.0343" y2="122.714" gradientUnits="userSpaceOnUse">
<stop stop-color="#0876DD"/>
<stop offset="1" stop-color="#2A32EF"/>
</linearGradient>
<clipPath id="clip0_4531_42318">
<rect width="63" height="69" fill="white" transform="translate(29.0001 25)"/>
</clipPath>
</defs>
</svg>
