<svg width="120" height="120" viewBox="0 0 120 120" fill="none" xmlns="http://www.w3.org/2000/svg">
<g clip-path="url(#clip0_4531_42305)">
<path d="M56.0001 45.3309C56.0001 43.5932 57.5691 42.2769 59.2803 42.5789L87.6912 47.5926C89.0266 47.8282 90.0001 48.9885 90.0001 50.3445V91.2055C90.0001 92.7488 88.749 94 87.2056 94H58.7946C57.2513 94 56.0001 92.7489 56.0001 91.2055V45.3309Z" fill="url(#paint0_linear_4531_42305)"/>
<path d="M91.0686 88.9581H94.8252C95.2474 88.9581 95.5887 89.3019 95.5887 89.7271V93.2235C95.5887 93.6488 95.2474 93.9926 94.8252 93.9926H94.5952C69.1989 93.9926 50.4632 93.9926 25.0669 93.9926C24.9709 93.9926 24.8723 93.9926 24.7762 93.9977C24.349 94.0104 24.0001 93.6615 24.0001 93.2312V89.7119C24.0001 89.2866 24.3414 88.9428 24.7636 88.9428H28.6137C29.0359 88.9428 29.3772 88.599 29.3772 88.1738V87.8809C29.3772 71.1858 29.3772 54.4908 29.3772 37.7957C29.3772 35.4911 29.7968 34.936 31.9987 34.3401C42.045 31.6153 52.0988 28.9287 62.1223 26.1352C64.1852 25.5597 65.8258 26.8915 65.75 28.944C65.6539 31.4829 65.7272 87.7349 65.7272 90.2763C65.7272 90.2891 65.7272 90.3018 65.7272 90.3145C65.7272 90.7398 65.386 91.0836 64.9638 91.0836H61.5535C61.1313 91.0836 60.7901 90.7398 60.7901 90.3145V32.6849C60.7901 32.1806 60.3173 31.8139 59.832 31.9413C58.6564 32.2494 57.5416 32.5423 56.4267 32.8427C49.3281 34.7679 42.2346 36.7084 35.1284 38.6132C34.504 38.7812 34.2663 39.0028 34.2663 39.6827C34.2865 55.8124 34.2815 71.9422 34.284 88.0719C34.284 88.1126 34.284 88.1508 34.284 88.1916C34.2941 88.6092 34.6329 88.9453 35.0475 88.9453H60.0039" fill="url(#paint1_linear_4531_42305)"/>
<path d="M42.5922 48.5219C42.0777 48.5219 41.6606 48.1048 41.6606 47.5904V44.6302C41.6606 44.1158 42.0777 43.6987 42.5922 43.6987H52.5197C53.0342 43.6987 53.4512 44.1158 53.4512 44.6302V47.5904C53.4512 48.1048 53.0342 48.5219 52.5197 48.5219H42.5922Z" fill="url(#paint2_linear_4531_42305)"/>
<path d="M42.5922 58.9339C42.0777 58.9339 41.6606 58.5169 41.6606 58.0024V55.0423C41.6606 54.5278 42.0777 54.1108 42.5922 54.1108H52.5197C53.0342 54.1108 53.4512 54.5278 53.4512 55.0423V58.0024C53.4512 58.5169 53.0342 58.9339 52.5197 58.9339H42.5922Z" fill="url(#paint3_linear_4531_42305)"/>
<path d="M42.5922 69.3461C42.0777 69.3461 41.6606 68.929 41.6606 68.4146V65.4545C41.6606 64.94 42.0777 64.5229 42.5922 64.5229H52.5197C53.0342 64.5229 53.4512 64.94 53.4512 65.4545V68.4146C53.4512 68.929 53.0342 69.3461 52.5197 69.3461H42.5922Z" fill="url(#paint4_linear_4531_42305)"/>
<path d="M42.5922 79.7583C42.0777 79.7583 41.6606 79.3413 41.6606 78.8268V75.8667C41.6606 75.3522 42.0777 74.9352 42.5922 74.9352H52.5197C53.0342 74.9352 53.4512 75.3522 53.4512 75.8667V78.8268C53.4512 79.3413 53.0342 79.7583 52.5197 79.7583H42.5922Z" fill="url(#paint5_linear_4531_42305)"/>
</g>
<defs>
<linearGradient id="paint0_linear_4531_42305" x1="56.0001" y1="39.2691" x2="116.369" y2="88.0595" gradientUnits="userSpaceOnUse">
<stop stop-color="#BEE0FF"/>
<stop offset="1" stop-color="#2A61EF"/>
</linearGradient>
<linearGradient id="paint1_linear_4531_42305" x1="24.0001" y1="22.4295" x2="102.015" y2="123.955" gradientUnits="userSpaceOnUse">
<stop stop-color="#0876DD"/>
<stop offset="1" stop-color="#2A32EF"/>
</linearGradient>
<linearGradient id="paint2_linear_4531_42305" x1="41.6606" y1="43.4454" x2="45.0769" y2="53.7684" gradientUnits="userSpaceOnUse">
<stop stop-color="#0876DD"/>
<stop offset="1" stop-color="#2A32EF"/>
</linearGradient>
<linearGradient id="paint3_linear_4531_42305" x1="41.6606" y1="53.8575" x2="45.0769" y2="64.1804" gradientUnits="userSpaceOnUse">
<stop stop-color="#0876DD"/>
<stop offset="1" stop-color="#2A32EF"/>
</linearGradient>
<linearGradient id="paint4_linear_4531_42305" x1="41.6606" y1="64.2696" x2="45.0769" y2="74.5926" gradientUnits="userSpaceOnUse">
<stop stop-color="#0876DD"/>
<stop offset="1" stop-color="#2A32EF"/>
</linearGradient>
<linearGradient id="paint5_linear_4531_42305" x1="41.6606" y1="74.6819" x2="45.0769" y2="85.0049" gradientUnits="userSpaceOnUse">
<stop stop-color="#0876DD"/>
<stop offset="1" stop-color="#2A32EF"/>
</linearGradient>
<clipPath id="clip0_4531_42305">
<rect width="71.726" height="68" fill="white" transform="translate(24.0001 26)"/>
</clipPath>
</defs>
</svg>
