<svg width="64" height="64" viewBox="0 0 64 64" fill="none" xmlns="http://www.w3.org/2000/svg">
<rect width="64" height="64" rx="32" fill="#FF382E"/>
<path d="M44.6014 19.42C43.8214 18.64 42.5614 18.64 41.7814 19.42L32.0014 29.18L22.2214 19.4C21.4414 18.62 20.1814 18.62 19.4014 19.4C18.6214 20.18 18.6214 21.44 19.4014 22.22L29.1814 32L19.4014 41.78C18.6214 42.56 18.6214 43.82 19.4014 44.6C20.1814 45.38 21.4414 45.38 22.2214 44.6L32.0014 34.82L41.7814 44.6C42.5614 45.38 43.8214 45.38 44.6014 44.6C45.3814 43.82 45.3814 42.56 44.6014 41.78L34.8214 32L44.6014 22.22C45.3614 21.46 45.3614 20.18 44.6014 19.42Z" fill="#FAFCFF"/>
</svg>
