<svg width="18" height="17" viewBox="0 0 18 17" fill="none" xmlns="http://www.w3.org/2000/svg">
<path d="M13.25 13.4583H4.75C4.36042 13.4583 4.04167 13.1396 4.04167 12.75V4.25C4.04167 3.86042 4.36042 3.54167 4.75 3.54167H8.29167C8.68125 3.54167 9 3.22292 9 2.83333C9 2.44375 8.68125 2.125 8.29167 2.125H4.04167C3.25542 2.125 2.625 2.7625 2.625 3.54167V13.4583C2.625 14.2375 3.2625 14.875 4.04167 14.875H13.9583C14.7375 14.875 15.375 14.2375 15.375 13.4583V9.20833C15.375 8.81875 15.0562 8.5 14.6667 8.5C14.2771 8.5 13.9583 8.81875 13.9583 9.20833V12.75C13.9583 13.1396 13.6396 13.4583 13.25 13.4583ZM10.4167 2.83333C10.4167 3.22292 10.7354 3.54167 11.125 3.54167H12.9596L6.4925 10.0087C6.21625 10.285 6.21625 10.7312 6.4925 11.0075C6.76875 11.2837 7.215 11.2837 7.49125 11.0075L13.9583 4.54042V6.375C13.9583 6.76458 14.2771 7.08333 14.6667 7.08333C15.0562 7.08333 15.375 6.76458 15.375 6.375V2.125H11.125C10.7354 2.125 10.4167 2.44375 10.4167 2.83333Z" fill="#FAFCFF" fill-opacity="0.6"/>
</svg>
