<svg width="121" height="120" viewBox="0 0 121 120" fill="none" xmlns="http://www.w3.org/2000/svg">
<g clip-path="url(#clip0_4531_42294)">
<rect x="44.0001" y="65" width="42" height="29" rx="3" fill="url(#paint0_linear_4531_42294)"/>
<g filter="url(#filter0_bi_4531_42294)">
<path d="M40.8553 44.9051C40.4141 39.1673 41.9335 34.2183 46.095 30.3196C49.1506 27.4554 52.8062 26.032 56.9477 26.0005C60.1113 25.9768 63.0496 26.8476 65.7196 28.6017C68.3726 30.3416 70.3516 32.6831 71.7043 35.5898C73.0694 38.5217 73.3332 41.6394 73.1619 44.9051C73.8715 44.9051 74.5147 44.9051 75.1563 44.9051C75.6437 44.9051 76.1327 44.8988 76.6201 44.9051C77.9081 44.924 78.8443 45.7947 78.9816 47.1017C78.9986 47.267 78.997 47.4339 78.997 47.5992C78.997 56.8279 78.997 73.0582 79.0001 82.287C79.0001 83.0129 78.869 83.6789 78.3693 84.2284C77.8387 84.811 77.1677 85.0031 76.4119 85.0016C73.7728 84.9953 71.1336 85 68.4929 85C58.2603 85 48.0277 85 37.795 85C35.8793 85 35.0001 84.1104 35.0001 82.1689C35.0001 73.0142 35.0001 56.8579 35.0001 47.7032C35.0001 45.7932 35.8778 44.9051 37.7627 44.9051C38.7545 44.9051 39.7447 44.9051 40.8553 44.9051ZM39.6552 80.2258H74.3249L74.325 49.684H39.6553L39.6552 80.2258ZM68.5732 44.8752C68.5732 43.9729 68.6009 43.1085 68.5685 42.2472C68.3341 36.0118 63.6419 31.0707 57.6711 30.7369C51.0941 30.3684 44.4554 35.7583 45.4811 44.8752H68.5732Z" fill="url(#paint1_linear_4531_42294)"/>
<path d="M41.195 45.2197H40.8553H40.8488H40.8423H40.8358H40.8293H40.8228H40.8163H40.8098H40.8033H40.7968H40.7903H40.7839H40.7774H40.7709H40.7644H40.758H40.7515H40.745H40.7386H40.7321H40.7257H40.7192H40.7128H40.7063H40.6999H40.6934H40.687H40.6806H40.6741H40.6677H40.6613H40.6549H40.6484H40.642H40.6356H40.6292H40.6228H40.6164H40.6099H40.6035H40.5971H40.5907H40.5843H40.5779H40.5715H40.5652H40.5588H40.5524H40.546H40.5396H40.5332H40.5269H40.5205H40.5141H40.5078H40.5014H40.495H40.4887H40.4823H40.476H40.4696H40.4633H40.4569H40.4506H40.4442H40.4379H40.4315H40.4252H40.4189H40.4125H40.4062H40.3999H40.3936H40.3872H40.3809H40.3746H40.3683H40.362H40.3557H40.3494H40.343H40.3367H40.3304H40.3241H40.3178H40.3116H40.3053H40.299H40.2927H40.2864H40.2801H40.2738H40.2676H40.2613H40.255H40.2487H40.2425H40.2362H40.2299H40.2237H40.2174H40.2112H40.2049H40.1987H40.1924H40.1861H40.1799H40.1737H40.1674H40.1612H40.1549H40.1487H40.1425H40.1362H40.13H40.1238H40.1176H40.1113H40.1051H40.0989H40.0927H40.0865H40.0802H40.074H40.0678H40.0616H40.0554H40.0492H40.043H40.0368H40.0306H40.0244H40.0182H40.012H40.0058H39.9997H39.9935H39.9873H39.9811H39.9749H39.9688H39.9626H39.9564H39.9502H39.9441H39.9379H39.9317H39.9256H39.9194H39.9133H39.9071H39.901H39.8948H39.8887H39.8825H39.8764H39.8702H39.8641H39.8579H39.8518H39.8457H39.8395H39.8334H39.8273H39.8211H39.815H39.8089H39.8027H39.7966H39.7905H39.7844H39.7783H39.7722H39.766H39.7599H39.7538H39.7477H39.7416H39.7355H39.7294H39.7233H39.7172H39.7111H39.705H39.6989H39.6928H39.6867H39.6806H39.6746H39.6685H39.6624H39.6563H39.6502H39.6441H39.6381H39.632H39.6259H39.6198H39.6138H39.6077H39.6016H39.5956H39.5895H39.5835H39.5774H39.5713H39.5653H39.5592H39.5532H39.5471H39.5411H39.535H39.529H39.5229H39.5169H39.5108H39.5048H39.4988H39.4927H39.4867H39.4807H39.4746H39.4686H39.4626H39.4565H39.4505H39.4445H39.4385H39.4324H39.4264H39.4204H39.4144H39.4084H39.4024H39.3963H39.3903H39.3843H39.3783H39.3723H39.3663H39.3603H39.3543H39.3483H39.3423H39.3363H39.3303H39.3243H39.3183H39.3123H39.3063H39.3003H39.2944H39.2884H39.2824H39.2764H39.2704H39.2644H39.2585H39.2525H39.2465H39.2405H39.2345H39.2286H39.2226H39.2166H39.2107H39.2047H39.1987H39.1928H39.1868H39.1808H39.1749H39.1689H39.163H39.157H39.151H39.1451H39.1391H39.1332H39.1272H39.1213H39.1153H39.1094H39.1034H39.0975H39.0915H39.0856H39.0797H39.0737H39.0678H39.0618H39.0559H39.05H39.044H39.0381H39.0322H39.0262H39.0203H39.0144H39.0084H39.0025H38.9966H38.9907H38.9847H38.9788H38.9729H38.967H38.9611H38.9551H38.9492H38.9433H38.9374H38.9315H38.9256H38.9197H38.9137H38.9078H38.9019H38.896H38.8901H38.8842H38.8783H38.8724H38.8665H38.8606H38.8547H38.8488H38.8429H38.837H38.8311H38.8252H38.8193H38.8134H38.8075H38.8016H38.7957H38.7899H38.784H38.7781H38.7722H38.7663H38.7604H38.7545H38.7487H38.7428H38.7369H38.731H38.7251H38.7192H38.7134H38.7075H38.7016H38.6957H38.6899H38.684H38.6781H38.6722H38.6664H38.6605H38.6546H38.6488H38.6429H38.637H38.6312H38.6253H38.6194H38.6136H38.6077H38.6018H38.596H38.5901H38.5843H38.5784H38.5725H38.5667H38.5608H38.555H38.5491H38.5432H38.5374H38.5315H38.5257H38.5198H38.514H38.5081H38.5023H38.4964H38.4906H38.4847H38.4789H38.473H38.4672H38.4613H38.4555H38.4496H38.4438H38.438H38.4321H38.4263H38.4204H38.4146H38.4087H38.4029H38.3971H38.3912H38.3854H38.3795H38.3737H38.3679H38.362H38.3562H38.3504H38.3445H38.3387H38.3329H38.327H38.3212H38.3154H38.3095H38.3037H38.2979H38.292H38.2862H38.2804H38.2745H38.2687H38.2629H38.2571H38.2512H38.2454H38.2396H38.2337H38.2279H38.2221H38.2163H38.2104H38.2046H38.1988H38.193H38.1871H38.1813H38.1755H38.1697H38.1639H38.158H38.1522H38.1464H38.1406H38.1348H38.1289H38.1231H38.1173H38.1115H38.1057H38.0998H38.094H38.0882H38.0824H38.0766H38.0707H38.0649H38.0591H38.0533H38.0475H38.0417H38.0358H38.03H38.0242H38.0184H38.0126H38.0068H38.001H37.9951H37.9893H37.9835H37.9777H37.9719H37.9661H37.9603H37.9544H37.9486H37.9428H37.937H37.9312H37.9254H37.9196H37.9138H37.9079H37.9021H37.8963H37.8905H37.8847H37.8789H37.8731H37.8673H37.8615H37.8556H37.8498H37.844H37.8382H37.8324H37.8266H37.8208H37.815H37.8092H37.8033H37.7975H37.7917H37.7859H37.7801H37.7743H37.7685H37.7627C36.864 45.2197 36.271 45.4317 35.8984 45.809C35.5251 46.187 35.3148 46.79 35.3148 47.7032L35.3148 64.936L35.3147 82.1689C35.3147 83.0989 35.526 83.7096 35.9031 84.0914C36.2793 84.4725 36.8798 84.6854 37.795 84.6854H37.855H37.915H37.9749H38.0349H38.0948H38.1548H38.2147H38.2747H38.3347H38.3946H38.4546H38.5145H38.5745H38.6344H38.6944H38.7544H38.8143H38.8743H38.9342H38.9942H39.0541H39.1141H39.1741H39.234H39.294H39.3539H39.4139H39.4738H39.5338H39.5938H39.6537H39.7137H39.7736H39.8336H39.8935H39.9535H40.0134H40.0734H40.1334H40.1933H40.2533H40.3132H40.3732H40.4331H40.4931H40.5531H40.613H40.673H40.7329H40.7929H40.8528H40.9128H40.9728H41.0327H41.0927H41.1526H41.2126H41.2725H41.3325H41.3925H41.4524H41.5124H41.5723H41.6323H41.6922H41.7522H41.8122H41.8721H41.9321H41.992H42.052H42.1119H42.1719H42.2319H42.2918H42.3518H42.4117H42.4717H42.5316H42.5916H42.6515H42.7115H42.7715H42.8314H42.8914H42.9513H43.0113H43.0712H43.1312H43.1912H43.2511H43.3111H43.371H43.431H43.4909H43.5509H43.6109H43.6708H43.7308H43.7907H43.8507H43.9106H43.9706H44.0306H44.0905H44.1505H44.2104H44.2704H44.3303H44.3903H44.4503H44.5102H44.5702H44.6301H44.6901H44.75H44.81H44.87H44.9299H44.9899H45.0498H45.1098H45.1697H45.2297H45.2896H45.3496H45.4096H45.4695H45.5295H45.5894H45.6494H45.7093H45.7693H45.8293H45.8892H45.9492H46.0091H46.0691H46.129H46.189H46.249H46.3089H46.3689H46.4288H46.4888H46.5487H46.6087H46.6687H46.7286H46.7886H46.8485H46.9085H46.9684H47.0284H47.0884H47.1483H47.2083H47.2682H47.3282H47.3881H47.4481H47.508H47.568H47.628H47.6879H47.7479H47.8078H47.8678H47.9277H47.9877H48.0477H48.1076H48.1676H48.2275H48.2875H48.3474H48.4074H48.4674H48.5273H48.5873H48.6472H48.7072H48.7671H48.8271H48.8871H48.947H49.007H49.0669H49.1269H49.1868H49.2468H49.3068H49.3667H49.4267H49.4866H49.5466H49.6065H49.6665H49.7265H49.7864H49.8464H49.9063H49.9663H50.0262H50.0862H50.1461H50.2061H50.2661H50.326H50.386H50.4459H50.5059H50.5658H50.6258H50.6858H50.7457H50.8057H50.8656H50.9256H50.9855H51.0455H51.1055H51.1654H51.2254H51.2853H51.3453H51.4052H51.4652H51.5252H51.5851H51.6451H51.705H51.765H51.8249H51.8849H51.9449H52.0048H52.0648H52.1247H52.1847H52.2446H52.3046H52.3646H52.4245H52.4845H52.5444H52.6044H52.6643H52.7243H52.7843H52.8442H52.9042H52.9641H53.0241H53.084H53.144H53.2039H53.2639H53.3239H53.3838H53.4438H53.5037H53.5637H53.6236H53.6836H53.7436H53.8035H53.8635H53.9234H53.9834H54.0433H54.1033H54.1633H54.2232H54.2832H54.3431H54.4031H54.463H54.523H54.583H54.6429H54.7029H54.7628H54.8228H54.8827H54.9427H55.0027H55.0626H55.1226H55.1825H55.2425H55.3024H55.3624H55.4223H55.4823H55.5423H55.6022H55.6622H55.7221H55.7821H55.842H55.902H55.962H56.0219H56.0819H56.1418H56.2018H56.2617H56.3217H56.3817H56.4416H56.5016H56.5615H56.6215H56.6814H56.7414H56.8014H56.8613H56.9213H56.9812H57.0412H57.1011H57.1611H57.2211H57.281H57.341H57.4009H57.4609H57.5208H57.5808H57.6408H57.7007H57.7607H57.8206H57.8806H57.9405H58.0005H58.0604H58.1204H58.1804H58.2403H58.3003H58.3602H58.4202H58.4801H58.5401H58.6001H58.66H58.72H58.7799H58.8399H58.8998H58.9598H59.0198H59.0797H59.1397H59.1996H59.2596H59.3195H59.3795H59.4395H59.4994H59.5594H59.6193H59.6793H59.7392H59.7992H59.8592H59.9191H59.9791H60.039H60.099H60.1589H60.2189H60.2789H60.3388H60.3988H60.4587H60.5187H60.5786H60.6386H60.6985H60.7585H60.8185H60.8784H60.9384H60.9983H61.0583H61.1182H61.1782H61.2382H61.2981H61.3581H61.418H61.478H61.5379H61.5979H61.6579H61.7178H61.7778H61.8377H61.8977H61.9576H62.0176H62.0776H62.1375H62.1975H62.2574H62.3174H62.3773H62.4373H62.4973H62.5572H62.6172H62.6771H62.7371H62.797H62.857H62.917H62.9769H63.0369H63.0968H63.1568H63.2167H63.2767H63.3366H63.3966H63.4566H63.5165H63.5765H63.6364H63.6964H63.7563H63.8163H63.8763H63.9362H63.9962H64.0561H64.1161H64.176H64.236H64.296H64.3559H64.4159H64.4758H64.5358H64.5957H64.6557H64.7157H64.7756H64.8356H64.8955H64.9555H65.0154H65.0754H65.1354H65.1953H65.2553H65.3152H65.3752H65.4351H65.4951H65.5551H65.615H65.675H65.7349H65.7949H65.8548H65.9148H65.9747H66.0347H66.0947H66.1546H66.2146H66.2745H66.3345H66.3944H66.4544H66.5144H66.5743H66.6343H66.6942H66.7542H66.8141H66.8741H66.9341H66.994H67.054H67.1139H67.1739H67.2338H67.2938H67.3538H67.4137H67.4737H67.5336H67.5936H67.6535H67.7135H67.7735H67.8334H67.8934H67.9533H68.0133H68.0732H68.1332H68.1931H68.2531H68.3131H68.373H68.433H68.4929C69.2851 84.6854 70.0773 84.6849 70.8695 84.6845C72.7173 84.6835 74.5651 84.6825 76.4126 84.6869C77.1105 84.6884 77.6838 84.5137 78.1365 84.0168C78.5608 83.5502 78.6855 82.9768 78.6855 82.2871L41.195 45.2197ZM41.195 45.2197L41.169 44.881M41.195 45.2197L41.169 44.881M76.6158 45.2197C76.6157 45.2197 76.6156 45.2197 76.6155 45.2197L76.6201 44.9051L76.6161 45.2197C76.616 45.2197 76.6159 45.2197 76.6158 45.2197ZM76.6158 45.2197C77.7392 45.2363 78.5472 45.9809 78.6686 47.1338M76.6158 45.2197L78.6686 47.1338M78.6686 47.1338C78.6826 47.2695 78.6825 47.4076 78.6824 47.5641L78.6824 47.5992V47.6334C78.6824 56.8679 78.6824 73.0695 78.6855 82.287L78.6686 47.1338ZM41.169 44.881C40.7338 39.2202 42.2304 34.3712 46.3101 30.5492L46.3102 30.5491M41.169 44.881L46.3102 30.5491M46.3102 30.5491C49.3069 27.7401 52.8861 26.346 56.9501 26.3151L46.3102 30.5491ZM39.3406 80.2258V80.5404H39.6552H74.3249H74.6396V80.2258L74.6396 49.684V49.3694H74.325H39.6553H39.3406V49.684L39.3406 80.2258ZM68.5732 45.1898H68.8878V44.8752C68.8878 44.5945 68.8906 44.3144 68.8933 44.0351C68.8993 43.4304 68.9053 42.8296 68.8829 42.2353C68.6428 35.8478 63.8316 30.7662 57.6887 30.4227C50.9236 30.0437 44.1202 35.5936 45.1684 44.9104L45.1999 45.1898H45.4811H68.5732Z" stroke="#EEF3FF" stroke-opacity="0.08" stroke-width="0.629255"/>
</g>
<path fill-rule="evenodd" clip-rule="evenodd" d="M49.0001 61.0685C49.0001 61.583 49.4172 62 49.9316 62H55.0001L55.0001 72.0685C55.0001 72.583 55.4172 73 55.9316 73H59.0686C59.5831 73 60.0001 72.5829 60.0001 72.0685L60.0001 62H64.0686C64.5831 62 65.0001 61.583 65.0001 61.0685V57.9315C65.0001 57.417 64.5831 57 64.0686 57H59.0686H55.9316H49.9316C49.4172 57 49.0001 57.417 49.0001 57.9315V61.0685Z" fill="url(#paint2_linear_4531_42294)"/>
</g>
<defs>
<filter id="filter0_bi_4531_42294" x="31.8538" y="22.8537" width="50.2926" height="65.2941" filterUnits="userSpaceOnUse" color-interpolation-filters="sRGB">
<feFlood flood-opacity="0" result="BackgroundImageFix"/>
<feGaussianBlur in="BackgroundImageFix" stdDeviation="1.57314"/>
<feComposite in2="SourceAlpha" operator="in" result="effect1_backgroundBlur_4531_42294"/>
<feBlend mode="normal" in="SourceGraphic" in2="effect1_backgroundBlur_4531_42294" result="shape"/>
<feColorMatrix in="SourceAlpha" type="matrix" values="0 0 0 0 0 0 0 0 0 0 0 0 0 0 0 0 0 0 127 0" result="hardAlpha"/>
<feOffset/>
<feGaussianBlur stdDeviation="5.03404"/>
<feComposite in2="hardAlpha" operator="arithmetic" k2="-1" k3="1"/>
<feColorMatrix type="matrix" values="0 0 0 0 0.133333 0 0 0 0 0.266667 0 0 0 0 0.921569 0 0 0 0.3 0"/>
<feBlend mode="normal" in2="shape" result="effect2_innerShadow_4531_42294"/>
</filter>
<linearGradient id="paint0_linear_4531_42294" x1="44.0001" y1="63.477" x2="73.3202" y2="115.965" gradientUnits="userSpaceOnUse">
<stop stop-color="#BEE0FF"/>
<stop offset="1" stop-color="#2A61EF"/>
</linearGradient>
<linearGradient id="paint1_linear_4531_42294" x1="35.0001" y1="22.9014" x2="104.824" y2="87.2653" gradientUnits="userSpaceOnUse">
<stop stop-color="#0876DD"/>
<stop offset="1" stop-color="#2A32EF"/>
</linearGradient>
<linearGradient id="paint2_linear_4531_42294" x1="49.0001" y1="56.1597" x2="67.579" y2="79.1247" gradientUnits="userSpaceOnUse">
<stop stop-color="#0876DD"/>
<stop offset="1" stop-color="#2A32EF"/>
</linearGradient>
<clipPath id="clip0_4531_42294">
<rect width="51" height="68" fill="white" transform="translate(35.0001 26)"/>
</clipPath>
</defs>
</svg>
