<svg width="19" height="19" viewBox="0 0 19 19" fill="none" xmlns="http://www.w3.org/2000/svg">
<path d="M4.37097 12.2789H5.90254V4.96024H4.37097C2.27501 4.96024 1.14258 6.06254 1.14258 8.08319V9.15727C1.14258 11.1717 2.27501 12.2789 4.37097 12.2789ZM6.98751 12.2864C9.152 12.5308 11.3866 13.1818 13.541 14.2436C13.5369 14.1561 13.5356 14.061 13.5356 13.9734V3.27335C13.5356 3.17617 13.5369 3.0927 13.5397 2.99687C11.402 4.05261 8.96911 4.74524 6.98751 4.96024V12.2864ZM16.2204 16.0397C17.172 16.0397 17.8399 15.3657 17.8399 14.4236V2.76483C17.8399 1.81667 17.172 1.14258 16.2204 1.14258C15.2798 1.14258 14.6057 1.81667 14.6057 2.76483V14.4236C14.6057 15.3657 15.2798 16.0397 16.2204 16.0397ZM7.4371 17.4645C8.40924 17.4645 9.13406 16.7439 8.86728 15.5594L8.43997 13.6156C7.76433 13.4838 6.81815 13.3997 4.88642 13.3551C4.75488 13.3551 4.5444 13.3427 4.32638 13.3414L5.64353 16.1238C6.04326 16.968 6.51982 17.4645 7.4371 17.4645Z" fill="#FAFCFF" fill-opacity="0.6"/>
</svg>
