<svg width="73" height="73" viewBox="0 0 73 73" fill="none" xmlns="http://www.w3.org/2000/svg">
    <path opacity="0.73" d="M70.5894 40.1777L40.0646 70.7904C38.0414 72.8137 34.6986 72.8137 32.5874 70.7904L2.06261 40.1777C0.039352 38.1544 0.039352 34.8116 2.06261 32.7004L32.5874 2.17564C34.6106 0.152389 37.9534 0.152389 40.0646 2.17564L70.5894 32.7884C72.7006 34.8116 72.7006 38.1544 70.5894 40.1777Z" fill="url(#paint0_linear_6936_7028)"/>
    <path d="M41.2081 35.427L41.1202 33.2278L39.9766 33.6676C39.6247 30.2369 38.5691 26.6302 38.5691 26.4543L38.0413 24.8709L36.6338 26.1024C35.4903 23.3754 33.9948 20.5605 33.9068 20.3845L32.7633 18.7131L31.3558 20.2086L26.2537 13.9629L21.1515 20.2086L19.744 18.7131L18.6005 20.3845C18.5125 20.4725 17.105 23.4634 15.9614 26.1904L14.378 24.7829L13.8502 26.3663C13.7622 26.5423 12.7066 30.1489 12.4427 33.5797L11.2992 33.1398V35.427C11.2992 35.7789 10.9473 44.3117 15.9614 49.5898C18.5125 52.3168 21.9432 53.6363 26.2537 53.6363C30.4761 53.6363 33.9068 52.2288 36.5459 49.5898C41.56 44.3117 41.2081 35.7789 41.2081 35.427Z" fill="#3CA773"/>
    <path d="M41.2082 35.4273C41.2082 35.7792 41.56 44.312 36.5459 49.5901C33.9948 52.3171 30.5641 53.6366 26.2537 53.6366V35.4273L36.6338 26.1027L38.0413 24.7832L38.5691 26.3666C38.6571 26.5426 39.7127 30.1492 39.9766 33.58L41.1202 33.1401L41.2082 35.4273Z" fill="#3CA773"/>
    <path d="M36.6338 26.1024L26.2536 35.427L15.9614 26.1904C17.105 23.4634 18.5125 20.4725 18.6005 20.3845L19.744 18.7131L21.2395 20.2086L26.3416 13.9629L31.4437 20.2086L32.9392 18.7131L34.0828 20.3845C33.9948 20.4725 35.4902 23.3754 36.6338 26.1024Z" fill="#41B57D"/>
    <path d="M26.2537 35.4272V53.6365C22.0312 53.6365 18.6005 52.229 15.9615 49.59C10.9473 44.3119 11.2112 35.7791 11.2992 35.4272L11.3871 33.228L12.5307 33.6679C12.8826 30.2371 13.9382 26.6304 13.9382 26.4545L14.466 24.8711L16.0494 26.2786L26.2537 35.4272Z" fill="#6BDDA9"/>
    <defs>
        <linearGradient id="paint0_linear_6936_7028" x1="1.76827" y1="49.5886" x2="170.37" y2="-14.3515" gradientUnits="userSpaceOnUse">
            <stop stop-color="white"/>
            <stop offset="0.0953718" stop-color="#F8FAFE"/>
            <stop offset="0.2349" stop-color="#E4EDFB"/>
            <stop offset="0.4015" stop-color="#C4D7F6"/>
            <stop offset="0.589" stop-color="#98B8EF"/>
            <stop offset="0.794" stop-color="#5E91E6"/>
            <stop offset="1" stop-color="#1D65DC"/>
        </linearGradient>
    </defs>
</svg>
