<svg width="18" height="19" viewBox="0 0 18 19" fill="none" xmlns="http://www.w3.org/2000/svg">
<path d="M14.25 10.25V14C14.25 14.4125 13.9125 14.75 13.5 14.75H4.5C4.0875 14.75 3.75 14.4125 3.75 14V10.25C3.75 9.8375 3.4125 9.5 3 9.5C2.5875 9.5 2.25 9.8375 2.25 10.25V14.75C2.25 15.575 2.925 16.25 3.75 16.25H14.25C15.075 16.25 15.75 15.575 15.75 14.75V10.25C15.75 9.8375 15.4125 9.5 15 9.5C14.5875 9.5 14.25 9.8375 14.25 10.25ZM9.75 10.0025L11.16 8.5925C11.4525 8.3 11.925 8.3 12.2175 8.5925C12.51 8.885 12.51 9.3575 12.2175 9.65L9.525 12.3425C9.2325 12.635 8.76 12.635 8.4675 12.3425L5.775 9.65C5.4825 9.3575 5.4825 8.885 5.775 8.5925C6.0675 8.3 6.54 8.3 6.8325 8.5925L8.25 10.0025V3.5C8.25 3.0875 8.5875 2.75 9 2.75C9.4125 2.75 9.75 3.0875 9.75 3.5V10.0025Z" fill="#222222" fill-opacity="0.6"/>
</svg>
