<svg width="38" height="58" viewBox="0 0 38 58" fill="none" xmlns="http://www.w3.org/2000/svg">
    <path fill-rule="evenodd" clip-rule="evenodd" d="M37.6217 25.4141H0.378418V39.1168C0.378418 49.4012 8.7156 57.7384 19 57.7384C29.2845 57.7384 37.6217 49.4012 37.6217 39.1168V25.4141ZM12.0891 34.3152H25.909V38.2971H20.9914V46.964H17.0095V38.2971H12.0891V34.3152Z" fill="white"/>
    <path fill-rule="evenodd" clip-rule="evenodd" d="M5.06348 14.4056C5.06348 6.64378 11.3557 0.351562 19.1175 0.351562C26.8794 0.351562 33.1716 6.64378 33.1716 14.4056V21.9011H25.6761V14.4056C25.6761 10.7834 22.7397 7.84706 19.1175 7.84706C15.4953 7.84706 12.559 10.7834 12.559 14.4056V21.9011H5.06348V14.4056Z" fill="white"/>
</svg>
