<svg width="77" height="77" viewBox="0 0 77 77" fill="none" xmlns="http://www.w3.org/2000/svg">
    <g clip-path="url(#clip0_6936_14406)">
        <path opacity="0.73" d="M74.8297 42.1777L44.4008 72.7904C42.3839 74.8137 39.0517 74.8137 36.9471 72.7904L6.51817 42.1777C4.50127 40.1544 4.50127 36.8116 6.51817 34.7004L36.9471 4.17564C38.964 2.15239 42.2962 2.15239 44.4008 4.17564L74.8297 34.7884C76.9343 36.8116 76.9343 40.1544 74.8297 42.1777Z" fill="url(#paint0_linear_6936_14406)"/>
        <path d="M41.507 35.9316V44.5525C41.507 50.6222 36.5963 55.6364 30.4579 55.6364C24.3195 55.6364 19.4088 50.7102 19.4088 44.5525V35.9316H41.507ZM34.5794 43.8487V41.1217H26.4241V43.8487H29.1426V48.9509H31.861V43.8487H34.5794Z" fill="url(#paint1_linear_6936_14406)"/>
        <path d="M38.8763 29.689V34.1753H34.2287V29.3371C34.2287 27.3138 32.5625 25.6424 30.5456 25.6424C28.5287 25.6424 26.8626 27.3138 26.8626 29.3371V34.1753H22.215V29.689C22.215 25.1146 25.9857 21.332 30.5456 21.332C35.1056 21.332 38.8763 25.1146 38.8763 29.689Z" fill="url(#paint2_linear_6936_14406)"/>
    </g>
    <defs>
        <linearGradient id="paint0_linear_6936_14406" x1="6.22817" y1="51.5977" x2="174.433" y2="-11.9915" gradientUnits="userSpaceOnUse">
            <stop stop-color="white"/>
            <stop offset="0.0953718" stop-color="#F8FAFE"/>
            <stop offset="0.2349" stop-color="#E4EDFB"/>
            <stop offset="0.4015" stop-color="#C4D7F6"/>
            <stop offset="0.589" stop-color="#98B8EF"/>
            <stop offset="0.794" stop-color="#5E91E6"/>
            <stop offset="1" stop-color="#1D65DC"/>
        </linearGradient>
        <linearGradient id="paint1_linear_6936_14406" x1="30.4579" y1="35.9316" x2="30.4579" y2="55.6364" gradientUnits="userSpaceOnUse">
            <stop stop-color="#1D65DC"/>
            <stop offset="1" stop-color="#0A4BB3"/>
        </linearGradient>
        <linearGradient id="paint2_linear_6936_14406" x1="30.5456" y1="21.332" x2="30.5456" y2="34.1753" gradientUnits="userSpaceOnUse">
            <stop stop-color="#1D65DC"/>
            <stop offset="1" stop-color="#0A4BB3"/>
        </linearGradient>
        <clipPath id="clip0_6936_14406">
            <rect width="75.7653" height="76.004" fill="white" transform="translate(0.642822 0.482422)"/>
        </clipPath>
    </defs>
</svg>
