<?xml version="1.0" encoding="utf-8"?>
<!-- Generator: Adobe Illustrator 24.1.1, SVG Export Plug-In . SVG Version: 6.00 Build 0)  -->
<svg version="1.1" id="Layer_1" xmlns="http://www.w3.org/2000/svg" xmlns:xlink="http://www.w3.org/1999/xlink" x="0px" y="0px"
	 viewBox="0 0 377 377" style="enable-background:new 0 0 377 377;" xml:space="preserve">
<style type="text/css">
	.st0{fill:url(#SVGID_1_);stroke:#E7E8EA;stroke-width:4;}
	.st1{fill:#FFFFFF;}
	.st2{stroke:#E7E8EA;stroke-width:4;}
	.st3{fill:#FFFFFF;stroke:#E7E8EA;stroke-width:4;}
	.st4{fill:url(#SVGID_2_);}
	.st5{fill:url(#SVGID_3_);}
</style>
<linearGradient id="SVGID_1_" gradientUnits="userSpaceOnUse" x1="292.4256" y1="298.5" x2="49.2898" y2="41.9082" gradientTransform="matrix(1 0 0 -1 0 377.3228)">
	<stop  offset="0" style="stop-color:#1D65DC"/>
	<stop  offset="1" style="stop-color:#0A4BB3"/>
</linearGradient>
<circle class="st0" cx="188.5" cy="188.5" r="185.9"/>
<g>
	<path class="st1" d="M120.6,97c0,4.7,0,8.7,0,13c-1.2,0.2-2.1,0.4-2.9,0.6c-20.7,3.5-37.8,13.3-49.8,30.6
		c-19,27.3-22,56.3-5.6,85.8c13.4,24,34.7,37,62.2,39.7c2.2,0.2,4.4,0.3,6.5,0.3c10.6,0,20.8-2.4,30.7-6.4
		c12.8-5.1,23.7-12.6,30.6-25c9.3-17,18.4-34.1,27.5-51.2c1.4-2.6,2.6-5.2,3.8-7.9c-6.8,3.5-12.9,7.5-19,11.5
		c-17.2,11.2-34.2,22.6-51.5,33.7c-7.1,4.6-14.5,7-22,7c-6,0-12-1.5-18-4.5c-14.2-7-21.8-18.9-22.5-34.7c-0.7-16.4,9.8-32.1,25-38.4
		c1.5-0.6,3.1-1,5.3-1.8c0,5,0,9.3,0,14c17.3-11.2,33.9-22,51.1-33.1C154.5,119,137.8,108.2,120.6,97"/>
	<path class="st1" d="M246.3,109c-9.5,0-18.9,1.9-27.8,5.3c-14,5.4-26.3,13.2-33.7,26.8c-9,16.5-17.7,33.1-26.4,49.6
		c-1.5,3-2.9,6.1-4.8,10c1.7-0.9,2.4-1.1,2.9-1.5c9-5.8,17.8-11.6,26.7-17.4c12.9-8.4,25.9-16.7,38.6-25.5c5.9-4.1,12-7.1,18.9-8.1
		c2-0.3,4-0.5,6-0.5c20.5,0,39.8,16,40.2,39.7c0.4,16.7-8,28.9-22.3,37c-2.3,1.3-4.8,1.9-7.8,3.1c0-5.1,0-9.3,0-14.3
		c-17.3,11.3-34,22.2-51.2,33.4c17.3,11.2,34,22.1,51.3,33.4c0-4.9,0-9.1,0-12.8c5.8-1.5,11.1-2.7,16.2-4.4
		c36.3-12.6,57.7-50.6,51.2-89.2c-3.1-18.1-12.2-33.2-26.1-45.3c-14.8-12.9-32.1-19-51.4-19.3C246.7,109,246.5,109,246.3,109"/>
</g>
</svg>
