<svg width="77" height="77" viewBox="0 0 77 77" fill="none" xmlns="http://www.w3.org/2000/svg">
    <g clip-path="url(#clip0_6936_16655)">
        <path opacity="0.73" d="M74.5894 42.1777L44.0646 72.7904C42.0414 74.8137 38.6986 74.8137 36.5874 72.7904L6.06261 42.1777C4.03935 40.1544 4.03935 36.8116 6.06261 34.7004L36.5874 4.17564C38.6106 2.15239 41.9534 2.15239 44.0646 4.17564L74.5894 34.7884C76.7006 36.8116 76.7006 40.1544 74.5894 42.1777Z" fill="url(#paint0_linear_6936_16655)"/>
        <path d="M38.8041 37.9739C33.4697 37.9739 32.0795 35.6509 32.0433 35.5905C31.9065 35.3259 31.7005 35.1034 31.4471 34.9468C31.1938 34.7902 30.9027 34.7053 30.6049 34.7013C30.3038 34.6983 30.0074 34.7754 29.746 34.9247C29.4846 35.0741 29.2676 35.2903 29.1174 35.5511C29.0755 35.6251 28.0382 37.37 24.3185 37.8525C23.6611 37.9347 22.9991 37.9752 22.3365 37.9739C21.8998 37.9739 21.4809 38.1473 21.1721 38.4562C20.8633 38.765 20.6898 39.1839 20.6898 39.6206V42.812C20.682 45.1177 21.3692 47.3722 22.6617 49.2815C23.9542 51.1909 25.792 52.6665 27.9355 53.5159L29.9585 54.3248C30.3509 54.4814 30.7884 54.4814 31.1807 54.3248L33.2046 53.5159C35.3481 52.6664 37.1858 51.1908 38.4783 49.2815C39.7708 47.3721 40.458 45.1177 40.4503 42.812V39.6206C40.4503 39.1839 40.2769 38.7652 39.9682 38.4563C39.6595 38.1475 39.2407 37.974 38.8041 37.9739Z" fill="url(#paint1_linear_6936_16655)"/>
        <path d="M31.7877 49.5305H30.0895V42.7198H27.5303V41.0156H34.3409V42.7198H31.7877V49.5305Z" fill="white"/>
        <path d="M39.6274 26.448C38.1897 26.4489 36.767 26.7401 35.4447 27.3043C34.5121 25.2487 32.9036 23.5745 30.8869 22.5605C28.8702 21.5465 26.567 21.2539 24.3608 21.7313C22.1546 22.2087 20.1785 23.4274 18.7615 25.1845C17.3445 26.9416 16.5721 29.131 16.5729 31.3883C16.5704 31.5257 16.5759 31.6631 16.5893 31.7999C14.7109 32.3825 13.1039 33.6198 12.0606 35.2869C11.0172 36.954 10.6067 38.9401 10.9038 40.8842C11.2009 42.8283 12.1859 44.6012 13.6795 45.8806C15.1731 47.16 17.0763 47.8609 19.043 47.8558H20.0475C19.3803 46.2598 19.0388 44.5466 19.043 42.8167V39.622C19.0456 38.7493 19.3934 37.9131 20.0105 37.296C20.6276 36.6789 21.4638 36.3311 22.3365 36.3285C22.9308 36.3303 23.5246 36.2973 24.115 36.2297C26.898 35.8674 27.7049 34.7147 27.7049 34.6982C28.0042 34.1848 28.4359 33.7612 28.9549 33.4717C29.4739 33.1822 30.0612 33.0374 30.6553 33.0526C31.2494 33.0677 31.8285 33.2422 32.3321 33.5578C32.8357 33.8733 33.2453 34.3184 33.518 34.8464C33.8495 35.1593 34.2343 35.4102 34.6542 35.5875C35.9673 36.1327 37.3834 36.3855 38.804 36.3285C39.6767 36.3311 40.513 36.6789 41.1301 37.296C41.7472 37.9131 42.095 38.7493 42.0976 39.622V42.8167C42.1023 44.5045 41.7778 46.1769 41.1424 47.7405C43.8221 47.358 46.2573 45.9741 47.9572 43.8676C49.6571 41.7611 50.4955 39.0886 50.3034 36.3885C50.1113 33.6885 48.903 31.1616 46.9219 29.317C44.9408 27.4724 42.3343 26.4472 39.6274 26.448V26.448Z" fill="url(#paint2_linear_6936_16655)"/>
    </g>
    <defs>
        <linearGradient id="paint0_linear_6936_16655" x1="5.7717" y1="51.5977" x2="174.373" y2="-12.3424" gradientUnits="userSpaceOnUse">
            <stop stop-color="white"/>
            <stop offset="0.0953718" stop-color="#F8FAFE"/>
            <stop offset="0.2349" stop-color="#E4EDFB"/>
            <stop offset="0.4015" stop-color="#C4D7F6"/>
            <stop offset="0.589" stop-color="#98B8EF"/>
            <stop offset="0.794" stop-color="#5E91E6"/>
            <stop offset="1" stop-color="#1D65DC"/>
        </linearGradient>
        <linearGradient id="paint1_linear_6936_16655" x1="30.57" y1="34.7012" x2="30.57" y2="54.4422" gradientUnits="userSpaceOnUse">
            <stop stop-color="#FF91E7"/>
            <stop offset="1" stop-color="#FF51D9"/>
        </linearGradient>
        <linearGradient id="paint2_linear_6936_16655" x1="30.57" y1="21.5078" x2="30.57" y2="47.8558" gradientUnits="userSpaceOnUse">
            <stop stop-color="#FF91E7"/>
            <stop offset="1" stop-color="#FF51D9"/>
        </linearGradient>
        <clipPath id="clip0_6936_16655">
            <rect width="76.004" height="76.004" fill="white" transform="translate(0.168701 0.482422)"/>
        </clipPath>
    </defs>
</svg>