<svg width="64" height="65" viewBox="0 0 64 65" fill="none" xmlns="http://www.w3.org/2000/svg">
<circle cx="32" cy="32.25" r="32" fill="#FAFAFA" fill-opacity="0.05"/>
<circle cx="32" cy="32.25" r="24" fill="#FAFAFA" fill-opacity="0.05"/>
<mask id="mask0_8581_52988" style="mask-type:alpha" maskUnits="userSpaceOnUse" x="16" y="16" width="32" height="33">
<path d="M42.6667 20.25H22.6667C20.4613 20.25 18.6667 22.0447 18.6667 24.25V40.25C18.6667 42.4553 20.4613 44.25 22.6667 44.25H42.6667C44.1373 44.25 45.3333 43.054 45.3333 41.5833V36.25V28.25V22.9167C45.3333 21.446 44.1373 20.25 42.6667 20.25ZM22.6667 41.5833C21.9307 41.5833 21.3333 40.9847 21.3333 40.25V24.25C21.3333 23.5153 21.9307 22.9167 22.6667 22.9167H42.6667V26.9167H34.6667C33.196 26.9167 32 28.1127 32 29.5833V34.9167C32 36.3873 33.196 37.5833 34.6667 37.5833H42.668V41.5833H22.6667ZM42.6667 29.5833V34.9167H34.6667V29.5833H42.6667Z" fill="#888888"/>
</mask>
<g mask="url(#mask0_8581_52988)">
<rect x="16" y="16.25" width="32" height="32" fill="#FAFAFA"/>
</g>
</svg>
