<svg width="64" height="65" viewBox="0 0 64 65" fill="none" xmlns="http://www.w3.org/2000/svg">
<rect y="0.5" width="64" height="64" rx="32" fill="#FF9500"/>
<path fill-rule="evenodd" clip-rule="evenodd" d="M33.5265 15.4175C33.3761 15.1516 33.1664 14.929 32.9158 14.7695C32.0727 14.2327 30.9791 14.5228 30.4732 15.4175L12.2537 47.6389C12.0877 47.9325 12 48.2685 12 48.6109C12 49.6542 12.7971 50.5 13.7803 50.5H50.2194C50.5421 50.5 50.8587 50.4069 51.1354 50.2308C51.9785 49.694 52.2519 48.5336 51.746 47.6389L33.5265 15.4175ZM32.0001 39.5C32.9206 39.5 33.6667 38.7538 33.6667 37.8334L33.6667 26.1667C33.6667 25.2462 32.9206 24.5 32.0001 24.5C31.0796 24.5 30.3334 25.2462 30.3334 26.1667L30.3334 37.8334C30.3334 38.7538 31.0796 39.5 32.0001 39.5ZM32.0001 46.1667C32.9206 46.1667 33.6667 45.4205 33.6667 44.5C33.6667 43.5795 32.9206 42.8334 32.0001 42.8334C31.0796 42.8334 30.3334 43.5795 30.3334 44.5C30.3334 45.4205 31.0796 46.1667 32.0001 46.1667Z" fill="white"/>
</svg>
