<svg width="18" height="19" viewBox="0 0 18 19" fill="none" xmlns="http://www.w3.org/2000/svg">
<path d="M3.87122 12.2789H5.40278V4.96024H3.87122C1.77525 4.96024 0.642822 6.06254 0.642822 8.08319V9.15727C0.642822 11.1717 1.77525 12.2789 3.87122 12.2789ZM6.48775 12.2864C8.65224 12.5308 10.8869 13.1818 13.0413 14.2436C13.0372 14.1561 13.0358 14.061 13.0358 13.9734V3.27335C13.0358 3.17617 13.0372 3.0927 13.0399 2.99687C10.9022 4.05261 8.46935 4.74524 6.48775 4.96024V12.2864ZM15.7207 16.0397C16.6723 16.0397 17.3401 15.3657 17.3401 14.4236V2.76483C17.3401 1.81667 16.6723 1.14258 15.7207 1.14258C14.78 1.14258 14.1059 1.81667 14.1059 2.76483V14.4236C14.1059 15.3657 14.78 16.0397 15.7207 16.0397ZM6.93735 17.4645C7.90949 17.4645 8.63431 16.7439 8.36752 15.5594L7.94022 13.6156C7.26457 13.4838 6.3184 13.3997 4.38666 13.3551C4.25513 13.3551 4.04464 13.3427 3.82662 13.3414L5.14377 16.1238C5.5435 16.968 6.02007 17.4645 6.93735 17.4645Z" fill="#1F4AE9"/>
</svg>
