<svg width="159" height="22" viewBox="0 0 159 22" fill="none" xmlns="http://www.w3.org/2000/svg">
  <path fill-rule="evenodd" clip-rule="evenodd" d="M13.0975 9.35059H0.183105V14.1067C0.183105 17.6825 3.06455 20.5639 6.64031 20.5639C10.2161 20.5639 13.0975 17.6825 13.0975 14.1067V9.35059ZM4.2449 12.4403H9.03573V13.829H7.33463V16.8493H5.94599V13.829H4.2449V12.4403Z" fill="url(#paint0_linear_6924_52036)"/>
  <path fill-rule="evenodd" clip-rule="evenodd" d="M1.81476 5.5317C1.81476 2.82384 4.00188 0.636719 6.70974 0.636719C9.4176 0.636719 11.6047 2.82384 11.6047 5.5317V8.13541H9.001V5.5317C9.001 4.28191 7.99423 3.24043 6.70974 3.24043C5.42524 3.24043 4.41847 4.2472 4.41847 5.5317V8.13541H1.81476V5.5317Z" fill="url(#paint1_linear_6924_52036)"/>
  <path d="M27.6763 4.17734V19.9732H24.9684V4.17734H27.6763ZM32.6059 4.17734V6.32974H20.0387V4.17734H32.6059ZM38.5771 20.1815C37.7092 20.1815 36.9107 20.0426 36.2164 19.7649C35.5221 19.4872 34.9319 19.0706 34.4459 18.5498C33.9599 18.0291 33.578 17.4389 33.335 16.7446C33.092 16.0503 32.9531 15.2865 32.9531 14.488V14.0714C32.9531 13.1688 33.092 12.3356 33.3697 11.5719C33.6474 10.8428 33.9946 10.1832 34.4806 9.66249C34.9666 9.14175 35.5221 8.72515 36.1817 8.44742C36.8413 8.16969 37.5356 8.03083 38.2994 8.03083C39.1326 8.03083 39.8616 8.16969 40.4865 8.44742C41.1114 8.72515 41.6321 9.14175 42.0487 9.62777C42.4653 10.1485 42.7778 10.7387 42.9861 11.433C43.1944 12.1273 43.2985 12.8911 43.2985 13.759V14.8699H34.2029V12.9952H40.6948V12.7869C40.6948 12.3009 40.5907 11.8843 40.4171 11.4677C40.2435 11.0511 40.0005 10.7387 39.6533 10.461C39.3062 10.2179 38.8549 10.0791 38.2647 10.0791C37.8481 10.0791 37.4315 10.1832 37.119 10.3568C36.7719 10.5304 36.4942 10.8081 36.2859 11.1553C36.0776 11.5024 35.904 11.919 35.7651 12.4051C35.661 12.8911 35.5915 13.4466 35.5915 14.0367V14.4533C35.5915 14.9741 35.661 15.4601 35.7998 15.8767C35.9387 16.2933 36.147 16.6752 36.4247 17.0223C36.7025 17.3348 37.0496 17.6125 37.4315 17.7861C37.8134 17.9597 38.2647 18.0638 38.7507 18.0638C39.3756 18.0638 39.9311 17.9249 40.4171 17.6819C40.9031 17.4389 41.3197 17.057 41.7016 16.6057L43.0902 17.9249C42.8472 18.3068 42.5 18.654 42.1182 19.0011C41.7016 19.3483 41.2156 19.5913 40.6254 19.7996C40.0005 20.0773 39.3409 20.1815 38.5771 20.1815ZM51.9428 17.6125V12.0232C51.9428 11.6066 51.8734 11.2594 51.6998 10.947C51.561 10.6345 51.318 10.3915 51.0055 10.2527C50.6931 10.0791 50.3112 10.0097 49.8599 10.0097C49.4433 10.0097 49.0614 10.0791 48.749 10.2179C48.4365 10.3568 48.1935 10.5651 48.0199 10.8081C47.8463 11.0511 47.7422 11.3289 47.7422 11.6413H45.1732C45.1732 11.19 45.2773 10.7387 45.5204 10.2874C45.7287 9.87079 46.0758 9.45419 46.4924 9.14175C46.909 8.79459 47.4297 8.51686 48.0199 8.34328C48.6101 8.13498 49.2697 8.06555 50.0335 8.06555C50.9014 8.06555 51.6998 8.20441 52.3942 8.51686C53.0885 8.8293 53.6092 9.2459 54.0258 9.87079C54.4077 10.461 54.616 11.2247 54.616 12.0926V17.3C54.616 17.8208 54.6507 18.3068 54.7201 18.7581C54.7896 19.1747 54.9284 19.5566 55.0673 19.869V19.9732H52.3942C52.2553 19.6955 52.1859 19.3483 52.1164 18.897C51.9776 18.4457 51.9428 18.0291 51.9428 17.6125ZM52.3247 12.8217L52.3594 14.4533H50.4848C49.9987 14.4533 49.5821 14.488 49.2003 14.5922C48.8184 14.6616 48.5407 14.8005 48.2629 14.9741C47.9852 15.1476 47.8463 15.3559 47.7075 15.599C47.5686 15.842 47.5339 16.1197 47.5339 16.4321C47.5339 16.7446 47.6033 17.0223 47.7422 17.3C47.8811 17.5431 48.0893 17.7514 48.3671 17.8902C48.6448 18.0291 48.992 18.0985 49.3739 18.0985C49.8946 18.0985 50.3806 17.9944 50.7625 17.7861C51.1791 17.5778 51.4915 17.3 51.7345 16.9876C51.9776 16.6752 52.0817 16.3627 52.1164 16.0503L52.9496 17.1959C52.8802 17.5083 52.7066 17.8208 52.4983 18.1679C52.29 18.5151 52.0123 18.8276 51.6651 19.14C51.318 19.4524 50.9361 19.6955 50.45 19.9038C49.9987 20.1121 49.4433 20.1815 48.8531 20.1815C48.0894 20.1815 47.395 20.0426 46.8049 19.7302C46.2147 19.4177 45.7287 19.0011 45.3815 18.4804C45.0343 17.9597 44.8608 17.3695 44.8608 16.6752C44.8608 16.0503 44.9649 15.4948 45.2079 15.0088C45.4509 14.5228 45.7981 14.1062 46.2494 13.7937C46.7007 13.4813 47.2909 13.2383 47.9505 13.0647C48.6101 12.8911 49.3739 12.7869 50.2418 12.7869H52.3247V12.8217ZM59.8928 10.6345V19.9732H57.2891V8.23913H59.754L59.8928 10.6345ZM59.4762 13.6548H58.5736C58.5736 12.8564 58.6778 12.0926 58.8861 11.3983C59.0944 10.704 59.3721 10.1138 59.7887 9.59306C60.1706 9.07231 60.6566 8.69044 61.2468 8.41271C61.8369 8.13498 62.4966 7.99611 63.2603 7.99611C63.7811 7.99611 64.2671 8.06555 64.7184 8.23913C65.1697 8.37799 65.5516 8.621 65.864 8.96817C66.2112 9.31533 66.4542 9.73192 66.6278 10.2527C66.8014 10.7734 66.9055 11.3983 66.9055 12.1273V19.9732H64.3018V12.3703C64.3018 11.8149 64.2324 11.3636 64.0241 11.0164C63.8505 10.704 63.6075 10.461 63.295 10.3221C62.9826 10.1832 62.6007 10.1138 62.1841 10.1138C61.6981 10.1138 61.2815 10.2179 60.9343 10.3915C60.5872 10.5651 60.3094 10.8428 60.1011 11.1553C59.8928 11.4677 59.7193 11.8496 59.6151 12.2662C59.5457 12.7175 59.4762 13.1688 59.4762 13.6548ZM66.7666 12.9605L65.5516 13.2383C65.5516 12.5439 65.6557 11.8496 65.8293 11.2247C66.0376 10.5998 66.3153 10.0444 66.6972 9.55834C67.0791 9.07232 67.5651 8.69044 68.1553 8.41271C68.7108 8.13498 69.3703 7.99611 70.1341 7.99611C70.7243 7.99611 71.2797 8.06555 71.7311 8.23913C72.2171 8.41271 72.599 8.65572 72.9461 9.00288C73.2933 9.35004 73.5363 9.80135 73.7099 10.3568C73.8835 10.9123 73.9876 11.5719 73.9876 12.3703V19.9732H71.3492V12.3703C71.3492 11.7802 71.2797 11.3289 71.0714 10.9817C70.8979 10.6693 70.6549 10.4262 70.3424 10.3221C70.03 10.1832 69.6481 10.1138 69.2315 10.1138C68.8149 10.1138 68.4677 10.1832 68.1553 10.3568C67.8428 10.4957 67.5998 10.704 67.3915 10.9817C67.1832 11.2594 67.0097 11.5372 66.9055 11.8843C66.8014 12.1968 66.7666 12.5786 66.7666 12.9605ZM85.1662 4.17734V19.9732H82.4583V4.17734H85.1662ZM91.6234 11.0859V13.2383H84.4719V11.0859H91.6234ZM92.4913 4.17734V6.32974H84.4372V4.17734H92.4913ZM97.2127 8.23913V19.9732H94.5743V8.23913H97.2127ZM94.4007 5.14939C94.4007 4.76751 94.5396 4.42035 94.7826 4.17734C95.0603 3.89961 95.4075 3.76074 95.8935 3.76074C96.3448 3.76074 96.7267 3.89961 97.0044 4.17734C97.2821 4.45507 97.421 4.76751 97.421 5.14939C97.421 5.53127 97.2821 5.87843 97.0044 6.12144C96.7267 6.39917 96.3795 6.50332 95.8935 6.50332C95.4075 6.50332 95.0603 6.36445 94.7826 6.12144C94.5396 5.87843 94.4007 5.53127 94.4007 5.14939ZM102.663 10.7387V19.9732H100.059V8.23913H102.524L102.663 10.7387ZM102.212 13.6548H101.379C101.379 12.8217 101.518 12.0579 101.726 11.3636C101.969 10.6693 102.281 10.0791 102.698 9.55834C103.114 9.07232 103.6 8.69044 104.156 8.41271C104.711 8.13498 105.371 7.99611 106.065 7.99611C106.621 7.99611 107.142 8.06555 107.593 8.23913C108.044 8.37799 108.461 8.65572 108.773 9.00288C109.12 9.35004 109.363 9.80135 109.537 10.3568C109.711 10.9123 109.815 11.5719 109.815 12.3703V19.9732H107.176V12.3703C107.176 11.8149 107.107 11.3636 106.933 11.0511C106.76 10.704 106.551 10.4957 106.239 10.3568C105.926 10.2179 105.545 10.1485 105.093 10.1485C104.642 10.1485 104.26 10.2527 103.878 10.4262C103.496 10.5998 103.219 10.8776 102.976 11.19C102.733 11.5024 102.559 11.8843 102.42 12.3009C102.281 12.7175 102.212 13.1688 102.212 13.6548ZM119.049 17.6125V12.0232C119.049 11.6066 118.98 11.2594 118.806 10.947C118.667 10.6345 118.424 10.3915 118.112 10.2527C117.799 10.0791 117.418 10.0097 116.966 10.0097C116.55 10.0097 116.168 10.0791 115.855 10.2179C115.543 10.3568 115.3 10.5651 115.126 10.8081C114.953 11.0511 114.849 11.3289 114.849 11.6413H112.245C112.245 11.19 112.349 10.7387 112.592 10.2874C112.8 9.87079 113.147 9.45419 113.564 9.14175C113.981 8.79459 114.501 8.51686 115.092 8.34328C115.682 8.13498 116.341 8.06555 117.105 8.06555C117.973 8.06555 118.771 8.20441 119.466 8.51686C120.16 8.8293 120.681 9.2459 121.097 9.87079C121.479 10.461 121.688 11.2247 121.688 12.0926V17.3C121.688 17.8208 121.722 18.3068 121.792 18.7581C121.861 19.1747 122 19.5566 122.139 19.869V19.9732H119.466C119.327 19.6955 119.257 19.3483 119.188 18.897C119.084 18.4457 119.049 18.0291 119.049 17.6125ZM119.431 12.8217L119.466 14.4533H117.591C117.105 14.4533 116.688 14.488 116.307 14.5922C115.925 14.6616 115.647 14.8005 115.369 14.9741C115.092 15.1476 114.953 15.3559 114.814 15.599C114.675 15.842 114.64 16.1197 114.64 16.4321C114.64 16.7446 114.71 17.0223 114.849 17.3C114.987 17.5431 115.196 17.7514 115.473 17.8902C115.751 18.0291 116.098 18.0985 116.48 18.0985C117.001 18.0985 117.487 17.9944 117.869 17.7861C118.285 17.5778 118.598 17.3 118.841 16.9876C119.084 16.6752 119.188 16.3627 119.223 16.0503L120.056 17.1959C119.987 17.5083 119.813 17.8208 119.605 18.1679C119.396 18.5151 119.119 18.8276 118.771 19.14C118.424 19.4524 118.042 19.6955 117.556 19.9038C117.105 20.1121 116.55 20.1815 115.959 20.1815C115.196 20.1815 114.501 20.0426 113.911 19.7302C113.321 19.4177 112.835 19.0011 112.488 18.4804C112.141 17.9597 111.967 17.3695 111.967 16.6752C111.967 16.0503 112.071 15.4948 112.314 15.0088C112.557 14.5228 112.904 14.1062 113.356 13.7937C113.807 13.4813 114.397 13.2383 115.057 13.0647C115.716 12.8911 116.48 12.7869 117.348 12.7869H119.431V12.8217ZM127.034 10.7387V19.9732H124.43V8.23913H126.895L127.034 10.7387ZM126.548 13.6548H125.715C125.715 12.8217 125.854 12.0579 126.062 11.3636C126.305 10.6693 126.617 10.0791 127.034 9.55834C127.45 9.07232 127.937 8.69044 128.492 8.41271C129.047 8.13498 129.707 7.99611 130.401 7.99611C130.957 7.99611 131.478 8.06555 131.929 8.23913C132.38 8.37799 132.797 8.65572 133.109 9.00288C133.456 9.35004 133.699 9.80135 133.873 10.3568C134.047 10.9123 134.151 11.5719 134.151 12.3703V19.9732H131.512V12.3703C131.512 11.8149 131.443 11.3636 131.269 11.0511C131.096 10.704 130.887 10.4957 130.575 10.3568C130.262 10.2179 129.881 10.1485 129.429 10.1485C128.978 10.1485 128.596 10.2527 128.214 10.4262C127.832 10.5998 127.555 10.8776 127.312 11.19C127.069 11.5024 126.895 11.8843 126.756 12.3009C126.617 12.7175 126.548 13.1688 126.548 13.6548ZM141.58 18.0985C141.997 18.0985 142.378 18.0291 142.726 17.8555C143.073 17.6819 143.35 17.4389 143.559 17.1265C143.767 16.814 143.906 16.4669 143.906 16.085H146.371C146.371 16.8487 146.128 17.5431 145.711 18.1679C145.295 18.7928 144.704 19.2789 143.975 19.6607C143.246 20.0079 142.483 20.2162 141.615 20.2162C140.712 20.2162 139.948 20.0773 139.254 19.7649C138.594 19.4524 138.039 19.0359 137.588 18.4804C137.136 17.9249 136.824 17.3 136.581 16.6057C136.373 15.9114 136.268 15.1476 136.268 14.3145V13.9326C136.268 13.1341 136.373 12.3704 136.581 11.6413C136.789 10.9123 137.136 10.2874 137.588 9.76664C138.039 9.2459 138.594 8.79459 139.254 8.48214C139.914 8.16969 140.712 8.03083 141.58 8.03083C142.517 8.03083 143.35 8.20441 144.045 8.58629C144.739 8.96817 145.295 9.48891 145.711 10.1485C146.128 10.8081 146.336 11.5719 146.336 12.4398H143.871C143.837 12.0232 143.732 11.6066 143.559 11.2594C143.385 10.9123 143.107 10.6345 142.76 10.4262C142.413 10.2179 141.997 10.1138 141.545 10.1138C141.024 10.1138 140.573 10.2179 140.226 10.4262C139.879 10.6345 139.601 10.9123 139.428 11.2941C139.219 11.6413 139.08 12.0579 139.011 12.5092C138.942 12.9605 138.907 13.4118 138.907 13.8979V14.2797C138.907 14.7658 138.942 15.2518 139.011 15.7031C139.08 16.1544 139.219 16.571 139.428 16.9182C139.636 17.2653 139.914 17.5431 140.261 17.7861C140.608 17.9944 141.059 18.0985 141.58 18.0985ZM153.557 20.1815C152.689 20.1815 151.891 20.0426 151.196 19.7649C150.502 19.4872 149.912 19.0706 149.426 18.5498C148.94 18.0291 148.558 17.4389 148.315 16.7446C148.072 16.0503 147.933 15.2865 147.933 14.488V14.0714C147.933 13.1688 148.072 12.3356 148.35 11.5719C148.627 10.8081 148.975 10.1832 149.461 9.66249C149.947 9.14175 150.502 8.72515 151.162 8.44742C151.821 8.16969 152.516 8.03083 153.279 8.03083C154.112 8.03083 154.842 8.16969 155.466 8.44742C156.091 8.72515 156.612 9.14175 157.029 9.62777C157.445 10.1485 157.758 10.7387 157.966 11.433C158.174 12.1273 158.278 12.8911 158.278 13.759V14.8699H149.218V12.9952H155.709V12.7869C155.709 12.3009 155.605 11.8843 155.432 11.4677C155.258 11.0511 155.015 10.7387 154.668 10.461C154.321 10.2179 153.869 10.0791 153.279 10.0791C152.863 10.0791 152.446 10.1832 152.134 10.3568C151.787 10.5304 151.509 10.8081 151.3 11.1553C151.092 11.5024 150.919 11.919 150.78 12.4051C150.676 12.8911 150.606 13.4466 150.606 14.0367V14.4533C150.606 14.9741 150.676 15.4601 150.814 15.8767C150.953 16.2933 151.162 16.6752 151.439 17.0223C151.717 17.3348 152.064 17.6125 152.446 17.7861C152.828 17.9597 153.279 18.0638 153.765 18.0638C154.39 18.0638 154.946 17.9249 155.432 17.6819C155.918 17.4389 156.334 17.057 156.716 16.6057L158.105 17.9249C157.862 18.3068 157.515 18.654 157.133 19.0011C156.716 19.3483 156.23 19.5913 155.64 19.7996C155.015 20.0773 154.355 20.1815 153.557 20.1815Z" fill="url(#paint2_linear_6924_52036)"/>
  <defs>
  <linearGradient id="paint0_linear_6924_52036" x1="6.64031" y1="9.35059" x2="6.64031" y2="20.5639" gradientUnits="userSpaceOnUse">
  <stop stop-color="#1D65DC"/>
  <stop offset="1" stop-color="#0A4BB3"/>
  </linearGradient>
  <linearGradient id="paint1_linear_6924_52036" x1="6.70974" y1="0.636719" x2="6.70974" y2="8.13541" gradientUnits="userSpaceOnUse">
  <stop stop-color="#1D65DC"/>
  <stop offset="1" stop-color="#0A4BB3"/>
  </linearGradient>
  <linearGradient id="paint2_linear_6924_52036" x1="89.1586" y1="3.76074" x2="89.1586" y2="20.2162" gradientUnits="userSpaceOnUse">
  <stop stop-color="#1D65DC"/>
  <stop offset="1" stop-color="#0A4BB3"/>
  </linearGradient>
  </defs>
  </svg>
  