<svg width="42" height="28" viewBox="0 0 42 28" fill="none" xmlns="http://www.w3.org/2000/svg">
    <path d="M15.7693 18.4676C15.0108 19.1101 14.2233 19.4915 13.2203 19.7112C12.7893 19.819 12.3417 19.877 11.8899 19.877C8.81881 19.877 6.10825 17.4561 5.85129 14.4881C5.61505 12.8589 6.14141 11.1552 7.29775 9.81623C8.13495 8.85036 9.20425 8.18296 10.3523 7.88034V10.0152L18.0778 5.0076L10.3564 0V1.99392C6.14141 2.52453 2.61438 5.19829 0.939972 9.24003C-0.937519 13.7709 0.0406004 18.7329 3.48888 22.186C5.73524 24.4328 8.71934 25.6681 11.8941 25.6681C14.9279 25.6681 18.9606 24.2545 20.8049 21.5518C22.1933 19.5122 25.0614 13.7709 26.0312 11.7977L15.7693 18.4676Z" fill="url(#paint0_linear_4065_50483)"/>
    <path d="M37.8558 5.37273C35.6094 3.12594 32.6254 1.89062 29.4506 1.89062C26.4168 1.89062 22.3841 3.3042 20.5398 6.00283C19.1472 8.04235 16.2833 13.7878 15.3135 15.7569L25.5713 9.09113C26.3298 8.4486 27.1214 8.06722 28.1202 7.84752C28.5512 7.73974 28.9989 7.6817 29.4465 7.6817C32.5176 7.6817 35.2282 10.1026 35.4851 13.0707C35.7214 14.704 35.195 16.4036 34.0387 17.7425C33.2015 18.7084 32.1322 19.3758 30.9841 19.6784V17.5435L23.2628 22.5511L30.9883 27.5587V25.5648C35.1991 25.0342 38.7303 22.3646 40.4047 18.3187C42.2781 13.7878 41.3041 8.82583 37.8558 5.37273Z" fill="url(#paint1_linear_4065_50483)"/>
    <defs>
        <linearGradient id="paint0_linear_4065_50483" x1="13.0156" y1="0" x2="13.0156" y2="25.6681" gradientUnits="userSpaceOnUse">
            <stop stop-color="#1D65DC"/>
            <stop offset="1" stop-color="#0A4BB3"/>
        </linearGradient>
        <linearGradient id="paint1_linear_4065_50483" x1="28.3282" y1="1.89062" x2="28.3282" y2="27.5587" gradientUnits="userSpaceOnUse">
            <stop stop-color="#1D65DC"/>
            <stop offset="1" stop-color="#0A4BB3"/>
        </linearGradient>
    </defs>
</svg>