<svg xmlns="http://www.w3.org/2000/svg" width="236" height="48" viewBox="0 0 236 48" fill="none">
    <path d="M15.7693 29.4676C15.0108 30.1101 14.2233 30.4915 13.2203 30.7112C12.7893 30.819 12.3417 30.877 11.8899 30.877C8.81881 30.877 6.10825 28.4561 5.85129 25.4881C5.61505 23.8589 6.14141 22.1552 7.29775 20.8162C8.13495 19.8504 9.20425 19.183 10.3523 18.8803V21.0152L18.0778 16.0076L10.3564 11V12.9939C6.14141 13.5245 2.61438 16.1983 0.939972 20.24C-0.937519 24.7709 0.0406004 29.7329 3.48888 33.186C5.73524 35.4328 8.71934 36.6681 11.8941 36.6681C14.9279 36.6681 18.9606 35.2545 20.8049 32.5518C22.1933 30.5122 25.0614 24.7709 26.0312 22.7977L15.7693 29.4676Z" fill="url(#paint0_linear_4065_50482)"/>
    <path d="M37.8558 16.3727C35.6094 14.1259 32.6254 12.8906 29.4506 12.8906C26.4168 12.8906 22.3841 14.3042 20.5398 17.0028C19.1472 19.0424 16.2833 24.7878 15.3135 26.7569L25.5713 20.0911C26.3298 19.4486 27.1214 19.0672 28.1202 18.8475C28.5512 18.7397 28.9989 18.6817 29.4465 18.6817C32.5176 18.6817 35.2282 21.1026 35.4851 24.0707C35.7214 25.704 35.195 27.4036 34.0387 28.7425C33.2015 29.7084 32.1322 30.3758 30.9841 30.6784V28.5435L23.2628 33.5511L30.9883 38.5587V36.5648C35.1991 36.0342 38.7303 33.3646 40.4047 29.3187C42.2781 24.7878 41.3041 19.8258 37.8558 16.3727Z" fill="url(#paint1_linear_4065_50482)"/>
    <path d="M63.9704 14.7948V35.1905H62.0679V14.7948H63.9704ZM92.366 14.7948V32H89.4237V14.7948H92.366ZM97.7663 14.7948V17.1582H84.0707V14.7948H97.7663ZM104.254 32.2363C103.308 32.2363 102.454 32.0827 101.689 31.7755C100.933 31.4604 100.287 31.0232 99.7515 30.4638C99.2237 29.9045 98.818 29.2467 98.5344 28.4904C98.2508 27.7342 98.109 26.9188 98.109 26.0444V25.5717C98.109 24.5712 98.2547 23.6653 98.5462 22.8538C98.8377 22.0424 99.2434 21.3492 99.7633 20.7741C100.283 20.1911 100.898 19.746 101.607 19.4388C102.316 19.1316 103.084 18.978 103.911 18.978C104.825 18.978 105.624 19.1316 106.31 19.4388C106.995 19.746 107.562 20.1793 108.011 20.7387C108.468 21.2901 108.807 21.9479 109.028 22.712C109.256 23.4762 109.37 24.3191 109.37 25.2408V26.458H99.4915V24.4137H106.558V24.1891C106.542 23.6771 106.44 23.1965 106.251 22.7475C106.069 22.2985 105.79 21.9361 105.412 21.6604C105.034 21.3846 104.529 21.2468 103.899 21.2468C103.426 21.2468 103.005 21.3492 102.635 21.554C102.272 21.751 101.969 22.0385 101.725 22.4166C101.481 22.7948 101.292 23.2517 101.158 23.7874C101.032 24.3152 100.969 24.91 100.969 25.5717V26.0444C100.969 26.6037 101.043 27.1236 101.193 27.6042C101.351 28.0768 101.579 28.4904 101.878 28.8449C102.178 29.1994 102.54 29.4791 102.966 29.6839C103.391 29.8809 103.876 29.9793 104.419 29.9793C105.104 29.9793 105.715 29.8415 106.251 29.5658C106.786 29.29 107.251 28.9001 107.645 28.3959L109.146 29.8494C108.87 30.2511 108.512 30.6371 108.07 31.0074C107.629 31.3698 107.09 31.6652 106.452 31.8936C105.821 32.1221 105.089 32.2363 104.254 32.2363ZM118.8 29.4358V23.3383C118.8 22.8814 118.717 22.4875 118.552 22.1567C118.386 21.8258 118.134 21.5698 117.796 21.3886C117.465 21.2074 117.047 21.1168 116.543 21.1168C116.078 21.1168 115.677 21.1956 115.338 21.3531C114.999 21.5107 114.735 21.7234 114.546 21.9912C114.357 22.2591 114.262 22.5624 114.262 22.9011H111.426C111.426 22.3969 111.549 21.9085 111.793 21.4358C112.037 20.9632 112.391 20.5417 112.856 20.1715C113.321 19.8012 113.876 19.5097 114.522 19.297C115.168 19.0843 115.893 18.978 116.697 18.978C117.658 18.978 118.509 19.1395 119.249 19.4624C119.997 19.7854 120.584 20.2739 121.01 20.9277C121.443 21.5737 121.66 22.3851 121.66 23.362V29.0458C121.66 29.6288 121.699 30.1527 121.778 30.6174C121.865 31.0744 121.987 31.4722 122.144 31.8109V32H119.225C119.092 31.6928 118.985 31.3028 118.906 30.8301C118.836 30.3496 118.8 29.8848 118.8 29.4358ZM119.214 24.2246L119.237 25.9853H117.193C116.665 25.9853 116.2 26.0365 115.799 26.1389C115.397 26.2334 115.062 26.3752 114.794 26.5643C114.526 26.7534 114.325 26.9818 114.192 27.2497C114.058 27.5175 113.991 27.8208 113.991 28.1596C113.991 28.4983 114.069 28.8095 114.227 29.0931C114.385 29.3688 114.613 29.5854 114.912 29.743C115.22 29.9006 115.59 29.9793 116.023 29.9793C116.606 29.9793 117.114 29.8612 117.547 29.6248C117.989 29.3806 118.335 29.0852 118.587 28.7386C118.839 28.3841 118.973 28.0493 118.989 27.7342L119.911 28.9986C119.816 29.3215 119.655 29.6682 119.426 30.0384C119.198 30.4087 118.899 30.7632 118.528 31.1019C118.166 31.4328 117.729 31.7046 117.217 31.9173C116.712 32.13 116.129 32.2363 115.468 32.2363C114.633 32.2363 113.888 32.0709 113.234 31.74C112.581 31.4013 112.068 30.9483 111.698 30.3811C111.328 29.806 111.143 29.1561 111.143 28.4313C111.143 27.7539 111.269 27.1551 111.521 26.6352C111.781 26.1074 112.159 25.6662 112.655 25.3117C113.16 24.9572 113.774 24.6894 114.499 24.5082C115.224 24.3191 116.051 24.2246 116.98 24.2246H119.214ZM127.485 21.814V32H124.638V19.2143H127.32L127.485 21.814ZM127.025 25.1345L126.056 25.1227C126.056 24.2403 126.166 23.425 126.386 22.6766C126.607 21.9282 126.93 21.2783 127.355 20.7268C127.781 20.1675 128.309 19.7382 128.939 19.4388C129.577 19.1316 130.313 18.978 131.149 18.978C131.732 18.978 132.263 19.0646 132.744 19.2379C133.232 19.4034 133.654 19.6673 134.008 20.0297C134.371 20.392 134.646 20.8568 134.835 21.424C135.032 21.9912 135.131 22.6766 135.131 23.4801V32H132.283V23.7283C132.283 23.1059 132.188 22.6175 131.999 22.263C131.818 21.9085 131.554 21.6564 131.208 21.5067C130.869 21.3492 130.463 21.2704 129.991 21.2704C129.455 21.2704 128.998 21.3728 128.62 21.5776C128.25 21.7825 127.946 22.0621 127.71 22.4166C127.474 22.7711 127.3 23.1808 127.19 23.6456C127.08 24.1104 127.025 24.6067 127.025 25.1345ZM134.954 24.3782L133.618 24.6736C133.618 23.9016 133.725 23.1729 133.937 22.4875C134.158 21.7943 134.477 21.1877 134.894 20.6678C135.32 20.1399 135.844 19.7264 136.466 19.427C137.088 19.1276 137.801 18.978 138.605 18.978C139.259 18.978 139.842 19.0686 140.354 19.2497C140.874 19.4231 141.315 19.6988 141.677 20.0769C142.04 20.4551 142.315 20.9474 142.504 21.554C142.693 22.1527 142.788 22.8775 142.788 23.7283V32H139.928V23.7165C139.928 23.0705 139.834 22.5702 139.645 22.2157C139.464 21.8612 139.204 21.617 138.865 21.4831C138.526 21.3413 138.12 21.2704 137.648 21.2704C137.207 21.2704 136.817 21.3531 136.478 21.5186C136.147 21.6761 135.867 21.9006 135.639 22.1921C135.41 22.4757 135.237 22.8026 135.119 23.1729C135.009 23.5432 134.954 23.9449 134.954 24.3782ZM154.995 14.7948V32H152.029V14.7948H154.995ZM162.014 22.3221V24.6736H154.238V22.3221H162.014ZM162.995 14.7948V17.1582H154.238V14.7948H162.995ZM168.123 19.2143V32H165.263V19.2143H168.123ZM165.074 15.8583C165.074 15.4251 165.216 15.0666 165.5 14.783C165.791 14.4915 166.193 14.3458 166.705 14.3458C167.209 14.3458 167.607 14.4915 167.899 14.783C168.19 15.0666 168.336 15.4251 168.336 15.8583C168.336 16.2837 168.19 16.6382 167.899 16.9219C167.607 17.2055 167.209 17.3473 166.705 17.3473C166.193 17.3473 165.791 17.2055 165.5 16.9219C165.216 16.6382 165.074 16.2837 165.074 15.8583ZM174.067 21.944V32H171.219V19.2143H173.901L174.067 21.944ZM173.559 25.1345L172.637 25.1227C172.645 24.2167 172.771 23.3856 173.015 22.6293C173.267 21.8731 173.614 21.2231 174.055 20.6796C174.504 20.136 175.04 19.7185 175.662 19.427C176.285 19.1276 176.978 18.978 177.742 18.978C178.356 18.978 178.912 19.0646 179.408 19.2379C179.912 19.4034 180.342 19.6751 180.696 20.0533C181.058 20.4314 181.334 20.9238 181.523 21.5304C181.712 22.1291 181.807 22.8657 181.807 23.7401V32H178.947V23.7283C178.947 23.1138 178.857 22.6293 178.675 22.2748C178.502 21.9125 178.246 21.6564 177.907 21.5067C177.576 21.3492 177.163 21.2704 176.667 21.2704C176.178 21.2704 175.741 21.3728 175.355 21.5776C174.969 21.7825 174.642 22.0621 174.374 22.4166C174.114 22.7711 173.913 23.1808 173.771 23.6456C173.63 24.1104 173.559 24.6067 173.559 25.1345ZM191.922 29.4358V23.3383C191.922 22.8814 191.839 22.4875 191.674 22.1567C191.508 21.8258 191.256 21.5698 190.918 21.3886C190.587 21.2074 190.169 21.1168 189.665 21.1168C189.2 21.1168 188.798 21.1956 188.46 21.3531C188.121 21.5107 187.857 21.7234 187.668 21.9912C187.479 22.2591 187.384 22.5624 187.384 22.9011H184.548C184.548 22.3969 184.67 21.9085 184.915 21.4358C185.159 20.9632 185.513 20.5417 185.978 20.1715C186.443 19.8012 186.998 19.5097 187.644 19.297C188.29 19.0843 189.015 18.978 189.819 18.978C190.78 18.978 191.631 19.1395 192.371 19.4624C193.119 19.7854 193.706 20.2739 194.132 20.9277C194.565 21.5737 194.782 22.3851 194.782 23.362V29.0458C194.782 29.6288 194.821 30.1527 194.9 30.6174C194.986 31.0744 195.109 31.4722 195.266 31.8109V32H192.347C192.213 31.6928 192.107 31.3028 192.028 30.8301C191.957 30.3496 191.922 29.8848 191.922 29.4358ZM192.336 24.2246L192.359 25.9853H190.315C189.787 25.9853 189.322 26.0365 188.921 26.1389C188.519 26.2334 188.184 26.3752 187.916 26.5643C187.648 26.7534 187.447 26.9818 187.313 27.2497C187.18 27.5175 187.113 27.8208 187.113 28.1596C187.113 28.4983 187.191 28.8095 187.349 29.0931C187.506 29.3688 187.735 29.5854 188.034 29.743C188.342 29.9006 188.712 29.9793 189.145 29.9793C189.728 29.9793 190.236 29.8612 190.669 29.6248C191.111 29.3806 191.457 29.0852 191.709 28.7386C191.961 28.3841 192.095 28.0493 192.111 27.7342L193.033 28.9986C192.938 29.3215 192.777 29.6682 192.548 30.0384C192.32 30.4087 192.02 30.7632 191.65 31.1019C191.288 31.4328 190.851 31.7046 190.339 31.9173C189.834 32.13 189.251 32.2363 188.59 32.2363C187.755 32.2363 187.01 32.0709 186.356 31.74C185.702 31.4013 185.19 30.9483 184.82 30.3811C184.45 29.806 184.265 29.1561 184.265 28.4313C184.265 27.7539 184.391 27.1551 184.643 26.6352C184.903 26.1074 185.281 25.6662 185.777 25.3117C186.281 24.9572 186.896 24.6894 187.621 24.5082C188.345 24.3191 189.173 24.2246 190.102 24.2246H192.336ZM200.584 21.944V32H197.736V19.2143H200.418L200.584 21.944ZM200.076 25.1345L199.154 25.1227C199.162 24.2167 199.288 23.3856 199.532 22.6293C199.784 21.8731 200.131 21.2231 200.572 20.6796C201.021 20.136 201.557 19.7185 202.179 19.427C202.801 19.1276 203.495 18.978 204.259 18.978C204.873 18.978 205.429 19.0646 205.925 19.2379C206.429 19.4034 206.858 19.6751 207.213 20.0533C207.575 20.4314 207.851 20.9238 208.04 21.5304C208.229 22.1291 208.324 22.8657 208.324 23.7401V32H205.464V23.7283C205.464 23.1138 205.373 22.6293 205.192 22.2748C205.019 21.9125 204.763 21.6564 204.424 21.5067C204.093 21.3492 203.68 21.2704 203.183 21.2704C202.695 21.2704 202.258 21.3728 201.872 21.5776C201.486 21.7825 201.159 22.0621 200.891 22.4166C200.631 22.7711 200.43 23.1808 200.288 23.6456C200.146 24.1104 200.076 24.6067 200.076 25.1345ZM216.454 29.9675C216.918 29.9675 217.336 29.8769 217.706 29.6957C218.084 29.5067 218.388 29.2467 218.616 28.9158C218.852 28.585 218.982 28.2029 219.006 27.7696H221.688C221.673 28.5968 221.428 29.3491 220.956 30.0266C220.483 30.7041 219.857 31.2437 219.077 31.6455C218.297 32.0394 217.434 32.2363 216.489 32.2363C215.512 32.2363 214.661 32.0709 213.937 31.74C213.212 31.4013 212.609 30.9365 212.129 30.3457C211.648 29.7548 211.286 29.0734 211.041 28.3014C210.805 27.5293 210.687 26.7022 210.687 25.8198V25.4063C210.687 24.5239 210.805 23.6968 211.041 22.9248C211.286 22.1448 211.648 21.4595 212.129 20.8686C212.609 20.2778 213.212 19.8169 213.937 19.4861C214.661 19.1473 215.508 18.978 216.477 18.978C217.501 18.978 218.399 19.1828 219.171 19.5924C219.943 19.9942 220.55 20.5575 220.991 21.2822C221.44 21.9991 221.673 22.8342 221.688 23.7874H219.006C218.982 23.3147 218.864 22.8893 218.651 22.5112C218.447 22.1252 218.155 21.8179 217.777 21.5895C217.407 21.361 216.962 21.2468 216.442 21.2468C215.867 21.2468 215.39 21.3649 215.012 21.6013C214.634 21.8297 214.338 22.1448 214.126 22.5466C213.913 22.9405 213.759 23.3856 213.665 23.8819C213.578 24.3703 213.535 24.8784 213.535 25.4063V25.8198C213.535 26.3477 213.578 26.8597 213.665 27.356C213.751 27.8523 213.901 28.2974 214.114 28.6913C214.334 29.0773 214.634 29.3885 215.012 29.6248C215.39 29.8533 215.871 29.9675 216.454 29.9675ZM229.511 32.2363C228.566 32.2363 227.711 32.0827 226.947 31.7755C226.191 31.4604 225.545 31.0232 225.009 30.4638C224.481 29.9045 224.075 29.2467 223.792 28.4904C223.508 27.7342 223.366 26.9188 223.366 26.0444V25.5717C223.366 24.5712 223.512 23.6653 223.804 22.8538C224.095 22.0424 224.501 21.3492 225.021 20.7741C225.541 20.1911 226.155 19.746 226.864 19.4388C227.573 19.1316 228.341 18.978 229.168 18.978C230.082 18.978 230.882 19.1316 231.567 19.4388C232.253 19.746 232.82 20.1793 233.269 20.7387C233.726 21.2901 234.064 21.9479 234.285 22.712C234.513 23.4762 234.628 24.3191 234.628 25.2408V26.458H224.749V24.4137H231.815V24.1891C231.8 23.6771 231.697 23.1965 231.508 22.7475C231.327 22.2985 231.047 21.9361 230.669 21.6604C230.291 21.3846 229.787 21.2468 229.157 21.2468C228.684 21.2468 228.262 21.3492 227.892 21.554C227.53 21.751 227.226 22.0385 226.982 22.4166C226.738 22.7948 226.549 23.2517 226.415 23.7874C226.289 24.3152 226.226 24.91 226.226 25.5717V26.0444C226.226 26.6037 226.301 27.1236 226.45 27.6042C226.608 28.0768 226.836 28.4904 227.136 28.8449C227.435 29.1994 227.798 29.4791 228.223 29.6839C228.648 29.8809 229.133 29.9793 229.676 29.9793C230.362 29.9793 230.972 29.8415 231.508 29.5658C232.044 29.29 232.509 28.9001 232.902 28.3959L234.403 29.8494C234.127 30.2511 233.769 30.6371 233.328 31.0074C232.887 31.3698 232.347 31.6652 231.709 31.8936C231.079 32.1221 230.346 32.2363 229.511 32.2363Z" fill="black"/>
    <defs>
        <linearGradient id="paint0_linear_4065_50482" x1="13.0156" y1="11" x2="13.0156" y2="36.6681" gradientUnits="userSpaceOnUse">
            <stop stop-color="#1D65DC"/>
            <stop offset="1" stop-color="#0A4BB3"/>
        </linearGradient>
        <linearGradient id="paint1_linear_4065_50482" x1="28.3282" y1="12.8906" x2="28.3282" y2="38.5587" gradientUnits="userSpaceOnUse">
            <stop stop-color="#1D65DC"/>
            <stop offset="1" stop-color="#0A4BB3"/>
        </linearGradient>
    </defs>
</svg>