<svg width="20" height="20" viewBox="0 0 20 20" fill="none" xmlns="http://www.w3.org/2000/svg">
<path d="M17.8551 9.24582L3.68843 2.57915C3.39676 2.44332 3.05259 2.48582 2.80426 2.68999C2.55509 2.89415 2.44759 3.22332 2.52509 3.53499L4.14093 9.99999L2.52509 16.465C2.44676 16.7767 2.55509 17.1067 2.80426 17.3108C2.95676 17.4358 3.14343 17.5 3.33343 17.5C3.45426 17.5 3.57509 17.4742 3.68843 17.4208L17.8551 10.7542C18.1468 10.6167 18.3334 10.3233 18.3334 9.99999C18.3334 9.67665 18.1468 9.38332 17.8551 9.24582ZM4.56759 15.1642L5.26676 12.3667L10.0001 9.99999L5.26676 7.63332L4.56759 4.83582L15.5426 9.99999L4.56759 15.1642Z" fill="white" fill-opacity="0.6"/>
</svg>
