<svg width="16" height="16" viewBox="0 0 16 16" fill="none" xmlns="http://www.w3.org/2000/svg">
<path d="M8.00016 1.33398C4.32016 1.33398 1.3335 4.32065 1.3335 8.00065C1.3335 11.6807 4.32016 14.6673 8.00016 14.6673C11.6802 14.6673 14.6668 11.6807 14.6668 8.00065C14.6668 4.32065 11.6802 1.33398 8.00016 1.33398ZM6.1935 10.8607L3.80016 8.46732C3.54016 8.20732 3.54016 7.78732 3.80016 7.52732C4.06016 7.26732 4.48016 7.26732 4.74016 7.52732L6.66683 9.44732L11.2535 4.86065C11.5135 4.60065 11.9335 4.60065 12.1935 4.86065C12.4535 5.12065 12.4535 5.54065 12.1935 5.80065L7.1335 10.8607C6.88016 11.1207 6.4535 11.1207 6.1935 10.8607Z" fill="#33C758"/>
</svg>
