<svg width="136" height="42" viewBox="0 0 136 42" fill="none" xmlns="http://www.w3.org/2000/svg">
<path fill-rule="evenodd" clip-rule="evenodd" d="M24.3172 4.12012C28.3215 4.85212 30.0258 7.15842 30.7472 8.86808C31.1004 9.71907 31.279 10.632 31.2726 11.5529V16.7847H26.7806V12.1671C26.7868 11.5711 26.6497 10.9823 26.3809 10.4499C25.1618 8.09346 23 8.29654 23 8.29654C23 8.29654 20.8382 8.09346 19.6191 10.4499C19.3503 10.9823 19.2132 11.5711 19.2194 12.1671V16.7847H14.7274V11.5529C14.721 10.632 14.8996 9.71907 15.2528 8.86808C15.9742 7.15842 17.6785 4.85212 21.6778 4.12012C22.5502 3.95996 23.4447 3.95996 24.3172 4.12012ZM12 27.3385V18.7902H34V27.3385C34.002 28.152 33.8998 28.9625 33.6958 29.7501C32.9543 32.5578 30.5286 38.188 23 37.9952C15.4715 38.188 13.0583 32.5578 12.3042 29.7501C12.1002 28.9625 11.998 28.152 12 27.3385ZM24.2568 26.5614H27.0219V24.3053H18.9781V26.5614H21.7432V31.7932H24.2568V26.5614Z" fill="white"/>
<path d="M48.7045 7.36364L51.733 16.5227H51.8523L54.875 7.36364H57.1932L53.0909 19H50.4886L46.392 7.36364H48.7045ZM61.5611 19.1705C60.6861 19.1705 59.9304 18.9886 59.294 18.625C58.6615 18.2576 58.1747 17.7386 57.8338 17.0682C57.4929 16.3939 57.3224 15.6004 57.3224 14.6875C57.3224 13.7898 57.4929 13.0019 57.8338 12.3239C58.1785 11.642 58.6596 11.1117 59.277 10.733C59.8944 10.3504 60.6198 10.1591 61.4531 10.1591C61.991 10.1591 62.4986 10.2462 62.9759 10.4205C63.4569 10.5909 63.8812 10.8561 64.2486 11.2159C64.6198 11.5758 64.9115 12.0341 65.1236 12.5909C65.3357 13.1439 65.4418 13.803 65.4418 14.5682V15.1989H58.2884V13.8125H63.4702C63.4664 13.4186 63.3812 13.0682 63.2145 12.7614C63.0478 12.4508 62.8149 12.2064 62.5156 12.0284C62.2202 11.8504 61.8755 11.7614 61.4815 11.7614C61.0611 11.7614 60.6918 11.8636 60.3736 12.0682C60.0554 12.2689 59.8073 12.5341 59.6293 12.8636C59.455 13.1894 59.366 13.5473 59.3622 13.9375V15.1477C59.3622 15.6553 59.455 16.0909 59.6406 16.4545C59.8262 16.8144 60.0857 17.0909 60.419 17.2841C60.7524 17.4735 61.1425 17.5682 61.5895 17.5682C61.8887 17.5682 62.1596 17.5265 62.402 17.4432C62.6444 17.3561 62.8546 17.2292 63.0327 17.0625C63.2107 16.8958 63.3452 16.6894 63.4361 16.4432L65.3565 16.6591C65.2353 17.1667 65.0043 17.6098 64.6634 17.9886C64.3262 18.3636 63.8944 18.6553 63.3679 18.8636C62.8414 19.0682 62.2391 19.1705 61.5611 19.1705ZM74.0795 12.5795L72.2045 12.7841C72.1515 12.5947 72.0587 12.4167 71.9261 12.25C71.7973 12.0833 71.6231 11.9489 71.4034 11.8466C71.1837 11.7443 70.9148 11.6932 70.5966 11.6932C70.1686 11.6932 69.8087 11.786 69.517 11.9716C69.2292 12.1572 69.0871 12.3977 69.0909 12.6932C69.0871 12.947 69.1799 13.1534 69.3693 13.3125C69.5625 13.4716 69.8807 13.6023 70.3239 13.7045L71.8125 14.0227C72.6383 14.2008 73.2519 14.483 73.6534 14.8693C74.0587 15.2557 74.2633 15.7614 74.267 16.3864C74.2633 16.9356 74.1023 17.4205 73.7841 17.8409C73.4697 18.2576 73.0322 18.5833 72.4716 18.8182C71.911 19.053 71.267 19.1705 70.5398 19.1705C69.4716 19.1705 68.6117 18.947 67.9602 18.5C67.3087 18.0492 66.9205 17.4223 66.7955 16.6193L68.8011 16.4261C68.892 16.8201 69.0852 17.1174 69.3807 17.3182C69.6761 17.5189 70.0606 17.6193 70.5341 17.6193C71.0227 17.6193 71.4148 17.5189 71.7102 17.3182C72.0095 17.1174 72.1591 16.8693 72.1591 16.5739C72.1591 16.3239 72.0625 16.1174 71.8693 15.9545C71.6799 15.7917 71.3845 15.6667 70.983 15.5795L69.4943 15.267C68.6572 15.0928 68.0379 14.7992 67.6364 14.3864C67.2348 13.9697 67.036 13.4432 67.0398 12.8068C67.036 12.2689 67.1818 11.803 67.4773 11.4091C67.7765 11.0114 68.1913 10.7045 68.7216 10.4886C69.2557 10.2689 69.8712 10.1591 70.5682 10.1591C71.5909 10.1591 72.3958 10.3769 72.983 10.8125C73.5739 11.2481 73.9394 11.8371 74.0795 12.5795ZM80.321 10.2727V11.8636H75.304V10.2727H80.321ZM76.5426 8.18182H78.5994V16.375C78.5994 16.6515 78.6411 16.8636 78.7244 17.0114C78.8116 17.1553 78.9252 17.2538 79.0653 17.3068C79.2055 17.3598 79.3608 17.3864 79.5312 17.3864C79.66 17.3864 79.7775 17.3769 79.8835 17.358C79.9934 17.339 80.0767 17.322 80.1335 17.3068L80.4801 18.9148C80.3703 18.9527 80.2131 18.9943 80.0085 19.0398C79.8078 19.0852 79.5616 19.1117 79.2699 19.1193C78.7547 19.1345 78.2907 19.0568 77.8778 18.8864C77.465 18.7121 77.1373 18.4432 76.8949 18.0795C76.6563 17.7159 76.5388 17.2614 76.5426 16.7159V8.18182ZM82.0412 19V10.2727H84.098V19H82.0412ZM83.0753 9.03409C82.7495 9.03409 82.4692 8.92614 82.2344 8.71023C81.9995 8.49053 81.8821 8.22727 81.8821 7.92045C81.8821 7.60985 81.9995 7.34659 82.2344 7.13068C82.4692 6.91098 82.7495 6.80114 83.0753 6.80114C83.4048 6.80114 83.6851 6.91098 83.9162 7.13068C84.151 7.34659 84.2685 7.60985 84.2685 7.92045C84.2685 8.22727 84.151 8.49053 83.9162 8.71023C83.6851 8.92614 83.4048 9.03409 83.0753 9.03409ZM88.2699 13.8864V19H86.2131V10.2727H88.179V11.7557H88.2812C88.482 11.267 88.8021 10.8788 89.2415 10.5909C89.6847 10.303 90.232 10.1591 90.8835 10.1591C91.4858 10.1591 92.0104 10.2879 92.4574 10.5455C92.9081 10.803 93.2566 11.1761 93.5028 11.6648C93.7528 12.1534 93.8759 12.7462 93.8722 13.4432V19H91.8153V13.7614C91.8153 13.178 91.6638 12.7216 91.3608 12.392C91.0616 12.0625 90.6468 11.8977 90.1165 11.8977C89.7566 11.8977 89.4366 11.9773 89.1562 12.1364C88.8797 12.2917 88.6619 12.517 88.5028 12.8125C88.3475 13.108 88.2699 13.4659 88.2699 13.8864ZM99.7585 22.4545C99.0199 22.4545 98.3854 22.3542 97.8551 22.1534C97.3248 21.9564 96.8987 21.6913 96.5767 21.358C96.2547 21.0246 96.0312 20.6553 95.9062 20.25L97.7585 19.8011C97.8419 19.9716 97.9631 20.1402 98.1222 20.3068C98.2813 20.4773 98.4953 20.6174 98.7642 20.7273C99.0369 20.8409 99.3797 20.8977 99.7926 20.8977C100.376 20.8977 100.859 20.7557 101.241 20.4716C101.624 20.1913 101.815 19.7292 101.815 19.0852V17.4318H101.713C101.607 17.6439 101.452 17.8617 101.247 18.0852C101.046 18.3087 100.779 18.4962 100.446 18.6477C100.116 18.7992 99.7017 18.875 99.2017 18.875C98.5312 18.875 97.9233 18.7178 97.3778 18.4034C96.8362 18.0852 96.4044 17.6117 96.0824 16.983C95.7642 16.3504 95.6051 15.5587 95.6051 14.608C95.6051 13.6496 95.7642 12.8409 96.0824 12.1818C96.4044 11.5189 96.8381 11.017 97.3835 10.6761C97.929 10.3314 98.5369 10.1591 99.2074 10.1591C99.7188 10.1591 100.139 10.2462 100.469 10.4205C100.802 10.5909 101.067 10.7973 101.264 11.0398C101.461 11.2784 101.611 11.5038 101.713 11.7159H101.827V10.2727H103.855V19.142C103.855 19.8883 103.677 20.5057 103.321 20.9943C102.965 21.483 102.478 21.8485 101.861 22.0909C101.243 22.3333 100.543 22.4545 99.7585 22.4545ZM99.7756 17.2614C100.211 17.2614 100.582 17.1553 100.889 16.9432C101.196 16.7311 101.429 16.4261 101.588 16.0284C101.747 15.6307 101.827 15.1534 101.827 14.5966C101.827 14.0473 101.747 13.5663 101.588 13.1534C101.433 12.7405 101.202 12.4205 100.895 12.1932C100.592 11.9621 100.219 11.8466 99.7756 11.8466C99.3172 11.8466 98.9347 11.9659 98.6278 12.2045C98.321 12.4432 98.09 12.7708 97.9347 13.1875C97.7794 13.6004 97.7017 14.0701 97.7017 14.5966C97.7017 15.1307 97.7794 15.5985 97.9347 16C98.0938 16.3977 98.3267 16.7083 98.6335 16.9318C98.9441 17.1515 99.3248 17.2614 99.7756 17.2614Z" fill="white"/>
<path d="M47.0568 35V26.2727H48.0625V29.4943H48.1477C48.2216 29.3807 48.3239 29.2358 48.4545 29.0597C48.5881 28.8807 48.7784 28.7216 49.0256 28.5824C49.2756 28.4403 49.6136 28.3693 50.0398 28.3693C50.5909 28.3693 51.0767 28.5071 51.4972 28.7827C51.9176 29.0582 52.2457 29.4489 52.4815 29.9545C52.7173 30.4602 52.8352 31.0568 52.8352 31.7443C52.8352 32.4375 52.7173 33.0384 52.4815 33.5469C52.2457 34.0526 51.919 34.4446 51.5014 34.723C51.0838 34.9986 50.6023 35.1364 50.0568 35.1364C49.6364 35.1364 49.2997 35.0668 49.0469 34.9276C48.794 34.7855 48.5994 34.625 48.4631 34.446C48.3267 34.2642 48.2216 34.1136 48.1477 33.9943H48.0284V35H47.0568ZM48.0455 31.7273C48.0455 32.2216 48.1179 32.6577 48.2628 33.0355C48.4077 33.4105 48.6193 33.7045 48.8977 33.9176C49.1761 34.1278 49.517 34.233 49.9205 34.233C50.3409 34.233 50.6918 34.1222 50.973 33.9006C51.2571 33.6761 51.4702 33.375 51.6122 32.9972C51.7571 32.6165 51.8295 32.1932 51.8295 31.7273C51.8295 31.267 51.7585 30.8523 51.6165 30.483C51.4773 30.1108 51.2656 29.8168 50.9815 29.6009C50.7003 29.3821 50.3466 29.2727 49.9205 29.2727C49.5114 29.2727 49.1676 29.3764 48.8892 29.5838C48.6108 29.7884 48.4006 30.0753 48.2585 30.4446C48.1165 30.8111 48.0455 31.2386 48.0455 31.7273ZM54.7869 37.4545C54.6165 37.4545 54.4645 37.4403 54.331 37.4119C54.1974 37.3864 54.1051 37.3608 54.054 37.3352L54.3097 36.4489C54.554 36.5114 54.7699 36.5341 54.9574 36.517C55.1449 36.5 55.3111 36.4162 55.456 36.2656C55.6037 36.1179 55.7386 35.8778 55.8608 35.5455L56.0483 35.0341L53.6278 28.4545H54.7188L56.5256 33.6705H56.5938L58.4006 28.4545H59.4915L56.7131 35.9545C56.5881 36.2926 56.4332 36.5724 56.2486 36.794C56.0639 37.0185 55.8494 37.1847 55.6051 37.2926C55.3636 37.4006 55.0909 37.4545 54.7869 37.4545ZM63.853 27.2102V26.2727H70.3984V27.2102H67.6541V35H66.5973V27.2102H63.853ZM71.2134 35V28.4545H72.185V29.4432H72.2532C72.3725 29.1193 72.5884 28.8565 72.9009 28.6548C73.2134 28.4531 73.5657 28.3523 73.9577 28.3523C74.0316 28.3523 74.1239 28.3537 74.2347 28.3565C74.3455 28.3594 74.4293 28.3636 74.4862 28.3693V29.392C74.4521 29.3835 74.3739 29.3707 74.2518 29.3537C74.1325 29.3338 74.006 29.3239 73.8725 29.3239C73.5543 29.3239 73.2702 29.3906 73.0202 29.5241C72.7731 29.6548 72.5771 29.8366 72.4322 30.0696C72.2901 30.2997 72.2191 30.5625 72.2191 30.858V35H71.2134ZM79.8033 32.3239V28.4545H80.8089V35H79.8033V33.892H79.7351C79.5817 34.2244 79.343 34.5071 79.0192 34.7401C78.6953 34.9702 78.2862 35.0852 77.7919 35.0852C77.3828 35.0852 77.0192 34.9957 76.701 34.8168C76.3828 34.6349 76.1328 34.3622 75.951 33.9986C75.7692 33.6321 75.6783 33.1705 75.6783 32.6136V28.4545H76.6839V32.5455C76.6839 33.0227 76.8175 33.4034 77.0845 33.6875C77.3544 33.9716 77.6982 34.1136 78.1158 34.1136C78.3658 34.1136 78.62 34.0497 78.8786 33.9219C79.1399 33.794 79.3587 33.598 79.5348 33.3338C79.7138 33.0696 79.8033 32.733 79.8033 32.3239ZM87.2873 29.9205L86.3839 30.1761C86.3271 30.0256 86.2433 29.8793 86.1325 29.7372C86.0245 29.5923 85.8768 29.473 85.6893 29.3793C85.5018 29.2855 85.2617 29.2386 84.9691 29.2386C84.5685 29.2386 84.2347 29.331 83.9677 29.5156C83.7035 29.6974 83.5714 29.929 83.5714 30.2102C83.5714 30.4602 83.6623 30.6577 83.8441 30.8026C84.0259 30.9474 84.31 31.0682 84.6964 31.1648L85.668 31.4034C86.2532 31.5455 86.6893 31.7628 86.9762 32.0554C87.2631 32.3452 87.4066 32.7187 87.4066 33.1761C87.4066 33.5511 87.2987 33.8864 87.0827 34.1818C86.8697 34.4773 86.5714 34.7102 86.1879 34.8807C85.8043 35.0511 85.3583 35.1364 84.8498 35.1364C84.1822 35.1364 83.6296 34.9915 83.1921 34.7017C82.7546 34.4119 82.4776 33.9886 82.3612 33.4318L83.3157 33.1932C83.4066 33.5455 83.5785 33.8097 83.8313 33.9858C84.087 34.1619 84.4208 34.25 84.8327 34.25C85.3015 34.25 85.6737 34.1506 85.9492 33.9517C86.2276 33.75 86.3668 33.5085 86.3668 33.2273C86.3668 33 86.2873 32.8097 86.1282 32.6562C85.9691 32.5 85.7248 32.3835 85.3952 32.3068L84.3043 32.0511C83.7049 31.9091 83.2646 31.6889 82.9833 31.3906C82.7049 31.0895 82.5657 30.7131 82.5657 30.2614C82.5657 29.892 82.6694 29.5653 82.8768 29.2812C83.087 28.9972 83.3725 28.7741 83.7333 28.6122C84.0969 28.4503 84.5089 28.3693 84.9691 28.3693C85.6168 28.3693 86.1254 28.5114 86.4947 28.7955C86.8668 29.0795 87.131 29.4545 87.2873 29.9205ZM91.767 28.4545V29.3068H88.375V28.4545H91.767ZM89.3636 26.8864H90.3693V33.125C90.3693 33.4091 90.4105 33.6222 90.4929 33.7642C90.5781 33.9034 90.6861 33.9972 90.8168 34.0455C90.9503 34.0909 91.0909 34.1136 91.2386 34.1136C91.3494 34.1136 91.4403 34.108 91.5114 34.0966C91.5824 34.0824 91.6392 34.071 91.6818 34.0625L91.8864 34.9659C91.8182 34.9915 91.723 35.017 91.6009 35.0426C91.4787 35.071 91.3239 35.0852 91.1364 35.0852C90.8523 35.0852 90.5739 35.0241 90.3011 34.902C90.0313 34.7798 89.8068 34.5938 89.6278 34.3438C89.4517 34.0938 89.3636 33.7784 89.3636 33.3977V26.8864ZM98.1889 28.4545C98.1378 28.0227 97.9304 27.6875 97.5668 27.4489C97.2031 27.2102 96.7571 27.0909 96.2287 27.0909C95.8423 27.0909 95.5043 27.1534 95.2145 27.2784C94.9276 27.4034 94.7031 27.5753 94.5412 27.794C94.3821 28.0128 94.3026 28.2614 94.3026 28.5398C94.3026 28.7727 94.358 28.973 94.4688 29.1406C94.5824 29.3054 94.7273 29.4432 94.9034 29.554C95.0795 29.6619 95.2642 29.7514 95.4574 29.8224C95.6506 29.8906 95.8281 29.946 95.9901 29.9886L96.8764 30.2273C97.1037 30.2869 97.3565 30.3693 97.6349 30.4744C97.9162 30.5795 98.1847 30.723 98.4403 30.9048C98.6989 31.0838 98.9119 31.3139 99.0795 31.5952C99.2472 31.8764 99.331 32.2216 99.331 32.6307C99.331 33.1023 99.2074 33.5284 98.9602 33.9091C98.7159 34.2898 98.358 34.5923 97.8864 34.8168C97.4176 35.0412 96.848 35.1534 96.1776 35.1534C95.5526 35.1534 95.0114 35.0526 94.554 34.8509C94.0994 34.6491 93.7415 34.3679 93.4801 34.0071C93.2216 33.6463 93.0753 33.2273 93.0412 32.75H94.1321C94.1605 33.0795 94.2713 33.3523 94.4645 33.5682C94.6605 33.7812 94.9077 33.9403 95.206 34.0455C95.5071 34.1477 95.831 34.1989 96.1776 34.1989C96.581 34.1989 96.9432 34.1335 97.2642 34.0028C97.5852 33.8693 97.8395 33.6847 98.027 33.4489C98.2145 33.2102 98.3082 32.9318 98.3082 32.6136C98.3082 32.3239 98.2273 32.0881 98.0653 31.9062C97.9034 31.7244 97.6903 31.5767 97.4261 31.4631C97.1619 31.3494 96.8764 31.25 96.5696 31.1648L95.4957 30.858C94.8139 30.6619 94.2741 30.3821 93.8764 30.0185C93.4787 29.6548 93.2798 29.179 93.2798 28.5909C93.2798 28.1023 93.4119 27.6761 93.6761 27.3125C93.9432 26.946 94.3011 26.6619 94.75 26.4602C95.2017 26.2557 95.706 26.1534 96.2628 26.1534C96.8253 26.1534 97.3253 26.2543 97.7628 26.456C98.2003 26.6548 98.5469 26.9276 98.8026 27.2741C99.0611 27.6207 99.1974 28.0142 99.2116 28.4545H98.1889ZM102.415 35L100.421 28.4545H101.478L102.892 33.4659H102.961L104.358 28.4545H105.432L106.813 33.4489H106.881L108.296 28.4545H109.353L107.358 35H106.37L104.938 29.9716H104.836L103.404 35H102.415ZM112.608 35.1534C112.194 35.1534 111.817 35.0753 111.479 34.919C111.141 34.7599 110.873 34.5312 110.674 34.233C110.475 33.9318 110.375 33.5682 110.375 33.142C110.375 32.767 110.449 32.4631 110.597 32.2301C110.745 31.9943 110.942 31.8097 111.189 31.6761C111.436 31.5426 111.709 31.4432 112.007 31.3778C112.309 31.3097 112.611 31.2557 112.915 31.2159C113.313 31.1648 113.635 31.1264 113.882 31.1009C114.132 31.0724 114.314 31.0256 114.428 30.9602C114.544 30.8949 114.603 30.7812 114.603 30.6193V30.5852C114.603 30.1648 114.488 29.8381 114.257 29.6051C114.03 29.3722 113.685 29.2557 113.222 29.2557C112.742 29.2557 112.365 29.3608 112.093 29.571C111.82 29.7812 111.628 30.0057 111.517 30.2443L110.563 29.9034C110.733 29.5057 110.961 29.196 111.245 28.9744C111.532 28.75 111.844 28.5937 112.182 28.5057C112.523 28.4148 112.858 28.3693 113.188 28.3693C113.398 28.3693 113.64 28.3949 113.912 28.446C114.188 28.4943 114.453 28.5952 114.709 28.7486C114.968 28.902 115.182 29.1335 115.353 29.4432C115.523 29.7528 115.608 30.1676 115.608 30.6875V35H114.603V34.1136H114.551C114.483 34.2557 114.37 34.4077 114.211 34.5696C114.051 34.7315 113.84 34.8693 113.576 34.983C113.311 35.0966 112.989 35.1534 112.608 35.1534ZM112.762 34.25C113.159 34.25 113.495 34.1719 113.767 34.0156C114.043 33.8594 114.25 33.6577 114.39 33.4105C114.532 33.1634 114.603 32.9034 114.603 32.6307V31.7102C114.56 31.7614 114.466 31.8082 114.321 31.8509C114.179 31.8906 114.015 31.9261 113.827 31.9574C113.642 31.9858 113.462 32.0114 113.286 32.0341C113.113 32.054 112.972 32.071 112.864 32.0852C112.603 32.1193 112.358 32.1747 112.131 32.2514C111.907 32.3253 111.725 32.4375 111.586 32.5881C111.449 32.7358 111.381 32.9375 111.381 33.1932C111.381 33.5426 111.51 33.8068 111.769 33.9858C112.03 34.1619 112.361 34.25 112.762 34.25ZM117.444 37.4545V28.4545H118.415V29.4943H118.535C118.609 29.3807 118.711 29.2358 118.842 29.0597C118.975 28.8807 119.165 28.7216 119.413 28.5824C119.663 28.4403 120.001 28.3693 120.427 28.3693C120.978 28.3693 121.464 28.5071 121.884 28.7827C122.305 29.0582 122.633 29.4489 122.869 29.9545C123.104 30.4602 123.222 31.0568 123.222 31.7443C123.222 32.4375 123.104 33.0384 122.869 33.5469C122.633 34.0526 122.306 34.4446 121.888 34.723C121.471 34.9986 120.989 35.1364 120.444 35.1364C120.023 35.1364 119.687 35.0668 119.434 34.9276C119.181 34.7855 118.987 34.625 118.85 34.446C118.714 34.2642 118.609 34.1136 118.535 33.9943H118.45V37.4545H117.444ZM118.433 31.7273C118.433 32.2216 118.505 32.6577 118.65 33.0355C118.795 33.4105 119.006 33.7045 119.285 33.9176C119.563 34.1278 119.904 34.233 120.308 34.233C120.728 34.233 121.079 34.1222 121.36 33.9006C121.644 33.6761 121.857 33.375 121.999 32.9972C122.144 32.6165 122.217 32.1932 122.217 31.7273C122.217 31.267 122.146 30.8523 122.004 30.483C121.864 30.1108 121.653 29.8168 121.369 29.6009C121.087 29.3821 120.734 29.2727 120.308 29.2727C119.898 29.2727 119.555 29.3764 119.276 29.5838C118.998 29.7884 118.788 30.0753 118.646 30.4446C118.504 30.8111 118.433 31.2386 118.433 31.7273Z" fill="#FAFCFF" fill-opacity="0.6"/>
</svg>
