<svg width="17" height="17" viewBox="0 0 17 17" fill="none" xmlns="http://www.w3.org/2000/svg">
<g clip-path="url(#clip0_2264_32869)">
<path d="M3.77008 10.522H5.13146V4.01653H3.77008C1.907 4.01653 0.900391 4.99635 0.900391 6.79248V7.74722C0.900391 9.53785 1.907 10.522 3.77008 10.522ZM6.09588 10.5286C8.01988 10.7459 10.0062 11.3246 11.9212 12.2684C11.9176 12.1906 11.9164 12.1061 11.9164 12.0282V2.51706C11.9164 2.43068 11.9176 2.35649 11.92 2.27131C10.0199 3.20974 7.8573 3.82541 6.09588 4.01653V10.5286ZM14.3029 13.8649C15.1488 13.8649 15.7424 13.2658 15.7424 12.4284V2.06505C15.7424 1.22224 15.1488 0.623047 14.3029 0.623047C13.4668 0.623047 12.8676 1.22224 12.8676 2.06505V12.4284C12.8676 13.2658 13.4668 13.8649 14.3029 13.8649ZM6.49552 15.1314C7.35965 15.1314 8.00393 14.4909 7.76679 13.438L7.38696 11.7102C6.78639 11.593 5.94534 11.5182 4.22825 11.4786C4.11133 11.4786 3.92423 11.4676 3.73044 11.4664L4.90124 13.9397C5.25655 14.6901 5.68016 15.1314 6.49552 15.1314Z" fill="#FAFCFF" fill-opacity="0.6"/>
</g>
<defs>
<clipPath id="clip0_2264_32869">
<rect width="16" height="16" fill="white" transform="translate(0.328125 0.0507812)"/>
</clipPath>
</defs>
</svg>
