<svg width="19" height="19" viewBox="0 0 19 19" fill="none" xmlns="http://www.w3.org/2000/svg">
<mask id="mask0_2264_32639" style="mask-type:alpha" maskUnits="userSpaceOnUse" x="0" y="0" width="19" height="19">
<circle cx="9.50013" cy="9.49916" r="8.964" fill="#C4C4C4"/>
</mask>
<g mask="url(#mask0_2264_32639)">
<rect x="0.5" y="0.5" width="18" height="18" fill="url(#paint0_linear_2264_32639)"/>
<path d="M18.2843 9.49916C18.2843 14.3505 14.3515 18.2833 9.50013 18.2833C4.64876 18.2833 0.715953 14.3505 0.715953 9.49916C0.715953 4.64779 4.64876 0.714976 9.50013 0.714976C14.3515 0.714976 18.2843 4.64779 18.2843 9.49916Z" stroke="white" stroke-width="0.35964"/>
<g filter="url(#filter0_d_2264_32639)">
<path d="M6.15076 5.67236C6.15076 5.46356 6.15076 5.26556 6.15076 5.03516C6.99676 5.58236 7.81396 6.11516 8.65996 6.66596C7.81756 7.21316 7.00396 7.74236 6.15796 8.28956C6.15796 8.05916 6.15796 7.84676 6.15796 7.60196C6.04996 7.63796 5.97076 7.65956 5.89876 7.68836C5.15356 7.99796 4.63876 8.76836 4.67476 9.57116C4.71076 10.3452 5.08156 10.9284 5.77636 11.2704C6.44596 11.6016 7.11196 11.5548 7.73836 11.148C8.58436 10.6044 9.41956 10.0464 10.262 9.49556C10.5608 9.30116 10.8632 9.10676 11.1944 8.93396C11.1332 9.06356 11.0756 9.19316 11.0072 9.31916C10.5608 10.158 10.118 10.9968 9.66076 11.8284C9.32596 12.4332 8.78956 12.804 8.16316 13.0524C7.57636 13.2864 6.97156 13.4124 6.33796 13.3512C4.99156 13.218 3.95116 12.5808 3.29236 11.4036C2.48596 9.95996 2.63356 8.53796 3.56596 7.19876C4.15276 6.35276 4.99156 5.87396 6.00676 5.70116C6.04636 5.69396 6.08956 5.68316 6.15076 5.67236Z" fill="white"/>
<path d="M6.13277 5.00211L6.16052 5.02006C6.88162 5.48647 7.58179 5.94242 8.29668 6.40795C8.42054 6.48861 8.54484 6.56955 8.66977 6.65089L8.69294 6.66597L8.66975 6.68104C8.51027 6.78463 8.35181 6.88758 8.19398 6.99014C7.51813 7.42926 6.85357 7.86104 6.16772 8.30466L6.13997 8.3226V8.28956V8.28821V8.28686V8.28551V8.28416V8.28281V8.28146V8.28012V8.27877V8.27742V8.27608V8.27473V8.27339V8.27204V8.2707V8.26935V8.26801V8.26666V8.26532V8.26398V8.26264V8.26129V8.25995V8.25861V8.25727V8.25593V8.25459V8.25325V8.25191V8.25057V8.24923V8.24789V8.24655V8.24522V8.24388V8.24254V8.24121V8.23987V8.23853V8.2372V8.23586V8.23453V8.23319V8.23186V8.23052V8.22919V8.22786V8.22652V8.22519V8.22386V8.22252V8.22119V8.21986V8.21853V8.2172V8.21587V8.21454V8.21321V8.21188V8.21055V8.20922V8.20789V8.20656V8.20523V8.2039V8.20257V8.20125V8.19992V8.19859V8.19726V8.19594V8.19461V8.19328V8.19196V8.19063V8.18931V8.18798V8.18666V8.18533V8.18401V8.18268V8.18136V8.18003V8.17871V8.17739V8.17606V8.17474V8.17342V8.1721V8.17077V8.16945V8.16813V8.16681V8.16549V8.16416V8.16284V8.16152V8.1602V8.15888V8.15756V8.15624V8.15492V8.1536V8.15228V8.15096V8.14964V8.14832V8.147V8.14569V8.14437V8.14305V8.14173V8.14041V8.13909V8.13778V8.13646V8.13514V8.13382V8.13251V8.13119V8.12987V8.12856V8.12724V8.12592V8.12461V8.12329V8.12198V8.12066V8.11934V8.11803V8.11671V8.1154V8.11408V8.11277V8.11145V8.11014V8.10882V8.10751V8.10619V8.10488V8.10356V8.10225V8.10093V8.09962V8.09831V8.09699V8.09568V8.09436V8.09305V8.09174V8.09042V8.08911V8.0878V8.08648V8.08517V8.08386V8.08254V8.08123V8.07992V8.0786V8.07729V8.07598V8.07467V8.07335V8.07204V8.07073V8.06941V8.0681V8.06679V8.06548V8.06416V8.06285V8.06154V8.06023V8.05891V8.0576V8.05629V8.05498V8.05367V8.05235V8.05104V8.04973V8.04842V8.0471V8.04579V8.04448V8.04317V8.04185V8.04054V8.03923V8.03792V8.0366V8.03529V8.03398V8.03267V8.03135V8.03004V8.02873V8.02742V8.0261V8.02479V8.02348V8.02217V8.02085V8.01954V8.01823V8.01692V8.0156V8.01429V8.01298V8.01166V8.01035V8.00904V8.00772V8.00641V8.0051V8.00378V8.00247V8.00116V7.99984V7.99853V7.99721V7.9959V7.99459V7.99327V7.99196V7.99064V7.98933V7.98801V7.9867V7.98538V7.98407V7.98275V7.98144V7.98012V7.97881V7.97749V7.97618V7.97486V7.97355V7.97223V7.97091V7.9696V7.96828V7.96697V7.96565V7.96433V7.96301V7.9617V7.96038V7.95906V7.95775V7.95643V7.95511V7.95379V7.95247V7.95116V7.94984V7.94852V7.9472V7.94588V7.94456V7.94324V7.94192V7.9406V7.93928V7.93796V7.93664V7.93532V7.934V7.93268V7.93136V7.93004V7.92872V7.9274V7.92607V7.92475V7.92343V7.92211V7.92079V7.91946V7.91814V7.91682V7.91549V7.91417V7.91285V7.91152V7.9102V7.90887V7.90755V7.90622V7.9049V7.90357V7.90225V7.90092V7.89959V7.89827V7.89694V7.89561V7.89428V7.89296V7.89163V7.8903V7.88897V7.88764V7.88631V7.88499V7.88366V7.88233V7.881V7.87967V7.87833V7.877V7.87567V7.87434V7.87301V7.87168V7.87034V7.86901V7.86768V7.86635V7.86501V7.86368V7.86234V7.86101V7.85967V7.85834V7.857V7.85567V7.85433V7.85299V7.85166V7.85032V7.84898V7.84764V7.84631V7.84497V7.84363V7.84229V7.84095V7.83961V7.83827V7.83693V7.83559V7.83425V7.8329V7.83156V7.83022V7.82888V7.82753V7.82619V7.82485V7.8235V7.82216V7.82081V7.81947V7.81812V7.81677V7.81543V7.81408V7.81273V7.81139V7.81004V7.80869V7.80734V7.80599V7.80464V7.80329V7.80194V7.80059V7.79924V7.79788V7.79653V7.79518V7.79383V7.79247V7.79112V7.78976V7.78841V7.78705V7.7857V7.78434V7.78298V7.78163V7.78027V7.77891V7.77755V7.77619V7.77483V7.77347V7.77211V7.77075V7.76939V7.76803V7.76667V7.7653V7.76394V7.76258V7.76121V7.75985V7.75848V7.75712V7.75575V7.75438V7.75302V7.75165V7.75028V7.74891V7.74754V7.74617V7.7448V7.74343V7.74206V7.74069V7.73932V7.73794V7.73657V7.7352V7.73382V7.73245V7.73107V7.7297V7.72832V7.72694V7.72557V7.72419V7.72281V7.72143V7.72005V7.71867V7.71729V7.71591V7.71453V7.71314V7.71176V7.71038V7.70899V7.70761V7.70622V7.70484V7.70345V7.70206V7.70067V7.69929V7.6979V7.69651V7.69512V7.69373V7.69234V7.69094V7.68955V7.68816V7.68676V7.68537V7.68398V7.68258V7.68118V7.67979V7.67839V7.67699V7.67559V7.67419V7.67279V7.67139V7.66999V7.66859V7.66719V7.66579V7.66438V7.66298V7.66157V7.66017V7.65876V7.65735V7.65595V7.65454V7.65313V7.65172V7.65031V7.6489V7.64749V7.64608V7.64466V7.64325V7.64184V7.64042V7.63901V7.63759V7.63617V7.63476V7.63334V7.63192V7.6305V7.62908V7.62766V7.62683C6.10978 7.63672 6.08207 7.64546 6.05624 7.65361C5.99908 7.67165 5.95107 7.6868 5.90554 7.70501C5.16701 8.0119 4.65709 8.77553 4.69272 9.57032C4.72842 10.338 5.09555 10.9152 5.7843 11.2542L5.78433 11.2542C6.44809 11.5826 7.10735 11.5363 7.72856 11.1329L7.72864 11.1328C8.27257 10.7833 8.81194 10.4279 9.35173 10.0723C9.65144 9.87477 9.95129 9.6772 10.2521 9.48051L10.2521 9.48048C10.5509 9.2861 10.854 9.09126 11.186 8.91801L11.2335 8.89328L11.2106 8.94163C11.197 8.97047 11.1835 8.99937 11.1701 9.02828C11.1232 9.1288 11.0763 9.22942 11.023 9.32774M6.13277 5.00211L5.89876 7.68836C5.15356 7.99796 4.63876 8.76836 4.67476 9.57116C4.71076 10.3452 5.08156 10.9284 5.77636 11.2704C6.44596 11.6016 7.11196 11.5548 7.73836 11.148C8.28235 10.7984 8.82188 10.4429 9.36173 10.0872C9.66144 9.88972 9.96124 9.69218 10.262 9.49556C10.5528 9.30633 10.8471 9.11711 11.168 8.94781C11.1713 8.94063 11.1747 8.93346 11.1781 8.92628L11.1944 8.93396L11.2027 8.9499C11.1957 8.95356 11.1887 8.95722 11.1817 8.9609C11.1723 8.98094 11.1629 9.00097 11.1536 9.02098C11.1068 9.12142 11.0602 9.22137 11.0072 9.31916C10.9335 9.4575 10.86 9.59584 10.7865 9.73415C10.4143 10.4344 10.0426 11.1339 9.66076 11.8284C9.32596 12.4332 8.78956 12.804 8.16316 13.0524M6.13277 5.00211V5.03516V5.03651V5.03785V5.0392V5.04055V5.0419V5.04324V5.04459V5.04593V5.04728V5.04862V5.04996V5.0513V5.05264V5.05398V5.05532V5.05666V5.058V5.05934V5.06067V5.06201V5.06335V5.06468V5.06601V5.06735V5.06868V5.07001V5.07134V5.07267V5.074V5.07533V5.07666V5.07799V5.07931V5.08064V5.08197V5.08329V5.08461V5.08594V5.08726V5.08858V5.08991V5.09123V5.09255V5.09387V5.09518V5.0965V5.09782V5.09914V5.10045V5.10177V5.10308V5.1044V5.10571V5.10703V5.10834V5.10965V5.11096V5.11227V5.11358V5.11489V5.1162V5.11751V5.11882V5.12012V5.12143V5.12273V5.12404V5.12534V5.12665V5.12795V5.12925V5.13055V5.13186V5.13316V5.13446V5.13576V5.13705V5.13835V5.13965V5.14095V5.14224V5.14354V5.14484V5.14613V5.14742V5.14872V5.15001V5.1513V5.1526V5.15389V5.15518V5.15647V5.15776V5.15905V5.16034V5.16162V5.16291V5.1642V5.16548V5.16677V5.16806V5.16934V5.17062V5.17191V5.17319V5.17447V5.17576V5.17704V5.17832V5.1796V5.18088V5.18216V5.18344V5.18471V5.18599V5.18727V5.18855V5.18982V5.1911V5.19237V5.19365V5.19492V5.1962V5.19747V5.19874V5.20001V5.20129V5.20256V5.20383V5.2051V5.20637V5.20764V5.2089V5.21017V5.21144V5.21271V5.21397V5.21524V5.21651V5.21777V5.21904V5.2203V5.22157V5.22283V5.22409V5.22535V5.22662V5.22788V5.22914V5.2304V5.23166V5.23292V5.23418V5.23544V5.2367V5.23795V5.23921V5.24047V5.24173V5.24298V5.24424V5.24549V5.24675V5.248V5.24926V5.25051V5.25176V5.25302V5.25427V5.25552V5.25677V5.25802V5.25928V5.26053V5.26178V5.26303V5.26427V5.26552V5.26677V5.26802V5.26927V5.27051V5.27176V5.27301V5.27425V5.2755V5.27674V5.27799V5.27923V5.28048V5.28172V5.28297V5.28421V5.28545V5.28669V5.28794V5.28918V5.29042V5.29166V5.2929V5.29414V5.29538V5.29662V5.29786V5.2991V5.30033V5.30157V5.30281V5.30405V5.30529V5.30652V5.30776V5.30899V5.31023V5.31147V5.3127V5.31393V5.31517V5.3164V5.31764V5.31887V5.3201V5.32134V5.32257V5.3238V5.32503V5.32626V5.3275V5.32873V5.32996V5.33119V5.33242V5.33365V5.33488V5.33611V5.33734V5.33856V5.33979V5.34102V5.34225V5.34348V5.3447V5.34593V5.34716V5.34838V5.34961V5.35083V5.35206V5.35329V5.35451V5.35574V5.35696V5.35818V5.35941V5.36063V5.36186V5.36308V5.3643V5.36553V5.36675V5.36797V5.36919V5.37041V5.37164V5.37286V5.37408V5.3753V5.37652V5.37774V5.37896V5.38018V5.3814V5.38262V5.38384V5.38506V5.38628V5.3875V5.38872V5.38993V5.39115V5.39237V5.39359V5.3948V5.39602V5.39724V5.39846V5.39967V5.40089V5.40211V5.40332V5.40454V5.40575V5.40697V5.40819V5.4094V5.41062V5.41183V5.41305V5.41426V5.41548V5.41669V5.4179V5.41912V5.42033V5.42155V5.42276V5.42397V5.42519V5.4264V5.42761V5.42882V5.43004V5.43125V5.43246V5.43367V5.43489V5.4361V5.43731V5.43852V5.43973V5.44095V5.44216V5.44337V5.44458V5.44579V5.447V5.44821V5.44942V5.45063V5.45184V5.45305V5.45426V5.45547V5.45668V5.45789V5.4591V5.46031V5.46152V5.46273V5.46394V5.46515V5.46636V5.46757V5.46878V5.46999V5.4712V5.47241V5.47362V5.47483V5.47603V5.47724V5.47845V5.47966V5.48087V5.48208V5.48329V5.48449V5.4857V5.48691V5.48812V5.48933V5.49053V5.49174V5.49295V5.49416V5.49537V5.49657V5.49778V5.49899V5.5002V5.50141V5.50261V5.50382V5.50503V5.50624V5.50744V5.50865V5.50986V5.51107V5.51228V5.51348V5.51469V5.5159V5.51711V5.51831V5.51952V5.52073V5.52194V5.52314V5.52435V5.52556V5.52677V5.52797V5.52918V5.53039V5.5316V5.53281V5.53401V5.53522V5.53643V5.53764V5.53884V5.54005V5.54126V5.54247V5.54368V5.54488V5.54609V5.5473V5.54851V5.54972V5.55093V5.55213V5.55334V5.55455V5.55576V5.55697V5.55818V5.55939V5.56059V5.5618V5.56301V5.56422V5.56543V5.56664V5.56785V5.56906V5.57027V5.57148V5.57269V5.5739V5.57511V5.57632V5.57753V5.57874V5.57995V5.58116V5.58237V5.58358V5.58479V5.586V5.58721V5.58842V5.58963V5.59084V5.59205V5.59327V5.59448V5.59569V5.5969V5.59811V5.59932V5.60054V5.60175V5.60296V5.60417V5.60539V5.6066V5.60781V5.60903V5.61024V5.61145V5.61267V5.61388V5.61509V5.61631V5.61752V5.61874V5.61995V5.62117V5.62238V5.6236V5.62481V5.62603V5.62724V5.62846V5.62967V5.63089V5.63211V5.63332V5.63454V5.63576V5.63697V5.63819V5.63941V5.64062V5.64184V5.64306V5.64428V5.6455V5.64671V5.64793V5.64915V5.65037V5.65159V5.65281V5.65403V5.65525V5.65647V5.65733M6.13277 5.00211V5.65733M11.023 9.32774L11.0072 9.31917L11.023 9.3276C11.023 9.32765 11.023 9.32769 11.023 9.32774ZM11.023 9.32774C10.9494 9.46599 10.8759 9.60426 10.8024 9.74249C10.4302 10.4428 10.0584 11.1424 9.67651 11.837L9.67649 11.8371C9.33904 12.4467 8.79863 12.8197 8.16982 13.0691M8.16982 13.0691L8.16316 13.0524M8.16982 13.0691C8.16981 13.0691 8.1698 13.0691 8.16978 13.0691L8.16316 13.0524M8.16982 13.0691C7.58112 13.3038 6.9734 13.4306 6.33623 13.3691L6.33619 13.3691C4.98436 13.2353 3.93854 12.595 3.27666 11.4123L3.27666 11.4123C2.87194 10.6878 2.70623 9.96792 2.75917 9.26066C2.81211 8.5535 3.08354 7.86017 3.5512 7.18848M8.16316 13.0524C7.57636 13.2864 6.97156 13.4124 6.33796 13.3512C4.99156 13.218 3.95116 12.5808 3.29236 11.4036C2.48596 9.95996 2.63356 8.53796 3.56596 7.19876M6.13277 5.65733C6.10816 5.66188 6.08655 5.66636 6.06693 5.67051C6.06344 5.67125 6.06001 5.67198 6.05665 5.67269L6.13277 5.65733ZM3.5512 7.18848C3.55119 7.18849 3.55119 7.1885 3.55118 7.18851L3.56596 7.19876M3.5512 7.18848L3.56596 7.19876M3.5512 7.18848C4.14108 6.33805 4.98437 5.85696 6.00364 5.68345C6.00361 5.68345 6.00357 5.68346 6.00354 5.68346L6.00676 5.70116C4.99156 5.87396 4.15276 6.35276 3.56596 7.19876" stroke="white" stroke-opacity="0.25" stroke-width="0.035964"/>
</g>
<g filter="url(#filter1_d_2264_32639)">
<path d="M12.8461 13.3575C12.8461 13.5411 12.8461 13.7427 12.8461 13.9839C11.9965 13.4331 11.1757 12.9003 10.3297 12.3531C11.1721 11.8095 11.9893 11.2767 12.8389 10.7259C12.8389 10.9707 12.8389 11.1759 12.8389 11.4243C12.9829 11.3667 13.1089 11.3343 13.2205 11.2731C13.9225 10.8771 14.3329 10.2831 14.3149 9.46948C14.2897 8.20228 13.1593 7.38508 12.0505 7.55428C11.7121 7.60468 11.4097 7.75228 11.1217 7.95028C10.4989 8.37868 9.86174 8.78188 9.23174 9.19228C8.79614 9.47668 8.36054 9.76108 7.92134 10.0419C7.89254 10.0599 7.86014 10.0707 7.77734 10.1139C7.87094 9.92308 7.93934 9.77188 8.01494 9.62788C8.44334 8.82148 8.86814 8.01148 9.31094 7.20868C9.67454 6.54628 10.2757 6.16468 10.9633 5.90188C11.4097 5.73268 11.8777 5.63908 12.3529 5.64268C13.2997 5.65348 14.1493 5.95228 14.8729 6.58228C15.5533 7.17268 15.9997 7.91068 16.1509 8.79268C16.4713 10.6755 15.4201 12.5259 13.6417 13.1415C13.3897 13.2279 13.1305 13.2819 12.8461 13.3575Z" fill="white"/>
<path d="M12.8641 14.017L12.8364 13.999C12.6166 13.8565 12.3988 13.7152 12.182 13.5746C11.5605 13.1716 10.9472 12.7738 10.32 12.3682L10.2966 12.3531L10.32 12.338C10.8646 11.9866 11.3986 11.6397 11.9376 11.2895C12.2324 11.098 12.5288 10.9055 12.8292 10.7108L12.8569 10.6928V10.7259V10.7273V10.7287V10.7302V10.7316V10.733V10.7345V10.7359V10.7373V10.7388V10.7402V10.7416V10.743V10.7445V10.7459V10.7473V10.7487V10.7501V10.7516V10.753V10.7544V10.7558V10.7572V10.7586V10.7601V10.7615V10.7629V10.7643V10.7657V10.7671V10.7685V10.7699V10.7713V10.7727V10.7741V10.7756V10.777V10.7784V10.7798V10.7812V10.7826V10.784V10.7854V10.7868V10.7882V10.7896V10.791V10.7924V10.7938V10.7951V10.7965V10.7979V10.7993V10.8007V10.8021V10.8035V10.8049V10.8063V10.8077V10.8091V10.8104V10.8118V10.8132V10.8146V10.816V10.8174V10.8188V10.8201V10.8215V10.8229V10.8243V10.8257V10.827V10.8284V10.8298V10.8312V10.8325V10.8339V10.8353V10.8367V10.838V10.8394V10.8408V10.8422V10.8435V10.8449V10.8463V10.8476V10.849V10.8504V10.8518V10.8531V10.8545V10.8559V10.8572V10.8586V10.8599V10.8613V10.8627V10.864V10.8654V10.8668V10.8681V10.8695V10.8708V10.8722V10.8736V10.8749V10.8763V10.8776V10.879V10.8804V10.8817V10.8831V10.8844V10.8858V10.8871V10.8885V10.8898V10.8912V10.8925V10.8939V10.8952V10.8966V10.8979V10.8993V10.9006V10.902V10.9033V10.9047V10.906V10.9074V10.9087V10.9101V10.9114V10.9128V10.9141V10.9155V10.9168V10.9182V10.9195V10.9208V10.9222V10.9235V10.9249V10.9262V10.9276V10.9289V10.9302V10.9316V10.9329V10.9343V10.9356V10.9369V10.9383V10.9396V10.941V10.9423V10.9436V10.945V10.9463V10.9476V10.949V10.9503V10.9516V10.953V10.9543V10.9557V10.957V10.9583V10.9597V10.961V10.9623V10.9637V10.965V10.9663V10.9677V10.969V10.9703V10.9716V10.973V10.9743V10.9756V10.977V10.9783V10.9796V10.981V10.9823V10.9836V10.985V10.9863V10.9876V10.9889V10.9903V10.9916V10.9929V10.9943V10.9956V10.9969V10.9982V10.9996V11.0009V11.0022V11.0035V11.0049V11.0062V11.0075V11.0088V11.0102V11.0115V11.0128V11.0142V11.0155V11.0168V11.0181V11.0195V11.0208V11.0221V11.0234V11.0248V11.0261V11.0274V11.0287V11.03V11.0314V11.0327V11.034V11.0353V11.0367V11.038V11.0393V11.0406V11.042V11.0433V11.0446V11.0459V11.0473V11.0486V11.0499V11.0512V11.0526V11.0539V11.0552V11.0565V11.0578V11.0592V11.0605V11.0618V11.0631V11.0645V11.0658V11.0671V11.0684V11.0698V11.0711V11.0724V11.0737V11.0751V11.0764V11.0777V11.079V11.0803V11.0817V11.083V11.0843V11.0856V11.087V11.0883V11.0896V11.0909V11.0923V11.0936V11.0949V11.0962V11.0976V11.0989V11.1002V11.1015V11.1029V11.1042V11.1055V11.1068V11.1082V11.1095V11.1108V11.1121V11.1135V11.1148V11.1161V11.1175V11.1188V11.1201V11.1214V11.1228V11.1241V11.1254V11.1267V11.1281V11.1294V11.1307V11.1321V11.1334V11.1347V11.136V11.1374V11.1387V11.14V11.1414V11.1427V11.144V11.1454V11.1467V11.148V11.1494V11.1507V11.152V11.1534V11.1547V11.156V11.1574V11.1587V11.16V11.1614V11.1627V11.164V11.1654V11.1667V11.168V11.1694V11.1707V11.172V11.1734V11.1747V11.1761V11.1774V11.1787V11.1801V11.1814V11.1827V11.1841V11.1854V11.1868V11.1881V11.1894V11.1908V11.1921V11.1935V11.1948V11.1962V11.1975V11.1988V11.2002V11.2015V11.2029V11.2042V11.2056V11.2069V11.2083V11.2096V11.211V11.2123V11.2137V11.215V11.2163V11.2177V11.219V11.2204V11.2217V11.2231V11.2245V11.2258V11.2272V11.2285V11.2299V11.2312V11.2326V11.2339V11.2353V11.2366V11.238V11.2394V11.2407V11.2421V11.2434V11.2448V11.2461V11.2475V11.2489V11.2502V11.2516V11.2529V11.2543V11.2557V11.257V11.2584V11.2598V11.2611V11.2625V11.2639V11.2652V11.2666V11.268V11.2693V11.2707V11.2721V11.2734V11.2748V11.2762V11.2776V11.2789V11.2803V11.2817V11.2831V11.2844V11.2858V11.2872V11.2886V11.2899V11.2913V11.2927V11.2941V11.2955V11.2968V11.2982V11.2996V11.301V11.3024V11.3038V11.3051V11.3065V11.3079V11.3093V11.3107V11.3121V11.3135V11.3149V11.3162V11.3176V11.319V11.3204V11.3218V11.3232V11.3246V11.326V11.3274V11.3288V11.3302V11.3316V11.333V11.3344V11.3358V11.3372V11.3386V11.34V11.3414V11.3428V11.3442V11.3456V11.347V11.3484V11.3498V11.3513V11.3527V11.3541V11.3555V11.3569V11.3583V11.3597V11.3611V11.3626V11.364V11.3654V11.3668V11.3682V11.3697V11.3711V11.3725V11.3739V11.3753V11.3768V11.3782V11.3796V11.381V11.3825V11.3839V11.3853V11.3868V11.3882V11.3896V11.3911V11.3925V11.3939V11.3954V11.3968V11.3979C12.8999 11.3813 12.9413 11.3666 12.9809 11.3526C12.9996 11.346 13.0179 11.3396 13.0358 11.3331C13.099 11.3103 13.1573 11.2872 13.2118 11.2574C13.9091 10.864 14.3148 10.2757 14.297 9.46988L14.297 9.46984C14.272 8.2143 13.1521 7.40437 12.0533 7.57205L12.0532 7.57206L12.8641 14.017ZM12.8641 14.017V13.9839V13.9825V13.9811V13.9796V13.9782V13.9768V13.9754V13.974V13.9726V13.9712V13.9698V13.9684V13.967V13.9656V13.9642V13.9628V13.9614V13.96V13.9586V13.9572V13.9558V13.9544V13.953V13.9516V13.9502V13.9488V13.9474V13.946V13.9447V13.9433V13.9419V13.9405V13.9391V13.9377V13.9363V13.935V13.9336V13.9322V13.9308V13.9294V13.9281V13.9267V13.9253V13.9239V13.9226V13.9212V13.9198V13.9184V13.9171V13.9157V13.9143V13.913V13.9116V13.9102V13.9089V13.9075V13.9061V13.9048V13.9034V13.902V13.9007V13.8993V13.898V13.8966V13.8952V13.8939V13.8925V13.8912V13.8898V13.8885V13.8871V13.8858V13.8844V13.8831V13.8817V13.8804V13.879V13.8777V13.8763V13.875V13.8736V13.8723V13.8709V13.8696V13.8683V13.8669V13.8656V13.8642V13.8629V13.8616V13.8602V13.8589V13.8576V13.8562V13.8549V13.8536V13.8522V13.8509V13.8496V13.8482V13.8469V13.8456V13.8443V13.8429V13.8416V13.8403V13.839V13.8376V13.8363V13.835V13.8337V13.8324V13.831V13.8297V13.8284V13.8271V13.8258V13.8245V13.8232V13.8218V13.8205V13.8192V13.8179V13.8166V13.8153V13.814V13.8127V13.8114V13.8101V13.8088V13.8075V13.8062V13.8049V13.8036V13.8022V13.8009V13.7997V13.7984V13.7971V13.7958V13.7945V13.7932V13.7919V13.7906V13.7893V13.788V13.7867V13.7854V13.7841V13.7828V13.7815V13.7803V13.779V13.7777V13.7764V13.7751V13.7738V13.7725V13.7713V13.77V13.7687V13.7674V13.7661V13.7649V13.7636V13.7623V13.761V13.7598V13.7585V13.7572V13.7559V13.7547V13.7534V13.7521V13.7508V13.7496V13.7483V13.747V13.7458V13.7445V13.7432V13.742V13.7407V13.7394V13.7382V13.7369V13.7357V13.7344V13.7331V13.7319V13.7306V13.7294V13.7281V13.7268V13.7256V13.7243V13.7231V13.7218V13.7206V13.7193V13.7181V13.7168V13.7156V13.7143V13.7131V13.7118V13.7106V13.7093V13.7081V13.7068V13.7056V13.7043V13.7031V13.7019V13.7006V13.6994V13.6981V13.6969V13.6957V13.6944V13.6932V13.6919V13.6907V13.6895V13.6882V13.687V13.6858V13.6845V13.6833V13.6821V13.6808V13.6796V13.6784V13.6772V13.6759V13.6747V13.6735V13.6722V13.671V13.6698V13.6686V13.6673V13.6661V13.6649V13.6637V13.6625V13.6612V13.66V13.6588V13.6576V13.6564V13.6552V13.6539V13.6527V13.6515V13.6503V13.6491V13.6479V13.6467V13.6454V13.6442V13.643V13.6418V13.6406V13.6394V13.6382V13.637V13.6358V13.6346V13.6334V13.6322V13.631V13.6298V13.6286V13.6274V13.6262V13.625V13.6238V13.6226V13.6214V13.6202V13.619V13.6178V13.6166V13.6154V13.6142V13.613V13.6118V13.6106V13.6094V13.6082V13.607V13.6058V13.6046V13.6035V13.6023V13.6011V13.5999V13.5987V13.5975V13.5963V13.5952V13.594V13.5928V13.5916V13.5904V13.5892V13.5881V13.5869V13.5857V13.5845V13.5833V13.5822V13.581V13.5798V13.5786V13.5775V13.5763V13.5751V13.5739V13.5728V13.5716V13.5704V13.5692V13.5681V13.5669V13.5657V13.5646V13.5634V13.5622V13.5611V13.5599V13.5587V13.5576V13.5564V13.5552V13.5541V13.5529V13.5517V13.5506V13.5494V13.5483V13.5471V13.5459V13.5448V13.5436V13.5425V13.5413V13.5402V13.539V13.5378V13.5367V13.5355V13.5344V13.5332V13.5321V13.5309V13.5298V13.5286V13.5275V13.5263V13.5252V13.524V13.5229V13.5217V13.5206V13.5194V13.5183V13.5171V13.516V13.5149V13.5137V13.5126V13.5114V13.5103V13.5091V13.508V13.5069V13.5057V13.5046V13.5034V13.5023V13.5012V13.5V13.4989V13.4978V13.4966V13.4955V13.4943V13.4932V13.4921V13.4909V13.4898V13.4887V13.4876V13.4864V13.4853V13.4842V13.483V13.4819V13.4808V13.4796V13.4785V13.4774V13.4763V13.4751V13.474V13.4729V13.4718V13.4706V13.4695V13.4684V13.4673V13.4662V13.465V13.4639V13.4628V13.4617V13.4606V13.4594V13.4583V13.4572V13.4561V13.455V13.4539V13.4527V13.4516V13.4505V13.4494V13.4483V13.4472V13.4461V13.4449V13.4438V13.4427V13.4416V13.4405V13.4394V13.4383V13.4372V13.4361V13.435V13.4338V13.4327V13.4316V13.4305V13.4294V13.4283V13.4272V13.4261V13.425V13.4239V13.4228V13.4217V13.4206V13.4195V13.4184V13.4173V13.4162V13.4151V13.414V13.4129V13.4118V13.4107V13.4096V13.4085V13.4074V13.4063V13.4052V13.4041V13.403V13.4019V13.4008V13.3998V13.3987V13.3976V13.3965V13.3954V13.3943V13.3932V13.3921V13.391V13.3899V13.3889V13.3878V13.3867V13.3856V13.3845V13.3834V13.3823V13.3812V13.3802V13.3791V13.378V13.3769V13.3758V13.3747V13.3737V13.3726V13.3715V13.3713M12.8641 14.017V13.3713M12.8641 13.3713C12.9468 13.3495 13.0276 13.3293 13.1069 13.3096C13.2941 13.2629 13.4728 13.2184 13.6476 13.1585L13.6476 13.1585C15.4347 12.5399 16.4905 10.6807 16.1687 8.78966L16.1687 8.78964C16.0167 7.90315 15.5679 7.16154 14.8847 6.5687C14.1577 5.93571 13.3039 5.63554 12.3531 5.6247L12.3531 5.6247C11.8754 5.62108 11.4052 5.71517 10.957 5.88506L10.9569 5.88508C10.2673 6.14866 9.66167 6.53239 9.2952 7.19999C8.94158 7.84111 8.59942 8.48684 8.25783 9.13151C8.1716 9.29425 8.0854 9.45693 7.99906 9.61944L7.99902 9.61952C7.95127 9.71049 7.90624 9.80458 7.85611 9.90937C7.82675 9.97073 7.79564 10.0358 7.7612 10.106L7.73705 10.1552L7.78566 10.1298C7.8264 10.1086 7.8548 10.0952 7.87672 10.0849L7.87723 10.0847L7.87748 10.0846C7.89916 10.0744 7.91544 10.0668 7.93087 10.0571L7.93103 10.057C8.37031 9.77618 8.80598 9.49173 9.24156 9.20735C9.40253 9.10248 9.56402 8.99806 9.72564 8.89355C10.1963 8.58922 10.6681 8.28412 11.1319 7.9651L12.8641 13.3713Z" stroke="white" stroke-opacity="0.25" stroke-width="0.035964"/>
</g>
</g>
<defs>
<filter id="filter0_d_2264_32639" x="2.49768" y="4.87884" width="9.08048" height="8.97305" filterUnits="userSpaceOnUse" color-interpolation-filters="sRGB">
<feFlood flood-opacity="0" result="BackgroundImageFix"/>
<feColorMatrix in="SourceAlpha" type="matrix" values="0 0 0 0 0 0 0 0 0 0 0 0 0 0 0 0 0 0 127 0" result="hardAlpha"/>
<feOffset dx="0.035964" dy="0.17982"/>
<feGaussianBlur stdDeviation="0.134865"/>
<feColorMatrix type="matrix" values="0 0 0 0 0 0 0 0 0 0 0 0 0 0 0 0 0 0 0.05 0"/>
<feBlend mode="normal" in2="BackgroundImageFix" result="effect1_dropShadow_2264_32639"/>
<feBlend mode="normal" in="SourceGraphic" in2="effect1_dropShadow_2264_32639" result="shape"/>
</filter>
<filter id="filter1_d_2264_32639" x="7.46252" y="5.51751" width="9.08731" height="8.98282" filterUnits="userSpaceOnUse" color-interpolation-filters="sRGB">
<feFlood flood-opacity="0" result="BackgroundImageFix"/>
<feColorMatrix in="SourceAlpha" type="matrix" values="0 0 0 0 0 0 0 0 0 0 0 0 0 0 0 0 0 0 127 0" result="hardAlpha"/>
<feOffset dx="0.035964" dy="0.17982"/>
<feGaussianBlur stdDeviation="0.134865"/>
<feColorMatrix type="matrix" values="0 0 0 0 0 0 0 0 0 0 0 0 0 0 0 0 0 0 0.05 0"/>
<feBlend mode="normal" in2="BackgroundImageFix" result="effect1_dropShadow_2264_32639"/>
<feBlend mode="normal" in="SourceGraphic" in2="effect1_dropShadow_2264_32639" result="shape"/>
</filter>
<linearGradient id="paint0_linear_2264_32639" x1="9.5" y1="0.5" x2="9.5" y2="18.5" gradientUnits="userSpaceOnUse">
<stop stop-color="#1D65DC"/>
<stop offset="1" stop-color="#0A4BB3"/>
</linearGradient>
</defs>
</svg>
