<svg width="36" height="36" viewBox="0 0 36 36" fill="none" xmlns="http://www.w3.org/2000/svg">
<rect width="36" height="36" rx="18" fill="white" fill-opacity="0.1"/>
<path fill-rule="evenodd" clip-rule="evenodd" d="M10.528 17.4699C15.1792 15.4435 18.2806 14.1075 19.8325 13.4621C24.2632 11.6191 25.1839 11.299 25.784 11.2884C25.916 11.2861 26.2111 11.3188 26.4022 11.4739C26.5637 11.6049 26.6081 11.7818 26.6293 11.906C26.6506 12.0302 26.677 12.3131 26.656 12.5341C26.4159 15.0569 25.377 21.1791 24.8484 24.0047C24.6248 25.2003 24.1844 25.6012 23.7581 25.6404C22.8315 25.7257 22.128 25.0281 21.2306 24.4399C19.8264 23.5194 19.0331 22.9464 17.67 22.0482C16.0948 21.0101 17.116 20.4396 18.0137 19.5072C18.2486 19.2632 22.3309 15.55 22.4099 15.2132C22.4198 15.1711 22.429 15.014 22.3357 14.9311C22.2424 14.8482 22.1047 14.8765 22.0053 14.8991C21.8645 14.9311 19.6212 16.4138 15.2756 19.3472C14.6388 19.7845 14.0621 19.9975 13.5453 19.9863C12.9757 19.974 11.8799 19.6642 11.0652 19.3994C10.0661 19.0746 9.27196 18.9029 9.34111 18.3513C9.37713 18.064 9.77277 17.7702 10.528 17.4699Z" fill="white"/>
</svg>
