<?xml version="1.0" encoding="utf-8"?>
<!-- Generator: Adobe Illustrator 24.1.1, SVG Export Plug-In . SVG Version: 6.00 Build 0)  -->
<svg version="1.1" id="Layer_1" xmlns="http://www.w3.org/2000/svg" xmlns:xlink="http://www.w3.org/1999/xlink" x="0px" y="0px"
	 viewBox="0 0 2217 256" style="enable-background:new 0 0 2217 256;" xml:space="preserve">
<style type="text/css">
	.st0{fill:#FFFFFF;stroke:url(#SVGID_1_);stroke-width:8;}
	.st1{fill:url(#SVGID_2_);}
	.st2{clip-path:url(#SVGID_4_);}
	.st3{fill:url(#SVGID_5_);}
	.st4{fill:url(#SVGID_6_);}
	.st5{fill:url(#SVGID_7_);}
	.st6{fill:#F8FCFF;}
	.st7{fill:url(#SVGID_8_);}
	.st8{fill:#FFFFFF;}
	.st9{clip-path:url(#SVGID_10_);}
	.st10{fill:url(#SVGID_11_);}
	.st11{fill:url(#SVGID_12_);}
	.st12{fill:url(#SVGID_13_);}
	.st13{clip-path:url(#SVGID_15_);}
	.st14{fill:url(#SVGID_16_);}
	.st15{fill:url(#SVGID_17_);}
	.st16{fill:url(#SVGID_18_);}
	.st17{clip-path:url(#SVGID_20_);}
	.st18{fill:url(#SVGID_21_);}
	.st19{fill:url(#SVGID_22_);}
	.st20{fill:url(#SVGID_23_);}
	.st21{clip-path:url(#SVGID_25_);}
	.st22{fill:url(#SVGID_26_);}
	.st23{fill:url(#SVGID_27_);}
	.st24{fill:#FFFFFF;stroke:url(#SVGID_28_);stroke-width:8;}
	.st25{fill:url(#SVGID_29_);}
	.st26{clip-path:url(#SVGID_31_);}
	.st27{fill:url(#SVGID_32_);}
	.st28{fill:url(#SVGID_33_);}
	.st29{fill:url(#SVGID_34_);}
</style>
<linearGradient id="SVGID_1_" gradientUnits="userSpaceOnUse" x1="1108.5" y1="-2621.2654" x2="1108.5" y2="-2877.2654" gradientTransform="matrix(1 0 0 -1 0 -2621.2654)">
	<stop  offset="0" style="stop-color:#1D65DC"/>
	<stop  offset="1" style="stop-color:#0A4BB3"/>
</linearGradient>
<path style="fill:url(#SVGID_1_);" d="M50,0h2117c27.6,0,50,22.4,50,50v156c0,27.6-22.4,50-50,50H50c-27.6,0-50-22.4-50-50V50
	C0,22.4,22.4,0,50,0z"/>
<g>
	<path class="st8" d="M457.4,107.5c0,5.9-1.3,11.2-4,16.1c-2.7,4.8-6.8,8.7-12.4,11.7c-5.6,3-12.5,4.5-20.7,4.5H405V176h-24.6V74.9
		h39.9c8.1,0,14.9,1.4,20.4,4.2c5.6,2.8,9.7,6.6,12.5,11.5C456,95.5,457.4,101.1,457.4,107.5z M418.4,120.1c4.7,0,8.2-1.1,10.5-3.3
		c2.3-2.2,3.5-5.3,3.5-9.4s-1.2-7.2-3.5-9.4c-2.3-2.2-5.8-3.3-10.5-3.3H405v25.3H418.4z M506.8,177.2c-7.9,0-15-1.7-21.3-5
		c-6.2-3.4-11.2-8.2-14.8-14.4c-3.6-6.2-5.3-13.5-5.3-21.9c0-8.3,1.8-15.5,5.5-21.7c3.6-6.3,8.6-11.2,15-14.5s13.4-5,21.3-5
		c7.9,0,15,1.7,21.3,5s11.3,8.2,15,14.5c3.6,6.2,5.5,13.5,5.5,21.7s-1.9,15.6-5.6,21.9c-3.6,6.2-8.7,11-15.1,14.4
		C521.8,175.5,514.7,177.2,506.8,177.2z M506.8,155.8c4.7,0,8.7-1.7,12-5.2c3.4-3.5,5-8.4,5-14.8c0-6.4-1.6-11.4-4.9-14.8
		c-3.2-3.5-7.1-5.2-11.8-5.2c-4.8,0-8.8,1.7-12,5.2c-3.2,3.4-4.8,8.3-4.8,14.8c0,6.4,1.5,11.4,4.6,14.8
		C498.2,154.1,502.1,155.8,506.8,155.8z M677.3,95.6L655.5,176h-27.2l-12.7-52.1L602.5,176h-27.1l-21.9-80.4h24.6l11.4,57.5
		l13.5-57.5h26.1l13.7,57.2l11.2-57.2H677.3z M762.4,134.5c0,2.3-0.1,4.7-0.4,7.2h-55.7c0.4,5,2,8.8,4.8,11.5
		c2.9,2.6,6.4,3.9,10.5,3.9c6.1,0,10.4-2.6,12.8-7.8h26.2c-1.3,5.3-3.8,10-7.3,14.3c-3.5,4.2-7.8,7.5-13.1,9.9
		c-5.3,2.4-11.2,3.6-17.7,3.6c-7.9,0-14.9-1.7-21-5c-6.1-3.4-10.9-8.2-14.4-14.4c-3.5-6.2-5.2-13.5-5.2-21.9s1.7-15.6,5-21.9
		c3.5-6.2,8.3-11,14.4-14.4c6.1-3.4,13.2-5,21.2-5c7.8,0,14.7,1.6,20.7,4.9c6,3.3,10.8,7.9,14.1,14
		C760.7,119.4,762.4,126.5,762.4,134.5z M737.2,128c0-4.2-1.4-7.6-4.3-10.1c-2.9-2.5-6.5-3.7-10.8-3.7c-4.1,0-7.6,1.2-10.5,3.6
		c-2.8,2.4-4.5,5.8-5.2,10.2H737.2z M800,109c2.9-4.4,6.5-7.9,10.8-10.4c4.3-2.6,9.1-3.9,14.4-3.9v26.1h-6.8c-6.1,0-10.8,1.3-13.8,4
		c-3.1,2.6-4.6,7.2-4.6,13.8V176h-24.6V95.6H800V109z M912.7,134.5c0,2.3-0.1,4.7-0.4,7.2h-55.7c0.4,5,2,8.8,4.8,11.5
		c2.9,2.6,6.4,3.9,10.5,3.9c6.1,0,10.4-2.6,12.8-7.8h26.2c-1.3,5.3-3.8,10-7.3,14.3c-3.5,4.2-7.8,7.5-13.1,9.9
		c-5.3,2.4-11.2,3.6-17.7,3.6c-7.9,0-14.9-1.7-21-5c-6.1-3.4-10.9-8.2-14.4-14.4c-3.5-6.2-5.2-13.5-5.2-21.9s1.7-15.6,5-21.9
		c3.5-6.2,8.3-11,14.4-14.4c6.1-3.4,13.2-5,21.2-5c7.8,0,14.7,1.6,20.7,4.9c6,3.3,10.8,7.9,14.1,14
		C911,119.4,912.7,126.5,912.7,134.5z M887.5,128c0-4.2-1.4-7.6-4.3-10.1c-2.9-2.5-6.5-3.7-10.8-3.7c-4.1,0-7.6,1.2-10.5,3.6
		c-2.8,2.4-4.5,5.8-5.2,10.2H887.5z M920.8,135.7c0-8.3,1.5-15.5,4.6-21.7c3.2-6.2,7.4-11,12.8-14.4s11.4-5,18-5
		c5.3,0,10.1,1.1,14.4,3.3c4.4,2.2,7.9,5.2,10.4,8.9V69.4h24.6V176H981v-11.5c-2.3,3.8-5.6,6.9-9.9,9.2c-4.2,2.3-9.2,3.5-14.8,3.5
		c-6.6,0-12.6-1.7-18-5c-5.4-3.5-9.6-8.3-12.8-14.5C922.3,151.2,920.8,143.9,920.8,135.7z M981,135.8c0-6.1-1.7-11-5.2-14.5
		c-3.4-3.6-7.5-5.3-12.4-5.3s-9.1,1.8-12.5,5.3c-3.4,3.5-5,8.3-5,14.4c0,6.1,1.7,11,5,14.7c3.5,3.6,7.6,5.3,12.5,5.3s9-1.8,12.4-5.3
		C979.3,146.8,981,142,981,135.8z M1078.6,107c2.3-3.7,5.6-6.8,9.9-9.1c4.3-2.3,9.3-3.5,14.8-3.5c6.6,0,12.6,1.7,18,5
		c5.4,3.4,9.6,8.2,12.7,14.4c3.2,6.2,4.8,13.5,4.8,21.7c0,8.3-1.6,15.6-4.8,21.9c-3.1,6.2-7.3,11.1-12.7,14.5c-5.4,3.4-11.4,5-18,5
		c-5.7,0-10.6-1.1-14.8-3.3c-4.2-2.3-7.5-5.3-9.9-9.1V176H1054V69.4h24.6V107z M1113.7,135.7c0-6.1-1.7-10.9-5.2-14.4
		c-3.4-3.6-7.5-5.3-12.5-5.3c-4.9,0-9.1,1.8-12.5,5.3c-3.4,3.6-5,8.4-5,14.5c0,6.1,1.7,11,5,14.5c3.5,3.6,7.6,5.3,12.5,5.3
		c4.9,0,9.1-1.8,12.5-5.3C1112,146.7,1113.7,141.8,1113.7,135.7z M1233.8,95.6l-50.4,118.5h-26.5l18.4-40.9l-32.7-77.6h27.5
		l18.6,50.3l18.4-50.3H1233.8z M1345.9,74.9v19.7h-26.8V176h-24.6V94.6h-26.8V74.9H1345.9z M1382.9,109c2.9-4.4,6.5-7.9,10.8-10.4
		c4.3-2.6,9.1-3.9,14.4-3.9v26.1h-6.8c-6.1,0-10.8,1.3-13.8,4c-3.1,2.6-4.6,7.2-4.6,13.8V176h-24.6V95.6h24.6V109z M1499.2,95.6V176
		h-24.6v-10.9c-2.5,3.6-5.9,6.4-10.2,8.6c-4.2,2.1-8.9,3.2-14.1,3.2c-6.1,0-11.6-1.3-16.3-4c-4.7-2.8-8.3-6.8-10.9-12
		c-2.6-5.2-3.9-11.3-3.9-18.3V95.6h24.5v43.6c0,5.4,1.4,9.6,4.2,12.5c2.8,3,6.5,4.5,11.2,4.5c4.8,0,8.6-1.5,11.4-4.5
		c2.8-3,4.2-7.2,4.2-12.5V95.6H1499.2z M1549.6,177.2c-7,0-13.2-1.2-18.7-3.6c-5.5-2.4-9.8-5.7-13-9.8c-3.2-4.2-4.9-8.9-5.3-14.1
		h24.3c0.3,2.8,1.6,5,3.9,6.8c2.3,1.7,5.1,2.6,8.5,2.6c3.1,0,5.4-0.6,7-1.7c1.7-1.2,2.6-2.8,2.6-4.8c0-2.3-1.2-4-3.6-5
		c-2.4-1.2-6.3-2.4-11.7-3.7c-5.8-1.3-10.6-2.7-14.4-4.2c-3.8-1.5-7.2-3.9-9.9-7.1c-2.8-3.3-4.2-7.6-4.2-13.1
		c0-4.6,1.3-8.8,3.7-12.5c2.6-3.8,6.3-6.9,11.2-9.1c5-2.2,10.9-3.3,17.7-3.3c10.1,0,18,2.5,23.8,7.5c5.8,5,9.2,11.6,10.1,19.9h-22.8
		c-0.4-2.8-1.6-5-3.7-6.6c-2-1.6-4.7-2.4-8.1-2.4c-2.9,0-5.1,0.6-6.6,1.7c-1.5,1.1-2.3,2.5-2.3,4.5c0,2.3,1.2,4,3.6,5.2
		c2.5,1.2,6.3,2.3,11.5,3.5c6,1.5,10.8,3.1,14.5,4.6c3.8,1.4,7,3.8,9.8,7.2c2.9,3.3,4.4,7.7,4.5,13.2c0,4.7-1.3,8.9-4,12.7
		c-2.6,3.6-6.4,6.5-11.4,8.6C1561.8,176.1,1556.1,177.2,1549.6,177.2z M1642,155.1V176h-12.5c-8.9,0-15.9-2.2-20.9-6.5
		c-5-4.4-7.5-11.6-7.5-21.5v-32h-9.8V95.6h9.8V76.1h24.6v19.6h16.1v20.4h-16.1v32.3c0,2.4,0.6,4.1,1.7,5.2c1.2,1.1,3.1,1.6,5.8,1.6
		H1642z M1692.3,177c-7.4,0-14-1.2-19.9-3.6c-5.9-2.4-10.6-6-14.1-10.7c-3.5-4.7-5.3-10.4-5.5-17h26.2c0.4,3.7,1.7,6.6,3.9,8.6
		c2.2,1.9,5.1,2.9,8.6,2.9c3.6,0,6.5-0.8,8.6-2.4c2.1-1.7,3.2-4.1,3.2-7.1c0-2.5-0.9-4.6-2.6-6.2c-1.6-1.6-3.7-3-6.2-4
		c-2.4-1.1-5.8-2.3-10.4-3.6c-6.5-2-11.9-4-16-6c-4.1-2-7.7-5-10.7-8.9c-3-3.9-4.5-9.1-4.5-15.4c0-9.4,3.4-16.8,10.2-22
		c6.8-5.4,15.7-8.1,26.6-8.1c11.1,0,20.1,2.7,26.9,8.1c6.8,5.3,10.5,12.7,10.9,22.2h-26.6c-0.2-3.3-1.4-5.8-3.6-7.6
		c-2.2-1.9-5-2.9-8.5-2.9c-3,0-5.4,0.8-7.2,2.4c-1.8,1.5-2.7,3.8-2.7,6.8c0,3.3,1.5,5.8,4.6,7.6c3.1,1.8,7.9,3.8,14.4,5.9
		c6.5,2.2,11.8,4.3,15.8,6.3c4.1,2,7.7,4.9,10.7,8.8c3,3.8,4.5,8.8,4.5,14.8c0,5.8-1.5,11-4.5,15.7c-2.9,4.7-7.1,8.4-12.7,11.2
		S1699.8,177,1692.3,177z M1859.6,95.6l-21.7,80.4h-27.2l-12.7-52.1l-13.1,52.1h-27.1l-21.9-80.4h24.6l11.4,57.5l13.5-57.5h26.1
		l13.7,57.2l11.2-57.2H1859.6z M1864.1,135.7c0-8.3,1.5-15.5,4.6-21.7c3.2-6.2,7.4-11,12.8-14.4s11.4-5,18-5
		c5.7,0,10.6,1.2,14.8,3.5c4.3,2.3,7.6,5.3,9.9,9.1V95.6h24.6V176h-24.6v-11.4c-2.4,3.7-5.8,6.8-10.1,9.1c-4.2,2.3-9.2,3.5-14.8,3.5
		c-6.5,0-12.5-1.7-17.9-5c-5.4-3.5-9.7-8.3-12.8-14.5C1865.7,151.2,1864.1,143.9,1864.1,135.7z M1924.3,135.8c0-6.1-1.7-11-5.2-14.5
		c-3.4-3.6-7.5-5.3-12.4-5.3s-9.1,1.8-12.5,5.3c-3.4,3.5-5,8.3-5,14.4c0,6.1,1.7,11,5,14.7c3.5,3.6,7.6,5.3,12.5,5.3s9-1.8,12.4-5.3
		C1922.6,146.8,1924.3,142,1924.3,135.8z M1991.4,107c2.4-3.7,5.7-6.8,9.9-9.1c4.2-2.3,9.2-3.5,14.8-3.5c6.6,0,12.6,1.7,18,5
		c5.4,3.4,9.6,8.2,12.7,14.4c3.2,6.2,4.8,13.5,4.8,21.7c0,8.3-1.6,15.6-4.8,21.9c-3.1,6.2-7.3,11.1-12.7,14.5c-5.4,3.4-11.4,5-18,5
		c-5.6,0-10.5-1.2-14.8-3.5c-4.2-2.3-7.5-5.3-9.9-8.9v49.5h-24.6V95.6h24.6V107z M2026.5,135.7c0-6.1-1.7-10.9-5.2-14.4
		c-3.4-3.6-7.5-5.3-12.5-5.3c-4.9,0-9.1,1.8-12.5,5.3c-3.4,3.6-5,8.4-5,14.5c0,6.1,1.7,11,5,14.5c3.4,3.6,7.6,5.3,12.5,5.3
		c4.9,0,9.1-1.8,12.5-5.3C2024.8,146.7,2026.5,141.8,2026.5,135.7z"/>
</g>
<g>
	<defs>
		<rect id="SVGID_9_" x="114" y="44" width="167" height="167"/>
	</defs>
	<clipPath id="SVGID_2_">
		<use xlink:href="#SVGID_9_"  style="overflow:visible;"/>
	</clipPath>
	<g style="clip-path:url(#SVGID_2_);">
		<g>
			
				<linearGradient id="SVGID_4_" gradientUnits="userSpaceOnUse" x1="235.2027" y1="-2677.2991" x2="159.5627" y2="-2819.9575" gradientTransform="matrix(1 0 0 -1 0 -2621.2654)">
				<stop  offset="0" style="stop-color:#F6F6F7"/>
				<stop  offset="0.954" style="stop-color:#DDE8F0"/>
			</linearGradient>
			<path style="fill:url(#SVGID_4_);" d="M197.5,208.5c44.9,0,81.3-36.4,81.3-81.3c0-44.9-36.4-81.3-81.3-81.3
				c-44.9,0-81.3,36.4-81.3,81.3C116.2,172.1,152.6,208.5,197.5,208.5z"/>
		</g>
		
			<linearGradient id="SVGID_5_" gradientUnits="userSpaceOnUse" x1="197.411" y1="-2673.9314" x2="197.411" y2="-2823.0574" gradientTransform="matrix(1 0 0 -1 0 -2621.2654)">
			<stop  offset="0" style="stop-color:#1D65DC"/>
			<stop  offset="1" style="stop-color:#0A4BB3"/>
		</linearGradient>
		<path class="st3" d="M197.4,201.8c41.2,0,74.6-33.4,74.6-74.6s-33.4-74.6-74.6-74.6s-74.6,33.4-74.6,74.6
			c0,6.7,2.6,18.6,10.4,22.7c15,8,29.9,0,30.6,0.9c0.7,1-1.4,2.6-2.6,5.3c-1.2,2.7-1.2,6.4-0.7,6.8c0.5,0.4,2.7,0.3,4.8-0.2
			c3.1-0.8,6.9-3.2,7.4-2.6s-3.9,13.3-0.2,24.3C176.2,195.5,189.4,201.8,197.4,201.8z"/>
		
			<linearGradient id="SVGID_6_" gradientUnits="userSpaceOnUse" x1="247.5575" y1="-2699.0686" x2="147.4515" y2="-2797.6299" gradientTransform="matrix(1 0 0 -1 0 -2621.2654)">
			<stop  offset="0" style="stop-color:#F2F2F2"/>
			<stop  offset="1" style="stop-color:#E3F3FF"/>
		</linearGradient>
		<path class="st4" d="M190.2,184.9c-0.1,0-0.4-0.1-0.6-0.8c-0.5-1.1-0.3-1.5-0.3-1.5c0,0,0.7-2.1,1.3-4.9c0.4-1.7,0.7-3.3,0.9-4.9
			c0.3-1.8,0.4-3.5,0.4-5.3c0-6-1.7-10.3-2.2-11.5c-4.1,1.7-7.9,2.9-10.9,3.3c0,0-0.7-1.4-1.8-3c-0.6-1-1.3-1.9-1.9-2.6
			c-0.6-0.8-1.3-1.6-2.1-2.3c-2.9-2.5-7.2-5.5-7.2-5.5c0.2-1.6,0.5-3.2,1-4.7c0.6-2.1,1.3-4.2,2.2-6.2c-1.5-0.4-9.3-2.1-14-2.1
			c-1.5,0-2.9,0.2-4.3,0.4c-1.4,0.2-2.9,0.5-4.5,0.8c-2.8,0.6-5,1.2-5,1.2c-0.1,0-0.1,0-0.2,0c-0.2,0-0.6-0.1-0.9-0.8
			c-0.2-0.3-0.2-0.7-0.2-1.1c0-0.1,0.1-0.2,0.2-0.3c1.6-1.7,3.3-3.3,5.1-4.8c1.9-1.6,3.8-3.1,5.8-4.4c2.4-1.6,4.9-3.1,7.5-4.4
			c2.2-1.1,4.5-2,6.9-2.7c2.1-0.6,4.2-1.1,6.3-1.5c1.7-0.3,3.4-0.5,5.1-0.6c1.4-0.1,2.5-0.1,3.1-0.1c0.2,0,0.3,0,0.5,0
			c2.1-3,4.4-5.8,6.9-8.5c2.7-2.7,5.5-5.3,8.4-7.6c2.7-2.2,5.6-4.2,8.5-6.1c5.1-3.3,10.6-6.1,16.3-8.3c2.4-0.9,4.8-1.8,7.2-2.5
			c2.1-0.6,4.3-1.2,6.3-1.6c1.8-0.4,3.5-0.6,5.1-0.8c1.2-0.1,2.4-0.2,3.7-0.2c1.1,0,1.9,0.1,2.2,0.3c0.2,0.1,0.3,0.6,0.4,1.3
			c0.1,1,0,2-0.1,3.1c-0.1,1.4-0.3,2.9-0.6,4.5c-0.7,4.2-1.8,8.3-3.2,12.3c-1.7,5.2-4,10.2-6.6,15c-1.5,2.7-3.1,5.3-4.8,7.8
			c-1.9,2.7-3.9,5.2-6,7.6c-4.4,5-9.3,9.5-14.5,13.5c0,0.5-0.8,11.4-4.8,20.9c-1.1,2.5-2.4,4.9-3.9,7.1c-1.4,2.2-3,4.3-4.7,6.3
			c-3,3.6-5.5,6.1-5.5,6.2c0,0-0.1,0-0.1,0.1C190.3,184.9,190.3,184.9,190.2,184.9z M214,100.3c-1.9,0-3.8,0.6-5.4,1.6
			c-1.6,1.1-2.9,2.6-3.6,4.4c-0.7,1.8-0.9,3.7-0.6,5.6c0.4,1.9,1.3,3.6,2.7,5c1.4,1.4,3.1,2.3,5,2.7c1.9,0.4,3.9,0.2,5.6-0.6
			c1.8-0.7,3.3-2,4.4-3.6c1.1-1.6,1.6-3.5,1.6-5.4c0-2.6-1-5.1-2.9-6.9C219.1,101.4,216.6,100.3,214,100.3z"/>
		<path class="st6" d="M163.9,150.8c0.8,0.6-1.4,3.1-2.3,6.1c-0.7,2.5-0.8,5.1-0.3,5.6c0.4,0.5,4.3-0.2,6.3-0.9
			c2-0.7,4.8-2.1,5.1-1.7c0.7,0.8-1.8,6.1-9.3,11c-4.8,3.1-13.8,4.1-14.3,3.4c-0.5-0.6-0.2-7.2,3.7-14.1
			C156.8,153.5,163.1,150.2,163.9,150.8z"/>
	</g>
</g>
</svg>
