<?xml version="1.0" encoding="utf-8"?>
<!-- Generator: Adobe Illustrator 24.1.1, SVG Export Plug-In . SVG Version: 6.00 Build 0)  -->
<svg version="1.1" id="Layer_1" xmlns="http://www.w3.org/2000/svg" xmlns:xlink="http://www.w3.org/1999/xlink" x="0px" y="0px"
	 viewBox="0 0 693 109" style="enable-background:new 0 0 693 109;" xml:space="preserve">
<style type="text/css">
	.st0{fill:url(#SVGID_1_);}
	.st1{fill:url(#SVGID_2_);}
	.st2{fill:url(#SVGID_3_);}
	.st3{fill:url(#SVGID_4_);}
	.st4{fill:url(#SVGID_5_);}
	.st5{fill:url(#SVGID_6_);}
	.st6{fill:url(#SVGID_7_);}
	.st7{fill:url(#SVGID_8_);}
	.st8{fill:url(#SVGID_9_);}
	.st9{fill:url(#SVGID_10_);}
	.st10{fill:url(#SVGID_11_);}
</style>
<linearGradient id="SVGID_1_" gradientUnits="userSpaceOnUse" x1="219.7425" y1="97.107" x2="219.7425" y2="27.254" gradientTransform="matrix(1 0 0 -1 0 109.3228)">
	<stop  offset="0" style="stop-color:#1D65DC"/>
	<stop  offset="1" style="stop-color:#0A4BB3"/>
</linearGradient>
<path class="st0" d="M246,12.2v11.1h-19.3v58.8h-14V23.3h-19.2V12.2L246,12.2L246,12.2z"/>
<linearGradient id="SVGID_2_" gradientUnits="userSpaceOnUse" x1="260.5895" y1="82.8526" x2="260.5895" y2="27.2701" gradientTransform="matrix(1 0 0 -1 0 109.3228)">
	<stop  offset="0" style="stop-color:#1D65DC"/>
	<stop  offset="1" style="stop-color:#0A4BB3"/>
</linearGradient>
<path class="st1" d="M266,29.5c3.4-2,7.1-3,11.3-3v14.9h-4.1c-10.2,0-15.3,4.8-15.3,14.2v26.4h-14V27.3h14v10.5
	C259.9,34.3,262.6,31.5,266,29.5z"/>
<linearGradient id="SVGID_3_" gradientUnits="userSpaceOnUse" x1="309.075" y1="82.063" x2="309.075" y2="26.5911" gradientTransform="matrix(1 0 0 -1 0 109.3228)">
	<stop  offset="0" style="stop-color:#1D65DC"/>
	<stop  offset="1" style="stop-color:#0A4BB3"/>
</linearGradient>
<path class="st2" d="M335.8,27.3v54.8h-14V71c-1.5,3.7-3.8,6.6-7.2,8.7c-3.3,2.1-7.2,3.1-11.5,3.1c-6.3,0-11.4-2.1-15.1-6.2
	c-3.8-4.2-5.6-10-5.6-17.4V27.3h13.8v30.3c0,4.4,1.1,7.7,3.4,10.1c2.2,2.4,5.3,3.6,9.1,3.6c4,0,7.2-1.3,9.6-3.9
	c2.4-2.6,3.6-6.3,3.6-11.1V27.3H335.8z"/>
<linearGradient id="SVGID_4_" gradientUnits="userSpaceOnUse" x1="363.447" y1="82.7417" x2="363.447" y2="26.5593" gradientTransform="matrix(1 0 0 -1 0 109.3228)">
	<stop  offset="0" style="stop-color:#1D65DC"/>
	<stop  offset="1" style="stop-color:#0A4BB3"/>
</linearGradient>
<path class="st3" d="M377.8,31.6c4,3.4,6.5,7.8,7.5,13.4h-13.1c-0.5-2.6-1.7-4.8-3.6-6.3c-1.8-1.6-4.3-2.4-7.2-2.4
	c-2.4,0-4.2,0.6-5.5,1.7c-1.3,1.1-2,2.6-2,4.5c0,1.5,0.5,2.7,1.6,3.7s2.4,1.6,4,2.2c1.6,0.5,3.9,1.2,6.8,1.9
	c4.2,0.9,7.5,1.9,10.1,2.9c2.6,1,4.8,2.6,6.7,4.8c1.9,2.2,2.8,5.2,2.8,9c0,4.7-1.8,8.5-5.5,11.4c-3.7,2.9-8.6,4.4-14.8,4.4
	c-7.1,0-12.8-1.6-17.1-4.8c-4.3-3.2-6.9-7.8-7.8-13.7h13.4c0.3,2.7,1.5,4.8,3.6,6.4c2,1.5,4.7,2.3,8,2.3c2.4,0,4.2-0.6,5.4-1.7
	c1.2-1.2,1.9-2.7,1.9-4.5c0-1.6-0.5-2.9-1.6-3.9c-1.1-1-2.4-1.8-4.1-2.3c-1.6-0.5-3.9-1.2-6.9-1.9c-4.1-0.9-7.4-1.9-9.9-2.8
	c-2.5-0.9-4.7-2.5-6.5-4.6c-1.8-2.1-2.7-5-2.7-8.7c0-4.8,1.8-8.6,5.4-11.6s8.6-4.5,15-4.5C368.5,26.6,373.8,28.3,377.8,31.6z"/>
<linearGradient id="SVGID_5_" gradientUnits="userSpaceOnUse" x1="404.4035" y1="95.6075" x2="404.4035" y2="27.2699" gradientTransform="matrix(1 0 0 -1 0 109.3228)">
	<stop  offset="0" style="stop-color:#1D65DC"/>
	<stop  offset="1" style="stop-color:#0A4BB3"/>
</linearGradient>
<path class="st4" d="M421.4,70.1v12H414c-6.1,0-10.8-1.5-14.1-4.5c-3.3-3-4.9-7.9-4.9-14.8V39h-7.6V27.3h7.6V13.7H409v13.5h12.3V39
	H409V63c0,2.6,0.5,4.5,1.6,5.5c1.1,1.1,2.8,1.6,5.3,1.6H421.4z"/>
<linearGradient id="SVGID_6_" gradientUnits="userSpaceOnUse" x1="459.9756" y1="98.1016" x2="459.9756" y2="26.5595" gradientTransform="matrix(1 0 0 -1 0 109.3228)">
	<stop  offset="0" style="stop-color:#1D65DC"/>
	<stop  offset="1" style="stop-color:#0A4BB3"/>
</linearGradient>
<path class="st5" d="M482.4,72.8c-1.8,3-4.4,5.4-7.9,7.2c-3.5,1.8-7.7,2.7-12.8,2.7c-4.9,0-9.4-0.8-13.3-2.5c-3.9-1.7-7-4.1-9.3-7.3
	c-2.3-3.2-3.7-6.9-4-11.1H450c0.3,2.8,1.5,5.2,3.4,7.1c1.9,1.9,4.5,2.8,7.8,2.8c2.9,0,5.1-0.8,6.7-2.3c1.5-1.5,2.3-3.6,2.3-6
	c0-2.2-0.6-4-1.9-5.4c-1.2-1.4-2.8-2.6-4.8-3.4c-1.9-0.9-4.5-1.8-7.9-3c-4.4-1.5-7.9-2.9-10.7-4.3c-2.8-1.4-5.1-3.5-7.1-6.2
	c-1.9-2.7-2.9-6.2-2.9-10.6c0-6,2.2-10.7,6.5-14.2c4.3-3.5,10-5.2,17.2-5.2c7.4,0,13.3,1.8,17.6,5.3c4.4,3.6,6.9,8.3,7.5,14.2h-15
	c-0.4-2.5-1.5-4.6-3.2-6.2c-1.7-1.6-4.1-2.4-7-2.4c-2.6,0-4.6,0.7-6.2,2c-1.6,1.4-2.4,3.3-2.4,5.9c0,2.1,0.6,3.7,1.8,5.1
	s2.8,2.5,4.7,3.3c1.9,0.9,4.4,1.8,7.7,2.9c4.5,1.6,8.1,3.1,10.9,4.5c2.8,1.4,5.2,3.5,7.2,6.2c2,2.8,3,6.4,3,10.9
	C485.1,66.5,484.2,69.8,482.4,72.8z"/>
<linearGradient id="SVGID_7_" gradientUnits="userSpaceOnUse" x1="528.442" y1="82.063" x2="528.442" y2="27.2698" gradientTransform="matrix(1 0 0 -1 0 109.3228)">
	<stop  offset="0" style="stop-color:#1D65DC"/>
	<stop  offset="1" style="stop-color:#0A4BB3"/>
</linearGradient>
<path class="st6" d="M570.5,27.3l-14.7,54.8h-15.4l-11.8-39.9l-12.1,39.9H501l-14.6-54.8h14l8.9,42.3l12.2-42.3h14.7l12.3,42.3
	l9-42.3H570.5L570.5,27.3z"/>
<linearGradient id="SVGID_8_" gradientUnits="userSpaceOnUse" x1="598.5576" y1="82.7418" x2="598.5576" y2="26.575" gradientTransform="matrix(1 0 0 -1 0 109.3228)">
	<stop  offset="0" style="stop-color:#1D65DC"/>
	<stop  offset="1" style="stop-color:#0A4BB3"/>
</linearGradient>
<path class="st7" d="M606.2,29.8c3.3,2.2,5.6,5.1,7,8.8V27.3H627v54.8h-13.8V70.6c-1.4,3.7-3.7,6.6-7,8.9c-3.3,2.2-7.3,3.3-11.9,3.3
	s-8.8-1.1-12.5-3.4c-3.7-2.2-6.6-5.5-8.6-9.7c-2.1-4.2-3.1-9.3-3.1-15s1-10.7,3.1-15c2.1-4.2,5-7.5,8.6-9.7
	c3.7-2.2,7.8-3.4,12.5-3.4C598.9,26.6,602.9,27.7,606.2,29.8z M588.2,43c-2.6,2.8-4,6.7-4,11.7s1.3,8.8,4,11.6
	c2.7,2.8,6.1,4.2,10.5,4.2c4.2,0,7.7-1.4,10.4-4.3c2.7-2.9,4.1-6.7,4.1-11.5c0-4.9-1.4-8.8-4.1-11.6c-2.7-2.9-6.2-4.3-10.4-4.3
	C594.3,38.7,590.8,40.2,588.2,43z"/>
<linearGradient id="SVGID_9_" gradientUnits="userSpaceOnUse" x1="664.5065" y1="82.7574" x2="664.5065" y2="1.1758" gradientTransform="matrix(1 0 0 -1 0 109.3228)">
	<stop  offset="0" style="stop-color:#1D65DC"/>
	<stop  offset="1" style="stop-color:#0A4BB3"/>
</linearGradient>
<path class="st8" d="M681.2,29.9c3.7,2.2,6.6,5.5,8.6,9.7c2.1,4.2,3.1,9.3,3.1,15s-1,10.7-3.1,15c-2.1,4.2-5,7.5-8.6,9.7
	s-7.8,3.4-12.5,3.4s-8.6-1.1-11.8-3.3c-3.3-2.2-5.6-5.2-7-8.9v37.6H636V27.3H650v11.4c1.4-3.7,3.7-6.6,7-8.8
	c3.3-2.2,7.2-3.3,11.8-3.3C673.4,26.6,677.5,27.7,681.2,29.9z M654,43c-2.7,2.9-4.1,6.7-4.1,11.6c0,4.8,1.4,8.7,4.1,11.5
	c2.7,2.9,6.2,4.3,10.4,4.3c4.4,0,7.8-1.4,10.5-4.2c2.6-2.8,4-6.7,4-11.6s-1.3-8.8-4-11.7c-2.6-2.8-6.1-4.2-10.5-4.2
	C660.2,38.7,656.7,40.2,654,43z"/>
<linearGradient id="SVGID_10_" gradientUnits="userSpaceOnUse" x1="49.5648" y1="109.3228" x2="49.5648" y2="11.5759" gradientTransform="matrix(1 0 0 -1 0 109.3228)">
	<stop  offset="0" style="stop-color:#1D65DC"/>
	<stop  offset="1" style="stop-color:#0A4BB3"/>
</linearGradient>
<path class="st9" d="M60.1,70.3c-2.9,2.4-5.9,3.9-9.7,4.7c-1.6,0.4-3.3,0.6-5.1,0.6c-11.7,0-22-9.2-23-20.5
	c-0.9-6.2,1.1-12.7,5.5-17.8c3.2-3.7,7.3-6.2,11.6-7.4v8.1l29.4-19.1L39.4,0v7.6C23.4,9.6,10,19.8,3.6,35.2
	c-7.1,17.3-3.4,36.1,9.7,49.3c8.6,8.6,19.9,13.3,32,13.3c11.6,0,26.9-5.4,33.9-15.7c5.3-7.8,16.2-29.6,19.9-37.1L60.1,70.3z"/>
<linearGradient id="SVGID_11_" gradientUnits="userSpaceOnUse" x1="107.8766" y1="102.1241" x2="107.8766" y2="4.3768" gradientTransform="matrix(1 0 0 -1 0 109.3228)">
	<stop  offset="0" style="stop-color:#1D65DC"/>
	<stop  offset="1" style="stop-color:#0A4BB3"/>
</linearGradient>
<path class="st10" d="M144.2,20.5c-8.6-8.6-19.9-13.3-32-13.3c-11.6,0-26.9,5.4-33.9,15.7C72.9,30.6,62,52.5,58.3,60l39.1-25.4
	c2.9-2.4,5.9-3.9,9.7-4.7c1.6-0.4,3.3-0.6,5.1-0.6c11.7,0,22,9.2,23,20.5c0.9,6.2-1.1,12.7-5.5,17.8c-3.2,3.7-7.3,6.2-11.6,7.4v-8.1
	L88.6,85.9l29.4,19.1v-7.6c16-2,29.5-12.2,35.9-27.6C161,52.5,157.3,33.6,144.2,20.5z"/>
</svg>
