<svg xmlns="http://www.w3.org/2000/svg" xmlns:xlink="http://www.w3.org/1999/xlink" viewBox="0 0 905.59 1080.49"><defs><style>.cls-1{opacity:0.5;}.cls-2{fill:url(#linear-gradient);}.cls-3{fill:url(#linear-gradient-2);}.cls-4{fill:url(#linear-gradient-3);}.cls-5{fill:#fff0a2;}.cls-6{fill:#eeb81c;}.cls-7{fill:#fff;}.cls-8{fill:url(#linear-gradient-4);}</style><linearGradient id="linear-gradient" x1="452.41" y1="3254.07" x2="452.41" y2="2233.38" gradientTransform="matrix(1, 0, 0, -1, 0, 3282.49)" gradientUnits="userSpaceOnUse"><stop offset="0" stop-color="#fff" stop-opacity="0"/><stop offset="0.11" stop-color="#fffefa" stop-opacity="0.02"/><stop offset="0.24" stop-color="#fef9ec" stop-opacity="0.08"/><stop offset="0.38" stop-color="#fcf2d5" stop-opacity="0.18"/><stop offset="0.52" stop-color="#f9e8b5" stop-opacity="0.33"/><stop offset="0.68" stop-color="#f6db8c" stop-opacity="0.51"/><stop offset="0.83" stop-color="#f3cb59" stop-opacity="0.73"/><stop offset="0.99" stop-color="#eeb91f" stop-opacity="0.99"/><stop offset="1" stop-color="#eeb81c"/></linearGradient><linearGradient id="linear-gradient-2" x1="452.41" y1="3282.49" x2="452.41" y2="2202" gradientTransform="matrix(1, 0, 0, -1, 0, 3282.49)" gradientUnits="userSpaceOnUse"><stop offset="0" stop-color="#fff" stop-opacity="0"/><stop offset="0.27" stop-color="#8d8f92" stop-opacity="0"/><stop offset="0.62" stop-color="#31353a" stop-opacity="0.5"/><stop offset="1" stop-color="#13171d"/></linearGradient><linearGradient id="linear-gradient-3" y1="794.1" x2="905.58" y2="794.1" gradientUnits="userSpaceOnUse"><stop offset="0" stop-color="#ffc73b"/><stop offset="1" stop-color="#ce7c11"/></linearGradient><linearGradient id="linear-gradient-4" x1="222.89" y1="345.43" x2="682.99" y2="345.43" xlink:href="#linear-gradient-3"/></defs><g id="Layer_2" data-name="Layer 2"><g id="Layer_1-2" data-name="Layer 1"><g class="cls-1"><path class="cls-2" d="M823.19,814.11l-370.78,235-370.78-235a18.19,18.19,0,0,1-8.53-15.43V46.58A18.11,18.11,0,0,1,91.16,28.42h722.5a18.11,18.11,0,0,1,18.07,18.15h0v752.1A18.17,18.17,0,0,1,823.19,814.11Z"/><path class="cls-3" d="M813.66,27.42a18.11,18.11,0,0,1,18.07,18.15h0v752.1a18.17,18.17,0,0,1-8.54,15.43l-370.78,235-370.78-235a18.19,18.19,0,0,1-8.53-15.43V45.58A18.11,18.11,0,0,1,91.16,27.42h722.5m0-27.42H91.17A45.52,45.52,0,0,0,45.82,45.58v752.1a45.38,45.38,0,0,0,21.32,38.66l370.73,234.94,14.54,9.21,14.55-9.21L837.68,836.34A45.36,45.36,0,0,0,859,797.68V45.58A45.5,45.5,0,0,0,813.66,0Z"/></g><rect class="cls-4" y="662.1" width="905.58" height="264"/><rect class="cls-5" y="907.82" width="905.59" height="3.24"/><rect class="cls-5" y="676.3" width="905.59" height="3.24"/><circle class="cls-6" cx="452.94" cy="345.43" r="276.45"/><path class="cls-7" d="M452.94,118.18C578,118.39,679.24,220,679,345S577.26,571.33,452.18,571.12,225.88,469.35,226.09,344.27A226.53,226.53,0,0,1,452.94,118.16m0-15c-133.8,0-242.26,108.46-242.26,242.26S319.14,587.7,452.94,587.7,695.2,479.23,695.2,345.44,586.73,103.18,452.94,103.18Z"/><path class="cls-7" d="M127,863V725.18h67.35q26,0,39.09,9.84t13.09,26a33.15,33.15,0,0,1-5.31,18.81,34.78,34.78,0,0,1-14.58,12.3,49.62,49.62,0,0,1-21.27,4.34l3.75-8.08a58.83,58.83,0,0,1,23,4.24,34.6,34.6,0,0,1,15.65,12.5q5.61,8.26,5.62,20.28,0,17.73-14,27.67T198.27,863Zm31.7-24h37.2q12.4,0,18.81-4c4.26-2.68,6.4-7,6.4-12.89s-2.14-10.08-6.4-12.9S204.17,805,195.9,805H156.32V781.7h34.07q11.61,0,17.82-4t6.2-12.31q0-8.07-6.2-12.11t-17.82-4H158.68Z"/><path class="cls-7" d="M309.33,837.43h75V863H277.63V725.18H381.8v25.6H309.33ZM307,780.71h66.37v24.82H307Z"/><path class="cls-7" d="M409.76,863V725.18h59.67q18.51,0,31.91,6A46.84,46.84,0,0,1,522,748.41q7.29,11.24,7.29,26.79,0,15.36-7.29,26.58A46.7,46.7,0,0,1,501.34,819q-13.39,6-31.91,6H427.49l14.18-14.38V863Zm31.91-48.84L427.49,799h40.17q14.77,0,22.06-6.31T497,775.2q0-11.43-7.28-17.73t-22.06-6.3H427.49L441.67,736Z"/><path class="cls-7" d="M543.09,863V842.35l53.17-50.22a55.88,55.88,0,0,0,9.25-10.24,31.46,31.46,0,0,0,4-8.27,25.09,25.09,0,0,0,1.08-6.89q0-8.26-5.61-12.7t-16.44-4.43a38.41,38.41,0,0,0-16,3.34A31.34,31.34,0,0,0,560,763.38l-23.24-15a54.37,54.37,0,0,1,22.06-18.7q14.17-6.9,32.69-6.9,15.36,0,26.88,5a41.65,41.65,0,0,1,17.92,14.08q6.41,9.06,6.4,21.66A54.14,54.14,0,0,1,641,776.81a43.74,43.74,0,0,1-6.7,13.88A106.41,106.41,0,0,1,619.67,807l-44.11,41.55L569.47,837h77.79v26Z"/><path class="cls-7" d="M719.53,865.39A56,56,0,0,1,689.21,857q-13.4-8.37-21.08-24.32t-7.68-38.6q0-22.64,7.68-38.6t21.08-24.32a56,56,0,0,1,30.32-8.37q17.15,0,30.43,8.37t21,24.32q7.68,16,7.68,38.6T771,832.68q-7.68,15.95-21,24.32T719.53,865.39Zm0-27a22.73,22.73,0,0,0,14.08-4.53q6-4.53,9.46-14.37t3.44-25.41q0-15.55-3.44-25.4t-9.46-14.38a22.73,22.73,0,0,0-14.08-4.53,22.41,22.41,0,0,0-13.88,4.53q-6,4.53-9.45,14.38t-3.45,25.4q0,15.55,3.45,25.41t9.45,14.37a22.42,22.42,0,0,0,13.88,4.55Z"/><circle class="cls-8" cx="452.94" cy="345.43" r="230.05"/><path class="cls-7" d="M387.65,318.6l65.29-65.29,65.32,65.33,38-38L452.94,177.33,349.66,280.61l38,38M284.84,345.42l38-38,38,38-38,38Zm102.81,26.84,65.29,65.29,65.32-65.33,38,38,0,0L452.94,513.53,349.65,410.25l0-.05,38-37.94m157.41-26.81,38-38,38,38-38,38Z"/><path class="cls-7" d="M491.47,345.41h0l-38.55-38.55-28.49,28.49h0l-3.27,3.27-6.75,6.76-.05.05.05.05L452.94,384l38.55-38.55,0,0,0,0"/></g></g></svg>