<svg xmlns="http://www.w3.org/2000/svg" xmlns:xlink="http://www.w3.org/1999/xlink" viewBox="0 0 907.61 1080"><defs><style>.cls-1{fill:none;}.cls-2{opacity:0.5;}.cls-3{fill:url(#linear-gradient);}.cls-4{fill:url(#linear-gradient-2);}.cls-5{fill:url(#linear-gradient-3);}.cls-6{fill:#fff;}.cls-7{clip-path:url(#clip-path);}.cls-8{fill:url(#linear-gradient-4);}.cls-9{fill:#c9a1ff;}</style><linearGradient id="linear-gradient" x1="453.81" y1="2" x2="453.81" y2="1082" gradientTransform="matrix(1, 0, 0, -1, 0, 1082)" gradientUnits="userSpaceOnUse"><stop offset="0" stop-color="#5734a3" stop-opacity="0.75"/><stop offset="1" stop-color="#fff" stop-opacity="0"/></linearGradient><linearGradient id="linear-gradient-2" x1="453.8" y1="1082" x2="453.8" y2="2" gradientTransform="matrix(1, 0, 0, -1, 0, 1082)" gradientUnits="userSpaceOnUse"><stop offset="0" stop-color="#fff" stop-opacity="0"/><stop offset="1" stop-color="#8247e5"/></linearGradient><linearGradient id="linear-gradient-3" x1="177.73" y1="343.97" x2="729.87" y2="343.97" gradientUnits="userSpaceOnUse"><stop offset="0" stop-color="#9771ff"/><stop offset="1" stop-color="#5734a3"/></linearGradient><clipPath id="clip-path"><rect class="cls-1" x="293.14" y="186.89" width="321.33" height="314.16"/></clipPath><linearGradient id="linear-gradient-4" x1="0" y1="791.3" x2="907.61" y2="791.3" xlink:href="#linear-gradient-3"/></defs><g id="Layer_2" data-name="Layer 2"><g id="Layer_1-2" data-name="Layer 1"><g class="cls-2"><path class="cls-3" d="M841.39,837.61,455.29,1080l-388-238.35c-13.82-7.29-22.18-19.88-22.19-33.4L44.5,39.72C44.47,17.79,66,0,92.64,0H815c26.59,0,48.14,17.77,48.14,39.69V804.43C863.11,817.8,855,830.27,841.39,837.61Z"/><path class="cls-4" d="M815,26.5c12.39,0,21.64,7,21.64,13.19V804.43c0,3.47-3,7.26-7.83,9.87l-.75.41-.72.45L455.14,1048.8l-374-229.74-.74-.45-.77-.4c-5-2.62-8-6.45-8.06-10L71,39.7c0-3.43,2.79-6.24,4.45-7.62C79.74,28.54,86,26.5,92.63,26.5H815M815,0H92.64C66,0,44.48,17.79,44.5,39.72l.56,768.53c0,13.52,8.38,26.11,22.19,33.4l388,238.35,386.1-242.39c13.56-7.34,21.72-19.81,21.72-33.18V39.69C863.11,17.77,841.55,0,815,0Z"/></g><ellipse class="cls-5" cx="453.8" cy="343.97" rx="276.07" ry="276.92"/><path class="cls-6" d="M453.8,118.31c124.25,0,225,101,225,225.66s-100.72,225.65-225,225.65-225-101-225-225.65,100.72-225.66,225-225.66m0-13A238.9,238.9,0,0,0,234.54,436.87a238.05,238.05,0,1,0,311.9-312.79,235.76,235.76,0,0,0-92.64-18.77Z"/><g id="favicon"><g class="cls-7"><g id="Mask_Group_3" data-name="Mask Group 3"><path id="Path_151" data-name="Path 151" class="cls-6" d="M533.46,291.91a20.43,20.43,0,0,0-19.55,0l-44.85,25.43-30.47,16.59-44.85,25.43a20.43,20.43,0,0,1-19.55,0l-35.65-19.91a19,19,0,0,1-9.77-16V284.16a17.82,17.82,0,0,1,9.77-16l35.08-19.35a20.43,20.43,0,0,1,19.55,0l35.08,19.35a19,19,0,0,1,9.77,16v25.43l30.47-17.14V267a17.82,17.82,0,0,0-9.77-16l-65-36.49a20.43,20.43,0,0,0-19.55,0L308.05,251a17.83,17.83,0,0,0-9.77,16v73.54a17.82,17.82,0,0,0,9.77,16l66.13,36.49a20.43,20.43,0,0,0,19.55,0l44.85-24.88,30.47-17.14,44.85-24.88a20.43,20.43,0,0,1,19.55,0l35.08,19.35a19,19,0,0,1,9.77,16v39.26a17.82,17.82,0,0,1-9.77,16l-35.08,19.91a20.43,20.43,0,0,1-19.55,0l-35.08-19.35a19,19,0,0,1-9.77-16V376l-30.47,17.14v25.43a17.82,17.82,0,0,0,9.77,16L514.48,471A20.43,20.43,0,0,0,534,471l66.13-36.49a19,19,0,0,0,9.77-16V345a17.82,17.82,0,0,0-9.77-16Z"/></g></g></g><rect class="cls-8" y="657.78" width="907.61" height="267.04"/><rect class="cls-9" y="670.78" width="907.61" height="4.8"/><rect class="cls-9" y="905.89" width="907.61" height="4.8"/><path class="cls-6" d="M234.74,834.71v25.65H127.79V722.23H232.18v25.65H159.56v30h64.13v24.86H159.56v32h75.18Z"/><path class="cls-6" d="M348.2,860.36l-26.64-38.48h-29.4v38.48h-32V722.23H320c36.9,0,60,19.14,60,50.12,0,20.72-10.46,35.91-28.42,43.61l31,44.4Zm-30-112.08h-26v48.15h26c19.54,0,29.4-9.08,29.4-24.07C347.61,757.16,337.74,748.28,318.21,748.28Z"/><path class="cls-6" d="M396.54,791.3c0-41.64,32-71.43,75-71.43,23.88,0,43.81,8.68,56.83,24.47l-20.52,18.94c-9.27-10.66-20.92-16.18-34.73-16.18-25.85,0-44.2,18.15-44.2,44.2s18.35,44.2,44.2,44.2c13.81,0,25.46-5.53,34.73-16.38l20.52,18.94c-13,16-33,24.67-57,24.67C428.51,862.73,396.54,832.93,396.54,791.3Z"/><path class="cls-6" d="M648.59,834.31v26.05H544.2V839.64l53.28-50.32c12.23-11.64,14.41-18.75,14.41-25.46,0-10.85-7.5-17.17-22.1-17.17-11.84,0-21.9,4.54-28.61,13.81l-23.28-15c10.66-15.59,30-25.65,54.86-25.65,30.78,0,51.31,15.79,51.31,40.85,0,13.42-3.75,25.65-23.09,43.61l-31.77,30h59.38Z"/><path class="cls-6" d="M661.41,791.3c0-45.58,25.26-71.43,59.2-71.43,34.14,0,59.2,25.85,59.2,71.43s-25.06,71.43-59.2,71.43C686.67,862.73,661.41,836.88,661.41,791.3Zm86.23,0c0-31.38-11-44.4-27-44.4-15.79,0-26.84,13-26.84,44.4s11.05,44.4,26.84,44.4C736.59,835.7,747.64,822.67,747.64,791.3Z"/></g></g></svg>