<svg xmlns="http://www.w3.org/2000/svg" xmlns:xlink="http://www.w3.org/1999/xlink" viewBox="0 0 905.59 1080.49"><defs><style>.cls-1{opacity:0.5;}.cls-2{fill:url(#linear-gradient);}.cls-3{fill:url(#linear-gradient-2);}.cls-4{fill:url(#linear-gradient-3);}.cls-5{fill:#fff;}.cls-6{fill:url(#linear-gradient-4);}.cls-7{fill-rule:evenodd;fill:url(#linear-gradient-5);}</style><linearGradient id="linear-gradient" x1="452.41" y1="3254.07" x2="452.41" y2="2233.38" gradientTransform="matrix(1, 0, 0, -1, 0, 3282.49)" gradientUnits="userSpaceOnUse"><stop offset="0" stop-color="#fff" stop-opacity="0"/><stop offset="0.11" stop-color="snow" stop-opacity="0.02"/><stop offset="0.24" stop-color="#fdeded" stop-opacity="0.08"/><stop offset="0.38" stop-color="#fbd6d6" stop-opacity="0.19"/><stop offset="0.53" stop-color="#f9b6b7" stop-opacity="0.33"/><stop offset="0.77" stop-color="#f58d8f"/><stop offset="1" stop-color="#f58d8f"/></linearGradient><linearGradient id="linear-gradient-2" x1="452.41" y1="3282.49" x2="452.41" y2="2202" gradientTransform="matrix(1, 0, 0, -1, 0, 3282.49)" gradientUnits="userSpaceOnUse"><stop offset="0" stop-color="#fff" stop-opacity="0"/><stop offset="0.27" stop-color="#f7a1a4" stop-opacity="0"/><stop offset="0.62" stop-color="#db2144" stop-opacity="0.5"/><stop offset="1" stop-color="#ff0024"/></linearGradient><linearGradient id="linear-gradient-3" y1="794.1" x2="905.58" y2="794.1" gradientUnits="userSpaceOnUse"><stop offset="0" stop-color="#e64142"/><stop offset="0.24" stop-color="#dd3739"/><stop offset="0.64" stop-color="#c51d23"/><stop offset="1" stop-color="#aa0009"/></linearGradient><linearGradient id="linear-gradient-4" x1="176.49" y1="345.43" x2="729.39" y2="345.43" xlink:href="#linear-gradient-3"/><linearGradient id="linear-gradient-5" x1="193.77" y1="345.43" x2="711.05" y2="345.43" xlink:href="#linear-gradient-3"/></defs><g id="Layer_2" data-name="Layer 2"><g id="Layer_1-2" data-name="Layer 1"><g class="cls-1"><path class="cls-2" d="M823.19,814.11l-370.78,235-370.78-235a18.19,18.19,0,0,1-8.53-15.43V46.58A18.11,18.11,0,0,1,91.16,28.42h722.5a18.11,18.11,0,0,1,18.07,18.15h0v752.1A18.17,18.17,0,0,1,823.19,814.11Z"/><path class="cls-3" d="M813.66,27.42a18.11,18.11,0,0,1,18.07,18.15h0v752.1a18.17,18.17,0,0,1-8.54,15.43l-370.78,235-370.78-235a18.19,18.19,0,0,1-8.53-15.43V45.58A18.11,18.11,0,0,1,91.16,27.42h722.5m0-27.42H91.17A45.52,45.52,0,0,0,45.82,45.58v752.1a45.38,45.38,0,0,0,21.32,38.66l370.73,234.94,14.54,9.21,14.55-9.21L837.68,836.34A45.36,45.36,0,0,0,859,797.68V45.58A45.5,45.5,0,0,0,813.66,0Z"/></g><rect class="cls-4" y="662.1" width="905.58" height="264"/><rect class="cls-5" y="907.82" width="905.59" height="3.24"/><rect class="cls-5" y="676.3" width="905.59" height="3.24"/><circle class="cls-6" cx="452.94" cy="345.43" r="276.45"/><path class="cls-5" d="M452.94,118.17C578,118.38,679.24,219.94,679,345S577.26,571.32,452.18,571.11,225.88,469.34,226.09,344.26A226.53,226.53,0,0,1,452.94,118.15m0-15c-133.8,0-242.26,108.46-242.26,242.26S319.14,587.69,452.94,587.69,695.2,479.22,695.2,345.43,586.73,103.17,452.94,103.17Z"/><path class="cls-5" d="M452.94,103.16c-133.8,0-242.26,108.46-242.26,242.26S319.14,587.7,452.94,587.7,695.2,479.23,695.2,345.44,586.73,103.18,452.94,103.18Z"/><path class="cls-7" d="M711.05,345.43c0,142.84-115.8,258.64-258.64,258.64S193.77,488.27,193.77,345.43,309.57,86.79,452.41,86.79,711.05,202.59,711.05,345.43ZM379.12,448.36h-50.2c-10.54,0-15.75,0-18.93-2a12.74,12.74,0,0,1-5.78-10c-.19-3.75,2.41-8.33,7.62-17.48L435.77,200.42c5.27-9.28,7.94-13.92,11.31-15.63a12.79,12.79,0,0,1,11.56,0c3.37,1.71,6,6.35,11.31,15.63l25.48,44.47.13.23c5.7,9.95,8.59,15,9.85,20.3a37.92,37.92,0,0,1,0,17.66c-1.27,5.34-4.13,10.42-9.92,20.52l-65.1,115.08-.16.3c-5.74,10-8.64,15.12-12.67,18.95a37.72,37.72,0,0,1-15.44,9C396.85,448.36,390.94,448.36,379.12,448.36Zm126.76,0H577.8c10.61,0,16,0,19.13-2.1a12.69,12.69,0,0,0,5.78-10c.18-3.62-2.37-8-7.36-16.64l-.52-.9-36-61.63-.41-.69c-5.06-8.56-7.61-12.88-10.9-14.56a12.67,12.67,0,0,0-11.5,0c-3.3,1.72-6,6.23-11.24,15.32l-35.9,61.63-.12.21c-5.26,9.07-7.89,13.6-7.7,17.32a12.86,12.86,0,0,0,5.79,10C489.93,448.36,495.27,448.36,505.88,448.36Z"/><path class="cls-5" d="M452.94,118.18C578,118.39,679.24,220,679,345S577.26,571.33,452.18,571.12,225.88,469.35,226.09,344.27A226.53,226.53,0,0,1,452.94,118.16m0-15c-133.8,0-242.26,108.46-242.26,242.26S319.14,587.7,452.94,587.7,695.2,479.23,695.2,345.44,586.73,103.18,452.94,103.18Z"/><path class="cls-5" d="M107.39,863l61.44-137.85h31.51L262,863H228.5L178.08,741.3h12.61L140.08,863Zm30.72-29.54,8.47-24.22h70.89l8.66,24.22Z"/><path class="cls-5" d="M276.35,863V725.18H336q18.51,0,31.9,6a46.76,46.76,0,0,1,20.68,17.23q7.28,11.24,7.28,26.79,0,15.36-7.28,26.48a46.31,46.31,0,0,1-20.68,17q-13.39,5.91-31.9,5.91H294.07l14.18-14V863Zm31.9-48.84-14.18-15h40.18q14.76,0,22.05-6.4t7.29-17.62q0-11.43-7.29-17.73t-22.05-6.3H294.07L308.25,736ZM364,863l-34.46-50h34.07l34.85,50Z"/><path class="cls-5" d="M487.06,865.39a82.6,82.6,0,0,1-29.64-5.22A68.81,68.81,0,0,1,418,822.66a75.38,75.38,0,0,1,0-57.11,68.2,68.2,0,0,1,15.75-22.65A70.79,70.79,0,0,1,457.52,728a82.49,82.49,0,0,1,29.74-5.22A81.4,81.4,0,0,1,519.65,729,63.14,63.14,0,0,1,544,747.23l-20.48,18.91A47.91,47.91,0,0,0,507.74,754a44.2,44.2,0,0,0-18.91-4,48.33,48.33,0,0,0-17.72,3.15,40,40,0,0,0-14,9.06,41.55,41.55,0,0,0-9.16,14A51,51,0,0,0,448,812a41.45,41.45,0,0,0,9.16,14,40.15,40.15,0,0,0,14,9,48.34,48.34,0,0,0,17.72,3.16,44.2,44.2,0,0,0,18.91-4,47,47,0,0,0,15.75-12.31L544,840.77a64,64,0,0,1-24.32,18.32Q505.18,865.39,487.06,865.39Z"/><path class="cls-5" d="M562.68,863V842.35l53.17-50.22a55.88,55.88,0,0,0,9.25-10.24,31.46,31.46,0,0,0,4-8.27,25.09,25.09,0,0,0,1.08-6.89q0-8.26-5.61-12.7t-16.44-4.43a38.34,38.34,0,0,0-16,3.34,31.39,31.39,0,0,0-12.51,10.44l-23.23-15a54.35,54.35,0,0,1,22-18.7q14.18-6.9,32.69-6.9,15.36,0,26.88,5a41.65,41.65,0,0,1,17.92,14.08q6.4,9.06,6.4,21.66a54.14,54.14,0,0,1-1.67,13.29,43.74,43.74,0,0,1-6.7,13.88A105.43,105.43,0,0,1,639.24,807l-44.11,41.55L589.07,837h77.78v26Z"/><path class="cls-5" d="M739.12,865.39A56,56,0,0,1,708.8,857q-13.39-8.37-21.07-24.32t-7.68-38.6q0-22.64,7.68-38.6t21.07-24.32a56,56,0,0,1,30.32-8.37q17.14,0,30.43,8.37t21,24.32q7.68,16,7.68,38.6t-7.68,38.6q-7.68,15.95-21,24.32T739.12,865.39Zm0-27a22.73,22.73,0,0,0,14.08-4.53q6-4.53,9.46-14.37t3.44-25.41q0-15.55-3.44-25.4T753.2,754.3a22.73,22.73,0,0,0-14.08-4.53,22.41,22.41,0,0,0-13.88,4.53q-6,4.53-9.45,14.38t-3.45,25.4q0,15.55,3.45,25.41t9.45,14.37a22.4,22.4,0,0,0,13.88,4.55Z"/></g></g></svg>