<?xml version="1.0" standalone="no"?>
<!DOCTYPE svg PUBLIC "-//W3C//DTD SVG 20010904//EN"
 "http://www.w3.org/TR/2001/REC-SVG-20010904/DTD/svg10.dtd">
<svg version="1.0" xmlns="http://www.w3.org/2000/svg"
 width="594.000000pt" height="586.000000pt" viewBox="0 0 594.000000 586.000000"
 preserveAspectRatio="xMidYMid meet">

<g transform="translate(0.000000,586.000000) scale(0.100000,-0.100000)"
fill="#000000" stroke="none">
<path d="M3448 5802 c-25 -2 -51 -8 -56 -15 -5 -7 -54 -88 -108 -182 -53 -93
-128 -222 -164 -285 -37 -63 -96 -164 -130 -225 -35 -60 -88 -154 -119 -207
-31 -53 -89 -154 -130 -225 -40 -70 -104 -180 -141 -243 -74 -125 -178 -306
-285 -495 -38 -66 -105 -183 -150 -260 -126 -216 -231 -396 -253 -435 -20 -36
-333 -579 -408 -710 -250 -430 -389 -673 -437 -760 -17 -30 -47 -82 -68 -115
-20 -33 -133 -229 -252 -435 -118 -206 -284 -494 -369 -640 -85 -146 -179
-310 -210 -365 -30 -55 -65 -116 -77 -135 -11 -19 -21 -38 -21 -43 0 -4 228
-6 507 -5 l507 3 141 246 c77 135 167 293 201 350 34 57 96 165 139 239 43 74
102 176 131 225 28 50 64 113 79 140 28 51 70 124 217 375 82 140 177 305 298
515 32 55 109 190 172 300 64 110 168 289 232 399 64 109 116 200 116 202 0 2
32 59 72 126 39 68 103 177 141 243 38 66 100 172 137 235 37 63 101 174 142
245 41 72 101 175 133 230 32 55 67 116 77 135 20 34 144 247 179 304 l17 29
20 -69 c29 -105 81 -295 117 -434 52 -194 110 -414 143 -538 l30 -112 -75
-133 c-42 -72 -104 -181 -138 -242 -34 -60 -104 -182 -155 -270 -52 -88 -113
-194 -137 -235 -23 -41 -71 -124 -105 -183 -143 -247 -179 -309 -258 -447 -46
-80 -120 -208 -165 -285 -45 -77 -109 -187 -142 -245 -33 -58 -86 -150 -118
-205 -32 -55 -69 -120 -82 -145 -14 -25 -59 -103 -101 -175 -41 -71 -105 -182
-142 -245 -172 -295 -320 -559 -320 -571 0 -5 225 -9 503 -9 l503 0 99 172
c54 95 124 219 155 274 31 56 73 128 93 160 76 128 383 658 470 814 17 30 48
84 70 120 22 36 64 106 92 155 133 232 171 297 223 383 l56 94 23 -84 c78
-285 118 -433 134 -503 11 -44 31 -116 44 -160 22 -73 89 -323 134 -500 10
-38 34 -126 54 -195 19 -69 38 -138 41 -155 4 -16 36 -133 71 -260 35 -126 69
-249 75 -272 l11 -43 455 0 c430 0 456 1 449 18 -3 9 -26 94 -50 187 -23 94
-68 260 -98 370 -30 110 -57 214 -61 230 -4 17 -29 113 -57 215 -28 102 -62
228 -76 280 -13 52 -42 158 -63 235 -22 77 -55 203 -75 280 -19 77 -51 196
-70 265 -19 69 -49 179 -66 245 -17 66 -52 199 -79 295 -26 96 -60 222 -75
280 -15 58 -43 163 -62 233 l-34 128 44 77 c25 42 57 100 72 127 15 28 59 104
98 170 250 429 399 697 392 704 -4 3 -207 8 -453 11 l-446 5 -33 125 c-82 302
-137 503 -165 610 -17 63 -52 194 -79 290 -26 96 -60 222 -74 280 -15 58 -30
109 -34 113 -8 8 -748 16 -843 9z"/>
</g>
</svg>
