<svg width="1000" height="1000" viewBox="0 0 1000 1000" fill="none" xmlns="http://www.w3.org/2000/svg">
  <path d="M500 1000C776.142 1000 1000 776.142 1000 500C1000 223.858 776.142 0 500 0C223.858 0 0 223.858 0 500C0 776.142 223.858 1000 500 1000Z" fill="#E84142"/>
  <path d="M676.378 512.992C693.701 483.071 721.654 483.071 738.976 512.992L846.85 702.362C864.173 732.283 850 756.693 815.354 756.693H598.031C563.779 756.693 549.606 732.283 566.535 702.362L676.378 512.992ZM467.717 148.425C485.039 118.504 512.598 118.504 529.921 148.425L553.937 191.732L610.63 291.339C624.409 319.685 624.409 353.15 610.63 381.496L420.472 711.024C403.15 737.795 374.409 754.724 342.52 756.693H184.646C150 756.693 135.827 732.677 153.15 702.362L467.717 148.425Z" fill="white"/>
</svg>
