<svg width="1000" height="1000" viewBox="0 0 1000 1000" fill="none" xmlns="http://www.w3.org/2000/svg">
  <g clip-path="url(#clip0_4390_27553)">
    <path d="M301.483 420.208L495.684 226.015L689.987 420.311L802.987 307.311L495.684 0L188.483 307.209L301.483 420.208Z" fill="#F3BA2F"/>
    <path d="M221.683 499.982L108.685 386.985L-4.31812 499.988L108.68 612.986L221.683 499.982Z" fill="#F3BA2F"/>
    <path d="M301.482 579.792L495.684 773.985L689.98 579.697L803.042 692.633L802.987 692.697L495.684 1000L188.475 692.799L188.317 692.641L301.482 579.792Z" fill="#F3BA2F"/>
    <path d="M882.693 613.039L995.696 500.036L882.699 387.038L769.695 500.041L882.693 613.039Z" fill="#F3BA2F"/>
    <path d="M610.302 499.941H610.35L495.684 385.275L410.944 470.014H410.936L401.205 479.753L381.12 499.838L380.962 499.996L381.12 500.162L495.684 614.725L610.35 500.059L610.405 499.996L610.302 499.941Z" fill="#F3BA2F"/>
  </g>
  <defs>
    <clipPath id="clip0_4390_27553">
      <rect width="1000" height="1000" fill="white"/>
    </clipPath>
  </defs>
</svg>
