<svg width="1000" height="1000" viewBox="0 0 1000 1000" fill="none" xmlns="http://www.w3.org/2000/svg">
  <g clip-path="url(#clip0_4390_27542)">
    <path d="M456.248 9.57922C480.475 -3.19307 517.339 -3.19307 541.565 9.57922L788.78 139.909C803.371 147.601 811.384 159.063 812.82 170.896H813.056V825.997C812.734 838.905 804.646 851.727 788.78 860.091L541.565 990.421C517.339 1003.19 480.475 1003.19 456.248 990.421L209.034 860.091C193.235 851.762 185.653 838.851 185.278 825.997C185.239 824.679 185.236 823.592 185.276 822.697L185.278 175.307C185.241 174.396 185.24 173.49 185.277 172.587L185.278 170.896H185.388C186.486 158.933 194.136 147.763 209.034 139.909L456.248 9.57922ZM773.73 535.112L541.49 657.949C517.298 670.746 480.488 670.746 456.296 657.949L224.573 535.386V823.974L456.296 945.887C469.99 953.214 484.228 960.352 498.093 960.664L498.893 960.674C512.731 960.719 526.166 953.683 539.788 947.022L773.73 822.923V535.112ZM146.517 811.798C146.517 836.911 149.409 853.417 155.153 865.045C159.914 874.684 167.057 882.049 180.1 891.013L180.845 891.521C183.707 893.469 186.86 895.508 190.698 897.905L195.225 900.702L209.124 909.165L189.189 942.416L173.632 932.937L171.017 931.317C166.519 928.514 162.791 926.109 159.314 923.743C122.141 898.458 108.278 870.892 108.004 813.545L108 811.798H146.517ZM480.191 360.955C478.392 361.574 476.706 362.291 475.169 363.104L228.332 493.854C228.073 493.99 227.826 494.127 227.591 494.261L227.382 494.381L227.77 494.605L228.332 494.91L475.169 625.66C476.706 626.473 478.392 627.19 480.191 627.809V360.955ZM519.517 360.955V627.809C521.317 627.19 523.003 626.473 524.54 625.66L771.375 494.91C771.634 494.774 771.881 494.637 772.116 494.504L772.326 494.381L771.938 494.159L771.375 493.854L524.54 363.104C523.003 362.291 521.317 361.574 519.517 360.955ZM773.73 217.697L551.82 334.27L773.73 450.843V217.697ZM224.573 217.697V450.843L446.483 334.27L224.573 217.697ZM524.324 44.4201C511.476 37.6278 488.232 37.6278 475.384 44.4201L228.333 175.033C228.074 175.171 227.827 175.306 227.591 175.441L227.382 175.562L227.77 175.784L228.333 176.09L475.384 306.703C488.232 313.496 511.476 313.496 524.324 306.703L771.374 176.09C771.633 175.952 771.881 175.817 772.116 175.684L772.326 175.562L771.938 175.34L771.374 175.033L524.324 44.4201ZM810.519 57.5843L826.076 67.0636L828.691 68.6832C833.188 71.4845 836.917 73.8912 840.395 76.2566C877.567 101.541 891.43 129.108 891.704 186.455L891.708 188.202H853.192C853.192 163.088 850.298 146.583 844.554 134.953C839.795 125.316 832.651 117.95 819.609 108.988L818.864 108.479C816.001 106.532 812.849 104.492 809.01 102.095L804.484 99.2979L790.584 90.8353L810.519 57.5843Z" fill="#1969FF"/>
  </g>
  <defs>
    <clipPath id="clip0_4390_27542">
      <rect width="1000" height="1000" fill="white"/>
    </clipPath>
  </defs>
</svg>
