<svg width="1000" height="1000" viewBox="0 0 1000 1000" fill="none" xmlns="http://www.w3.org/2000/svg">
  <path d="M500 0C225 0 0 225 0 500C0 775 225 1000 500 1000C775 1000 1000 775 1000 500C1000 225 775 0 500 0V0Z" fill="#01943F"/>
  <path d="M376.5 343.516C376.84 343.312 377.201 343.146 377.578 343.023C381.602 341.156 385.629 339.391 389.652 337.82V258.398C389.663 251.461 386.918 244.803 382.021 239.888C377.125 234.973 370.477 232.203 363.539 232.188H255.258V460.141C281.701 408.956 324.328 367.953 376.5 343.516V343.516Z" fill="white"/>
  <path d="M486.746 482.328H510.895C519.224 482.332 527.472 480.694 535.168 477.508C542.864 474.322 549.856 469.651 555.746 463.761C561.635 457.872 566.307 450.879 569.492 443.183C572.678 435.488 574.316 427.239 574.312 418.91V350.977C561.254 348.719 501.566 347.461 487.727 347.461C428.718 347.425 371.894 369.78 328.728 410.012C285.562 450.245 259.27 505.358 255.16 564.223C254.77 569.621 254.57 575.02 254.57 580.52C254.57 586.02 254.766 591.418 255.16 596.816V741.699C255.159 745.129 255.833 748.525 257.145 751.694C258.457 754.863 260.38 757.742 262.805 760.168C265.23 762.593 268.11 764.516 271.279 765.828C274.447 767.14 277.844 767.814 281.273 767.812H389.555V579.238C389.608 553.505 399.875 528.846 418.099 510.678C436.323 492.51 461.013 482.319 486.746 482.344V482.328Z" fill="white"/>
  <path d="M623.695 656.484C623.356 656.689 622.994 656.854 622.617 656.977C618.594 658.84 614.566 660.609 610.543 662.18V741.602C610.533 748.539 613.277 755.198 618.174 760.112C623.071 765.027 629.718 767.797 636.656 767.813H744.859V539.855C718.422 591.018 675.828 632.017 623.695 656.484V656.484Z" fill="white"/>
  <path d="M744.84 403.203V258.301C744.841 254.871 744.167 251.475 742.855 248.306C741.543 245.137 739.62 242.258 737.195 239.832C734.77 237.407 731.89 235.484 728.722 234.172C725.553 232.86 722.156 232.186 718.727 232.188H610.445V420.781C610.393 446.496 600.139 471.139 581.936 489.301C563.732 507.464 539.066 517.661 513.352 517.656H489.102C480.771 517.653 472.522 519.291 464.825 522.478C457.128 525.665 450.135 530.337 444.245 536.228C438.355 542.12 433.684 549.114 430.499 556.812C427.314 564.509 425.678 572.759 425.684 581.09V649.023C438.742 651.281 498.43 652.539 512.27 652.539C513.832 652.539 515.313 652.539 516.883 652.441C549.344 651.887 581.323 644.495 610.734 630.746L611.324 630.453C648.948 612.864 681.179 585.526 704.671 551.276C728.162 517.027 742.059 477.113 744.918 435.68C745.309 430.281 745.508 424.879 745.508 419.383C745.43 414 745.23 408.602 744.84 403.203Z" fill="white"/>
</svg>
