<svg width="1000" height="1000" viewBox="0 0 1000 1000" fill="none" xmlns="http://www.w3.org/2000/svg">
  <circle cx="500" cy="500" r="500" fill="#8247E5"/>
  <path d="M667.167 388.804C655.287 382.016 640.013 382.016 626.436 388.804L531.397 444.809L466.906 480.449L373.564 536.454C361.684 543.243 346.41 543.243 332.833 536.454L259.856 492.329C247.977 485.54 239.491 471.963 239.491 456.689V371.833C239.491 358.256 246.279 344.679 259.856 336.193L332.833 293.765C344.713 286.976 359.987 286.976 373.564 293.765L446.54 337.89C458.42 344.679 466.906 358.256 466.906 373.53V429.535L531.397 392.198V334.496C531.397 320.919 524.608 307.342 511.031 298.856L375.261 219.091C363.381 212.303 348.107 212.303 334.53 219.091L195.366 300.553C181.789 307.342 175 320.919 175 334.496V494.026C175 507.603 181.789 521.18 195.366 529.666L332.833 609.431C344.713 616.219 359.987 616.219 373.564 609.431L466.906 555.123L531.397 517.786L624.739 463.478C636.619 456.689 651.893 456.689 665.47 463.478L738.446 505.906C750.326 512.694 758.812 526.271 758.812 541.546V626.402C758.812 639.979 752.024 653.556 738.446 662.042L667.167 704.47C655.287 711.258 640.013 711.258 626.436 704.47L553.46 662.042C541.58 655.253 533.094 641.676 533.094 626.402V572.094L468.603 609.431V665.436C468.603 679.013 475.392 692.59 488.969 701.075L626.436 780.84C638.316 787.629 653.59 787.629 667.167 780.84L804.634 701.075C816.514 694.287 825 680.71 825 665.436V504.209C825 490.632 818.211 477.055 804.634 468.569L667.167 388.804Z" fill="white"/>
</svg>
