<svg width="1000" height="1000" viewBox="0 0 1000 1000" fill="none" xmlns="http://www.w3.org/2000/svg">
  <path fill-rule="evenodd" clip-rule="evenodd" d="M999.073 553.208C999.073 557.946 997.977 562.449 995.897 566.358L781.89 937.028C772.814 952.748 756.041 962.432 737.889 962.432H262.339C244.187 962.432 227.414 952.748 218.338 937.028L4.31135 566.322C2.23757 562.42 1.15479 557.938 1.15479 553.208C1.15479 537.866 13.592 525.429 28.9341 525.429H263.74L323.246 626.503L323.611 627.107C331.552 639.857 348.26 644.013 361.278 636.349L361.952 635.939C367.954 632.173 372.299 626.247 374.079 619.367L449.902 326.249L515.008 798.152L515.106 798.81C517.511 813.656 531.345 823.941 546.323 821.874L547.003 821.772C557.848 820.003 566.658 811.992 569.42 801.313L660.815 448.001L698.341 511.743L698.714 512.357C703.778 520.474 712.68 525.429 722.28 525.429H971.294C986.636 525.429 999.073 537.866 999.073 553.208ZM737.889 37.1401C756.041 37.1401 772.814 46.8241 781.89 62.5442L995.91 433.232C997.98 437.136 999.073 441.637 999.073 446.364C999.073 461.707 986.636 474.144 971.294 474.144H735.719L676.213 373.069L675.804 372.395C672.037 366.393 666.111 362.048 659.231 360.268L658.585 360.109C643.941 356.686 629.167 365.567 625.38 380.205L549.555 673.321L484.451 201.42L484.349 200.74C482.579 189.895 474.569 181.085 463.889 178.323C449.036 174.48 433.881 183.407 430.038 198.26L338.641 551.569L301.118 487.83L300.745 487.215C295.681 479.099 286.779 474.144 277.179 474.144H28.9341C13.592 474.144 1.15479 461.707 1.15479 446.364C1.15479 441.673 2.2085 437.237 4.24407 433.358L218.338 62.5442C227.414 46.8241 244.187 37.1401 262.339 37.1401H737.889Z" fill="url(#paint0_linear_4390_27542)"/>
  <defs>
    <linearGradient id="paint0_linear_4390_27542" x1="761.831" y1="106.161" x2="292.582" y2="925.38" gradientUnits="userSpaceOnUse">
      <stop stop-color="#00EAFF"/>
      <stop offset="0.252531" stop-color="#0080FF"/>
      <stop offset="0.497394" stop-color="#8000FF"/>
      <stop offset="0.749912" stop-color="#E619E6"/>
      <stop offset="0.999136" stop-color="#FF0000"/>
    </linearGradient>
  </defs>
</svg>
